<?xml version="1.0" standalone="no"?>
<!DOCTYPE svg PUBLIC "-//W3C//DTD SVG 1.1//EN" "http://www.w3.org/Graphics/SVG/1.1/DTD/svg11.dtd" >
<svg xmlns="http://www.w3.org/2000/svg" xmlns:xlink="http://www.w3.org/1999/xlink" version="1.1">
<metadata>
Created by FontForge 20170731 at Mon Aug  1 19:02:45 2022
 By Aleksey,,,
(c) 2010 Klim Type Foundry. All rights reserved.
</metadata>
<defs>
<font id="FoundersGrotesk-Light" horiz-adv-x="1024" >
  <font-face 
    font-family="Founders Grotesk Light"
    font-weight="300"
    font-stretch="normal"
    units-per-em="2048"
    panose-1="2 11 3 3 3 2 2 6 2 3"
    ascent="1290"
    descent="-758"
    x-height="889"
    cap-height="1290"
    bbox="-143 -381 2234 1892"
    underline-thickness="81"
    underline-position="-224"
    unicode-range="U+0020-FB04"
  />
<missing-glyph horiz-adv-x="1245" 
 />
    <glyph glyph-name="ff" unicode="ff" horiz-adv-x="1083" 
d="M682 797h-399v-797h-125v797h-138v92h138v115q0 131 76.5 210.5t197.5 79.5q115 0 209 -65l-41 -86q-74 55 -160 55q-78 0 -117.5 -50.5t-39.5 -143.5v-115h399v125q0 135 73.5 218t205.5 83q110 0 172 -48t94 -149l-92 -35q-18 63 -63 101.5t-111 38.5q-77 0 -115.5 -50
t-38.5 -143v-141h256v-92h-256v-797h-125v797z" />
    <glyph glyph-name="fi" unicode="fi" horiz-adv-x="929" 
d="M158 797h-138v92h138v80q0 160 83.5 253t237.5 93q124 0 197.5 -53t109.5 -162l-106 -39q-21 69 -73 111t-128 42q-92 0 -144 -58t-52 -169v-98h524v-889h-125v797h-399v-797h-125v797z" />
    <glyph glyph-name="fl" unicode="fl" horiz-adv-x="929" 
d="M604 1262l-41 -86q-55 43 -127 43q-153 0 -153 -195v-135h256v-92h-256v-797h-125v797h-138v92h138v135q0 133 72.5 212t197.5 79q99 0 176 -53zM682 1290h125v-1290h-125v1290z" />
    <glyph glyph-name="ffi" unicode="ffi" horiz-adv-x="1454" 
d="M682 797h-399v-797h-125v797h-138v92h138v115q0 131 76.5 210.5t197.5 79.5q115 0 209 -65l-41 -86q-74 55 -160 55q-78 0 -117.5 -50.5t-39.5 -143.5v-115h399v80q0 160 84 253t238 93q124 0 197.5 -53t109.5 -162l-107 -39q-21 69 -72.5 111t-127.5 42
q-92 0 -144.5 -58t-52.5 -169v-98h524v-889h-125v797h-399v-797h-125v797z" />
    <glyph glyph-name="ffl" unicode="ffl" horiz-adv-x="1454" 
d="M682 797h-399v-797h-125v797h-138v92h138v115q0 131 76.5 210.5t197.5 79.5q115 0 209 -65l-41 -86q-74 55 -160 55q-78 0 -117.5 -50.5t-39.5 -143.5v-115h399v135q0 133 72.5 212t197.5 79q99 0 176 -53l-41 -86q-55 43 -126 43q-78 0 -116 -51t-38 -144v-135h256v-92
h-256v-797h-125v797zM1206 1290h125v-1290h-125v1290z" />
    <glyph glyph-name="f_b" unicode="fb" horiz-adv-x="1609" 
d="M803 475v-61q0 -155 89.5 -245.5t225.5 -90.5q140 0 218.5 98t78.5 268t-78.5 268.5t-218.5 98.5q-136 0 -225.5 -90.5t-89.5 -245.5zM807 195l-31 -195h-94v1290h125v-598q32 92 119 156.5t209 64.5q128 0 222.5 -63t141.5 -168t47 -238t-47 -238t-141.5 -168
t-222.5 -63q-122 0 -209 64t-119 156zM604 1262l-41 -86q-55 43 -127 43q-153 0 -153 -195v-135h256v-92h-256v-797h-125v797h-138v92h138v135q0 133 72.5 212t197.5 79q99 0 176 -53z" />
    <glyph glyph-name="f_f_b" unicode="ffb" horiz-adv-x="2134" 
d="M1327 475v-61q0 -155 89.5 -245.5t225.5 -90.5q140 0 218.5 98t78.5 268t-78.5 268.5t-218.5 98.5q-136 0 -225.5 -90.5t-89.5 -245.5zM1331 195l-31 -195h-94v1290h125v-598q32 92 119 156.5t209 64.5q128 0 223 -63t142 -168t47 -238t-47 -238t-142 -168t-223 -63
q-122 0 -209 64t-119 156zM682 797h-399v-797h-125v797h-138v92h138v115q0 131 76.5 210.5t197.5 79.5q115 0 209 -65l-41 -86q-74 55 -160 55q-78 0 -117.5 -50.5t-39.5 -143.5v-115h399v135q0 133 72.5 212t197.5 79q99 0 176 -53l-41 -86q-55 43 -126 43q-78 0 -116 -51
t-38 -144v-135h256v-92h-256v-797h-125v797z" />
    <glyph glyph-name="f_h" unicode="fh" horiz-adv-x="1544" 
d="M807 532v-532h-125v1290h125v-565q32 82 116 135t183 53q165 0 245.5 -97t80.5 -265v-551h-125v555q0 121 -61 190.5t-173 69.5q-109 0 -187.5 -79t-78.5 -204zM604 1262l-41 -86q-55 43 -127 43q-153 0 -153 -195v-135h256v-92h-256v-797h-125v797h-138v92h138v135
q0 133 72.5 212t197.5 79q99 0 176 -53z" />
    <glyph glyph-name="f_f_h" unicode="ffh" horiz-adv-x="2068" 
d="M1331 532v-532h-125v1290h125v-565q32 82 116 135t183 53q165 0 245.5 -97t80.5 -265v-551h-125v555q0 121 -61 190.5t-173 69.5q-109 0 -187.5 -79t-78.5 -204zM682 797h-399v-797h-125v797h-138v92h138v115q0 131 76.5 210.5t197.5 79.5q115 0 209 -65l-41 -86
q-74 55 -160 55q-78 0 -117.5 -50.5t-39.5 -143.5v-115h399v135q0 133 72.5 212t197.5 79q99 0 176 -53l-41 -86q-55 43 -126 43q-78 0 -116 -51t-38 -144v-135h256v-92h-256v-797h-125v797z" />
    <glyph glyph-name="f_idieresis" unicode="f&#xef;" horiz-adv-x="929" 
d="M158 797h-138v92h138v125q0 135 73 218t205 83q109 0 172.5 -49.5t93.5 -147.5l-108 -41q-41 142 -158 142q-153 0 -153 -189v-141h524v-889h-125v797h-399v-797h-125v797zM805 1104v166h133v-166h-133z" />
    <glyph glyph-name="f_f_idieresis" unicode="ff&#xef;" horiz-adv-x="1454" 
d="M682 797h-399v-797h-125v797h-138v92h138v115q0 131 76.5 210.5t197.5 79.5q115 0 209 -65l-41 -86q-74 55 -160 55q-78 0 -117.5 -50.5t-39.5 -143.5v-115h399v125q0 135 73.5 218t205.5 83q109 0 172.5 -49.5t93.5 -147.5l-109 -41q-41 142 -157 142q-154 0 -154 -189
v-141h524v-889h-125v797h-399v-797h-125v797zM1329 1104v166h133v-166h-133z" />
    <glyph glyph-name="f_j" unicode="fj" horiz-adv-x="929" 
d="M682 -170v967h-399v-797h-125v797h-138v92h138v80q0 160 83.5 253t237.5 93q124 0 197.5 -53t109.5 -162l-106 -39q-21 69 -73 111t-128 42q-92 0 -144 -58t-52 -169v-98h524v-1039q0 -106 -52 -164.5t-157 -58.5t-182 66l39 82q71 -47 141 -47q86 0 86 102z" />
    <glyph glyph-name="f_f_j" unicode="ffj" horiz-adv-x="1454" 
d="M1206 -170v967h-399v-797h-125v797h-399v-797h-125v797h-138v92h138v115q0 131 76.5 210.5t197.5 79.5q115 0 209 -65l-41 -86q-74 55 -160 55q-78 0 -117.5 -50.5t-39.5 -143.5v-115h399v80q0 160 84 253t238 93q124 0 197.5 -53t109.5 -162l-107 -39q-21 69 -72.5 111
t-127.5 42q-92 0 -144.5 -58t-52.5 -169v-98h524v-1039q0 -106 -52 -164.5t-157 -58.5t-182 66l39 82q71 -47 141 -47q86 0 86 102z" />
    <glyph glyph-name="f_k" unicode="fk" horiz-adv-x="1501" 
d="M807 334v-334h-125v1290h125v-831l489 430h164l-422 -369l443 -520h-152l-383 451zM604 1262l-41 -86q-55 43 -127 43q-153 0 -153 -195v-135h256v-92h-256v-797h-125v797h-138v92h138v135q0 133 72.5 212t197.5 79q99 0 176 -53z" />
    <glyph glyph-name="f_f_k" unicode="ffk" horiz-adv-x="2025" 
d="M1331 334v-334h-125v1290h125v-831l490 430h164l-422 -369l442 -520h-152l-383 451zM682 797h-399v-797h-125v797h-138v92h138v115q0 131 76.5 210.5t197.5 79.5q115 0 209 -65l-41 -86q-74 55 -160 55q-78 0 -117.5 -50.5t-39.5 -143.5v-115h399v135q0 133 72.5 212
t197.5 79q99 0 176 -53l-41 -86q-55 43 -126 43q-78 0 -116 -51t-38 -144v-135h256v-92h-256v-797h-125v797z" />
    <glyph glyph-name=".notdef" horiz-adv-x="1245" 
 />
    <glyph glyph-name=".null" horiz-adv-x="0" 
 />
    <glyph glyph-name="nonmarkingreturn" horiz-adv-x="682" 
 />
    <glyph glyph-name="space" unicode=" " horiz-adv-x="368" 
 />
    <glyph glyph-name="exclam" unicode="!" horiz-adv-x="368" 
d="M102 0v164h164v-164h-164zM117 1290h135v-368l-45 -611h-45l-45 611v368z" />
    <glyph glyph-name="quotedbl" unicode="&#x22;" horiz-adv-x="546" 
d="M102 854v436h113v-436h-113zM332 854v436h112v-436h-112z" />
    <glyph glyph-name="numbersign" unicode="#" horiz-adv-x="1241" 
d="M1112 438l-16 -96h-262l-82 -342h-115l82 342h-340l-82 -342h-115l82 342h-223l16 96h230l98 416h-256l16 96h263l81 340h115l-82 -340h340l82 340h115l-82 -340h223l-16 -96h-230l-98 -416h256zM500 854l-99 -416h340l99 416h-340z" />
    <glyph glyph-name="dollar" unicode="$" horiz-adv-x="1103" 
d="M45 463l115 10q6 -169 99 -271.5t245 -121.5v516l-113 22q-142 29 -224.5 113.5t-82.5 224.5q0 160 112.5 258t307.5 101v184h100v-190q190 -25 296 -144t106 -313l-117 -10q-3 151 -77.5 245t-207.5 119v-510l86 -16q174 -35 258 -113t84 -227q0 -161 -119 -258
t-309 -105v-188h-100v191q-206 18 -332.5 144.5t-126.5 338.5zM649 567l-45 8v-499q138 8 220.5 75t82.5 179q0 98 -60.5 153.5t-197.5 83.5zM205 961q0 -104 64 -157t198 -79l37 -8v497q-146 -3 -222.5 -68.5t-76.5 -184.5z" />
    <glyph glyph-name="percent" unicode="%" horiz-adv-x="1464" 
d="M186 981q0 -124 44.5 -183t123.5 -59t123.5 59t44.5 183t-44.5 183t-123.5 59t-123.5 -59t-44.5 -183zM61 981q0 153 82.5 243.5t210.5 90.5t210.5 -90.5t82.5 -243.5t-82.5 -243.5t-210.5 -90.5t-210.5 90.5t-82.5 243.5zM1278 309q0 124 -44.5 183t-123.5 59
t-123.5 -59t-44.5 -183t44.5 -182.5t123.5 -58.5t123.5 58.5t44.5 182.5zM1116 1290l-655 -1290h-113l656 1290h112zM1403 309q0 -153 -82.5 -243.5t-210.5 -90.5t-210.5 90.5t-82.5 243.5t82.5 243.5t210.5 90.5t210.5 -90.5t82.5 -243.5z" />
    <glyph glyph-name="ampersand" unicode="&#x26;" horiz-adv-x="1243" 
d="M1032 649l107 -8q-61 -255 -209 -432q57 -62 105 -91.5t108 -29.5q61 0 100 10v-86q-55 -28 -121 -28q-72 0 -132 33t-136 112q-175 -154 -389 -154q-173 0 -288.5 96t-115.5 255q0 87 37.5 158.5t96 121t149.5 99.5q-67 81 -102 151.5t-35 151.5q0 135 87.5 221
t231.5 86q141 0 219 -77.5t78 -203.5q0 -77 -38.5 -141t-101 -110t-163.5 -97l344 -401v-2q123 147 168 366zM465 80q179 0 321 123l-30 35l-348 393q-113 -59 -166.5 -126t-53.5 -177q0 -111 78.5 -179.5t198.5 -68.5zM324 1008q0 -35 9.5 -67t31.5 -65.5t39 -55t51 -60.5
q145 68 200.5 125.5t55.5 150.5q0 75 -47.5 129t-137.5 54q-88 0 -145 -55t-57 -156z" />
    <glyph glyph-name="quotesingle" unicode="'" horiz-adv-x="317" 
d="M102 854v436h113v-436h-113z" />
    <glyph glyph-name="parenleft" unicode="(" horiz-adv-x="559" 
d="M82 590q0 211 74 412.5t209 349.5h133q-151 -173 -214 -361.5t-63 -400.5t63 -400.5t214 -361.5h-133q-135 148 -209 349.5t-74 412.5z" />
    <glyph glyph-name="parenright" unicode=")" horiz-adv-x="559" 
d="M477 590q0 -212 -73.5 -413t-208.5 -349h-134q151 173 214 361.5t63 400.5t-63 400.5t-214 361.5h134q135 -148 208.5 -349t73.5 -413z" />
    <glyph glyph-name="asterisk" unicode="*" horiz-adv-x="722" 
d="M31 1038l32 90l250 -86v273h97v-273l254 91l28 -93l-256 -79l162 -218l-80 -55l-156 215l-155 -219l-76 59l158 213z" />
    <glyph glyph-name="plus" unicode="+" horiz-adv-x="1269" 
d="M582 1159h106v-467h465v-106h-465v-465h-106v465h-465v106h465v467z" />
    <glyph glyph-name="comma" unicode="," horiz-adv-x="327" 
d="M82 0v164h164v-166q0 -54 -5 -87t-21.5 -63t-50 -43.5t-87.5 -13.5v84q52 4 66 28.5t14 96.5h-80z" />
    <glyph glyph-name="hyphen" unicode="-" horiz-adv-x="696" 
d="M123 465v113h450v-113h-450z" />
    <glyph glyph-name="period" unicode="." horiz-adv-x="327" 
d="M82 0v164h164v-164h-164z" />
    <glyph glyph-name="slash" unicode="/" horiz-adv-x="620" 
d="M-41 -170l533 1520h120l-532 -1520h-121z" />
    <glyph glyph-name="zero" unicode="0" horiz-adv-x="1187" 
d="M1116 645q0 -321 -136 -495.5t-386 -174.5t-386 174.5t-136 495.5t136 495.5t386 174.5t386 -174.5t136 -495.5zM981 645q0 565 -387 565t-387 -565t387 -565t387 565z" />
    <glyph glyph-name="one" unicode="1" horiz-adv-x="555" 
d="M20 1022v82q131 0 196.5 45.5t102.5 150.5h72v-1300h-129v1022h-242z" />
    <glyph glyph-name="two" unicode="2" 
d="M266 115h723v-115h-934v61l367 324q54 47 76 67t68.5 62.5t67 66t54 62t49 67t33 65t24.5 72t7 73.5q0 132 -75 211t-214 79q-147 0 -228 -86.5t-81 -244.5q0 -61 14 -121l-131 8q-12 62 -12 121q0 196 118.5 312t319.5 116q108 0 191 -30.5t133 -84.5t75 -123t25 -151
q0 -68 -26.5 -138.5t-62.5 -126t-96.5 -120t-106 -105.5t-112.5 -98z" />
    <glyph glyph-name="three" unicode="3" horiz-adv-x="1042" 
d="M858 348q0 118 -88 185t-227 67q-69 0 -131 -8v117q54 -7 131 -7q60 0 110 12.5t92 39.5t65.5 76.5t23.5 117.5q0 119 -78.5 190.5t-225.5 71.5q-153 0 -241 -93t-88 -263l-127 6q0 202 124 328.5t332 126.5q205 0 319 -98t114 -261q0 -120 -76.5 -204.5t-177.5 -100.5
q119 -15 198.5 -101t79.5 -212q0 -159 -122.5 -261t-329.5 -102q-225 0 -355.5 122.5t-130.5 336.5l127 -8q4 -168 100 -257t261 -89q148 0 234.5 70t86.5 198z" />
    <glyph glyph-name="four" unicode="4" horiz-adv-x="1095" 
d="M850 1290v-821h235v-104h-235v-365h-127v365h-690v124l657 801h160zM723 1171l-578 -702h578v702z" />
    <glyph glyph-name="five" unicode="5" horiz-adv-x="1073" 
d="M928 1290v-121h-637q-2 -58 -21.5 -234t-31.5 -228q51 67 136.5 109t194.5 42q209 0 326 -124t117 -308q0 -198 -127 -324.5t-334 -126.5q-226 0 -352 133.5t-115 350.5l129 -13q-2 -169 86 -268.5t256 -99.5q153 0 239.5 93.5t86.5 252.5q0 144 -88.5 235t-237.5 91
q-112 0 -193.5 -53t-123.5 -134l-132 8q27 148 52.5 359t29.5 360h740z" />
    <glyph glyph-name="six" unicode="6" horiz-adv-x="1114" 
d="M596 1212q-108 0 -189 -48t-130 -136t-71.5 -205t-19.5 -262q33 135 138.5 220t271.5 85q207 0 331 -123t124 -319q0 -200 -125 -324.5t-338 -124.5q-249 0 -382.5 171t-133.5 468q0 155 32 282t95 221t164.5 146t232.5 52q188 0 306.5 -103.5t133.5 -281.5l-125 -6
q-46 288 -315 288zM236 420q0 -153 95 -245.5t257 -92.5q157 0 246.5 92t89.5 246q0 155 -90.5 245.5t-253.5 90.5t-253.5 -90.5t-90.5 -245.5z" />
    <glyph glyph-name="seven" unicode="7" horiz-adv-x="970" 
d="M778 1171h-737v119h889v-63q-154 -163 -256.5 -367.5t-148.5 -416.5t-48 -443h-139q4 344 123.5 655t316.5 516z" />
    <glyph glyph-name="eight" unicode="8" horiz-adv-x="1060" 
d="M530 1217q-136 0 -217.5 -68.5t-81.5 -198.5q0 -121 82 -188.5t217 -67.5t217 67.5t82 188.5q0 130 -81.5 198.5t-217.5 68.5zM530 592q-164 0 -250.5 -64.5t-86.5 -189.5t87.5 -194.5t249.5 -69.5t250 69.5t88 194.5t-87 189.5t-251 64.5zM530 -25q-220 0 -347.5 98.5
t-127.5 266.5q0 121 80.5 204t192.5 103q-105 36 -165.5 116.5t-60.5 192.5q0 164 120.5 261.5t307.5 97.5t307.5 -97.5t120.5 -261.5q0 -112 -60 -192.5t-165 -116.5q112 -20 192.5 -103t80.5 -204q0 -168 -128 -266.5t-348 -98.5z" />
    <glyph glyph-name="nine" unicode="9" horiz-adv-x="1114" 
d="M518 78q108 0 189 48t130 136t71.5 205t19.5 262q-33 -135 -138.5 -220t-271.5 -85q-207 0 -331 123t-124 319q0 200 125 324.5t338 124.5q249 0 382.5 -171t133.5 -468q0 -155 -32 -282t-95 -221t-164.5 -146t-232.5 -52q-188 0 -306.5 103.5t-133.5 281.5l125 7
q21 -135 98 -212t217 -77zM879 870q0 153 -95.5 245.5t-257.5 92.5q-157 0 -246.5 -92t-89.5 -246q0 -155 91 -245t254 -90t253.5 90t90.5 245z" />
    <glyph glyph-name="colon" unicode=":" horiz-adv-x="327" 
d="M82 0v164h164v-164h-164zM82 678v164h164v-164h-164z" />
    <glyph glyph-name="semicolon" unicode=";" horiz-adv-x="327" 
d="M82 0v164h164v-166q0 -54 -5 -87t-21.5 -63t-50 -43.5t-87.5 -13.5v84q52 4 66 28.5t14 96.5h-80zM82 678v164h164v-164h-164z" />
    <glyph glyph-name="less" unicode="&#x3c;" horiz-adv-x="942" 
d="M88 571v129l791 449v-125l-695 -389l695 -387v-127z" />
    <glyph glyph-name="equal" unicode="=" horiz-adv-x="1292" 
d="M127 432v109h1038v-109h-1038zM127 729v109h1038v-109h-1038z" />
    <glyph glyph-name="greater" unicode="&#x3e;" horiz-adv-x="942" 
d="M854 700v-129l-791 -450v127l693 387l-693 389v125z" />
    <glyph glyph-name="question" unicode="?" horiz-adv-x="978" 
d="M526 319h-116q0 92 34.5 156t120.5 133q7 6 33 27t35 28.5t32 28t32.5 32.5t26.5 32.5t24.5 38.5t17 41t13 48t3.5 52q0 122 -72.5 198t-209.5 76q-147 0 -228.5 -86.5t-81.5 -244.5q0 -57 15 -121l-131 8q-13 67 -13 121q0 196 119 312t320 116q108 0 190 -30.5
t131 -83.5t73 -120t24 -145q0 -53 -16 -102.5t-39 -87t-64.5 -81.5t-75.5 -73t-90 -74q-61 -50 -84 -92t-23 -107zM379 0v164h164v-164h-164z" />
    <glyph glyph-name="at" unicode="@" horiz-adv-x="1546" 
d="M1130 170q107 0 175.5 98.5t68.5 292.5q0 223 -143 363.5t-389 140.5q-195 0 -346.5 -86.5t-233.5 -240t-82 -347.5q0 -132 47.5 -242t130 -184t193 -114.5t235.5 -40.5q234 0 422 92l43 -72q-195 -117 -467 -117q-149 0 -278 45.5t-226 130.5t-152.5 215.5t-55.5 290.5
q0 162 55 303t154 243.5t244 161t317 58.5q149 0 271 -45t203 -125t125 -190t44 -240q0 -98 -20 -179.5t-54.5 -138.5t-81.5 -96.5t-100.5 -58t-112.5 -18.5q-79 0 -127 41.5t-61 107.5q-38 -68 -107 -108.5t-155 -40.5q-120 0 -191.5 76t-71.5 208q0 81 26.5 160t74.5 144
t123 105t164 40q84 0 145.5 -37.5t83.5 -97.5l33 118h121l-125 -493q-17 -67 4 -95t77 -28zM954 412l15 53q26 105 -22.5 174.5t-145.5 69.5q-118 0 -192 -109t-74 -248q0 -91 37.5 -134.5t115.5 -43.5q86 0 160.5 62t105.5 176z" />
    <glyph glyph-name="A" unicode="A" horiz-adv-x="1275" 
d="M561 1290h139l545 -1290h-137l-174 416h-610l-166 -416h-127zM621 1151l-252 -627h520l-260 627h-8z" />
    <glyph glyph-name="B" unicode="B" horiz-adv-x="1185" 
d="M1108 354q0 -169 -118.5 -261.5t-342.5 -92.5h-514v1290h498q227 0 333.5 -90.5t106.5 -249.5q0 -111 -70 -186t-178 -94q128 -21 206.5 -102t78.5 -214zM657 616h-399v-507h399q158 0 242 65.5t84 185.5q0 122 -84.5 189t-241.5 67zM258 1182v-461h393q293 0 293 229
q0 109 -72.5 170.5t-220.5 61.5h-393z" />
    <glyph glyph-name="C" unicode="C" horiz-adv-x="1361" 
d="M72 645q0 195 83 348.5t225.5 237.5t317.5 84q265 0 419.5 -150t172.5 -405l-125 -6q-9 201 -133.5 326.5t-333.5 125.5q-216 0 -353.5 -152.5t-137.5 -408.5t137.5 -408.5t353.5 -152.5q209 0 333.5 125.5t133.5 327.5l125 -7q-18 -255 -172.5 -405t-419.5 -150
q-175 0 -317.5 84t-225.5 237.5t-83 348.5z" />
    <glyph glyph-name="D" unicode="D" horiz-adv-x="1310" 
d="M262 109h320q253 0 387.5 141t134.5 395q0 255 -134.5 396t-387.5 141h-320v-1073zM133 0v1290h455q301 0 476 -172t175 -473t-175 -473t-476 -172h-455z" />
    <glyph glyph-name="E" unicode="E" horiz-adv-x="1107" 
d="M1026 109v-109h-893v1290h875v-108h-750v-459h600v-109h-600v-505h768z" />
    <glyph glyph-name="F" unicode="F" horiz-adv-x="1038" 
d="M260 0h-127v1290h854v-108h-727v-480h578v-108h-578v-594z" />
    <glyph glyph-name="G" unicode="G" horiz-adv-x="1402" 
d="M700 -25q-136 0 -252 48.5t-199 135.5t-130 212.5t-47 273.5q0 195 82 348.5t223.5 237.5t316.5 84q267 0 420 -141t170 -394l-125 -8q-9 199 -131.5 316.5t-333.5 117.5q-215 0 -351 -153.5t-136 -409.5t138.5 -407.5t361.5 -151.5q205 0 327 120t133 314h-422v109h537
v-627h-121v254q-39 -129 -168.5 -204t-292.5 -75z" />
    <glyph glyph-name="H" unicode="H" horiz-adv-x="1331" 
d="M262 0h-129v1290h129v-567h807v567h129v-1290h-129v614h-807v-614z" />
    <glyph glyph-name="I" unicode="I" horiz-adv-x="395" 
d="M133 1290h129v-1290h-129v1290z" />
    <glyph glyph-name="J" unicode="J" horiz-adv-x="1013" 
d="M772 1290h129v-858q0 -221 -114.5 -339t-315.5 -118q-196 0 -315 116.5t-129 334.5l120 10q12 -169 95.5 -262.5t232.5 -93.5q297 0 297 348v862z" />
    <glyph glyph-name="K" unicode="K" horiz-adv-x="1163" 
d="M1163 0h-159l-580 639l-162 -160v-479h-129v1290h129v-669l672 669h158l-572 -571z" />
    <glyph glyph-name="L" unicode="L" horiz-adv-x="1054" 
d="M133 1290h129v-1181h742v-109h-871v1290z" />
    <glyph glyph-name="M" unicode="M" horiz-adv-x="1497" 
d="M807 0h-109l-434 1167h-8v-1167h-123v1290h213l412 -1116h6l389 1116h211v-1290h-131v1167h-8z" />
    <glyph glyph-name="N" unicode="N" horiz-adv-x="1294" 
d="M276 1290l762 -1063v1063h123v-1290h-102l-803 1112v-1112h-123v1290h143z" />
    <glyph glyph-name="O" unicode="O" horiz-adv-x="1409" 
d="M1337 645q0 -298 -175 -484t-457 -186t-457.5 186t-175.5 484t175.5 484t457.5 186t457 -186t175 -484zM1202 645q0 257 -135 409t-362 152t-362.5 -152.5t-135.5 -408.5t135.5 -408.5t362.5 -152.5t362 152t135 409z" />
    <glyph glyph-name="P" unicode="P" horiz-adv-x="1118" 
d="M260 612h313q181 0 274 73.5t93 211.5t-93 211.5t-274 73.5h-313v-570zM260 504v-504h-127v1290h440q235 0 364.5 -104.5t129.5 -288.5t-129.5 -288.5t-364.5 -104.5h-313z" />
    <glyph glyph-name="Q" unicode="Q" horiz-adv-x="1409" 
d="M1337 645q0 -281 -159 -467l131 -143l-80 -72l-131 139q-161 -127 -393 -127q-282 0 -457.5 186t-175.5 484t175.5 484t457.5 186t457 -186t175 -484zM1202 645q0 257 -135 409t-362 152t-362.5 -152.5t-135.5 -408.5t135.5 -408.5t362.5 -152.5q191 0 315 100l-152 164
l84 74l144 -158q106 142 106 381z" />
    <glyph glyph-name="R" unicode="R" horiz-adv-x="1204" 
d="M1122 0h-139q-38 53 -53 291q-14 254 -268 254h-402v-545h-127v1290h488q238 0 359.5 -99.5t121.5 -272.5q0 -142 -84.5 -223.5t-212.5 -96.5q233 -44 252 -285q14 -162 24.5 -221.5t40.5 -91.5zM260 651h365q344 0 344 267q0 125 -85 194.5t-259 69.5h-365v-531z" />
    <glyph glyph-name="S" unicode="S" horiz-adv-x="1124" 
d="M45 463l117 10q7 -188 122 -292.5t296 -104.5q161 0 253.5 67.5t92.5 186.5q0 98 -62 153.5t-202 83.5l-263 51q-311 63 -311 330q0 162 120.5 264.5t321.5 102.5q235 0 367.5 -122.5t132.5 -340.5l-119 -10q-3 177 -102.5 274.5t-276.5 97.5q-152 0 -235.5 -69.5
t-83.5 -192.5q0 -103 62 -150.5t200 -74.5l230 -45q176 -35 260 -114t84 -228q0 -168 -130.5 -266.5t-338.5 -98.5q-155 0 -275 56t-190 167.5t-70 264.5z" />
    <glyph glyph-name="T" unicode="T" horiz-adv-x="1171" 
d="M647 0h-129v1182h-477v108h1089v-108h-483v-1182z" />
    <glyph glyph-name="U" unicode="U" horiz-adv-x="1236" 
d="M618 -25q-86 0 -160 17t-138.5 55t-109.5 96.5t-71 146t-26 197.5v803h129v-821q0 -191 97.5 -288t278.5 -97q182 0 281.5 97t99.5 286v823h125v-803q0 -110 -26 -197.5t-71.5 -146t-110 -96.5t-138.5 -55t-160 -17z" />
    <glyph glyph-name="V" unicode="V" horiz-adv-x="1257" 
d="M700 0h-143l-526 1290h133l467 -1149h8l455 1149h133z" />
    <glyph glyph-name="W" unicode="W" horiz-adv-x="1622" 
d="M874 1290l308 -1147h8l280 1147h121l-327 -1290h-162l-285 1090h-8l-289 -1090h-162l-327 1290h125l286 -1140h9l301 1140h122z" />
    <glyph glyph-name="X" unicode="X" horiz-adv-x="1206" 
d="M1126 1290l-452 -614l502 -676h-154l-424 569l-420 -569h-147l499 666l-454 624h153l375 -524l377 524h145z" />
    <glyph glyph-name="Y" unicode="Y" horiz-adv-x="1196" 
d="M606 629l422 661h137l-506 -780v-510h-122v510l-506 780h141z" />
    <glyph glyph-name="Z" unicode="Z" horiz-adv-x="1128" 
d="M227 109h840v-109h-1006v86l820 1096h-809v108h972v-92z" />
    <glyph glyph-name="bracketleft" unicode="[" horiz-adv-x="542" 
d="M256 1249v-1319h184v-102h-307v1524h307v-103h-184z" />
    <glyph glyph-name="backslash" unicode="\" horiz-adv-x="620" 
d="M129 1350l533 -1520h-121l-533 1520h121z" />
    <glyph glyph-name="bracketright" unicode="]" horiz-adv-x="542" 
d="M287 -70v1319h-185v103h308v-1524h-308v102h185z" />
    <glyph glyph-name="asciicircum" unicode="^" horiz-adv-x="753" 
d="M324 1290h106l303 -409h-133l-223 305l-223 -305h-134z" />
    <glyph glyph-name="underscore" unicode="_" horiz-adv-x="780" 
d="M41 -227v100h698v-100h-698z" />
    <glyph glyph-name="grave" unicode="`" 
d="M653 1040h-86l-198 250h174z" />
    <glyph glyph-name="a" unicode="a" horiz-adv-x="978" 
d="M688 403v56l-217 -47q-139 -30 -200.5 -67.5t-61.5 -119.5q0 -67 44 -110t128 -43q132 0 219.5 92t87.5 239zM807 578v-428q0 -34 19.5 -52t54.5 -18q41 0 80 22v-67q-23 -26 -49 -39.5t-68 -13.5q-66 0 -109.5 52t-46.5 136q-37 -81 -128.5 -138t-201.5 -57
q-126 0 -201 66t-75 180q0 61 25.5 108t77 79.5t114.5 54t152 39.5l237 49v45q0 102 -57.5 160.5t-161.5 58.5q-102 0 -165.5 -53.5t-88.5 -145.5l-106 21q27 124 122 200t236 76q166 0 253 -85.5t87 -249.5z" />
    <glyph glyph-name="b" unicode="b" horiz-adv-x="1050" 
d="M244 475v-61q0 -155 89.5 -245.5t225.5 -90.5q140 0 218.5 98t78.5 268t-78.5 268.5t-218.5 98.5q-136 0 -225.5 -90.5t-89.5 -245.5zM248 195l-31 -195h-94v1290h125v-598q32 92 118.5 156.5t208.5 64.5q128 0 223 -63t142 -168t47 -238t-47 -238t-142 -168t-223 -63
q-122 0 -208.5 64t-118.5 156z" />
    <glyph glyph-name="c" unicode="c" horiz-adv-x="989" 
d="M63 444q0 211 125 340t324 129q186 0 293.5 -109.5t120.5 -279.5l-115 -8q-9 132 -88 212.5t-215 80.5q-140 0 -226.5 -100.5t-86.5 -264.5t86.5 -264t226.5 -100q135 0 214.5 82.5t88.5 214.5l115 -12q-13 -170 -120.5 -280t-293.5 -110q-199 0 -324 129t-125 340z" />
    <glyph glyph-name="d" unicode="d" horiz-adv-x="1050" 
d="M807 414v61q0 155 -89.5 245.5t-225.5 90.5q-140 0 -218.5 -98.5t-78.5 -268.5t78.5 -268t218.5 -98q136 0 225.5 90.5t89.5 245.5zM803 0v195q-32 -92 -119 -156t-209 -64q-128 0 -223 63t-142 168t-47 238t47 238t142 168t223 63q122 0 209 -64.5t119 -156.5v598h125
v-1290h-125z" />
    <glyph glyph-name="e" unicode="e" horiz-adv-x="987" 
d="M815 317l107 -14q-33 -154 -140 -241t-268 -87q-196 0 -323.5 127t-127.5 330q0 209 126.5 345t316.5 136q135 0 231.5 -61t141.5 -159t45 -222v-57h-731q6 -147 97 -241.5t224 -94.5q245 0 301 239zM195 502h596q-3 132 -77 222.5t-208 90.5q-127 0 -211 -91t-100 -222z
" />
    <glyph glyph-name="f" unicode="f" horiz-adv-x="559" 
d="M158 797h-138v92h138v125q0 135 73 218t205 83q110 0 172 -48t94 -149l-92 -35q-18 63 -63 101.5t-111 38.5q-77 0 -115 -50t-38 -143v-141h256v-92h-256v-797h-125v797z" />
    <glyph glyph-name="g" unicode="g" horiz-adv-x="962" 
d="M827 612q0 -138 -100.5 -219.5t-259.5 -81.5q-116 0 -195 39q-31 -15 -52 -42t-21 -60q0 -43 26.5 -63.5t89.5 -20.5h344q139 0 215 -65t76 -171q0 -64 -27 -115.5t-73.5 -85.5t-111 -57t-136 -33t-151.5 -10q-121 0 -216.5 26.5t-155 83.5t-59.5 136t50.5 130.5
t138.5 70.5q-115 35 -115 145q0 100 125 164q-110 80 -110 229q0 138 99.5 219.5t258.5 81.5q178 0 276 -98q36 56 93.5 88.5t126.5 32.5v-121q-109 0 -183 -43q47 -68 47 -160zM147 -96q0 -94 82 -140.5t222 -46.5q378 0 378 207q0 129 -198 129h-281q-203 0 -203 -149z
M700 610q0 103 -61.5 160t-171.5 57q-108 0 -168.5 -57.5t-60.5 -159.5q0 -101 61 -158t168 -57q110 0 171.5 57t61.5 158z" />
    <glyph glyph-name="h" unicode="h" horiz-adv-x="985" 
d="M248 532v-532h-125v1290h125v-565q32 82 116 135t183 53q165 0 245 -97t80 -265v-551h-124v555q0 121 -61 190.5t-173 69.5q-109 0 -187.5 -79t-78.5 -204z" />
    <glyph glyph-name="i" unicode="i" horiz-adv-x="370" 
d="M123 889h125v-889h-125v889zM119 1124v166h133v-166h-133z" />
    <glyph glyph-name="j" unicode="j" horiz-adv-x="370" 
d="M248 889v-1039q0 -106 -52 -164.5t-157 -58.5t-182 66l39 82q71 -47 141 -47q86 0 86 102v1059h125zM119 1124v166h133v-166h-133z" />
    <glyph glyph-name="k" unicode="k" horiz-adv-x="942" 
d="M248 334v-334h-125v1290h125v-831l489 430h164l-422 -369l443 -520h-152l-383 451z" />
    <glyph glyph-name="l" unicode="l" horiz-adv-x="370" 
d="M123 1290h125v-1290h-125v1290z" />
    <glyph glyph-name="m" unicode="m" horiz-adv-x="1552" 
d="M829 717q36 87 115.5 141.5t181.5 54.5q163 0 238.5 -98.5t75.5 -263.5v-551h-125v555q0 122 -55.5 191t-163.5 69q-103 0 -177.5 -79t-74.5 -204v-532h-125v555q0 122 -55.5 191t-163.5 69q-103 0 -177.5 -79t-74.5 -204v-532h-125v889h125v-164q33 84 110 136t177 52
q115 0 189.5 -52t104.5 -144z" />
    <glyph glyph-name="n" unicode="n" horiz-adv-x="985" 
d="M248 532v-532h-125v889h125v-164q32 82 116 135t183 53q165 0 245 -97t80 -265v-551h-124v555q0 121 -61 190.5t-173 69.5q-109 0 -187.5 -79t-78.5 -204z" />
    <glyph glyph-name="o" unicode="o" horiz-adv-x="1017" 
d="M195 444q0 -166 83 -268t230 -102q148 0 231.5 102t83.5 268t-83.5 268.5t-231.5 102.5q-146 0 -229.5 -102.5t-83.5 -268.5zM954 444q0 -205 -127 -337t-319 -132q-191 0 -318 132t-127 337t127 337t318 132q192 0 319 -132t127 -337z" />
    <glyph glyph-name="p" unicode="p" horiz-adv-x="1050" 
d="M244 475v-61q0 -155 89.5 -245.5t225.5 -90.5q140 0 218.5 98t78.5 268t-78.5 268.5t-218.5 98.5q-136 0 -225.5 -90.5t-89.5 -245.5zM248 195v-543h-125v1237h125v-197q32 92 118.5 156.5t208.5 64.5q128 0 223 -63t142 -168t47 -238t-47 -238t-142 -168t-223 -63
q-122 0 -208.5 64t-118.5 156z" />
    <glyph glyph-name="q" unicode="q" horiz-adv-x="1050" 
d="M807 414v61q0 155 -89.5 245.5t-225.5 90.5q-140 0 -218.5 -98.5t-78.5 -268.5t78.5 -268t218.5 -98q136 0 225.5 90.5t89.5 245.5zM803 -348v543q-32 -92 -119 -156t-209 -64q-128 0 -223 63t-142 168t-47 238t47 238t142 168t223 63q122 0 209 -64.5t119 -156.5v197
h125v-1237h-125z" />
    <glyph glyph-name="r" unicode="r" horiz-adv-x="641" 
d="M631 872l-15 -108q-66 35 -135 35q-97 0 -165 -89.5t-68 -222.5v-487h-125v889h125v-187q29 86 97 148.5t159 62.5q80 0 127 -41z" />
    <glyph glyph-name="s" unicode="s" horiz-adv-x="870" 
d="M59 301l101 12q13 -115 89 -177t204 -62q106 0 169.5 39.5t63.5 115.5q0 69 -46 101t-148 51l-154 27q-252 44 -252 241q0 119 90.5 191.5t237.5 72.5q173 0 270 -81t107 -238l-97 -8q-17 119 -86 174t-194 55q-96 0 -153.5 -40.5t-57.5 -110.5q0 -64 39 -99t123 -49
l163 -27q140 -23 208.5 -78.5t68.5 -168.5q0 -126 -99 -196.5t-251 -70.5q-168 0 -277 83.5t-119 242.5z" />
    <glyph glyph-name="t" unicode="t" horiz-adv-x="595" 
d="M154 197v600h-138v61l54 10q58 11 79.5 41t36.5 101l27 127h63v-248h259v-92h-259v-602q0 -61 27 -90t88 -29q74 0 174 61v-88q-95 -74 -217 -74q-194 0 -194 222z" />
    <glyph glyph-name="u" unicode="u" horiz-adv-x="974" 
d="M727 356v533h125v-889h-125v164q-33 -83 -114.5 -136t-180.5 -53q-164 0 -241.5 97t-77.5 266v551h125v-555q0 -122 58 -191t169 -69q109 0 185.5 78t76.5 204z" />
    <glyph glyph-name="v" unicode="v" horiz-adv-x="894" 
d="M498 0h-101l-377 889h132l299 -721h8l293 721h122z" />
    <glyph glyph-name="w" unicode="w" horiz-adv-x="1265" 
d="M690 889l209 -721h8l219 721h119l-282 -889h-119l-207 709h-8l-205 -709h-119l-285 889h125l224 -721h8l205 721h108z" />
    <glyph glyph-name="x" unicode="x" horiz-adv-x="925" 
d="M858 889l-330 -422l377 -467h-151l-299 377l-295 -377h-140l367 461l-340 428h152l262 -334l258 334h139z" />
    <glyph glyph-name="y" unicode="y" horiz-adv-x="903" 
d="M371 -348h-123l149 354l-377 883h132l305 -731h8l295 731h123z" />
    <glyph glyph-name="z" unicode="z" horiz-adv-x="862" 
d="M625 788h-543v101h706v-86l-571 -703h586v-100h-740v86z" />
    <glyph glyph-name="braceleft" unicode="{" horiz-adv-x="571" 
d="M51 539v102h51q61 0 79 31t18 119v374q0 94 36.5 140.5t124.5 46.5h109v-103h-82q-33 0 -48 -18t-15 -57v-383q0 -85 -31 -136t-105 -65q74 -14 105 -65t31 -136v-383q0 -76 63 -76h82v-102h-109q-89 0 -125 46t-36 140v375q0 88 -18 119t-79 31h-51z" />
    <glyph glyph-name="bar" unicode="|" horiz-adv-x="380" 
d="M133 -170v1520h115v-1520h-115z" />
    <glyph glyph-name="braceright" unicode="}" horiz-adv-x="571" 
d="M520 641v-102h-51q-61 0 -78.5 -30.5t-17.5 -119.5v-375q0 -94 -36.5 -140t-125.5 -46h-109v102h82q64 0 64 76v383q0 85 30.5 136t104.5 65q-74 14 -104.5 65t-30.5 136v383q0 75 -64 75h-82v103h109q89 0 125.5 -46.5t36.5 -140.5v-374q0 -89 17.5 -119.5t78.5 -30.5
h51z" />
    <glyph glyph-name="asciitilde" unicode="~" horiz-adv-x="796" 
d="M190 426h-88q0 109 41.5 170t124.5 61q39 0 77.5 -20.5t65 -45t58.5 -45t59 -20.5q44 0 59.5 29.5t18.5 95.5h88q0 -109 -41.5 -170t-124.5 -61q-39 0 -77.5 20.5t-65 45t-58.5 45t-59 20.5q-44 0 -59.5 -29.5t-18.5 -95.5z" />
    <glyph glyph-name="exclamdown" unicode="&#xa1;" horiz-adv-x="368" 
d="M102 897v164h164v-164h-164zM252 -229h-135v368l45 611h45l45 -611v-368z" />
    <glyph glyph-name="cent" unicode="&#xa2;" horiz-adv-x="1013" 
d="M469 -203v183q-177 18 -291.5 144.5t-114.5 319.5q0 192 115 319t291 146v203h100v-201q170 -13 268 -120t111 -267l-112 -8q-9 120 -79 199t-188 92v-725q119 12 188 88.5t83 206.5l108 -12q-13 -160 -111 -267.5t-268 -120.5v-180h-100zM190 444q0 -148 75.5 -244.5
t203.5 -115.5v721q-128 -19 -203.5 -115.5t-75.5 -245.5z" />
    <glyph glyph-name="sterling" unicode="&#xa3;" horiz-adv-x="1128" 
d="M354 926q0 -98 45 -228h340v-98h-303q60 -166 60 -270q0 -33 -7 -80q10 -8 42 -33.5t45 -35t41.5 -29.5t47.5 -29t46.5 -20.5t54.5 -16t55 -4.5q164 0 164 254l111 -4q0 -163 -74.5 -260t-206.5 -97q-54 0 -103.5 13.5t-95 42t-75.5 52t-74 62.5q-63 -170 -234 -170
q-89 0 -147.5 49.5t-58.5 139.5q0 85 59.5 139.5t155.5 54.5q69 0 145 -39v11q0 114 -65 270h-203v98h160q-46 116 -46 228q0 175 101.5 282t283.5 107q186 0 294 -109.5t108 -304.5l-119 -6q0 156 -73.5 235.5t-209.5 79.5q-135 0 -199.5 -78t-64.5 -206zM236 63
q117 0 143 154q-77 53 -137 53q-54 0 -84.5 -27.5t-30.5 -78.5q0 -45 31 -73t78 -28z" />
    <glyph glyph-name="yen" unicode="&#xa5;" horiz-adv-x="1134" 
d="M158 557v98h282l-420 635h142l413 -635l402 635h137l-420 -635h283v-98h-348v-158h348v-98h-348v-301h-123v301h-348v98h348v158h-348z" />
    <glyph glyph-name="section" unicode="&#xa7;" horiz-adv-x="870" 
d="M829 485q0 -72 -43 -132t-112 -93q90 -74 90 -197q0 -110 -92 -185t-236 -75q-152 0 -254 83.5t-112 236.5l96 8q16 -113 93.5 -171t176.5 -58q96 0 154.5 39.5t58.5 119.5q0 55 -22.5 89t-87.5 63l-275 127q-112 51 -168.5 118.5t-56.5 174.5q0 70 43 130t111 93
q-89 76 -89 199q0 110 92 185t236 75q152 0 254.5 -83.5t112.5 -236.5l-97 -8q-16 113 -93.5 171.5t-176.5 58.5q-96 0 -154.5 -40t-58.5 -120q0 -55 23 -88.5t88 -63.5l274 -127q112 -51 168.5 -118.5t56.5 -174.5zM545 678l-252 117q-141 -45 -141 -162q0 -68 42 -109.5
t130 -83.5l249 -118q70 23 107 62t37 101q0 68 -42 109.5t-130 83.5z" />
    <glyph glyph-name="dieresis" unicode="&#xa8;" 
d="M317 1104v166h134v-166h-134zM571 1104v166h134v-166h-134z" />
    <glyph glyph-name="copyright" unicode="&#xa9;" horiz-adv-x="1482" 
d="M72 645q0 190 90 344.5t243 240t336 85.5t336 -85.5t243.5 -240t90.5 -344.5t-90.5 -344.5t-243.5 -240t-336 -85.5t-336 85.5t-243 240t-90 344.5zM358 643q0 178 110 292t273 114q164 0 259 -92t106 -246l-109 -6q-6 109 -72 175t-180 66q-118 0 -190 -81.5t-72 -221.5
q0 -138 72 -219.5t190 -81.5q114 0 180 66.5t72 175.5l109 -9q-11 -154 -106 -245.5t-259 -91.5q-163 0 -273 113.5t-110 291.5zM166 645q0 -164 77.5 -297t209 -206.5t288.5 -73.5t289 73.5t209.5 206.5t77.5 297q0 123 -45.5 231.5t-123.5 184t-183.5 119t-223.5 43.5
q-157 0 -288.5 -73.5t-209 -207t-77.5 -297.5z" />
    <glyph glyph-name="ordfeminine" unicode="&#xaa;" horiz-adv-x="772" 
d="M522 920v36l-155 -32q-97 -21 -140 -47.5t-43 -83.5q0 -47 31 -78t90 -31q93 0 155 66t62 170zM639 1055v-312q0 -53 53 -53q28 0 62 17v-66q-45 -41 -101 -41q-54 0 -89.5 38.5t-39.5 102.5q-29 -62 -96.5 -103.5t-151.5 -41.5q-98 0 -155.5 50t-57.5 138q0 91 70 138.5
t207 74.5l182 37v33q0 71 -40 112.5t-113 41.5q-72 0 -117.5 -38.5t-61.5 -103.5l-106 17q21 98 96 158.5t189 60.5q130 0 200 -66t70 -194z" />
    <glyph glyph-name="guillemotleft" unicode="&#xab;" horiz-adv-x="786" 
d="M102 397v90l285 267v-136l-190 -176l190 -176v-135zM399 397v90l285 267v-136l-190 -176l190 -176v-135z" />
    <glyph glyph-name="registered" unicode="&#xae;" horiz-adv-x="819" 
d="M580 772h-78q-11 13 -17 78q0 61 -63 61h-86v-139h-74v375h170q69 0 105 -30.5t36 -84.5q0 -40 -24 -65.5t-60 -28.5q66 -12 72 -78q2 -43 5.5 -60.5t13.5 -27.5zM336 969h84q80 0 80 59t-80 59h-84v-118zM768 954q0 -155 -104 -257.5t-254 -102.5t-254.5 102.5
t-104.5 257.5t104.5 258t254.5 103t254 -103t104 -258zM702 954q0 129 -84 214t-208 85t-208.5 -85t-84.5 -214t84.5 -214t208.5 -85t208 85t84 214z" />
    <glyph glyph-name="macron" unicode="&#xaf;" 
d="M254 1069v105h514v-105h-514z" />
    <glyph glyph-name="degree" unicode="&#xb0;" horiz-adv-x="675" 
d="M168 1042q0 -75 47.5 -125.5t122.5 -50.5t122.5 50.5t47.5 125.5t-47.5 126t-122.5 51t-122.5 -51t-47.5 -126zM61 1042q0 115 80 194t197 79t196.5 -78.5t79.5 -194.5q0 -115 -79.5 -193.5t-196.5 -78.5t-197 78.5t-80 193.5z" />
    <glyph glyph-name="plusminus" unicode="&#xb1;" horiz-adv-x="1259" 
d="M578 1235h104v-410h475v-104h-475v-410h-104v410h-476v104h476v410zM102 94v107h1055v-107h-1055z" />
    <glyph glyph-name="twosuperior" unicode="&#xb2;" horiz-adv-x="671" 
d="M227 598h404v-98h-580v67l221 191q114 96 163.5 158t49.5 139q0 70 -38.5 110.5t-112.5 40.5q-78 0 -121 -46.5t-43 -131.5q0 -30 10 -72l-114 7q-9 56 -9 73q0 121 76.5 194t202.5 73q132 0 200 -68t68 -174q0 -51 -18.5 -99t-56 -93t-71 -77t-85.5 -75z" />
    <glyph glyph-name="threesuperior" unicode="&#xb3;" horiz-adv-x="681" 
d="M524 717q0 64 -46.5 99.5t-121.5 35.5q-37 0 -73 -4v92q16 -2 73 -2q67 0 110.5 31.5t43.5 99.5q0 65 -41 103t-119 38q-80 0 -127 -51.5t-47 -142.5l-110 4q0 125 77.5 204t208.5 79q128 0 200.5 -61t72.5 -163q0 -71 -45.5 -121.5t-106.5 -60.5q74 -11 121 -62t47 -126
q0 -100 -77.5 -162t-207.5 -62q-141 0 -223 75.5t-82 205.5l113 -4q3 -91 53.5 -137.5t138.5 -46.5q77 0 122.5 36.5t45.5 102.5z" />
    <glyph glyph-name="acute" unicode="&#xb4;" 
d="M455 1040h-86l110 250h174z" />
    <glyph glyph-name="paragraph" unicode="&#xb6;" horiz-adv-x="983" 
d="M485 0v582q-212 0 -328 94t-116 260t116 260t328 94h365v-1290h-113v1182h-141v-1182h-111z" />
    <glyph glyph-name="periodcentered" unicode="&#xb7;" horiz-adv-x="327" 
d="M82 440v164h164v-164h-164z" />
    <glyph glyph-name="cedilla" unicode="&#xb8;" 
d="M735 -209q0 -53 -33 -87.5t-81 -48t-111 -13.5q-66 0 -126 23.5t-97 55.5l35 62q86 -70 188 -70q49 0 78.5 16.5t29.5 49.5q0 41 -31 58t-71.5 12t-79.5 -23l-37 22l119 175h74l-90 -121q91 27 162 -2t71 -109z" />
    <glyph glyph-name="onesuperior" unicode="&#xb9;" horiz-adv-x="380" 
d="M16 1098v73q81 0 122 28t63 93h78v-792h-115v598h-148z" />
    <glyph glyph-name="ordmasculine" unicode="&#xba;" horiz-adv-x="796" 
d="M176 954q0 -119 58.5 -191.5t162.5 -72.5q105 0 164.5 72.5t59.5 191.5q0 120 -59.5 193.5t-164.5 73.5q-104 0 -162.5 -73.5t-58.5 -193.5zM745 954q0 -157 -99 -257.5t-249 -100.5q-149 0 -247.5 100.5t-98.5 257.5q0 158 98.5 259.5t247.5 101.5q150 0 249 -101
t99 -260z" />
    <glyph glyph-name="guillemotright" unicode="&#xbb;" horiz-adv-x="786" 
d="M387 487v-90l-285 -266v135l191 176l-191 176v136zM684 487v-90l-285 -266v135l191 176l-191 176v136z" />
    <glyph glyph-name="onequarter" unicode="&#xbc;" horiz-adv-x="1402" 
d="M61 1102v74q81 0 122 27.5t63 92.5h78v-792h-115v598h-148zM1210 786v-485h131v-94h-131v-207h-112v207h-412v108l385 471h139zM1098 684l-314 -383h314v383zM1116 1290l-848 -1290h-116l847 1290h117z" />
    <glyph glyph-name="onehalf" unicode="&#xbd;" horiz-adv-x="1476" 
d="M61 1102v74q81 0 122 27.5t63 92.5h78v-792h-115v598h-148zM1116 1290l-848 -1290h-116l847 1290h117zM1012 98h403v-98h-579v68l221 190q114 96 163.5 158t49.5 139q0 70 -39 111t-113 41q-78 0 -121 -47t-43 -132q0 -25 11 -71l-115 6q-8 50 -8 74q0 121 76 193.5
t202 72.5q132 0 200.5 -68t68.5 -174q0 -51 -18.5 -99t-56.5 -93t-71.5 -76.5t-85.5 -75.5z" />
    <glyph glyph-name="threequarters" unicode="&#xbe;" horiz-adv-x="1634" 
d="M1442 786v-485h131v-94h-131v-207h-113v207h-411v108l385 471h139zM1329 684l-313 -383h313v383zM535 719q0 64 -46.5 99.5t-121.5 35.5q-38 0 -74 -4v92q16 -2 74 -2q67 0 110 31t43 100q0 65 -41 103t-119 38q-80 0 -127 -51.5t-47 -142.5l-110 4q0 125 77.5 204
t208.5 79q128 0 200.5 -61t72.5 -163q0 -71 -45.5 -121.5t-106.5 -60.5q74 -11 121 -62t47 -126q0 -101 -77 -162.5t-207 -61.5q-141 0 -223.5 75.5t-82.5 205.5l113 -4q3 -90 54 -137t139 -47q77 0 122.5 36.5t45.5 102.5zM1348 1290l-848 -1290h-117l848 1290h117z" />
    <glyph glyph-name="questiondown" unicode="&#xbf;" horiz-adv-x="978" 
d="M453 741h116q0 -92 -34.5 -155.5t-120.5 -132.5q-7 -6 -33 -27t-35 -28.5t-32 -28t-32.5 -32.5t-26.5 -32.5t-24.5 -38.5t-17 -41t-13 -48t-3.5 -52q0 -123 72.5 -199t209.5 -76q147 0 228 87t81 245q0 61 -14 121l131 -8q13 -67 13 -121q0 -196 -119 -312t-320 -116
q-108 0 -190 30.5t-131 83.5t-73 119.5t-24 145.5q0 53 16 102.5t39 87t64.5 81.5t75.5 73t90 74q61 51 84 92t23 106zM600 1061v-164h-164v164h164z" />
    <glyph glyph-name="Agrave" unicode="&#xc0;" horiz-adv-x="1275" 
d="M561 1290h139l545 -1290h-137l-174 416h-610l-166 -416h-127zM621 1151l-252 -627h520l-260 627h-8zM686 1389h-86l-199 249h174z" />
    <glyph glyph-name="Aacute" unicode="&#xc1;" horiz-adv-x="1275" 
d="M561 1290h139l545 -1290h-137l-174 416h-610l-166 -416h-127zM621 1151l-252 -627h520l-260 627h-8zM664 1389h-86l110 249h174z" />
    <glyph glyph-name="Acircumflex" unicode="&#xc2;" horiz-adv-x="1275" 
d="M561 1290h139l545 -1290h-137l-174 416h-610l-166 -416h-127zM621 1151l-252 -627h520l-260 627h-8zM539 1638h163l162 -249h-100l-143 163l-144 -163h-100z" />
    <glyph glyph-name="Atilde" unicode="&#xc3;" horiz-adv-x="1275" 
d="M561 1290h139l545 -1290h-137l-174 416h-610l-166 -416h-127zM621 1151l-252 -627h520l-260 627h-8zM432 1386h-88q0 109 41.5 170.5t124.5 61.5q39 0 77.5 -20.5t65 -45t58.5 -45t59 -20.5q44 0 59.5 29.5t18.5 95.5h88q0 -109 -41.5 -170.5t-124.5 -61.5
q-39 0 -77.5 20.5t-65 45t-58.5 45t-59 20.5q-44 0 -59.5 -29.5t-18.5 -95.5z" />
    <glyph glyph-name="Adieresis" unicode="&#xc4;" horiz-adv-x="1275" 
d="M561 1290h139l545 -1290h-137l-174 416h-610l-166 -416h-127zM621 1151l-252 -627h520l-260 627h-8zM428 1401v166h133v-166h-133zM682 1401v166h133v-166h-133z" />
    <glyph glyph-name="Aring" unicode="&#xc5;" horiz-adv-x="1275" 
d="M561 1290h139l545 -1290h-137l-174 416h-610l-166 -416h-127zM621 1151l-252 -627h520l-260 627h-8zM446 1516q0 71 49 119t126 48t125.5 -47.5t48.5 -119.5t-48.5 -120t-125.5 -48t-126 48t-49 120zM526 1516q0 -42 25 -68.5t70 -26.5t69.5 26.5t24.5 68.5t-24.5 68
t-69.5 26t-70 -26t-25 -68z" />
    <glyph glyph-name="AE" unicode="&#xc6;" horiz-adv-x="1994" 
d="M948 1290h946v-108h-749v-459h600v-109h-600v-505h768v-109h-893v416h-555l-295 -416h-139zM1012 1186l-471 -662h479v662h-8z" />
    <glyph glyph-name="Ccedilla" unicode="&#xc7;" horiz-adv-x="1361" 
d="M938 -209q0 -53 -33 -87.5t-81 -48t-111 -13.5q-66 0 -126.5 23.5t-97.5 55.5l35 62q36 -29 86.5 -49.5t102.5 -20.5q49 0 78.5 16.5t29.5 49.5q0 41 -31 58t-71.5 12t-79.5 -23l-37 22l86 127q-173 3 -313 87t-221.5 236.5t-81.5 346.5q0 195 83 348.5t225.5 237.5
t317.5 84q265 0 419.5 -150t172.5 -405l-125 -6q-9 201 -133.5 326.5t-333.5 125.5q-216 0 -353.5 -152.5t-137.5 -408.5t137.5 -408.5t353.5 -152.5q209 0 333.5 125.5t133.5 327.5l125 -7q-18 -239 -154.5 -386t-373.5 -164l-57 -78q91 27 162 -2t71 -109z" />
    <glyph glyph-name="Egrave" unicode="&#xc8;" horiz-adv-x="1107" 
d="M1026 109v-109h-893v1290h875v-108h-750v-459h600v-109h-600v-505h768zM645 1389h-86l-199 249h175z" />
    <glyph glyph-name="Eacute" unicode="&#xc9;" horiz-adv-x="1107" 
d="M1026 109v-109h-893v1290h875v-108h-750v-459h600v-109h-600v-505h768zM623 1389h-86l110 249h174z" />
    <glyph glyph-name="Ecircumflex" unicode="&#xca;" horiz-adv-x="1107" 
d="M1026 109v-109h-893v1290h875v-108h-750v-459h600v-109h-600v-505h768zM498 1638h164l161 -249h-100l-143 163l-144 -163h-100z" />
    <glyph glyph-name="Edieresis" unicode="&#xcb;" horiz-adv-x="1107" 
d="M1026 109v-109h-893v1290h875v-108h-750v-459h600v-109h-600v-505h768zM387 1401v166h133v-166h-133zM641 1401v166h133v-166h-133z" />
    <glyph glyph-name="Igrave" unicode="&#xcc;" horiz-adv-x="395" 
d="M133 1290h129v-1290h-129v1290zM262 1389h-86l-199 249h175z" />
    <glyph glyph-name="Iacute" unicode="&#xcd;" horiz-adv-x="395" 
d="M133 1290h129v-1290h-129v1290zM240 1389h-86l110 249h174z" />
    <glyph glyph-name="Icircumflex" unicode="&#xce;" horiz-adv-x="395" 
d="M133 1290h129v-1290h-129v1290zM115 1638h164l161 -249h-100l-143 163l-144 -163h-100z" />
    <glyph glyph-name="Idieresis" unicode="&#xcf;" horiz-adv-x="395" 
d="M133 1290h129v-1290h-129v1290zM4 1401v166h133v-166h-133zM258 1401v166h133v-166h-133z" />
    <glyph glyph-name="Eth" unicode="&#xd0;" horiz-adv-x="1347" 
d="M12 614v109h158v567h455q301 0 476 -172t175 -473t-175 -473t-476 -172h-455v614h-158zM299 109h319q253 0 388 141t135 395t-135 395.5t-388 141.5h-319v-459h371v-109h-371v-505z" />
    <glyph glyph-name="Ntilde" unicode="&#xd1;" horiz-adv-x="1294" 
d="M276 1290l762 -1063v1063h123v-1290h-102l-803 1112v-1112h-123v1290h143zM457 1386h-88q0 109 41.5 170.5t124.5 61.5q39 0 77.5 -20.5t65 -45t58.5 -45t59 -20.5q44 0 59 29.5t18 95.5h89q0 -109 -41.5 -170.5t-124.5 -61.5q-39 0 -77.5 20.5t-65 45t-58.5 45t-59 20.5
q-44 0 -59.5 -29.5t-18.5 -95.5z" />
    <glyph glyph-name="Ograve" unicode="&#xd2;" horiz-adv-x="1409" 
d="M1337 645q0 -298 -175 -484t-457 -186t-457.5 186t-175.5 484t175.5 484t457.5 186t457 -186t175 -484zM1202 645q0 257 -135 409t-362 152t-362.5 -152.5t-135.5 -408.5t135.5 -408.5t362.5 -152.5t362 152t135 409zM770 1389h-86l-199 249h174z" />
    <glyph glyph-name="Oacute" unicode="&#xd3;" horiz-adv-x="1409" 
d="M1337 645q0 -298 -175 -484t-457 -186t-457.5 186t-175.5 484t175.5 484t457.5 186t457 -186t175 -484zM1202 645q0 257 -135 409t-362 152t-362.5 -152.5t-135.5 -408.5t135.5 -408.5t362.5 -152.5t362 152t135 409zM748 1389h-86l110 249h174z" />
    <glyph glyph-name="Ocircumflex" unicode="&#xd4;" horiz-adv-x="1409" 
d="M1337 645q0 -298 -175 -484t-457 -186t-457.5 186t-175.5 484t175.5 484t457.5 186t457 -186t175 -484zM1202 645q0 257 -135 409t-362 152t-362.5 -152.5t-135.5 -408.5t135.5 -408.5t362.5 -152.5t362 152t135 409zM623 1638h163l162 -249h-100l-143 163l-144 -163
h-100z" />
    <glyph glyph-name="Otilde" unicode="&#xd5;" horiz-adv-x="1409" 
d="M1337 645q0 -298 -175 -484t-457 -186t-457.5 186t-175.5 484t175.5 484t457.5 186t457 -186t175 -484zM1202 645q0 257 -135 409t-362 152t-362.5 -152.5t-135.5 -408.5t135.5 -408.5t362.5 -152.5t362 152t135 409zM498 1386h-88q0 109 41.5 170.5t123.5 61.5
q39 0 78 -20.5t65 -45t58.5 -45t59.5 -20.5q44 0 59 29.5t18 95.5h88q0 -109 -41.5 -170.5t-123.5 -61.5q-39 0 -78 20.5t-65 45t-58.5 45t-59.5 20.5q-44 0 -59 -29.5t-18 -95.5z" />
    <glyph glyph-name="Odieresis" unicode="&#xd6;" horiz-adv-x="1409" 
d="M1337 645q0 -298 -175 -484t-457 -186t-457.5 186t-175.5 484t175.5 484t457.5 186t457 -186t175 -484zM1202 645q0 257 -135 409t-362 152t-362.5 -152.5t-135.5 -408.5t135.5 -408.5t362.5 -152.5t362 152t135 409zM512 1401v166h133v-166h-133zM766 1401v166h133v-166
h-133z" />
    <glyph glyph-name="multiply" unicode="&#xd7;" horiz-adv-x="1081" 
d="M467 631l-342 342l76 76l338 -347l338 347l75 -76l-342 -342l342 -342l-75 -76l-338 346l-338 -346l-76 76z" />
    <glyph glyph-name="Oslash" unicode="&#xd8;" horiz-adv-x="1409" 
d="M1337 645q0 -298 -175 -484t-457 -186q-220 0 -379 115l-125 -156l-80 64l129 160q-178 184 -178 487q0 298 175.5 484t457.5 186q224 0 385 -121l112 139l80 -63l-117 -146q172 -185 172 -479zM207 645q0 -244 121 -393l688 850q-125 104 -311 104q-227 0 -362.5 -152.5
t-135.5 -408.5zM1202 645q0 234 -115 383l-688 -848q129 -96 306 -96q227 0 362 152t135 409z" />
    <glyph glyph-name="Ugrave" unicode="&#xd9;" horiz-adv-x="1236" 
d="M618 -25q-86 0 -160 17t-138.5 55t-109.5 96.5t-71 146t-26 197.5v803h129v-821q0 -191 97.5 -288t278.5 -97q182 0 281.5 97t99.5 286v823h125v-803q0 -110 -26 -197.5t-71.5 -146t-110 -96.5t-138.5 -55t-160 -17zM684 1389h-86l-199 249h174z" />
    <glyph glyph-name="Uacute" unicode="&#xda;" horiz-adv-x="1236" 
d="M618 -25q-86 0 -160 17t-138.5 55t-109.5 96.5t-71 146t-26 197.5v803h129v-821q0 -191 97.5 -288t278.5 -97q182 0 281.5 97t99.5 286v823h125v-803q0 -110 -26 -197.5t-71.5 -146t-110 -96.5t-138.5 -55t-160 -17zM662 1389h-87l111 249h174z" />
    <glyph glyph-name="Ucircumflex" unicode="&#xdb;" horiz-adv-x="1236" 
d="M618 -25q-86 0 -160 17t-138.5 55t-109.5 96.5t-71 146t-26 197.5v803h129v-821q0 -191 97.5 -288t278.5 -97q182 0 281.5 97t99.5 286v823h125v-803q0 -110 -26 -197.5t-71.5 -146t-110 -96.5t-138.5 -55t-160 -17zM537 1638h163l162 -249h-100l-144 163l-143 -163h-100
z" />
    <glyph glyph-name="Udieresis" unicode="&#xdc;" horiz-adv-x="1236" 
d="M618 -25q-86 0 -160 17t-138.5 55t-109.5 96.5t-71 146t-26 197.5v803h129v-821q0 -191 97.5 -288t278.5 -97q182 0 281.5 97t99.5 286v823h125v-803q0 -110 -26 -197.5t-71.5 -146t-110 -96.5t-138.5 -55t-160 -17zM426 1401v166h133v-166h-133zM680 1401v166h133v-166
h-133z" />
    <glyph glyph-name="Yacute" unicode="&#xdd;" horiz-adv-x="1196" 
d="M606 629l422 661h137l-506 -780v-510h-122v510l-506 780h141zM641 1389h-86l111 249h174z" />
    <glyph glyph-name="Thorn" unicode="&#xde;" horiz-adv-x="1097" 
d="M260 383h293q181 0 274 73.5t93 211.5t-93 211t-274 73h-293v-569zM260 274v-274h-127v1290h127v-229h293q235 0 364.5 -104.5t129.5 -288.5t-129.5 -289t-364.5 -105h-293z" />
    <glyph glyph-name="germandbls" unicode="&#xdf;" horiz-adv-x="964" 
d="M823 1001q0 -116 -63.5 -188.5t-153.5 -87.5q137 -18 217 -113t80 -231q0 -94 -31.5 -169.5t-84.5 -122.5t-120.5 -72t-142.5 -25q-57 0 -131 24v99q73 -25 121 -25q117 0 191.5 74t74.5 217q0 131 -83.5 209.5t-221.5 77.5q-47 0 -82 -2v104q27 -4 82 -4
q112 0 169.5 60.5t57.5 172.5q0 98 -57 159t-164 61q-114 0 -173.5 -77t-59.5 -220v-922h-125v932q0 169 94.5 276t263.5 107q160 0 251 -84t91 -230z" />
    <glyph glyph-name="agrave" unicode="&#xe0;" horiz-adv-x="978" 
d="M688 403v56l-217 -47q-139 -30 -200.5 -67.5t-61.5 -119.5q0 -67 44 -110t128 -43q132 0 219.5 92t87.5 239zM807 578v-428q0 -34 19.5 -52t54.5 -18q41 0 80 22v-67q-23 -26 -49 -39.5t-68 -13.5q-66 0 -109.5 52t-46.5 136q-37 -81 -128.5 -138t-201.5 -57
q-126 0 -201 66t-75 180q0 61 25.5 108t77 79.5t114.5 54t152 39.5l237 49v45q0 102 -57.5 160.5t-161.5 58.5q-102 0 -165.5 -53.5t-88.5 -145.5l-106 21q27 124 122 200t236 76q166 0 253 -85.5t87 -249.5zM541 1040h-86l-199 250h174z" />
    <glyph glyph-name="aacute" unicode="&#xe1;" horiz-adv-x="978" 
d="M688 403v56l-217 -47q-139 -30 -200.5 -67.5t-61.5 -119.5q0 -67 44 -110t128 -43q132 0 219.5 92t87.5 239zM807 578v-428q0 -34 19.5 -52t54.5 -18q41 0 80 22v-67q-23 -26 -49 -39.5t-68 -13.5q-66 0 -109.5 52t-46.5 136q-37 -81 -128.5 -138t-201.5 -57
q-126 0 -201 66t-75 180q0 61 25.5 108t77 79.5t114.5 54t152 39.5l237 49v45q0 102 -57.5 160.5t-161.5 58.5q-102 0 -165.5 -53.5t-88.5 -145.5l-106 21q27 124 122 200t236 76q166 0 253 -85.5t87 -249.5zM526 1040h-86l111 250h174z" />
    <glyph glyph-name="acircumflex" unicode="&#xe2;" horiz-adv-x="978" 
d="M688 403v56l-217 -47q-139 -30 -200.5 -67.5t-61.5 -119.5q0 -67 44 -110t128 -43q132 0 219.5 92t87.5 239zM807 578v-428q0 -34 19.5 -52t54.5 -18q41 0 80 22v-67q-23 -26 -49 -39.5t-68 -13.5q-66 0 -109.5 52t-46.5 136q-37 -81 -128.5 -138t-201.5 -57
q-126 0 -201 66t-75 180q0 61 25.5 108t77 79.5t114.5 54t152 39.5l237 49v45q0 102 -57.5 160.5t-161.5 58.5q-102 0 -165.5 -53.5t-88.5 -145.5l-106 21q27 124 122 200t236 76q166 0 253 -85.5t87 -249.5zM397 1290h164l162 -250h-100l-144 164l-143 -164h-100z" />
    <glyph glyph-name="atilde" unicode="&#xe3;" horiz-adv-x="978" 
d="M688 403v56l-217 -47q-139 -30 -200.5 -67.5t-61.5 -119.5q0 -67 44 -110t128 -43q132 0 219.5 92t87.5 239zM807 578v-428q0 -34 19.5 -52t54.5 -18q41 0 80 22v-67q-23 -26 -49 -39.5t-68 -13.5q-66 0 -109.5 52t-46.5 136q-37 -81 -128.5 -138t-201.5 -57
q-126 0 -201 66t-75 180q0 61 25.5 108t77 79.5t114.5 54t152 39.5l237 49v45q0 102 -57.5 160.5t-161.5 58.5q-102 0 -165.5 -53.5t-88.5 -145.5l-106 21q27 124 122 200t236 76q166 0 253 -85.5t87 -249.5zM279 1047h-89q0 109 41.5 170t124.5 61q39 0 77.5 -20.5t65 -45
t58.5 -45t59 -20.5q44 0 59.5 29.5t18.5 95.5h88q0 -109 -41.5 -170.5t-124.5 -61.5q-39 0 -77.5 20.5t-65 45t-58.5 45t-59 20.5q-44 0 -59 -29t-18 -95z" />
    <glyph glyph-name="adieresis" unicode="&#xe4;" horiz-adv-x="978" 
d="M688 403v56l-217 -47q-139 -30 -200.5 -67.5t-61.5 -119.5q0 -67 44 -110t128 -43q132 0 219.5 92t87.5 239zM807 578v-428q0 -34 19.5 -52t54.5 -18q41 0 80 22v-67q-23 -26 -49 -39.5t-68 -13.5q-66 0 -109.5 52t-46.5 136q-37 -81 -128.5 -138t-201.5 -57
q-126 0 -201 66t-75 180q0 61 25.5 108t77 79.5t114.5 54t152 39.5l237 49v45q0 102 -57.5 160.5t-161.5 58.5q-102 0 -165.5 -53.5t-88.5 -145.5l-106 21q27 124 122 200t236 76q166 0 253 -85.5t87 -249.5zM287 1104v166h133v-166h-133zM541 1104v166h133v-166h-133z" />
    <glyph glyph-name="aring" unicode="&#xe5;" horiz-adv-x="978" 
d="M688 403v56l-217 -47q-139 -30 -200.5 -67.5t-61.5 -119.5q0 -67 44 -110t128 -43q132 0 219.5 92t87.5 239zM807 578v-428q0 -34 19.5 -52t54.5 -18q41 0 80 22v-67q-23 -26 -49 -39.5t-68 -13.5q-66 0 -109.5 52t-46.5 136q-37 -81 -128.5 -138t-201.5 -57
q-126 0 -201 66t-75 180q0 61 25.5 108t77 79.5t114.5 54t152 39.5l237 49v45q0 102 -57.5 160.5t-161.5 58.5q-102 0 -165.5 -53.5t-88.5 -145.5l-106 21q27 124 122 200t236 76q166 0 253 -85.5t87 -249.5zM385 1167q0 -42 24.5 -68t69.5 -26t69.5 26t24.5 68t-24.5 68.5
t-69.5 26.5t-69.5 -26.5t-24.5 -68.5zM305 1167q0 72 48.5 120t125.5 48t125.5 -48t48.5 -120t-48.5 -120t-125.5 -48t-125.5 48t-48.5 120z" />
    <glyph glyph-name="ae" unicode="&#xe6;" horiz-adv-x="1585" 
d="M467 913q234 0 301 -172q60 80 146.5 126t189.5 46q135 0 231.5 -61t141.5 -159t45 -222v-57h-731q6 -155 98 -245.5t223 -90.5q245 0 301 239l107 -14q-33 -154 -140 -241t-268 -87q-128 0 -223 57t-152 161q-40 -89 -137 -153.5t-219 -64.5q-141 0 -220 65t-79 181
q0 134 108.5 207.5t354.5 73.5h147v78q0 113 -59.5 174t-163.5 61q-102 0 -165.5 -53.5t-88.5 -145.5l-106 21q27 124 122 200t236 76zM381 72q129 0 220 80.5t91 224.5v37h-145q-129 0 -205.5 -23.5t-104.5 -63t-28 -102.5q0 -67 44 -110t128 -43zM1104 815
q-121 0 -206.5 -87t-102.5 -226h594q-3 132 -77 222.5t-208 90.5z" />
    <glyph glyph-name="ccedilla" unicode="&#xe7;" horiz-adv-x="989" 
d="M721 -209q0 -53 -33 -87.5t-81 -48t-111 -13.5q-66 0 -126.5 23.5t-97.5 55.5l35 62q36 -29 86.5 -49.5t102.5 -20.5q49 0 78.5 16.5t29.5 49.5q0 41 -31 58t-71.5 12t-79.5 -23l-37 22l86 129q-183 12 -295.5 139.5t-112.5 327.5q0 211 125 340t324 129
q186 0 293.5 -109.5t120.5 -279.5l-115 -8q-9 132 -88 212.5t-215 80.5q-140 0 -226.5 -100.5t-86.5 -264.5t86.5 -264t226.5 -100q135 0 214.5 82.5t88.5 214.5l115 -12q-13 -163 -112 -271t-271 -117l-56 -75q91 27 162.5 -2t71.5 -109z" />
    <glyph glyph-name="egrave" unicode="&#xe8;" horiz-adv-x="987" 
d="M815 317l107 -14q-33 -154 -140 -241t-268 -87q-196 0 -323.5 127t-127.5 330q0 209 126.5 345t316.5 136q135 0 231.5 -61t141.5 -159t45 -222v-57h-731q6 -147 97 -241.5t224 -94.5q245 0 301 239zM195 502h596q-3 132 -77 222.5t-208 90.5q-127 0 -211 -91t-100 -222z
M571 1040h-86l-198 250h174z" />
    <glyph glyph-name="eacute" unicode="&#xe9;" horiz-adv-x="987" 
d="M815 317l107 -14q-33 -154 -140 -241t-268 -87q-196 0 -323.5 127t-127.5 330q0 209 126.5 345t316.5 136q135 0 231.5 -61t141.5 -159t45 -222v-57h-731q6 -147 97 -241.5t224 -94.5q245 0 301 239zM195 502h596q-3 132 -77 222.5t-208 90.5q-127 0 -211 -91t-100 -222z
M541 1040h-86l110 250h174z" />
    <glyph glyph-name="ecircumflex" unicode="&#xea;" horiz-adv-x="987" 
d="M815 317l107 -14q-33 -154 -140 -241t-268 -87q-196 0 -323.5 127t-127.5 330q0 209 126.5 345t316.5 136q135 0 231.5 -61t141.5 -159t45 -222v-57h-731q6 -147 97 -241.5t224 -94.5q245 0 301 239zM195 502h596q-3 132 -77 222.5t-208 90.5q-127 0 -211 -91t-100 -222z
M424 1290h164l162 -250h-101l-143 164l-144 -164h-100z" />
    <glyph glyph-name="edieresis" unicode="&#xeb;" horiz-adv-x="987" 
d="M815 317l107 -14q-33 -154 -140 -241t-268 -87q-196 0 -323.5 127t-127.5 330q0 209 126.5 345t316.5 136q135 0 231.5 -61t141.5 -159t45 -222v-57h-731q6 -147 97 -241.5t224 -94.5q245 0 301 239zM195 502h596q-3 132 -77 222.5t-208 90.5q-127 0 -211 -91t-100 -222z
M313 1104v166h133v-166h-133zM567 1104v166h133v-166h-133z" />
    <glyph glyph-name="igrave" unicode="&#xec;" horiz-adv-x="370" 
d="M123 889h125v-889h-125v889zM246 1040h-86l-199 250h174z" />
    <glyph glyph-name="iacute" unicode="&#xed;" horiz-adv-x="370" 
d="M123 889h125v-889h-125v889zM231 1040h-86l111 250h174z" />
    <glyph glyph-name="icircumflex" unicode="&#xee;" horiz-adv-x="370" 
d="M123 889h125v-889h-125v889zM102 1290h164l162 -250h-100l-144 164l-143 -164h-100z" />
    <glyph glyph-name="idieresis" unicode="&#xef;" horiz-adv-x="370" 
d="M123 889h125v-889h-125v889zM-8 1104v166h133v-166h-133zM246 1104v166h133v-166h-133z" />
    <glyph glyph-name="eth" unicode="&#xf0;" horiz-adv-x="1009" 
d="M317 967l-41 77l216 84q-85 62 -173 113l62 76q111 -61 221 -146l156 62l43 -76l-127 -51q274 -259 274 -641q0 -233 -121.5 -361.5t-318.5 -128.5q-192 0 -319.5 128.5t-127.5 330.5q0 203 127 332t320 129q92 0 171 -46t132 -130q-62 179 -244 346zM508 74
q148 0 231.5 98.5t83.5 261.5q0 164 -83.5 263.5t-231.5 99.5t-231.5 -99.5t-83.5 -263.5q0 -163 83.5 -261.5t231.5 -98.5z" />
    <glyph glyph-name="ntilde" unicode="&#xf1;" horiz-adv-x="985" 
d="M248 532v-532h-125v889h125v-164q32 82 116 135t183 53q165 0 245 -97t80 -265v-551h-124v555q0 121 -61 190.5t-173 69.5q-109 0 -187.5 -79t-78.5 -204zM301 1047h-88q0 109 41.5 170t124.5 61q39 0 77.5 -20.5t65 -45t58.5 -45t59 -20.5q44 0 59.5 29.5t18.5 95.5h88
q0 -109 -41.5 -170.5t-124.5 -61.5q-39 0 -77.5 20.5t-65 45t-58.5 45t-59 20.5q-44 0 -59.5 -29.5t-18.5 -94.5z" />
    <glyph glyph-name="ograve" unicode="&#xf2;" horiz-adv-x="1017" 
d="M195 444q0 -166 83 -268t230 -102q148 0 231.5 102t83.5 268t-83.5 268.5t-231.5 102.5q-146 0 -229.5 -102.5t-83.5 -268.5zM954 444q0 -205 -127 -337t-319 -132q-191 0 -318 132t-127 337t127 337t318 132q192 0 319 -132t127 -337zM569 1040h-86l-198 250h174z" />
    <glyph glyph-name="oacute" unicode="&#xf3;" horiz-adv-x="1017" 
d="M195 444q0 -166 83 -268t230 -102q148 0 231.5 102t83.5 268t-83.5 268.5t-231.5 102.5q-146 0 -229.5 -102.5t-83.5 -268.5zM954 444q0 -205 -127 -337t-319 -132q-191 0 -318 132t-127 337t127 337t318 132q192 0 319 -132t127 -337zM555 1040h-86l111 250h174z" />
    <glyph glyph-name="ocircumflex" unicode="&#xf4;" horiz-adv-x="1017" 
d="M195 444q0 -166 83 -268t230 -102q148 0 231.5 102t83.5 268t-83.5 268.5t-231.5 102.5q-146 0 -229.5 -102.5t-83.5 -268.5zM954 444q0 -205 -127 -337t-319 -132q-191 0 -318 132t-127 337t127 337t318 132q192 0 319 -132t127 -337zM426 1290h164l162 -250h-101
l-143 164l-143 -164h-101z" />
    <glyph glyph-name="otilde" unicode="&#xf5;" horiz-adv-x="1017" 
d="M195 444q0 -166 83 -268t230 -102q148 0 231.5 102t83.5 268t-83.5 268.5t-231.5 102.5q-146 0 -229.5 -102.5t-83.5 -268.5zM954 444q0 -205 -127 -337t-319 -132q-191 0 -318 132t-127 337t127 337t318 132q192 0 319 -132t127 -337zM311 1047h-88q0 109 41.5 170
t124.5 61q39 0 77.5 -20.5t65 -45t58.5 -45t59 -20.5q44 0 59.5 29.5t18.5 95.5h88q0 -109 -41.5 -170.5t-124.5 -61.5q-39 0 -77.5 20.5t-65 45t-58.5 45t-59 20.5q-44 0 -59.5 -29.5t-18.5 -94.5z" />
    <glyph glyph-name="odieresis" unicode="&#xf6;" horiz-adv-x="1017" 
d="M195 444q0 -166 83 -268t230 -102q148 0 231.5 102t83.5 268t-83.5 268.5t-231.5 102.5q-146 0 -229.5 -102.5t-83.5 -268.5zM954 444q0 -205 -127 -337t-319 -132q-191 0 -318 132t-127 337t127 337t318 132q192 0 319 -132t127 -337zM315 1104v166h134v-166h-134z
M569 1104v166h133v-166h-133z" />
    <glyph glyph-name="divide" unicode="&#xf7;" horiz-adv-x="1269" 
d="M117 586v106h1036v-106h-1036zM551 977v172h172v-172h-172zM551 129v172h172v-172h-172z" />
    <glyph glyph-name="oslash" unicode="&#xf8;" horiz-adv-x="1017" 
d="M954 444q0 -205 -127 -337t-319 -132q-149 0 -266 84l-107 -125l-69 58l110 129q-113 129 -113 323q0 205 127 337t318 132q152 0 268 -86l109 127l69 -57l-112 -133q112 -128 112 -320zM195 444q0 -136 57 -233l455 534q-79 70 -199 70q-146 0 -229.5 -102.5
t-83.5 -268.5zM823 444q0 138 -57 232l-455 -535q76 -67 197 -67q148 0 231.5 102t83.5 268z" />
    <glyph glyph-name="ugrave" unicode="&#xf9;" horiz-adv-x="974" 
d="M727 356v533h125v-889h-125v164q-33 -83 -114.5 -136t-180.5 -53q-164 0 -241.5 97t-77.5 266v551h125v-555q0 -122 58 -191t169 -69q109 0 185.5 78t76.5 204zM551 1040h-86l-199 250h174z" />
    <glyph glyph-name="uacute" unicode="&#xfa;" horiz-adv-x="974" 
d="M727 356v533h125v-889h-125v164q-33 -83 -114.5 -136t-180.5 -53q-164 0 -241.5 97t-77.5 266v551h125v-555q0 -122 58 -191t169 -69q109 0 185.5 78t76.5 204zM537 1040h-86l110 250h174z" />
    <glyph glyph-name="ucircumflex" unicode="&#xfb;" horiz-adv-x="974" 
d="M727 356v533h125v-889h-125v164q-33 -83 -114.5 -136t-180.5 -53q-164 0 -241.5 97t-77.5 266v551h125v-555q0 -122 58 -191t169 -69q109 0 185.5 78t76.5 204zM408 1290h163l162 -250h-100l-144 164l-143 -164h-100z" />
    <glyph glyph-name="udieresis" unicode="&#xfc;" horiz-adv-x="974" 
d="M727 356v533h125v-889h-125v164q-33 -83 -114.5 -136t-180.5 -53q-164 0 -241.5 97t-77.5 266v551h125v-555q0 -122 58 -191t169 -69q109 0 185.5 78t76.5 204zM297 1104v166h133v-166h-133zM551 1104v166h133v-166h-133z" />
    <glyph glyph-name="yacute" unicode="&#xfd;" horiz-adv-x="903" 
d="M371 -348h-123l149 354l-377 883h132l305 -731h8l295 731h123zM498 1040h-86l110 250h174z" />
    <glyph glyph-name="thorn" unicode="&#xfe;" horiz-adv-x="1050" 
d="M244 475v-61q0 -155 89.5 -245.5t225.5 -90.5q140 0 218.5 98t78.5 268t-78.5 268.5t-218.5 98.5q-136 0 -225.5 -90.5t-89.5 -245.5zM248 195v-543h-125v1638h125v-598q32 92 118.5 156.5t208.5 64.5q128 0 223 -63t142 -168t47 -238t-47 -238t-142 -168t-223 -63
q-122 0 -208.5 64t-118.5 156z" />
    <glyph glyph-name="ydieresis" unicode="&#xff;" horiz-adv-x="903" 
d="M371 -348h-123l149 354l-377 883h132l305 -731h8l295 731h123zM258 1104v166h133v-166h-133zM512 1104v166h133v-166h-133z" />
    <glyph glyph-name="Amacron" unicode="&#x100;" horiz-adv-x="1275" 
d="M561 1290h139l545 -1290h-137l-174 416h-610l-166 -416h-127zM621 1151l-252 -627h520l-260 627h-8zM365 1405v104h514v-104h-514z" />
    <glyph glyph-name="amacron" unicode="&#x101;" horiz-adv-x="978" 
d="M688 403v56l-217 -47q-139 -30 -200.5 -67.5t-61.5 -119.5q0 -67 44 -110t128 -43q132 0 219.5 92t87.5 239zM807 578v-428q0 -34 19.5 -52t54.5 -18q41 0 80 22v-67q-23 -26 -49 -39.5t-68 -13.5q-66 0 -109.5 52t-46.5 136q-37 -81 -128.5 -138t-201.5 -57
q-126 0 -201 66t-75 180q0 61 25.5 108t77 79.5t114.5 54t152 39.5l237 49v45q0 102 -57.5 160.5t-161.5 58.5q-102 0 -165.5 -53.5t-88.5 -145.5l-106 21q27 124 122 200t236 76q166 0 253 -85.5t87 -249.5zM223 1069v105h514v-105h-514z" />
    <glyph glyph-name="Abreve" unicode="&#x102;" horiz-adv-x="1275" 
d="M561 1290h139l545 -1290h-137l-174 416h-610l-166 -416h-127zM621 1151l-252 -627h520l-260 627h-8zM621 1382q-108 0 -166 64t-58 192h101q0 -76 28.5 -116.5t94.5 -40.5t94 40.5t28 116.5h101q0 -128 -57.5 -192t-165.5 -64z" />
    <glyph glyph-name="abreve" unicode="&#x103;" horiz-adv-x="978" 
d="M688 403v56l-217 -47q-139 -30 -200.5 -67.5t-61.5 -119.5q0 -67 44 -110t128 -43q132 0 219.5 92t87.5 239zM807 578v-428q0 -34 19.5 -52t54.5 -18q41 0 80 22v-67q-23 -26 -49 -39.5t-68 -13.5q-66 0 -109.5 52t-46.5 136q-37 -81 -128.5 -138t-201.5 -57
q-126 0 -201 66t-75 180q0 61 25.5 108t77 79.5t114.5 54t152 39.5l237 49v45q0 102 -57.5 160.5t-161.5 58.5q-102 0 -165.5 -53.5t-88.5 -145.5l-106 21q27 124 122 200t236 76q166 0 253 -85.5t87 -249.5zM479 1034q-108 0 -165.5 64t-57.5 192h100q0 -76 28.5 -116.5
t94.5 -40.5t94.5 40.5t28.5 116.5h100q0 -128 -57.5 -192t-165.5 -64z" />
    <glyph glyph-name="Aogonek" unicode="&#x104;" horiz-adv-x="1275" 
d="M561 1290h139l545 -1290q-198 -120 -198 -207q0 -63 79 -63q43 0 113 34v-77q-68 -45 -149 -45q-65 0 -105.5 34.5t-40.5 100.5q0 61 42 111.5t122 111.5l-2 4l-172 412h-610l-166 -416h-127zM621 1151l-252 -627h520l-260 627h-8z" />
    <glyph glyph-name="aogonek" unicode="&#x105;" horiz-adv-x="978" 
d="M807 578v-428q0 -34 19.5 -52t54.5 -18q41 0 80 22v-73q-10 -9 -44.5 -35.5t-54 -44t-45 -44.5t-37.5 -55t-12 -57q0 -63 80 -63q43 0 113 34v-77q-68 -45 -150 -45q-65 0 -105 34.5t-40 100.5q0 111 145 209q-54 11 -88 61t-35 123q-37 -81 -128.5 -138t-201.5 -57
q-126 0 -201 66t-75 180q0 61 25.5 108t77 79.5t114.5 54t152 39.5l237 49v45q0 102 -57.5 160.5t-161.5 58.5q-102 0 -165.5 -53.5t-88.5 -145.5l-106 21q27 124 122 200t236 76q166 0 253 -85.5t87 -249.5zM688 403v56l-217 -47q-139 -30 -200.5 -67.5t-61.5 -119.5
q0 -67 44 -110t128 -43q132 0 219.5 92t87.5 239z" />
    <glyph glyph-name="Cacute" unicode="&#x106;" horiz-adv-x="1361" 
d="M72 645q0 195 83 348.5t225.5 237.5t317.5 84q265 0 419.5 -150t172.5 -405l-125 -6q-9 201 -133.5 326.5t-333.5 125.5q-216 0 -353.5 -152.5t-137.5 -408.5t137.5 -408.5t353.5 -152.5q209 0 333.5 125.5t133.5 327.5l125 -7q-18 -255 -172.5 -405t-419.5 -150
q-175 0 -317.5 84t-225.5 237.5t-83 348.5zM756 1389h-86l110 249h174z" />
    <glyph glyph-name="cacute" unicode="&#x107;" horiz-adv-x="989" 
d="M63 444q0 211 125 340t324 129q186 0 293.5 -109.5t120.5 -279.5l-115 -8q-9 132 -88 212.5t-215 80.5q-140 0 -226.5 -100.5t-86.5 -264.5t86.5 -264t226.5 -100q135 0 214.5 82.5t88.5 214.5l115 -12q-13 -170 -120.5 -280t-293.5 -110q-199 0 -324 129t-125 340z
M559 1040h-86l111 250h174z" />
    <glyph glyph-name="Ccircumflex" unicode="&#x108;" horiz-adv-x="1361" 
d="M72 645q0 195 83 348.5t225.5 237.5t317.5 84q265 0 419.5 -150t172.5 -405l-125 -6q-9 201 -133.5 326.5t-333.5 125.5q-216 0 -353.5 -152.5t-137.5 -408.5t137.5 -408.5t353.5 -152.5q209 0 333.5 125.5t133.5 327.5l125 -7q-18 -255 -172.5 -405t-419.5 -150
q-175 0 -317.5 84t-225.5 237.5t-83 348.5zM631 1638h164l161 -249h-100l-143 163l-144 -163h-100z" />
    <glyph glyph-name="ccircumflex" unicode="&#x109;" horiz-adv-x="989" 
d="M63 444q0 211 125 340t324 129q186 0 293.5 -109.5t120.5 -279.5l-115 -8q-9 132 -88 212.5t-215 80.5q-140 0 -226.5 -100.5t-86.5 -264.5t86.5 -264t226.5 -100q135 0 214.5 82.5t88.5 214.5l115 -12q-13 -170 -120.5 -280t-293.5 -110q-199 0 -324 129t-125 340z
M430 1290h164l162 -250h-101l-143 164l-143 -164h-101z" />
    <glyph glyph-name="Cdotaccent" unicode="&#x10a;" horiz-adv-x="1361" 
d="M72 645q0 195 83 348.5t225.5 237.5t317.5 84q265 0 419.5 -150t172.5 -405l-125 -6q-9 201 -133.5 326.5t-333.5 125.5q-216 0 -353.5 -152.5t-137.5 -408.5t137.5 -408.5t353.5 -152.5q209 0 333.5 125.5t133.5 327.5l125 -7q-18 -255 -172.5 -405t-419.5 -150
q-175 0 -317.5 84t-225.5 237.5t-83 348.5zM647 1401v166h133v-166h-133z" />
    <glyph glyph-name="cdotaccent" unicode="&#x10b;" horiz-adv-x="989" 
d="M63 444q0 211 125 340t324 129q186 0 293.5 -109.5t120.5 -279.5l-115 -8q-9 132 -88 212.5t-215 80.5q-140 0 -226.5 -100.5t-86.5 -264.5t86.5 -264t226.5 -100q135 0 214.5 82.5t88.5 214.5l115 -12q-13 -170 -120.5 -280t-293.5 -110q-199 0 -324 129t-125 340z
M446 1124v166h134v-166h-134z" />
    <glyph glyph-name="Ccaron" unicode="&#x10c;" horiz-adv-x="1361" 
d="M72 645q0 195 83 348.5t225.5 237.5t317.5 84q265 0 419.5 -150t172.5 -405l-125 -6q-9 201 -133.5 326.5t-333.5 125.5q-216 0 -353.5 -152.5t-137.5 -408.5t137.5 -408.5t353.5 -152.5q209 0 333.5 125.5t133.5 327.5l125 -7q-18 -255 -172.5 -405t-419.5 -150
q-175 0 -317.5 84t-225.5 237.5t-83 348.5zM795 1389h-164l-162 249h100l144 -163l143 163h100z" />
    <glyph glyph-name="ccaron" unicode="&#x10d;" horiz-adv-x="989" 
d="M63 444q0 211 125 340t324 129q186 0 293.5 -109.5t120.5 -279.5l-115 -8q-9 132 -88 212.5t-215 80.5q-140 0 -226.5 -100.5t-86.5 -264.5t86.5 -264t226.5 -100q135 0 214.5 82.5t88.5 214.5l115 -12q-13 -170 -120.5 -280t-293.5 -110q-199 0 -324 129t-125 340z
M594 1040h-164l-162 250h101l143 -164l143 164h101z" />
    <glyph glyph-name="Dcaron" unicode="&#x10e;" horiz-adv-x="1310" 
d="M262 109h320q253 0 387.5 141t134.5 395q0 255 -134.5 396t-387.5 141h-320v-1073zM133 0v1290h455q301 0 476 -172t175 -473t-175 -473t-476 -172h-455zM690 1389h-164l-161 249h100l143 -163l144 163h100z" />
    <glyph glyph-name="dcaron" unicode="&#x10f;" horiz-adv-x="1050" 
d="M807 414v61q0 155 -89.5 245.5t-225.5 90.5q-140 0 -218.5 -98.5t-78.5 -268.5t78.5 -268t218.5 -98q136 0 225.5 90.5t89.5 245.5zM803 0v195q-32 -92 -119 -156t-209 -64q-128 0 -223 63t-142 168t-47 238t47 238t142 168t223 63q122 0 209 -64.5t119 -156.5v598h125
v-1290h-125zM1083 1030h-65l33 260h153z" />
    <glyph glyph-name="Dcroat" unicode="&#x110;" horiz-adv-x="1347" 
d="M12 614v109h158v567h455q301 0 476 -172t175 -473t-175 -473t-476 -172h-455v614h-158zM299 109h319q253 0 388 141t135 395t-135 395.5t-388 141.5h-319v-459h371v-109h-371v-505z" />
    <glyph glyph-name="dcroat" unicode="&#x111;" horiz-adv-x="1050" 
d="M803 0v195q-32 -92 -119 -156t-209 -64q-128 0 -223 63t-142 168t-47 238t47 238t142 168t223 63q122 0 209 -64.5t119 -156.5v332h-305v90h305v176h125v-176h123v-90h-123v-1024h-125zM807 414v61q0 155 -89.5 245.5t-225.5 90.5q-140 0 -218.5 -98.5t-78.5 -268.5
t78.5 -268t218.5 -98q136 0 225.5 90.5t89.5 245.5z" />
    <glyph glyph-name="Emacron" unicode="&#x112;" horiz-adv-x="1107" 
d="M1026 109v-109h-893v1290h875v-108h-750v-459h600v-109h-600v-505h768zM324 1405v104h514v-104h-514z" />
    <glyph glyph-name="emacron" unicode="&#x113;" horiz-adv-x="987" 
d="M815 317l107 -14q-33 -154 -140 -241t-268 -87q-196 0 -323.5 127t-127.5 330q0 209 126.5 345t316.5 136q135 0 231.5 -61t141.5 -159t45 -222v-57h-731q6 -147 97 -241.5t224 -94.5q245 0 301 239zM195 502h596q-3 132 -77 222.5t-208 90.5q-127 0 -211 -91t-100 -222z
M250 1069v105h514v-105h-514z" />
    <glyph glyph-name="Ebreve" unicode="&#x114;" horiz-adv-x="1107" 
d="M1026 109v-109h-893v1290h875v-108h-750v-459h600v-109h-600v-505h768zM580 1382q-108 0 -166 64t-58 192h101q0 -76 28.5 -116.5t94.5 -40.5t94 40.5t28 116.5h101q0 -128 -57.5 -192t-165.5 -64z" />
    <glyph glyph-name="ebreve" unicode="&#x115;" horiz-adv-x="987" 
d="M815 317l107 -14q-33 -154 -140 -241t-268 -87q-196 0 -323.5 127t-127.5 330q0 209 126.5 345t316.5 136q135 0 231.5 -61t141.5 -159t45 -222v-57h-731q6 -147 97 -241.5t224 -94.5q245 0 301 239zM195 502h596q-3 132 -77 222.5t-208 90.5q-127 0 -211 -91t-100 -222z
M504 1034q-108 0 -165.5 64t-57.5 192h100q0 -76 28.5 -116.5t94.5 -40.5t94.5 40.5t28.5 116.5h100q0 -128 -57.5 -192t-165.5 -64z" />
    <glyph glyph-name="Edotaccent" unicode="&#x116;" horiz-adv-x="1107" 
d="M1026 109v-109h-893v1290h875v-108h-750v-459h600v-109h-600v-505h768zM514 1401v166h133v-166h-133z" />
    <glyph glyph-name="edotaccent" unicode="&#x117;" horiz-adv-x="987" 
d="M815 317l107 -14q-33 -154 -140 -241t-268 -87q-196 0 -323.5 127t-127.5 330q0 209 126.5 345t316.5 136q135 0 231.5 -61t141.5 -159t45 -222v-57h-731q6 -147 97 -241.5t224 -94.5q245 0 301 239zM195 502h596q-3 132 -77 222.5t-208 90.5q-127 0 -211 -91t-100 -222z
M440 1124v166h133v-166h-133z" />
    <glyph glyph-name="Eogonek" unicode="&#x118;" horiz-adv-x="1107" 
d="M1026 109v-109h-129q-80 -73 -113.5 -118t-33.5 -89q0 -63 79 -63q43 0 113 34v-77q-68 -45 -149 -45q-65 0 -105.5 34.5t-40.5 100.5q0 61 42 111.5t122 111.5h-678v1290h875v-108h-750v-459h600v-109h-600v-505h768z" />
    <glyph glyph-name="eogonek" unicode="&#x119;" horiz-adv-x="987" 
d="M815 317l107 -14q-37 -166 -203 -280q-172 -115 -172 -230q0 -63 80 -63q42 0 112 34v-77q-68 -45 -149 -45q-65 0 -105.5 34.5t-40.5 100.5q0 96 140 205q-40 -7 -70 -7q-196 0 -323.5 127t-127.5 330q0 209 126.5 345t316.5 136q135 0 231.5 -61t141.5 -159t45 -222
v-57h-731q6 -147 97 -241.5t224 -94.5q245 0 301 239zM195 502h596q-3 132 -77 222.5t-208 90.5q-127 0 -211 -91t-100 -222z" />
    <glyph glyph-name="Ecaron" unicode="&#x11a;" horiz-adv-x="1107" 
d="M1026 109v-109h-893v1290h875v-108h-750v-459h600v-109h-600v-505h768zM662 1389h-164l-162 249h100l144 -163l143 163h100z" />
    <glyph glyph-name="ecaron" unicode="&#x11b;" horiz-adv-x="987" 
d="M815 317l107 -14q-33 -154 -140 -241t-268 -87q-196 0 -323.5 127t-127.5 330q0 209 126.5 345t316.5 136q135 0 231.5 -61t141.5 -159t45 -222v-57h-731q6 -147 97 -241.5t224 -94.5q245 0 301 239zM195 502h596q-3 132 -77 222.5t-208 90.5q-127 0 -211 -91t-100 -222z
M588 1040h-164l-162 250h100l144 -164l143 164h101z" />
    <glyph glyph-name="Gcircumflex" unicode="&#x11c;" horiz-adv-x="1402" 
d="M700 -25q-136 0 -252 48.5t-199 135.5t-130 212.5t-47 273.5q0 195 82 348.5t223.5 237.5t316.5 84q267 0 420 -141t170 -394l-125 -8q-9 199 -131.5 316.5t-333.5 117.5q-215 0 -351 -153.5t-136 -409.5t138.5 -407.5t361.5 -151.5q205 0 327 120t133 314h-422v109h537
v-627h-121v254q-39 -129 -168.5 -204t-292.5 -75zM633 1638h164l161 -249h-100l-143 163l-144 -163h-100z" />
    <glyph glyph-name="gcircumflex" unicode="&#x11d;" horiz-adv-x="962" 
d="M827 612q0 -138 -100.5 -219.5t-259.5 -81.5q-116 0 -195 39q-31 -15 -52 -42t-21 -60q0 -43 26.5 -63.5t89.5 -20.5h344q139 0 215 -65t76 -171q0 -64 -27 -115.5t-73.5 -85.5t-111 -57t-136 -33t-151.5 -10q-121 0 -216.5 26.5t-155 83.5t-59.5 136t50.5 130.5
t138.5 70.5q-115 35 -115 145q0 100 125 164q-110 80 -110 229q0 138 99.5 219.5t258.5 81.5q178 0 276 -98q36 56 93.5 88.5t126.5 32.5v-121q-109 0 -183 -43q47 -68 47 -160zM147 -96q0 -94 82 -140.5t222 -46.5q378 0 378 207q0 129 -198 129h-281q-203 0 -203 -149z
M700 610q0 103 -61.5 160t-171.5 57q-108 0 -168.5 -57.5t-60.5 -159.5q0 -101 61 -158t168 -57q110 0 171.5 57t61.5 158zM410 1290h163l162 -250h-100l-143 164l-144 -164h-100z" />
    <glyph glyph-name="Gbreve" unicode="&#x11e;" horiz-adv-x="1402" 
d="M700 -25q-136 0 -252 48.5t-199 135.5t-130 212.5t-47 273.5q0 195 82 348.5t223.5 237.5t316.5 84q267 0 420 -141t170 -394l-125 -8q-9 199 -131.5 316.5t-333.5 117.5q-215 0 -351 -153.5t-136 -409.5t138.5 -407.5t361.5 -151.5q205 0 327 120t133 314h-422v109h537
v-627h-121v254q-39 -129 -168.5 -204t-292.5 -75zM715 1382q-108 0 -165.5 64t-57.5 192h100q0 -76 28.5 -116.5t94.5 -40.5t94.5 40.5t28.5 116.5h100q0 -128 -57.5 -192t-165.5 -64z" />
    <glyph glyph-name="gbreve" unicode="&#x11f;" horiz-adv-x="962" 
d="M827 612q0 -138 -100.5 -219.5t-259.5 -81.5q-116 0 -195 39q-31 -15 -52 -42t-21 -60q0 -43 26.5 -63.5t89.5 -20.5h344q139 0 215 -65t76 -171q0 -64 -27 -115.5t-73.5 -85.5t-111 -57t-136 -33t-151.5 -10q-121 0 -216.5 26.5t-155 83.5t-59.5 136t50.5 130.5
t138.5 70.5q-115 35 -115 145q0 100 125 164q-110 80 -110 229q0 138 99.5 219.5t258.5 81.5q178 0 276 -98q36 56 93.5 88.5t126.5 32.5v-121q-109 0 -183 -43q47 -68 47 -160zM147 -96q0 -94 82 -140.5t222 -46.5q378 0 378 207q0 129 -198 129h-281q-203 0 -203 -149z
M700 610q0 103 -61.5 160t-171.5 57q-108 0 -168.5 -57.5t-60.5 -159.5q0 -101 61 -158t168 -57q110 0 171.5 57t61.5 158zM492 1034q-108 0 -166 64t-58 192h101q0 -76 28.5 -116.5t94.5 -40.5t94 40.5t28 116.5h101q0 -128 -57.5 -192t-165.5 -64z" />
    <glyph glyph-name="Gdotaccent" unicode="&#x120;" horiz-adv-x="1402" 
d="M700 -25q-136 0 -252 48.5t-199 135.5t-130 212.5t-47 273.5q0 195 82 348.5t223.5 237.5t316.5 84q267 0 420 -141t170 -394l-125 -8q-9 199 -131.5 316.5t-333.5 117.5q-215 0 -351 -153.5t-136 -409.5t138.5 -407.5t361.5 -151.5q205 0 327 120t133 314h-422v109h537
v-627h-121v254q-39 -129 -168.5 -204t-292.5 -75zM649 1401v166h133v-166h-133z" />
    <glyph glyph-name="gdotaccent" unicode="&#x121;" horiz-adv-x="962" 
d="M827 612q0 -138 -100.5 -219.5t-259.5 -81.5q-116 0 -195 39q-31 -15 -52 -42t-21 -60q0 -43 26.5 -63.5t89.5 -20.5h344q139 0 215 -65t76 -171q0 -64 -27 -115.5t-73.5 -85.5t-111 -57t-136 -33t-151.5 -10q-121 0 -216.5 26.5t-155 83.5t-59.5 136t50.5 130.5
t138.5 70.5q-115 35 -115 145q0 100 125 164q-110 80 -110 229q0 138 99.5 219.5t258.5 81.5q178 0 276 -98q36 56 93.5 88.5t126.5 32.5v-121q-109 0 -183 -43q47 -68 47 -160zM147 -96q0 -94 82 -140.5t222 -46.5q378 0 378 207q0 129 -198 129h-281q-203 0 -203 -149z
M700 610q0 103 -61.5 160t-171.5 57q-108 0 -168.5 -57.5t-60.5 -159.5q0 -101 61 -158t168 -57q110 0 171.5 57t61.5 158zM426 1124v166h133v-166h-133z" />
    <glyph glyph-name="Gcommaaccent" unicode="&#x122;" horiz-adv-x="1402" 
d="M700 -25q-136 0 -252 48.5t-199 135.5t-130 212.5t-47 273.5q0 195 82 348.5t223.5 237.5t316.5 84q267 0 420 -141t170 -394l-125 -8q-9 199 -131.5 316.5t-333.5 117.5q-215 0 -351 -153.5t-136 -409.5t138.5 -407.5t361.5 -151.5q205 0 327 120t133 314h-422v109h537
v-627h-121v254q-39 -129 -168.5 -204t-292.5 -75zM637 -238v123h156v-100q0 -77 -33.5 -121.5t-122.5 -44.5v62q39 0 54.5 18.5t17.5 62.5h-72z" />
    <glyph glyph-name="gcommaaccent" unicode="&#x123;" horiz-adv-x="962" 
d="M827 612q0 -138 -100.5 -219.5t-259.5 -81.5q-116 0 -195 39q-31 -15 -52 -42t-21 -60q0 -43 26.5 -63.5t89.5 -20.5h344q139 0 215 -65t76 -171q0 -64 -27 -115.5t-73.5 -85.5t-111 -57t-136 -33t-151.5 -10q-121 0 -216.5 26.5t-155 83.5t-59.5 136t50.5 130.5
t138.5 70.5q-115 35 -115 145q0 100 125 164q-110 80 -110 229q0 138 99.5 219.5t258.5 81.5q178 0 276 -98q36 56 93.5 88.5t126.5 32.5v-121q-109 0 -183 -43q47 -68 47 -160zM147 -96q0 -94 82 -140.5t222 -46.5q378 0 378 207q0 129 -198 129h-281q-203 0 -203 -149z
M700 610q0 103 -61.5 160t-171.5 57q-108 0 -168.5 -57.5t-60.5 -159.5q0 -101 61 -158t168 -57q110 0 171.5 57t61.5 158zM569 1206v-123h-155v101q0 36 6.5 63.5t22.5 52t47.5 37.5t78.5 13v-62q-39 0 -54 -19t-17 -63h71z" />
    <glyph glyph-name="Hcircumflex" unicode="&#x124;" horiz-adv-x="1331" 
d="M262 0h-129v1290h129v-567h807v567h129v-1290h-129v614h-807v-614zM584 1638h164l161 -249h-100l-143 163l-144 -163h-100z" />
    <glyph glyph-name="hcircumflex" unicode="&#x125;" horiz-adv-x="985" 
d="M248 532v-532h-125v1290h125v-565q32 82 116 135t183 53q165 0 245 -97t80 -265v-551h-124v555q0 121 -61 190.5t-173 69.5q-109 0 -187.5 -79t-78.5 -204zM420 1638h164l161 -249h-100l-143 163l-144 -163h-100z" />
    <glyph glyph-name="Hbar" unicode="&#x126;" horiz-adv-x="1404" 
d="M12 913v109h158v268h129v-268h807v268h129v-268h158v-109h-158v-913h-129v573h-807v-573h-129v913h-158zM299 682h807v231h-807v-231z" />
    <glyph glyph-name="hbar" unicode="&#x127;" horiz-adv-x="985" 
d="M0 1024v90h123v176h125v-176h305v-90h-305v-299q32 82 116 135t183 53q165 0 245 -97t80 -265v-551h-124v555q0 121 -61 190.5t-173 69.5q-109 0 -187.5 -79t-78.5 -204v-532h-125v1024h-123z" />
    <glyph glyph-name="Itilde" unicode="&#x128;" horiz-adv-x="395" 
d="M23 1384h-89q0 109 38 171.5t112 62.5q34 0 69 -21t58.5 -45.5t52.5 -45.5t53 -21q20 0 32 7.5t18 27.5t8 37.5t4 54.5h86q0 -110 -37.5 -172t-110.5 -62q-35 0 -70 20.5t-58 45t-52 45t-53 20.5q-17 0 -28 -6t-17.5 -14.5t-9.5 -27.5t-4 -33.5t-2 -43.5zM133 1290h129
v-1290h-129v1290z" />
    <glyph glyph-name="itilde" unicode="&#x129;" horiz-adv-x="370" 
d="M12 1063h-84q0 110 36 171.5t108 61.5q33 0 66.5 -20.5t56 -45t50.5 -45t52 -20.5q36 0 46 26t13 90v9h84q0 -109 -36.5 -171t-106.5 -62q-34 0 -67.5 21t-56 45.5t-50 45.5t-51.5 21q-14 0 -23.5 -3t-15.5 -13t-10 -17t-6 -26.5t-3 -29.5t-2 -38zM123 889h125v-889h-125
v889z" />
    <glyph glyph-name="Imacron" unicode="&#x12a;" horiz-adv-x="395" 
d="M133 1290h129v-1290h-129v1290zM-37 1405v104h469v-104h-469z" />
    <glyph glyph-name="imacron" unicode="&#x12b;" horiz-adv-x="370" 
d="M123 889h125v-889h-125v889zM-27 1069v105h424v-105h-424z" />
    <glyph glyph-name="Ibreve" unicode="&#x12c;" horiz-adv-x="395" 
d="M133 1290h129v-1290h-129v1290zM197 1382q-108 0 -166 64t-58 192h101q0 -76 28.5 -116.5t94.5 -40.5t94 40.5t28 116.5h101q0 -128 -57.5 -192t-165.5 -64z" />
    <glyph glyph-name="ibreve" unicode="&#x12d;" horiz-adv-x="370" 
d="M123 889h125v-889h-125v889zM184 1034q-108 0 -165.5 64t-57.5 192h100q0 -76 28.5 -116.5t94.5 -40.5t94.5 40.5t28.5 116.5h101q0 -128 -58 -192t-166 -64z" />
    <glyph glyph-name="Iogonek" unicode="&#x12e;" horiz-adv-x="395" 
d="M133 1290h129v-1290q-107 -68 -148.5 -114t-41.5 -93q0 -63 80 -63q42 0 112 34v-77q-68 -45 -149 -45q-65 0 -105.5 34.5t-40.5 100.5q0 61 42 111.5t122 111.5v1290z" />
    <glyph glyph-name="iogonek" unicode="&#x12f;" horiz-adv-x="370" 
d="M123 889h125v-889q-104 -68 -145.5 -114.5t-41.5 -92.5q0 -63 80 -63q43 0 113 34v-77q-68 -45 -150 -45q-65 0 -105 34.5t-40 100.5q0 61 42 111.5t122 111.5v889zM119 1124v166h133v-166h-133z" />
    <glyph glyph-name="Idotaccent" unicode="&#x130;" horiz-adv-x="395" 
d="M133 1290h129v-1290h-129v1290zM131 1401v166h133v-166h-133z" />
    <glyph glyph-name="dotlessi" unicode="&#x131;" horiz-adv-x="370" 
d="M123 889h125v-889h-125v889z" />
    <glyph glyph-name="IJ" unicode="&#x132;" horiz-adv-x="1409" 
d="M133 1290h129v-1290h-129v1290zM1167 1290h129v-858q0 -221 -114.5 -339t-315.5 -118q-196 0 -315 116.5t-129 334.5l121 10q12 -169 95 -262.5t232 -93.5q297 0 297 348v862z" />
    <glyph glyph-name="ij" unicode="&#x133;" horiz-adv-x="741" 
d="M123 889h125v-889h-125v889zM119 1124v166h133v-166h-133zM618 889v-1039q0 -106 -51.5 -164.5t-156.5 -58.5q-51 0 -100 18.5t-83 47.5l39 82q71 -47 142 -47q86 0 86 102v1059h124zM489 1124v166h134v-166h-134z" />
    <glyph glyph-name="Jcircumflex" unicode="&#x134;" horiz-adv-x="1013" 
d="M772 1290h129v-858q0 -221 -114.5 -339t-315.5 -118q-196 0 -315 116.5t-129 334.5l120 10q12 -169 95.5 -262.5t232.5 -93.5q297 0 297 348v862zM758 1638h164l161 -249h-100l-143 163l-144 -163h-100z" />
    <glyph glyph-name="jcircumflex" unicode="&#x135;" horiz-adv-x="370" 
d="M248 889v-1039q0 -106 -52 -164.5t-157 -58.5t-182 66l39 82q71 -47 141 -47q86 0 86 102v1059h125zM100 1290h164l162 -250h-100l-144 164l-143 -164h-100z" />
    <glyph glyph-name="Kcommaaccent" unicode="&#x136;" horiz-adv-x="1163" 
d="M1163 0h-159l-580 639l-162 -160v-479h-129v1290h129v-669l672 669h158l-572 -571zM516 -238v123h156v-100q0 -77 -33.5 -121.5t-122.5 -44.5v62q39 0 54.5 18.5t17.5 62.5h-72z" />
    <glyph glyph-name="kcommaaccent" unicode="&#x137;" horiz-adv-x="942" 
d="M248 334v-334h-125v1290h125v-831l489 430h164l-422 -369l443 -520h-152l-383 451zM408 -238v123h155v-100q0 -36 -6.5 -63.5t-22.5 -52t-47.5 -37.5t-78.5 -13v62q39 0 54 18.5t17 62.5h-71z" />
    <glyph glyph-name="kgreenlandic" unicode="&#x138;" horiz-adv-x="942" 
d="M248 334v-334h-125v889h125v-430l489 430h164l-422 -369l443 -520h-152l-383 451z" />
    <glyph glyph-name="Lacute" unicode="&#x139;" horiz-adv-x="1054" 
d="M133 1290h129v-1181h742v-109h-871v1290zM242 1389h-86l110 249h174z" />
    <glyph glyph-name="lacute" unicode="&#x13a;" horiz-adv-x="370" 
d="M123 1290h125v-1290h-125v1290zM227 1389h-86l111 249h174z" />
    <glyph glyph-name="Lcommaaccent" unicode="&#x13b;" horiz-adv-x="1054" 
d="M133 1290h129v-1181h742v-109h-871v1290zM489 -238v123h156v-100q0 -77 -33.5 -121.5t-122.5 -44.5v62q39 0 54.5 18.5t17.5 62.5h-72z" />
    <glyph glyph-name="lcommaaccent" unicode="&#x13c;" horiz-adv-x="370" 
d="M123 1290h125v-1290h-125v1290zM106 -238v123h156v-100q0 -77 -33.5 -121.5t-122.5 -44.5v62q39 0 54.5 18.5t17.5 62.5h-72z" />
    <glyph glyph-name="Lcaron" unicode="&#x13d;" horiz-adv-x="1054" 
d="M133 1290h129v-1181h742v-109h-871v1290zM623 1030h-66l33 260h153z" />
    <glyph glyph-name="lcaron" unicode="&#x13e;" horiz-adv-x="370" 
d="M123 1290h125v-1290h-125v1290zM397 1030h-65l33 260h153z" />
    <glyph glyph-name="Ldot" unicode="&#x13f;" horiz-adv-x="1054" 
d="M133 1290h129v-1181h742v-109h-871v1290zM737 584v166h133v-166h-133z" />
    <glyph glyph-name="ldot" unicode="&#x140;" horiz-adv-x="569" 
d="M123 1290h125v-1290h-125v1290zM395 563v166h133v-166h-133z" />
    <glyph glyph-name="Lslash" unicode="&#x141;" horiz-adv-x="1054" 
d="M158 1290h129v-643l385 180v-114l-385 -181v-423h741v-109h-870v475l-158 -72v115l158 72v700z" />
    <glyph glyph-name="lslash" unicode="&#x142;" horiz-adv-x="452" 
d="M164 1290h125v-495l143 94v-113l-143 -92v-684h-125v610l-144 -92v113l144 92v567z" />
    <glyph glyph-name="Nacute" unicode="&#x143;" horiz-adv-x="1294" 
d="M276 1290l762 -1063v1063h123v-1290h-102l-803 1112v-1112h-123v1290h143zM707 1389h-86l110 249h174z" />
    <glyph glyph-name="nacute" unicode="&#x144;" horiz-adv-x="985" 
d="M248 532v-532h-125v889h125v-164q32 82 116 135t183 53q165 0 245 -97t80 -265v-551h-124v555q0 121 -61 190.5t-173 69.5q-109 0 -187.5 -79t-78.5 -204zM545 1040h-86l110 250h174z" />
    <glyph glyph-name="Ncommaaccent" unicode="&#x145;" horiz-adv-x="1294" 
d="M276 1290l762 -1063v1063h123v-1290h-102l-803 1112v-1112h-123v1290h143zM586 -238v123h155v-100q0 -36 -6.5 -63.5t-22.5 -52t-47.5 -37.5t-78.5 -13v62q39 0 54 18.5t17 62.5h-71z" />
    <glyph glyph-name="ncommaaccent" unicode="&#x146;" horiz-adv-x="985" 
d="M248 532v-532h-125v889h125v-164q32 82 116 135t183 53q165 0 245 -97t80 -265v-551h-124v555q0 121 -61 190.5t-173 69.5q-109 0 -187.5 -79t-78.5 -204zM440 -238v123h156v-100q0 -77 -33.5 -121.5t-122.5 -44.5v62q39 0 54.5 18.5t17.5 62.5h-72z" />
    <glyph glyph-name="Ncaron" unicode="&#x147;" horiz-adv-x="1294" 
d="M276 1290l762 -1063v1063h123v-1290h-102l-803 1112v-1112h-123v1290h143zM745 1389h-163l-162 249h100l144 -163l143 163h100z" />
    <glyph glyph-name="ncaron" unicode="&#x148;" horiz-adv-x="985" 
d="M248 532v-532h-125v889h125v-164q32 82 116 135t183 53q165 0 245 -97t80 -265v-551h-124v555q0 121 -61 190.5t-173 69.5q-109 0 -187.5 -79t-78.5 -204zM586 1040h-164l-162 250h100l144 -164l143 164h101z" />
    <glyph glyph-name="Eng" unicode="&#x14a;" horiz-adv-x="1294" 
d="M561 -203l86 64q43 -62 93.5 -94.5t127.5 -32.5q97 0 133.5 60t36.5 214l-782 1104v-1112h-123v1290h143l762 -1083v1083h123v-1341q0 -169 -77.5 -245.5t-211.5 -76.5q-111 0 -189.5 45.5t-121.5 124.5z" />
    <glyph glyph-name="eng" unicode="&#x14b;" horiz-adv-x="985" 
d="M748 -170v725q0 121 -61 190.5t-173 69.5q-109 0 -187.5 -79t-78.5 -204v-532h-125v889h125v-164q32 82 116 135t183 53q165 0 245 -97t80 -265v-701q0 -106 -51.5 -164.5t-156.5 -58.5q-51 0 -100 18.5t-83 47.5l39 82q71 -47 142 -47q86 0 86 102z" />
    <glyph glyph-name="Omacron" unicode="&#x14c;" horiz-adv-x="1409" 
d="M1337 645q0 -298 -175 -484t-457 -186t-457.5 186t-175.5 484t175.5 484t457.5 186t457 -186t175 -484zM1202 645q0 257 -135 409t-362 152t-362.5 -152.5t-135.5 -408.5t135.5 -408.5t362.5 -152.5t362 152t135 409zM449 1405v104h514v-104h-514z" />
    <glyph glyph-name="omacron" unicode="&#x14d;" horiz-adv-x="1017" 
d="M195 444q0 -166 83 -268t230 -102q148 0 231.5 102t83.5 268t-83.5 268.5t-231.5 102.5q-146 0 -229.5 -102.5t-83.5 -268.5zM954 444q0 -205 -127 -337t-319 -132q-191 0 -318 132t-127 337t127 337t318 132q192 0 319 -132t127 -337zM252 1069v105h514v-105h-514z" />
    <glyph glyph-name="Obreve" unicode="&#x14e;" horiz-adv-x="1409" 
d="M1337 645q0 -298 -175 -484t-457 -186t-457.5 186t-175.5 484t175.5 484t457.5 186t457 -186t175 -484zM1202 645q0 257 -135 409t-362 152t-362.5 -152.5t-135.5 -408.5t135.5 -408.5t362.5 -152.5t362 152t135 409zM705 1382q-108 0 -166 64t-58 192h101
q0 -76 28.5 -116.5t94.5 -40.5t94 40.5t28 116.5h101q0 -128 -57.5 -192t-165.5 -64z" />
    <glyph glyph-name="obreve" unicode="&#x14f;" horiz-adv-x="1017" 
d="M195 444q0 -166 83 -268t230 -102q148 0 231.5 102t83.5 268t-83.5 268.5t-231.5 102.5q-146 0 -229.5 -102.5t-83.5 -268.5zM954 444q0 -205 -127 -337t-319 -132q-191 0 -318 132t-127 337t127 337t318 132q192 0 319 -132t127 -337zM508 1034q-108 0 -165.5 64
t-57.5 192h100q0 -76 28.5 -116.5t94.5 -40.5t94.5 40.5t28.5 116.5h100q0 -128 -57.5 -192t-165.5 -64z" />
    <glyph glyph-name="Ohungarumlaut" unicode="&#x150;" horiz-adv-x="1409" 
d="M1337 645q0 -298 -175 -484t-457 -186t-457.5 186t-175.5 484t175.5 484t457.5 186t457 -186t175 -484zM1202 645q0 257 -135 409t-362 152t-362.5 -152.5t-135.5 -408.5t135.5 -408.5t362.5 -152.5t362 152t135 409zM631 1389h-76l111 249h163zM877 1389h-76l110 249
h164z" />
    <glyph glyph-name="ohungarumlaut" unicode="&#x151;" horiz-adv-x="1017" 
d="M195 444q0 -166 83 -268t230 -102q148 0 231.5 102t83.5 268t-83.5 268.5t-231.5 102.5q-146 0 -229.5 -102.5t-83.5 -268.5zM954 444q0 -205 -127 -337t-319 -132q-191 0 -318 132t-127 337t127 337t318 132q192 0 319 -132t127 -337zM422 1040h-76l111 250h164z
M668 1040h-76l110 250h164z" />
    <glyph glyph-name="OE" unicode="&#x152;" horiz-adv-x="1941" 
d="M1860 109v-109h-1137q-301 0 -476 172t-175 473t175 473t476 172h1118v-108h-749v-459h600v-109h-600v-505h768zM967 1182h-238q-253 0 -387.5 -141t-134.5 -396q0 -254 134.5 -395t387.5 -141h238v1073z" />
    <glyph glyph-name="oe" unicode="&#x153;" horiz-adv-x="1732" 
d="M508 913q121 0 219 -57.5t156 -157.5q58 101 153 158t215 57q135 0 231.5 -61t141.5 -159t45 -222v-57h-731q6 -147 97.5 -241.5t224.5 -94.5q245 0 301 239l106 -14q-33 -154 -139.5 -241t-267.5 -87q-126 0 -224.5 55t-156.5 154q-60 -99 -155 -154t-216 -55
q-191 0 -318 132t-127 337t127 337t318 132zM195 444q0 -166 83 -268t230 -102q148 0 231.5 102t83.5 268t-83.5 268.5t-231.5 102.5q-146 0 -229.5 -102.5t-83.5 -268.5zM940 502h596q-3 132 -77 222.5t-208 90.5q-127 0 -211 -91t-100 -222z" />
    <glyph glyph-name="Racute" unicode="&#x154;" horiz-adv-x="1204" 
d="M1122 0h-139q-38 53 -53 291q-14 254 -268 254h-402v-545h-127v1290h488q238 0 359.5 -99.5t121.5 -272.5q0 -142 -84.5 -223.5t-212.5 -96.5q233 -44 252 -285q14 -162 24.5 -221.5t40.5 -91.5zM260 651h365q344 0 344 267q0 125 -85 194.5t-259 69.5h-365v-531z
M645 1389h-86l111 249h174z" />
    <glyph glyph-name="racute" unicode="&#x155;" horiz-adv-x="641" 
d="M631 872l-15 -108q-66 35 -135 35q-97 0 -165 -89.5t-68 -222.5v-487h-125v889h125v-187q29 86 97 148.5t159 62.5q80 0 127 -41zM416 1040h-86l110 250h174z" />
    <glyph glyph-name="Rcommaaccent" unicode="&#x156;" horiz-adv-x="1204" 
d="M1122 0h-139q-38 53 -53 291q-14 254 -268 254h-402v-545h-127v1290h488q238 0 359.5 -99.5t121.5 -272.5q0 -142 -84.5 -223.5t-212.5 -96.5q233 -44 252 -285q14 -162 24.5 -221.5t40.5 -91.5zM260 651h365q344 0 344 267q0 125 -85 194.5t-259 69.5h-365v-531z
M524 -238v123h156v-100q0 -77 -33.5 -121.5t-122.5 -44.5v62q39 0 54.5 18.5t17.5 62.5h-72z" />
    <glyph glyph-name="rcommaaccent" unicode="&#x157;" horiz-adv-x="641" 
d="M631 872l-15 -108q-66 35 -135 35q-97 0 -165 -89.5t-68 -222.5v-487h-125v889h125v-187q29 86 97 148.5t159 62.5q80 0 127 -41zM106 -238v123h156v-100q0 -77 -33.5 -121.5t-122.5 -44.5v62q39 0 54.5 18.5t17.5 62.5h-72z" />
    <glyph glyph-name="Rcaron" unicode="&#x158;" horiz-adv-x="1204" 
d="M1122 0h-139q-38 53 -53 291q-14 254 -268 254h-402v-545h-127v1290h488q238 0 359.5 -99.5t121.5 -272.5q0 -142 -84.5 -223.5t-212.5 -96.5q233 -44 252 -285q14 -162 24.5 -221.5t40.5 -91.5zM260 651h365q344 0 344 267q0 125 -85 194.5t-259 69.5h-365v-531z
M684 1389h-164l-162 249h101l143 -163l143 163h101z" />
    <glyph glyph-name="rcaron" unicode="&#x159;" horiz-adv-x="641" 
d="M631 872l-15 -108q-66 35 -135 35q-97 0 -165 -89.5t-68 -222.5v-487h-125v889h125v-187q29 86 97 148.5t159 62.5q80 0 127 -41zM451 1040h-164l-162 250h100l144 -164l143 164h100z" />
    <glyph glyph-name="Sacute" unicode="&#x15a;" horiz-adv-x="1124" 
d="M45 463l117 10q7 -188 122 -292.5t296 -104.5q161 0 253.5 67.5t92.5 186.5q0 98 -62 153.5t-202 83.5l-263 51q-311 63 -311 330q0 162 120.5 264.5t321.5 102.5q235 0 367.5 -122.5t132.5 -340.5l-119 -10q-3 177 -102.5 274.5t-276.5 97.5q-152 0 -235.5 -69.5
t-83.5 -192.5q0 -103 62 -150.5t200 -74.5l230 -45q176 -35 260 -114t84 -228q0 -168 -130.5 -266.5t-338.5 -98.5q-155 0 -275 56t-190 167.5t-70 264.5zM602 1389h-86l111 249h174z" />
    <glyph glyph-name="sacute" unicode="&#x15b;" horiz-adv-x="870" 
d="M59 301l101 12q13 -115 89 -177t204 -62q106 0 169.5 39.5t63.5 115.5q0 69 -46 101t-148 51l-154 27q-252 44 -252 241q0 119 90.5 191.5t237.5 72.5q173 0 270 -81t107 -238l-97 -8q-17 119 -86 174t-194 55q-96 0 -153.5 -40.5t-57.5 -110.5q0 -64 39 -99t123 -49
l163 -27q140 -23 208.5 -78.5t68.5 -168.5q0 -126 -99 -196.5t-251 -70.5q-168 0 -277 83.5t-119 242.5zM471 1040h-86l111 250h174z" />
    <glyph glyph-name="Scircumflex" unicode="&#x15c;" horiz-adv-x="1124" 
d="M45 463l117 10q7 -188 122 -292.5t296 -104.5q161 0 253.5 67.5t92.5 186.5q0 98 -62 153.5t-202 83.5l-263 51q-311 63 -311 330q0 162 120.5 264.5t321.5 102.5q235 0 367.5 -122.5t132.5 -340.5l-119 -10q-3 177 -102.5 274.5t-276.5 97.5q-152 0 -235.5 -69.5
t-83.5 -192.5q0 -103 62 -150.5t200 -74.5l230 -45q176 -35 260 -114t84 -228q0 -168 -130.5 -266.5t-338.5 -98.5q-155 0 -275 56t-190 167.5t-70 264.5zM477 1638h164l162 -249h-101l-143 163l-143 -163h-101z" />
    <glyph glyph-name="scircumflex" unicode="&#x15d;" horiz-adv-x="870" 
d="M59 301l101 12q13 -115 89 -177t204 -62q106 0 169.5 39.5t63.5 115.5q0 69 -46 101t-148 51l-154 27q-252 44 -252 241q0 119 90.5 191.5t237.5 72.5q173 0 270 -81t107 -238l-97 -8q-17 119 -86 174t-194 55q-96 0 -153.5 -40.5t-57.5 -110.5q0 -64 39 -99t123 -49
l163 -27q140 -23 208.5 -78.5t68.5 -168.5q0 -126 -99 -196.5t-251 -70.5q-168 0 -277 83.5t-119 242.5zM362 1290h164l162 -250h-100l-144 164l-143 -164h-100z" />
    <glyph glyph-name="Scedilla" unicode="&#x15e;" horiz-adv-x="1124" 
d="M784 -209q0 -53 -33 -87.5t-81 -48t-111 -13.5q-66 0 -126 23.5t-97 55.5l35 62q86 -70 188 -70q49 0 79 16.5t30 49.5q0 41 -31.5 58t-72 12t-79.5 -23l-36 22l86 129q-220 12 -355 139.5t-135 346.5l117 10q7 -188 122 -292.5t296 -104.5q161 0 253.5 67.5t92.5 186.5
q0 98 -62 153.5t-202 83.5l-263 51q-311 63 -311 330q0 162 120.5 264.5t321.5 102.5q235 0 367.5 -122.5t132.5 -340.5l-119 -10q-3 177 -102.5 274.5t-276.5 97.5q-152 0 -235.5 -69.5t-83.5 -192.5q0 -103 62 -150.5t200 -74.5l230 -45q176 -35 260 -114t84 -228
q0 -163 -123 -261t-320 -104l-55 -73q91 27 162 -2t71 -109z" />
    <glyph glyph-name="scedilla" unicode="&#x15f;" horiz-adv-x="870" 
d="M670 -209q0 -53 -33 -87.5t-81.5 -48t-111.5 -13.5q-66 0 -126 23.5t-97 55.5l35 62q86 -70 188 -70q49 0 79 16.5t30 49.5q0 41 -31 58t-71.5 12t-79.5 -23l-37 22l86 129q-156 8 -254 90.5t-107 233.5l101 12q13 -115 89 -177t204 -62q106 0 169.5 39.5t63.5 115.5
q0 69 -46 101t-148 51l-154 27q-252 44 -252 241q0 119 90.5 191.5t237.5 72.5q173 0 270 -81t107 -238l-97 -8q-17 119 -86 174t-194 55q-96 0 -153.5 -40.5t-57.5 -110.5q0 -64 39 -99t123 -49l163 -27q140 -23 208.5 -78.5t68.5 -168.5q0 -118 -87 -187t-226 -78l-56 -75
q91 27 162.5 -2t71.5 -109z" />
    <glyph glyph-name="Scaron" unicode="&#x160;" horiz-adv-x="1124" 
d="M45 463l117 10q7 -188 122 -292.5t296 -104.5q161 0 253.5 67.5t92.5 186.5q0 98 -62 153.5t-202 83.5l-263 51q-311 63 -311 330q0 162 120.5 264.5t321.5 102.5q235 0 367.5 -122.5t132.5 -340.5l-119 -10q-3 177 -102.5 274.5t-276.5 97.5q-152 0 -235.5 -69.5
t-83.5 -192.5q0 -103 62 -150.5t200 -74.5l230 -45q176 -35 260 -114t84 -228q0 -168 -130.5 -266.5t-338.5 -98.5q-155 0 -275 56t-190 167.5t-70 264.5zM641 1389h-164l-162 249h101l143 -163l143 163h101z" />
    <glyph glyph-name="scaron" unicode="&#x161;" horiz-adv-x="870" 
d="M59 301l101 12q13 -115 89 -177t204 -62q106 0 169.5 39.5t63.5 115.5q0 69 -46 101t-148 51l-154 27q-252 44 -252 241q0 119 90.5 191.5t237.5 72.5q173 0 270 -81t107 -238l-97 -8q-17 119 -86 174t-194 55q-96 0 -153.5 -40.5t-57.5 -110.5q0 -64 39 -99t123 -49
l163 -27q140 -23 208.5 -78.5t68.5 -168.5q0 -126 -99 -196.5t-251 -70.5q-168 0 -277 83.5t-119 242.5zM516 1040h-164l-162 250h101l143 -164l144 164h100z" />
    <glyph glyph-name="Tcedilla" unicode="&#x162;" horiz-adv-x="1171" 
d="M647 0h-129v1182h-477v108h1089v-108h-483v-1182zM508 -238v123h156v-100q0 -77 -33.5 -121.5t-122.5 -44.5v62q39 0 54.5 18.5t17.5 62.5h-72z" />
    <glyph glyph-name="tcedilla" unicode="&#x163;" horiz-adv-x="595" 
d="M154 197v600h-138v61l54 10q58 11 79.5 41t36.5 101l27 127h63v-248h259v-92h-259v-602q0 -61 27 -90t88 -29q74 0 174 61v-88q-95 -74 -217 -74q-194 0 -194 222zM279 -238v123h155v-100q0 -36 -6.5 -63.5t-22.5 -52t-47.5 -37.5t-78.5 -13v62q39 0 54 18.5t17 62.5h-71
z" />
    <glyph glyph-name="Tcaron" unicode="&#x164;" horiz-adv-x="1171" 
d="M647 0h-129v1182h-477v108h1089v-108h-483v-1182zM668 1389h-164l-162 249h100l144 -163l143 163h100z" />
    <glyph glyph-name="tcaron" unicode="&#x165;" horiz-adv-x="595" 
d="M154 197v600h-138v61l54 10q58 11 79.5 41t36.5 101l27 127h63v-248h259v-92h-259v-602q0 -61 27 -90t88 -29q74 0 174 61v-88q-95 -74 -217 -74q-194 0 -194 222zM494 1030h-66l33 260h153z" />
    <glyph glyph-name="Tbar" unicode="&#x166;" horiz-adv-x="1171" 
d="M225 618v105h293v459h-477v108h1089v-108h-483v-459h293v-105h-293v-618h-129v618h-293z" />
    <glyph glyph-name="tbar" unicode="&#x167;" horiz-adv-x="620" 
d="M31 451v90h137v256h-137v61l53 10q58 11 80 41.5t37 100.5l26 127h64v-248h258v-92h-258v-256h237v-90h-237v-256q0 -61 27 -90t88 -29q74 0 174 61v-88q-95 -74 -218 -74q-194 0 -194 222v254h-137z" />
    <glyph glyph-name="Utilde" unicode="&#x168;" horiz-adv-x="1236" 
d="M618 -25q-86 0 -160 17t-138.5 55t-109.5 96.5t-71 146t-26 197.5v803h129v-821q0 -191 97.5 -288t278.5 -97q182 0 281.5 97t99.5 286v823h125v-803q0 -110 -26 -197.5t-71.5 -146t-110 -96.5t-138.5 -55t-160 -17zM412 1386h-88q0 109 41.5 170.5t123.5 61.5
q39 0 78 -20.5t65 -45t58.5 -45t59.5 -20.5q44 0 59 29.5t18 95.5h88q0 -109 -41.5 -170.5t-123.5 -61.5q-39 0 -78 20.5t-65 45t-58.5 45t-59.5 20.5q-44 0 -59 -29.5t-18 -95.5z" />
    <glyph glyph-name="utilde" unicode="&#x169;" horiz-adv-x="974" 
d="M727 356v533h125v-889h-125v164q-33 -83 -114.5 -136t-180.5 -53q-164 0 -241.5 97t-77.5 266v551h125v-555q0 -122 58 -191t169 -69q109 0 185.5 78t76.5 204zM283 1047h-88q0 109 41 170t124 61q39 0 78 -20.5t65 -45t58.5 -45t59.5 -20.5q44 0 59 29.5t18 95.5h88
q0 -109 -41.5 -170.5t-123.5 -61.5q-39 0 -78 20.5t-65 45t-58.5 45t-59.5 20.5q-44 0 -59 -29t-18 -95z" />
    <glyph glyph-name="Umacron" unicode="&#x16a;" horiz-adv-x="1236" 
d="M618 -25q-86 0 -160 17t-138.5 55t-109.5 96.5t-71 146t-26 197.5v803h129v-821q0 -191 97.5 -288t278.5 -97q182 0 281.5 97t99.5 286v823h125v-803q0 -110 -26 -197.5t-71.5 -146t-110 -96.5t-138.5 -55t-160 -17zM362 1405v104h515v-104h-515z" />
    <glyph glyph-name="umacron" unicode="&#x16b;" horiz-adv-x="974" 
d="M727 356v533h125v-889h-125v164q-33 -83 -114.5 -136t-180.5 -53q-164 0 -241.5 97t-77.5 266v551h125v-555q0 -122 58 -191t169 -69q109 0 185.5 78t76.5 204zM233 1069v105h515v-105h-515z" />
    <glyph glyph-name="Ubreve" unicode="&#x16c;" horiz-adv-x="1236" 
d="M618 -25q-86 0 -160 17t-138.5 55t-109.5 96.5t-71 146t-26 197.5v803h129v-821q0 -191 97.5 -288t278.5 -97q182 0 281.5 97t99.5 286v823h125v-803q0 -110 -26 -197.5t-71.5 -146t-110 -96.5t-138.5 -55t-160 -17zM618 1382q-108 0 -165.5 64t-57.5 192h101
q0 -76 28 -116.5t94 -40.5t94.5 40.5t28.5 116.5h101q0 -128 -58 -192t-166 -64z" />
    <glyph glyph-name="ubreve" unicode="&#x16d;" horiz-adv-x="974" 
d="M727 356v533h125v-889h-125v164q-33 -83 -114.5 -136t-180.5 -53q-164 0 -241.5 97t-77.5 266v551h125v-555q0 -122 58 -191t169 -69q109 0 185.5 78t76.5 204zM489 1034q-108 0 -165.5 64t-57.5 192h101q0 -76 28 -116.5t94 -40.5t94.5 40.5t28.5 116.5h101
q0 -128 -58 -192t-166 -64z" />
    <glyph glyph-name="Uring" unicode="&#x16e;" horiz-adv-x="1236" 
d="M618 -25q-86 0 -160 17t-138.5 55t-109.5 96.5t-71 146t-26 197.5v803h129v-821q0 -191 97.5 -288t278.5 -97q182 0 281.5 97t99.5 286v823h125v-803q0 -110 -26 -197.5t-71.5 -146t-110 -96.5t-138.5 -55t-160 -17zM524 1516q0 -42 24.5 -68.5t69.5 -26.5t70 26.5
t25 68.5t-25 68t-70 26t-69.5 -26t-24.5 -68zM444 1516q0 72 48.5 119.5t125.5 47.5t126 -48t49 -119q0 -72 -49 -120t-126 -48t-125.5 48t-48.5 120z" />
    <glyph glyph-name="uring" unicode="&#x16f;" horiz-adv-x="974" 
d="M727 356v533h125v-889h-125v164q-33 -83 -114.5 -136t-180.5 -53q-164 0 -241.5 97t-77.5 266v551h125v-555q0 -122 58 -191t169 -69q109 0 185.5 78t76.5 204zM395 1167q0 -42 24.5 -68t69.5 -26t70 26t25 68t-25 68.5t-70 26.5t-69.5 -26.5t-24.5 -68.5zM315 1167
q0 72 48.5 120t125.5 48t126 -48t49 -120t-49 -120t-126 -48t-125.5 48t-48.5 120z" />
    <glyph glyph-name="Uhungarumlaut" unicode="&#x170;" horiz-adv-x="1236" 
d="M618 -25q-86 0 -160 17t-138.5 55t-109.5 96.5t-71 146t-26 197.5v803h129v-821q0 -191 97.5 -288t278.5 -97q182 0 281.5 97t99.5 286v823h125v-803q0 -110 -26 -197.5t-71.5 -146t-110 -96.5t-138.5 -55t-160 -17zM545 1389h-76l111 249h163zM791 1389h-76l110 249h164
z" />
    <glyph glyph-name="uhungarumlaut" unicode="&#x171;" horiz-adv-x="974" 
d="M727 356v533h125v-889h-125v164q-33 -83 -114.5 -136t-180.5 -53q-164 0 -241.5 97t-77.5 266v551h125v-555q0 -122 58 -191t169 -69q109 0 185.5 78t76.5 204zM403 1040h-75l110 250h164zM649 1040h-76l111 250h164z" />
    <glyph glyph-name="Uogonek" unicode="&#x172;" horiz-adv-x="1236" 
d="M618 -25q-86 0 -160 17t-138.5 55t-109.5 96.5t-71 146t-26 197.5v803h129v-821q0 -191 97.5 -288t278.5 -97q182 0 281.5 97t99.5 286v823h125v-803q0 -358 -262 -469q-94 -79 -132 -128t-38 -97q0 -63 80 -63q43 0 113 34v-77q-68 -45 -150 -45q-65 0 -105 34.5
t-40 100.5q0 99 143 207q-55 -9 -115 -9z" />
    <glyph glyph-name="uogonek" unicode="&#x173;" horiz-adv-x="974" 
d="M727 356v533h125v-889q-104 -68 -145 -114t-41 -93q0 -63 79 -63q43 0 113 34v-77q-68 -45 -149 -45q-65 0 -105.5 34.5t-40.5 100.5q0 61 42 111.5t122 111.5v164q-33 -83 -114.5 -136t-180.5 -53q-164 0 -241.5 97t-77.5 266v551h125v-555q0 -122 58 -191t169 -69
q109 0 185.5 78t76.5 204z" />
    <glyph glyph-name="Wcircumflex" unicode="&#x174;" horiz-adv-x="1622" 
d="M874 1290l308 -1147h8l280 1147h121l-327 -1290h-162l-285 1090h-8l-289 -1090h-162l-327 1290h125l286 -1140h9l301 1140h122zM729 1638h164l162 -249h-101l-143 163l-143 -163h-101z" />
    <glyph glyph-name="wcircumflex" unicode="&#x175;" horiz-adv-x="1265" 
d="M690 889l209 -721h8l219 721h119l-282 -889h-119l-207 709h-8l-205 -709h-119l-285 889h125l224 -721h8l205 721h108zM551 1290h164l162 -250h-101l-143 164l-144 -164h-100z" />
    <glyph glyph-name="Ycircumflex" unicode="&#x176;" horiz-adv-x="1196" 
d="M606 629l422 661h137l-506 -780v-510h-122v510l-506 780h141zM516 1638h164l162 -249h-101l-143 163l-143 -163h-101z" />
    <glyph glyph-name="ycircumflex" unicode="&#x177;" horiz-adv-x="903" 
d="M371 -348h-123l149 354l-377 883h132l305 -731h8l295 731h123zM369 1290h163l162 -250h-100l-143 164l-144 -164h-100z" />
    <glyph glyph-name="Ydieresis" unicode="&#x178;" horiz-adv-x="1196" 
d="M606 629l422 661h137l-506 -780v-510h-122v510l-506 780h141zM406 1401v166h133v-166h-133zM659 1401v166h134v-166h-134z" />
    <glyph glyph-name="Zacute" unicode="&#x179;" horiz-adv-x="1128" 
d="M227 109h840v-109h-1006v86l820 1096h-809v108h972v-92zM631 1389h-86l110 249h174z" />
    <glyph glyph-name="zacute" unicode="&#x17a;" horiz-adv-x="862" 
d="M625 788h-543v101h706v-86l-571 -703h586v-100h-740v86zM492 1040h-86l110 250h174z" />
    <glyph glyph-name="Zdotaccent" unicode="&#x17b;" horiz-adv-x="1128" 
d="M227 109h840v-109h-1006v86l820 1096h-809v108h972v-92zM522 1401v166h133v-166h-133z" />
    <glyph glyph-name="zdotaccent" unicode="&#x17c;" horiz-adv-x="862" 
d="M625 788h-543v101h706v-86l-571 -703h586v-100h-740v86zM379 1124v166h133v-166h-133z" />
    <glyph glyph-name="Zcaron" unicode="&#x17d;" horiz-adv-x="1128" 
d="M227 109h840v-109h-1006v86l820 1096h-809v108h972v-92zM670 1389h-164l-162 249h100l144 -163l143 163h100z" />
    <glyph glyph-name="zcaron" unicode="&#x17e;" horiz-adv-x="862" 
d="M625 788h-543v101h706v-86l-571 -703h586v-100h-740v86zM526 1040h-164l-161 250h100l143 -164l144 164h100z" />
    <glyph glyph-name="florin" unicode="&#x192;" horiz-adv-x="821" 
d="M545 1026l-53 -256h215v-94h-236l-123 -594q-28 -132 -90 -204.5t-182 -72.5q-15 0 -76 9v98q30 -6 55 -6q73 0 114 47t60 141l121 582h-162v94h181l57 268q25 121 95.5 196t183.5 75q38 0 92 -13v-94q-45 10 -74 10q-138 0 -178 -186z" />
    <glyph glyph-name="Aringacute" unicode="&#x1fa;" horiz-adv-x="1275" 
d="M561 1290h139l545 -1290h-137l-174 416h-610l-166 -416h-127zM621 1151l-252 -627h520l-260 627h-8zM461 1499q0 69 48.5 114.5t125.5 45.5q78 0 127 -45.5t49 -114.5q0 -67 -49 -112.5t-127 -45.5q-77 0 -125.5 45.5t-48.5 112.5zM541 1499q0 -39 24.5 -62.5t69.5 -23.5
q46 0 71 23.5t25 62.5q0 41 -25 64.5t-71 23.5q-45 0 -69.5 -23.5t-24.5 -64.5zM680 1702h-86l84 190h174z" />
    <glyph glyph-name="aringacute" unicode="&#x1fb;" horiz-adv-x="978" 
d="M524 1339h-86l84 191h174zM385 1122q0 -39 24.5 -62.5t69.5 -23.5q46 0 71 23.5t25 62.5q0 41 -25 64.5t-71 23.5q-45 0 -69.5 -23.5t-24.5 -64.5zM305 1122q0 69 48.5 114.5t125.5 45.5q78 0 127 -45.5t49 -114.5q0 -67 -49 -112t-127 -45q-77 0 -125.5 45t-48.5 112z
M688 403v56l-217 -47q-139 -30 -200.5 -67.5t-61.5 -119.5q0 -67 44 -110t128 -43q132 0 219.5 92t87.5 239zM807 578v-428q0 -34 19.5 -52t54.5 -18q41 0 80 22v-67q-23 -26 -49 -39.5t-68 -13.5q-66 0 -109.5 52t-46.5 136q-37 -81 -128.5 -138t-201.5 -57q-126 0 -201 66
t-75 180q0 61 25.5 108t77 79.5t114.5 54t152 39.5l237 49v45q0 102 -57.5 160.5t-161.5 58.5q-102 0 -165.5 -53.5t-88.5 -145.5l-106 21q27 124 122 200t236 76q166 0 253 -85.5t87 -249.5z" />
    <glyph glyph-name="AEacute" unicode="&#x1fc;" horiz-adv-x="1994" 
d="M948 1290h946v-108h-749v-459h600v-109h-600v-505h768v-109h-893v416h-555l-295 -416h-139zM1012 1186l-471 -662h479v662h-8zM1411 1389h-86l111 249h174z" />
    <glyph glyph-name="aeacute" unicode="&#x1fd;" horiz-adv-x="1585" 
d="M467 913q234 0 301 -172q60 80 146.5 126t189.5 46q135 0 231.5 -61t141.5 -159t45 -222v-57h-731q6 -155 98 -245.5t223 -90.5q245 0 301 239l107 -14q-33 -154 -140 -241t-268 -87q-128 0 -223 57t-152 161q-40 -89 -137 -153.5t-219 -64.5q-141 0 -220 65t-79 181
q0 134 108.5 207.5t354.5 73.5h147v78q0 113 -59.5 174t-163.5 61q-102 0 -165.5 -53.5t-88.5 -145.5l-106 21q27 124 122 200t236 76zM381 72q129 0 220 80.5t91 224.5v37h-145q-129 0 -205.5 -23.5t-104.5 -63t-28 -102.5q0 -67 44 -110t128 -43zM1104 815
q-121 0 -206.5 -87t-102.5 -226h594q-3 132 -77 222.5t-208 90.5zM848 1040h-86l110 250h175z" />
    <glyph glyph-name="Oslashacute" unicode="&#x1fe;" horiz-adv-x="1409" 
d="M1337 645q0 -298 -175 -484t-457 -186q-220 0 -379 115l-125 -156l-80 64l129 160q-178 184 -178 487q0 298 175.5 484t457.5 186q224 0 385 -121l112 139l80 -63l-117 -146q172 -185 172 -479zM207 645q0 -244 121 -393l688 850q-125 104 -311 104q-227 0 -362.5 -152.5
t-135.5 -408.5zM1202 645q0 234 -115 383l-688 -848q129 -96 306 -96q227 0 362 152t135 409zM748 1389h-86l110 249h174z" />
    <glyph glyph-name="oslashacute" unicode="&#x1ff;" horiz-adv-x="1017" 
d="M954 444q0 -205 -127 -337t-319 -132q-149 0 -266 84l-107 -125l-69 58l110 129q-113 129 -113 323q0 205 127 337t318 132q152 0 268 -86l109 127l69 -57l-112 -133q112 -128 112 -320zM195 444q0 -136 57 -233l455 534q-79 70 -199 70q-146 0 -229.5 -102.5
t-83.5 -268.5zM823 444q0 138 -57 232l-455 -535q76 -67 197 -67q148 0 231.5 102t83.5 268zM555 1040h-86l111 250h174z" />
    <glyph glyph-name="Scommaaccent" unicode="&#x218;" horiz-adv-x="1124" 
d="M45 463l117 10q7 -188 122 -292.5t296 -104.5q161 0 253.5 67.5t92.5 186.5q0 98 -62 153.5t-202 83.5l-263 51q-311 63 -311 330q0 162 120.5 264.5t321.5 102.5q235 0 367.5 -122.5t132.5 -340.5l-119 -10q-3 177 -102.5 274.5t-276.5 97.5q-152 0 -235.5 -69.5
t-83.5 -192.5q0 -103 62 -150.5t200 -74.5l230 -45q176 -35 260 -114t84 -228q0 -168 -130.5 -266.5t-338.5 -98.5q-155 0 -275 56t-190 167.5t-70 264.5zM481 -238v123h156v-100q0 -77 -33.5 -121.5t-122.5 -44.5v62q39 0 54.5 18.5t17.5 62.5h-72z" />
    <glyph glyph-name="scommaaccent" unicode="&#x219;" horiz-adv-x="870" 
d="M59 301l101 12q13 -115 89 -177t204 -62q106 0 169.5 39.5t63.5 115.5q0 69 -46 101t-148 51l-154 27q-252 44 -252 241q0 119 90.5 191.5t237.5 72.5q173 0 270 -81t107 -238l-97 -8q-17 119 -86 174t-194 55q-96 0 -153.5 -40.5t-57.5 -110.5q0 -64 39 -99t123 -49
l163 -27q140 -23 208.5 -78.5t68.5 -168.5q0 -126 -99 -196.5t-251 -70.5q-168 0 -277 83.5t-119 242.5zM379 -238v123h156v-100q0 -77 -33.5 -121.5t-122.5 -44.5v62q39 0 54.5 18.5t17.5 62.5h-72z" />
    <glyph glyph-name="uni0237" unicode="&#x237;" horiz-adv-x="370" 
d="M248 889v-1039q0 -106 -52 -164.5t-157 -58.5t-182 66l39 82q71 -47 141 -47q86 0 86 102v1059h125z" />
    <glyph glyph-name="circumflex" unicode="&#x2c6;" 
d="M430 1290h164l162 -250h-101l-143 164l-143 -164h-101z" />
    <glyph glyph-name="caron" unicode="&#x2c7;" 
d="M594 1040h-164l-162 250h101l143 -164l143 164h101z" />
    <glyph glyph-name="breve" unicode="&#x2d8;" 
d="M512 1034q-108 0 -165.5 64t-57.5 192h100q0 -76 28.5 -116.5t94.5 -40.5t94.5 40.5t28.5 116.5h100q0 -128 -57.5 -192t-165.5 -64z" />
    <glyph glyph-name="dotaccent" unicode="&#x2d9;" 
d="M444 1124v166h134v-166h-134z" />
    <glyph glyph-name="ring" unicode="&#x2da;" 
d="M418 1167q0 -42 24.5 -68t69.5 -26t69.5 26t24.5 68t-24.5 68.5t-69.5 26.5t-69.5 -26.5t-24.5 -68.5zM338 1167q0 72 48.5 120t125.5 48t125.5 -48t48.5 -120t-48.5 -120t-125.5 -48t-125.5 48t-48.5 120z" />
    <glyph glyph-name="ogonek" unicode="&#x2db;" 
d="M561 25h82q-99 -86 -137.5 -135t-38.5 -97q0 -63 80 -63q42 0 112 34v-77q-68 -45 -149 -45q-65 0 -105 34.5t-40 100.5q0 29 13 58.5t27 49.5t47.5 50.5t50 43.5t58.5 46z" />
    <glyph glyph-name="tilde" unicode="&#x2dc;" 
d="M303 1047h-88q0 109 41.5 170t124.5 61q39 0 77.5 -20.5t65 -45t58.5 -45t59 -20.5q44 0 59.5 29.5t18.5 95.5h88q0 -109 -41.5 -170.5t-124.5 -61.5q-39 0 -77.5 20.5t-65 45t-58.5 45t-59 20.5q-44 0 -59.5 -29.5t-18.5 -94.5z" />
    <glyph glyph-name="hungarumlaut" unicode="&#x2dd;" 
d="M328 1040h-76l110 250h164zM573 1040h-75l110 250h164z" />
    <glyph glyph-name="Wgrave" unicode="&#x1e80;" horiz-adv-x="1622" 
d="M874 1290l308 -1147h8l280 1147h121l-327 -1290h-162l-285 1090h-8l-289 -1090h-162l-327 1290h125l286 -1140h9l301 1140h122zM877 1389h-86l-199 249h174z" />
    <glyph glyph-name="wgrave" unicode="&#x1e81;" horiz-adv-x="1265" 
d="M690 889l209 -721h8l219 721h119l-282 -889h-119l-207 709h-8l-205 -709h-119l-285 889h125l224 -721h8l205 721h108zM694 1040h-86l-198 250h174z" />
    <glyph glyph-name="Wacute" unicode="&#x1e82;" horiz-adv-x="1622" 
d="M874 1290l308 -1147h8l280 1147h121l-327 -1290h-162l-285 1090h-8l-289 -1090h-162l-327 1290h125l286 -1140h9l301 1140h122zM854 1389h-86l111 249h174z" />
    <glyph glyph-name="wacute" unicode="&#x1e83;" horiz-adv-x="1265" 
d="M690 889l209 -721h8l219 721h119l-282 -889h-119l-207 709h-8l-205 -709h-119l-285 889h125l224 -721h8l205 721h108zM680 1040h-86l111 250h174z" />
    <glyph glyph-name="Wdieresis" unicode="&#x1e84;" horiz-adv-x="1622" 
d="M874 1290l308 -1147h8l280 1147h121l-327 -1290h-162l-285 1090h-8l-289 -1090h-162l-327 1290h125l286 -1140h9l301 1140h122zM618 1401v166h134v-166h-134zM872 1401v166h134v-166h-134z" />
    <glyph glyph-name="wdieresis" unicode="&#x1e85;" horiz-adv-x="1265" 
d="M690 889l209 -721h8l219 721h119l-282 -889h-119l-207 709h-8l-205 -709h-119l-285 889h125l224 -721h8l205 721h108zM440 1104v166h133v-166h-133zM694 1104v166h133v-166h-133z" />
    <glyph glyph-name="Ygrave" unicode="&#x1ef2;" horiz-adv-x="1196" 
d="M606 629l422 661h137l-506 -780v-510h-122v510l-506 780h141zM664 1389h-86l-199 249h174z" />
    <glyph glyph-name="ygrave" unicode="&#x1ef3;" horiz-adv-x="903" 
d="M371 -348h-123l149 354l-377 883h132l305 -731h8l295 731h123zM512 1040h-86l-199 250h174z" />
    <glyph glyph-name="endash" unicode="&#x2013;" 
d="M123 473v98h778v-98h-778z" />
    <glyph glyph-name="emdash" unicode="&#x2014;" horiz-adv-x="2048" 
d="M123 473v98h1802v-98h-1802z" />
    <glyph glyph-name="quoteleft" unicode="&#x2018;" horiz-adv-x="327" 
d="M246 1106v-164h-164v166q0 54 5 87t21.5 63t50 43.5t87.5 13.5v-84q-52 -4 -66 -28.5t-14 -96.5h80z" />
    <glyph glyph-name="quoteright" unicode="&#x2019;" horiz-adv-x="327" 
d="M82 1126v164h164v-166q0 -54 -5 -87t-21.5 -62.5t-50 -43t-87.5 -13.5v83q52 4 66 28.5t14 96.5h-80z" />
    <glyph glyph-name="quotesinglbase" unicode="&#x201a;" horiz-adv-x="327" 
d="M82 0v164h164v-166q0 -54 -5 -87t-21.5 -63t-50 -43.5t-87.5 -13.5v84q52 4 66 28.5t14 96.5h-80z" />
    <glyph glyph-name="quotedblleft" unicode="&#x201c;" horiz-adv-x="593" 
d="M246 1106v-164h-164v166q0 54 5 87t21.5 63t50 43.5t87.5 13.5v-84q-52 -4 -66 -28.5t-14 -96.5h80zM512 1106v-164h-164v166q0 54 5 87t21.5 63t50 43.5t87.5 13.5v-84q-52 -4 -66 -28.5t-14 -96.5h80z" />
    <glyph glyph-name="quotedblright" unicode="&#x201d;" horiz-adv-x="593" 
d="M348 1126v164h164v-166q0 -54 -5 -87t-21.5 -62.5t-50 -43t-87.5 -13.5v83q52 4 66 28.5t14 96.5h-80zM82 1126v164h164v-166q0 -54 -5 -87t-21.5 -62.5t-50 -43t-87.5 -13.5v83q52 4 66 28.5t14 96.5h-80z" />
    <glyph glyph-name="quotedblbase" unicode="&#x201e;" horiz-adv-x="593" 
d="M348 0v164h164v-166q0 -54 -5 -87t-21.5 -63t-50 -43.5t-87.5 -13.5v84q52 4 66 28.5t14 96.5h-80zM82 0v164h164v-166q0 -54 -5 -87t-21.5 -63t-50 -43.5t-87.5 -13.5v84q52 4 66 28.5t14 96.5h-80z" />
    <glyph glyph-name="dagger" unicode="&#x2020;" horiz-adv-x="624" 
d="M41 1010v96h221v209h100v-209h222v-96h-222v-494h-100v494h-221z" />
    <glyph glyph-name="daggerdbl" unicode="&#x2021;" horiz-adv-x="645" 
d="M51 725v96h221v189h-221v96h221v209h101v-209h221v-96h-221v-189h221v-96h-221v-209h-101v209h-221z" />
    <glyph glyph-name="bullet" unicode="&#x2022;" horiz-adv-x="645" 
d="M543 522q0 -94 -64 -156.5t-157 -62.5t-156.5 62.5t-63.5 156.5q0 95 63.5 158t156.5 63t157 -63t64 -158z" />
    <glyph glyph-name="ellipsis" unicode="&#x2026;" horiz-adv-x="983" 
d="M82 0v164h164v-164h-164zM410 0v164h163v-164h-163zM737 0v164h164v-164h-164z" />
    <glyph glyph-name="perthousand" unicode="&#x2030;" horiz-adv-x="2134" 
d="M186 981q0 -124 44.5 -183t123.5 -59t123.5 59t44.5 183t-44.5 183t-123.5 59t-123.5 -59t-44.5 -183zM61 981q0 153 82.5 243.5t210.5 90.5t210.5 -90.5t82.5 -243.5t-82.5 -243.5t-210.5 -90.5t-210.5 90.5t-82.5 243.5zM1278 309q0 124 -44.5 183t-123.5 59
t-123.5 -59t-44.5 -183t44.5 -182.5t123.5 -58.5t123.5 58.5t44.5 182.5zM1403 309q0 -153 -82.5 -243.5t-210.5 -90.5t-210.5 90.5t-82.5 243.5t82.5 243.5t210.5 90.5t210.5 -90.5t82.5 -243.5zM1948 309q0 124 -44.5 183t-123.5 59t-123.5 -59t-44.5 -183t44.5 -182.5
t123.5 -58.5t123.5 58.5t44.5 182.5zM2073 309q0 -153 -82.5 -243.5t-210.5 -90.5t-210.5 90.5t-82.5 243.5t82.5 243.5t210.5 90.5t210.5 -90.5t82.5 -243.5zM1116 1290l-655 -1290h-113l656 1290h112z" />
    <glyph glyph-name="guilsinglleft" unicode="&#x2039;" horiz-adv-x="489" 
d="M102 397v90l285 267v-136l-190 -176l190 -176v-135z" />
    <glyph glyph-name="guilsinglright" unicode="&#x203a;" horiz-adv-x="489" 
d="M387 487v-90l-285 -266v135l191 176l-191 176v136z" />
    <glyph glyph-name="fraction" unicode="&#x2044;" horiz-adv-x="997" 
d="M985 1290l-848 -1290h-117l848 1290h117z" />
    <glyph glyph-name="Euro" unicode="&#x20ac;" horiz-adv-x="1239" 
d="M31 467v96h129q-2 27 -2 82q0 51 2 76h-129v96h139q39 229 172.5 363.5t331.5 134.5q219 0 348 -147.5t145 -387.5l-125 -6q-6 94 -31.5 171.5t-69.5 136.5t-112.5 91.5t-154.5 32.5q-153 0 -248 -103t-125 -286h426l-20 -96h-416q-2 -25 -2 -76q0 -55 2 -82h393l-20 -96
h-361q30 -182 124 -282.5t247 -100.5q171 0 261.5 114.5t106.5 317.5l125 -6q-19 -244 -146.5 -389.5t-346.5 -145.5q-197 0 -330 132.5t-172 359.5h-141z" />
    <glyph glyph-name="uni2117" unicode="&#x2117;" horiz-adv-x="1482" 
d="M72 645q0 190 90 344.5t243 240t336 85.5t336 -85.5t243.5 -240t90.5 -344.5t-90.5 -344.5t-243.5 -240t-336 -85.5t-336 85.5t-243 240t-90 344.5zM166 645q0 -164 77.5 -297t209 -206.5t288.5 -73.5t289 73.5t209.5 206.5t77.5 297q0 123 -45.5 231.5t-123.5 184
t-183.5 119t-223.5 43.5q-157 0 -288.5 -73.5t-209 -207t-77.5 -297.5zM606 635h168q96 0 145.5 38t49.5 109t-49.5 109.5t-145.5 38.5h-168v-295zM606 541v-277h-112v760h299q140 0 214 -67.5t74 -174.5t-74 -174t-214 -67h-187z" />
    <glyph glyph-name="trademark" unicode="&#x2122;" horiz-adv-x="1263" 
d="M326 758h-97v450h-188v82h477v-82h-192v-450zM907 758h-82l-143 446h-4v-446h-90v532h153l127 -411h4l127 411h148v-532h-94v446h-4z" />
    <glyph glyph-name="uni2153" unicode="&#x2153;" horiz-adv-x="1458" 
d="M61 1102v74q81 0 122 27.5t63 92.5h78v-792h-115v598h-148zM1280 217q0 64 -46.5 99.5t-121.5 35.5q-38 0 -74 -4v92q16 -2 74 -2q67 0 110.5 31.5t43.5 99.5q0 65 -41.5 103.5t-118.5 38.5q-80 0 -127 -52t-47 -143l-111 4q0 125 78 204t209 79q128 0 200 -60.5
t72 -162.5q0 -72 -45.5 -122.5t-105.5 -60.5q74 -11 121 -62t47 -126q0 -100 -77.5 -161.5t-207.5 -61.5q-141 0 -223 75t-82 205l113 -4q3 -91 53.5 -137.5t138.5 -46.5q77 0 122.5 36.5t45.5 102.5zM1116 1290l-848 -1290h-116l847 1290h117z" />
    <glyph glyph-name="uni2154" unicode="&#x2154;" horiz-adv-x="1697" 
d="M1520 217q0 64 -46.5 99.5t-121.5 35.5q-38 0 -74 -4v92q16 -2 74 -2q67 0 110 31t43 100q0 65 -41 103.5t-118 38.5q-80 0 -127.5 -52t-47.5 -143l-110 4q0 125 78 204t209 79q128 0 200 -60.5t72 -162.5q0 -72 -45.5 -122.5t-106.5 -60.5q74 -11 121 -62t47 -126
q0 -100 -77 -161.5t-207 -61.5q-141 0 -223 75t-82 205l112 -4q3 -90 54 -137t139 -47q77 0 122.5 36.5t45.5 102.5zM238 598h403v-98h-580v67l222 191q114 96 163.5 158t49.5 139q0 70 -39 110.5t-113 40.5q-78 0 -121 -46.5t-43 -131.5q0 -30 10 -72l-114 7q-8 50 -8 73
q0 121 76 194t202 73q132 0 200 -68t68 -174q0 -51 -18.5 -99t-56 -93t-71 -77t-85.5 -75zM1356 1290l-848 -1290h-117l848 1290h117z" />
    <glyph glyph-name="uni215B" unicode="&#x215b;" horiz-adv-x="1482" 
d="M61 1102v74q81 0 122 27.5t63 92.5h78v-792h-115v598h-148zM1122 717q-72 0 -114.5 -36.5t-42.5 -105.5q0 -65 42.5 -101t114.5 -36q73 0 116.5 36t43.5 101q0 69 -43 105.5t-117 36.5zM1122 354q-87 0 -133.5 -35.5t-46.5 -103.5t47 -105.5t133 -37.5q87 0 135 37.5
t48 105.5t-47 103.5t-136 35.5zM1122 -14q-139 0 -219 60t-80 163q0 73 47 124t115 64q-133 49 -133 187q0 100 75.5 159.5t194.5 59.5q120 0 196.5 -59.5t76.5 -159.5q0 -68 -35 -115.5t-98 -71.5q68 -13 113.5 -63.5t45.5 -124.5q0 -103 -79.5 -163t-219.5 -60zM1116 1290
l-848 -1290h-116l847 1290h117z" />
    <glyph glyph-name="uni215C" unicode="&#x215c;" horiz-adv-x="1714" 
d="M1354 717q-72 0 -115 -36.5t-43 -105.5q0 -65 43 -101t115 -36q73 0 116 36t43 101q0 69 -42.5 105.5t-116.5 36.5zM1354 354q-87 0 -133.5 -35.5t-46.5 -103.5t47 -105.5t133 -37.5q87 0 134.5 37.5t47.5 105.5q0 69 -47 104t-135 35zM1354 -14q-139 0 -219 60t-80 163
q0 73 47 124t115 64q-64 24 -99 71.5t-35 115.5q0 100 76 159.5t195 59.5q120 0 196 -59.5t76 -159.5q0 -68 -35 -115.5t-98 -71.5q68 -13 114 -63.5t46 -124.5q0 -103 -79.5 -163t-219.5 -60zM535 719q0 64 -46.5 99.5t-121.5 35.5q-38 0 -74 -4v92q16 -2 74 -2
q67 0 110 31t43 100q0 65 -41 103t-119 38q-80 0 -127 -51.5t-47 -142.5l-110 4q0 125 77.5 204t208.5 79q128 0 200.5 -61t72.5 -163q0 -71 -45.5 -121.5t-106.5 -60.5q74 -11 121 -62t47 -126q0 -101 -77 -162.5t-207 -61.5q-141 0 -223.5 75.5t-82.5 205.5l113 -4
q3 -90 54 -137t139 -47q77 0 122.5 36.5t45.5 102.5zM1348 1290l-848 -1290h-117l848 1290h117z" />
    <glyph glyph-name="uni215D" unicode="&#x215d;" horiz-adv-x="1677" 
d="M1317 717q-72 0 -115 -36.5t-43 -105.5q0 -65 43 -101t115 -36q73 0 116.5 36t43.5 101q0 69 -43 105.5t-117 36.5zM1317 354q-87 0 -133.5 -35.5t-46.5 -103.5t47 -105.5t133 -37.5q87 0 134.5 37.5t47.5 105.5q0 69 -47 104t-135 35zM1317 -14q-139 0 -219 60t-80 163
q0 73 47 124t115 64q-133 49 -133 187q0 100 75.5 159.5t194.5 59.5q120 0 196 -59.5t76 -159.5q0 -68 -35 -115.5t-98 -71.5q68 -13 114 -63.5t46 -124.5q0 -103 -79.5 -163t-219.5 -60zM588 1290v-102h-375q0 -30 -10 -116t-17 -120q63 78 185 78q128 0 199 -76t71 -190
q0 -123 -79 -199t-208 -76q-141 0 -219 80t-72 213l111 -8q0 -90 47 -142t135 -52q82 0 129 49.5t47 134.5q0 78 -47.5 127t-128.5 49q-113 0 -168 -96l-112 6q45 245 51 440h461zM1311 1290l-848 -1290h-117l848 1290h117z" />
    <glyph glyph-name="uni215E" unicode="&#x215e;" horiz-adv-x="1505" 
d="M1145 717q-72 0 -115 -36.5t-43 -105.5q0 -65 43 -101t115 -36q73 0 116.5 36t43.5 101q0 69 -43 105.5t-117 36.5zM1145 354q-87 0 -133.5 -35.5t-46.5 -103.5t47 -105.5t133 -37.5q87 0 134.5 37.5t47.5 105.5q0 69 -47 104t-135 35zM1145 -14q-139 0 -219 60t-80 163
q0 73 47 124t115 64q-64 24 -99 71.5t-35 115.5q0 100 76 159.5t195 59.5q120 0 196 -59.5t76 -159.5q0 -68 -35 -115.5t-98 -71.5q68 -13 114 -63.5t46 -124.5q0 -103 -79.5 -163t-219.5 -60zM471 1188h-430v102h559v-71q-140 -145 -199 -322.5t-61 -392.5h-125
q3 205 69.5 381.5t186.5 302.5zM1139 1290l-848 -1290h-117l848 1290h117z" />
    <glyph glyph-name="minus" unicode="&#x2212;" horiz-adv-x="1269" 
d="M117 586v106h1036v-106h-1036z" />
    <glyph glyph-name="approxequal" unicode="&#x2248;" horiz-adv-x="1292" 
d="M127 674v110q147 95 281 95q89 0 236.5 -45.5t236.5 -45.5q142 0 284 93v-111q-140 -94 -284 -94q-89 0 -236.5 45t-236.5 45q-139 0 -281 -92zM127 395v113q142 92 281 92q89 0 236.5 -45t236.5 -45q143 0 284 92v-110q-142 -93 -284 -93q-89 0 -236.5 45t-236.5 45
q-136 0 -281 -94z" />
    <glyph glyph-name="notequal" unicode="&#x2260;" horiz-adv-x="1292" 
d="M127 729v109h616l207 260h125l-209 -260h299v-109h-385l-149 -188h534v-109h-620l-203 -254h-125l203 254h-293v109h379l149 188h-528z" />
    <glyph glyph-name="lessequal" unicode="&#x2264;" horiz-adv-x="952" 
d="M80 94v107h792v-107h-792zM80 711v110l792 389v-114l-673 -330l673 -332v-115z" />
    <glyph glyph-name="greaterequal" unicode="&#x2265;" horiz-adv-x="952" 
d="M872 201v-107h-792v107h792zM872 821v-110l-792 -392v115l674 332l-674 330v114z" />
    <glyph glyph-name="i.dot" horiz-adv-x="370" 
d="M123 889h125v-889h-125v889zM119 1124v166h133v-166h-133z" />
    <glyph glyph-name="space_uni0326" 
d="M434 -238v123h156v-100q0 -77 -33.5 -121.5t-122.5 -44.5v62q39 0 54.5 18.5t17.5 62.5h-72z" />
    <glyph glyph-name="space_uni0326.alt" 
d="M590 1206v-123h-156v101q0 76 33.5 121t122.5 45v-62q-39 0 -54.5 -19t-17.5 -63h72z" />
    <glyph glyph-name="space_dotbelowcomb" 
d="M444 -348v166h134v-166h-134z" />
    <glyph glyph-name="caron.Slovak" 
d="M483 1030h-65l33 260h153z" />
    <glyph glyph-name="cedilla.alt" 
d="M735 -209q0 -53 -33 -87.5t-81 -48t-111 -13.5q-66 0 -126 23.5t-97 55.5l35 62q86 -70 188 -70q49 0 78.5 16.5t29.5 49.5q0 41 -31 58t-71.5 12t-79.5 -23l-37 22l119 175h74l-90 -121q91 27 162 -2t71 -109z" />
    <glyph glyph-name="grave.cap" 
d="M653 1389h-86l-198 249h174z" />
    <glyph glyph-name="acute.cap" 
d="M455 1389h-86l110 249h174z" />
    <glyph glyph-name="circumflex.cap" 
d="M430 1638h164l162 -249h-101l-143 163l-143 -163h-101z" />
    <glyph glyph-name="caron.cap" 
d="M594 1389h-164l-162 249h101l143 -163l143 163h101z" />
    <glyph glyph-name="tilde.cap" 
d="M303 1386h-88q0 109 41.5 170.5t124.5 61.5q39 0 77.5 -20.5t65 -45t58.5 -45t59 -20.5q44 0 59.5 29.5t18.5 95.5h88q0 -109 -41.5 -170.5t-124.5 -61.5q-39 0 -77.5 20.5t-65 45t-58.5 45t-59 20.5q-44 0 -59.5 -29.5t-18.5 -95.5z" />
    <glyph glyph-name="macron.cap" 
d="M254 1405v104h514v-104h-514z" />
    <glyph glyph-name="breve.cap" 
d="M512 1382q-108 0 -165.5 64t-57.5 192h100q0 -76 28.5 -116.5t94.5 -40.5t94.5 40.5t28.5 116.5h100q0 -128 -57.5 -192t-165.5 -64z" />
    <glyph glyph-name="dotaccent.cap" 
d="M444 1401v166h134v-166h-134z" />
    <glyph glyph-name="dieresis.cap" 
d="M317 1401v166h134v-166h-134zM571 1401v166h134v-166h-134z" />
    <glyph glyph-name="ring.cap" 
d="M418 1516q0 -42 24.5 -68.5t69.5 -26.5t69.5 26.5t24.5 68.5t-24.5 68t-69.5 26t-69.5 -26t-24.5 -68zM338 1516q0 72 48.5 119.5t125.5 47.5t125.5 -47.5t48.5 -119.5t-48.5 -120t-125.5 -48t-125.5 48t-48.5 120z" />
    <glyph glyph-name="hungarumlaut.cap" 
d="M328 1389h-76l110 249h164zM573 1389h-75l110 249h164z" />
    <glyph glyph-name="exclamdown.cap" horiz-adv-x="368" 
d="M102 1126v164h164v-164h-164zM252 0h-135v369l45 610h45l45 -610v-369z" />
    <glyph glyph-name="questiondown.cap" horiz-adv-x="978" 
d="M453 971h116q0 -92 -34.5 -156t-120.5 -133q-7 -6 -33 -27t-35 -28.5t-32 -28t-32.5 -32.5t-26.5 -32.5t-24.5 -38.5t-17 -41t-13 -48t-3.5 -52q0 -122 72.5 -198t209.5 -76q147 0 228 87t81 245q0 60 -14 120l131 -8q13 -67 13 -121q0 -196 -119 -312t-320 -116
q-108 0 -190 30.5t-131 83.5t-73 120t-24 145q0 53 16 102.5t39 87t64.5 81.5t75.5 73t90 74q61 50 84 92t23 107zM600 1290v-164h-164v164h164z" />
    <glyph glyph-name="guilsinglleft.cap" horiz-adv-x="489" 
d="M102 582v90l285 266v-135l-190 -176l190 -176v-136z" />
    <glyph glyph-name="guilsinglright.cap" horiz-adv-x="489" 
d="M387 672v-90l-285 -267v136l191 176l-191 176v135z" />
    <glyph glyph-name="guillemotleft.cap" horiz-adv-x="786" 
d="M102 582v90l285 266v-135l-190 -176l190 -176v-136zM399 582v90l285 266v-135l-190 -176l190 -176v-136z" />
    <glyph glyph-name="guillemotright.cap" horiz-adv-x="786" 
d="M387 672v-90l-285 -267v136l191 176l-191 176v135zM684 672v-90l-285 -267v136l191 176l-191 176v135z" />
    <glyph glyph-name="slash.cap" horiz-adv-x="632" 
d="M0 0l512 1290h121l-512 -1290h-121z" />
    <glyph glyph-name="backslash.cap" horiz-adv-x="632" 
d="M121 1290l512 -1290h-121l-512 1290h121z" />
    <glyph glyph-name="bar.cap" horiz-adv-x="380" 
d="M133 0v1290h115v-1290h-115z" />
    <glyph glyph-name="periodcentered.cap" horiz-adv-x="327" 
d="M82 563v164h164v-164h-164z" />
    <glyph glyph-name="bullet.cap" horiz-adv-x="645" 
d="M543 645q0 -94 -64 -156.5t-157 -62.5t-156.5 62.5t-63.5 156.5q0 95 63.5 158t156.5 63t157 -63t64 -158z" />
    <glyph glyph-name="hyphen.cap" horiz-adv-x="696" 
d="M123 588v112h450v-112h-450z" />
    <glyph glyph-name="endash.cap" 
d="M123 596v98h778v-98h-778z" />
    <glyph glyph-name="emdash.cap" horiz-adv-x="2048" 
d="M123 596v98h1802v-98h-1802z" />
    <glyph glyph-name="parenleft.cap" horiz-adv-x="559" 
d="M82 621q0 211 74 412t209 349h133q-151 -173 -214 -361.5t-63 -399.5q0 -212 63 -400.5t214 -361.5h-133q-135 148 -209 349.5t-74 412.5z" />
    <glyph glyph-name="parenright.cap" horiz-adv-x="559" 
d="M477 621q0 -212 -73.5 -413t-208.5 -349h-134q151 173 214 361.5t63 400.5q0 211 -63 399.5t-214 361.5h134q135 -148 208.5 -348.5t73.5 -412.5z" />
    <glyph glyph-name="bracketleft.cap" horiz-adv-x="542" 
d="M256 1280v-1319h184v-102h-307v1523h307v-102h-184z" />
    <glyph glyph-name="bracketright.cap" horiz-adv-x="542" 
d="M287 -39v1319h-185v102h308v-1523h-308v102h185z" />
    <glyph glyph-name="braceleft.cap" horiz-adv-x="571" 
d="M51 569v103h51q61 0 79 30.5t18 118.5v375q0 94 36 140t125 46h109v-102h-82q-63 0 -63 -76v-383q0 -85 -31 -135.5t-105 -64.5q74 -14 105 -65t31 -136v-383q0 -76 63 -76h82v-102h-109q-89 0 -125 46t-36 140v375q0 88 -18 118.5t-79 30.5h-51z" />
    <glyph glyph-name="braceright.cap" horiz-adv-x="571" 
d="M520 672v-103h-51q-61 0 -78.5 -30t-17.5 -119v-375q0 -94 -36.5 -140t-125.5 -46h-109v102h82q64 0 64 76v383q0 85 30.5 136t104.5 65q-74 14 -104.5 64.5t-30.5 135.5v383q0 76 -64 76h-82v102h109q89 0 125.5 -46t36.5 -140v-375q0 -89 17.5 -119t78.5 -30h51z" />
    <glyph glyph-name="at.cap" horiz-adv-x="1546" 
d="M1130 379q107 0 175.5 98.5t68.5 292.5q0 223 -143 363.5t-389 140.5q-195 0 -346.5 -86.5t-233.5 -240t-82 -347.5q0 -175 82 -309t219 -203.5t305 -69.5q232 0 422 93l43 -72q-195 -117 -467 -117q-149 0 -278 45.5t-226 130.5t-152.5 215.5t-55.5 290.5q0 162 55 303
t154 243.5t244 161t317 58.5q149 0 271 -45t203 -125t125 -190t44 -240q0 -98 -20 -179.5t-54.5 -138.5t-81.5 -96.5t-100.5 -58t-112.5 -18.5q-79 0 -127 41.5t-61 107.5q-38 -68 -107 -108.5t-155 -40.5q-120 0 -191.5 76t-71.5 208q0 81 26.5 160t74.5 144t123 105
t164 40q84 0 145.5 -37.5t83.5 -97.5l33 118h121l-125 -493q-17 -67 4 -95t77 -28zM954 621l15 53q26 105 -22.5 174.5t-145.5 69.5q-118 0 -192 -109t-74 -248q0 -91 37.5 -134.5t115.5 -43.5q86 0 160.5 62t105.5 176z" />
    <glyph glyph-name="Euro.lt" horiz-adv-x="1228" 
d="M45 467v96h129q-2 27 -2 82q0 51 2 76h-129v96h139q39 229 172.5 363.5t331.5 134.5q219 0 348.5 -148t145.5 -387l-125 -6q-8 127 -49.5 222t-123.5 152.5t-196 57.5q-153 0 -248 -103t-125 -286h426l-20 -96h-416q-2 -25 -2 -76q0 -55 2 -82h393l-20 -96h-361
q30 -182 124 -282.5t247 -100.5q171 0 262 115t107 317l125 -6q-13 -160 -71.5 -279t-167 -187.5t-255.5 -68.5q-197 0 -330 132.5t-172 359.5h-141z" />
    <glyph glyph-name="dollar.lt" horiz-adv-x="1228" 
d="M121 463l115 10q6 -169 99 -271.5t245 -121.5v516l-113 22q-142 29 -224.5 113.5t-82.5 224.5q0 160 112.5 258t307.5 101v184h100v-190q190 -25 295.5 -144t105.5 -313l-116 -10q-3 151 -77.5 245t-207.5 119v-510l86 -16q174 -35 258 -113t84 -227q0 -161 -119 -258
t-309 -105v-188h-100v191q-206 18 -332.5 144.5t-126.5 338.5zM725 567l-45 8v-499q138 8 220.5 75t82.5 179q0 98 -60.5 153.5t-197.5 83.5zM281 961q0 -104 64 -157t198 -79l37 -8v497q-146 -3 -222.5 -68.5t-76.5 -184.5z" />
    <glyph glyph-name="cent.lt" horiz-adv-x="1228" 
d="M578 -203v183q-177 18 -291.5 144.5t-114.5 319.5q0 192 115 319t291 146v203h100v-201q170 -13 268 -120t111 -267l-113 -8q-9 120 -79 199t-187 92v-725q119 12 187.5 88.5t82.5 206.5l109 -12q-13 -160 -111 -267.5t-268 -120.5v-180h-100zM299 444
q0 -148 75.5 -244.5t203.5 -115.5v721q-128 -19 -203.5 -115.5t-75.5 -245.5z" />
    <glyph glyph-name="sterling.lt" horiz-adv-x="1228" 
d="M414 926q0 -98 45 -228h340v-98h-303q59 -164 59 -270q0 -40 -6 -80q10 -8 42 -33.5t45 -35t41.5 -29.5t47.5 -29t46.5 -20.5t54.5 -16t55 -4.5q163 0 163 254l111 -4q0 -163 -74.5 -260t-206.5 -97q-54 0 -103.5 13.5t-95 42t-75.5 52t-74 62.5q-63 -170 -233 -170
q-89 0 -148 49.5t-59 139.5q0 85 59.5 139.5t155.5 54.5q69 0 145 -39v11q0 114 -65 270h-203v98h160q-45 113 -45 228q0 175 101.5 282t283.5 107q186 0 293.5 -109.5t107.5 -304.5l-118 -6q0 156 -73.5 235.5t-209.5 79.5q-135 0 -199.5 -78t-64.5 -206zM295 63
q117 0 143 154q-77 53 -137 53q-54 0 -84.5 -27.5t-30.5 -78.5q0 -45 31 -73t78 -28z" />
    <glyph glyph-name="yen.lt" horiz-adv-x="1228" 
d="M205 557v98h282l-419 635h141l414 -635l401 635h137l-420 -635h283v-98h-348v-158h348v-98h-348v-301h-123v301h-348v98h348v158h-348z" />
    <glyph glyph-name="florin.lt" horiz-adv-x="1228" 
d="M760 1026l-53 -256h215v-94h-236l-123 -594q-28 -132 -90 -204.5t-182 -72.5q-15 0 -76 9v98q30 -6 55 -6q73 0 114 47t60 141l121 582h-162v94h181l57 268q25 121 95.5 196t183.5 75q38 0 92 -13v-94q-45 10 -74 10q-138 0 -178 -186z" />
    <glyph glyph-name="zero.lt" horiz-adv-x="1228" 
d="M1137 645q0 -321 -136 -495.5t-387 -174.5q-250 0 -386 174.5t-136 495.5t136 495.5t386 174.5q251 0 387 -174.5t136 -495.5zM1001 645q0 565 -387 565t-387 -565t387 -565t387 565z" />
    <glyph glyph-name="one.lt" horiz-adv-x="1228" 
d="M242 0v109h333v909h-309v92h49q167 0 229.5 37t88.5 153h72v-1191h323v-109h-786z" />
    <glyph glyph-name="two.lt" horiz-adv-x="1228" 
d="M358 115h723v-115h-934v61l367 324q54 47 76 67t68.5 62.5t67 66t54 62t49 67t33 65t24.5 72t7 73.5q0 132 -75 211t-214 79q-147 0 -228 -86.5t-81 -244.5q0 -61 14 -121l-131 8q-12 62 -12 121q0 196 118.5 312t319.5 116q108 0 191 -30.5t133 -84.5t75 -123t25 -151
q0 -68 -26 -138.5t-62.5 -126t-96.5 -120t-105.5 -105.5t-112.5 -98z" />
    <glyph glyph-name="three.lt" horiz-adv-x="1228" 
d="M940 348q0 118 -88 185t-227 67q-69 0 -131 -8v117q54 -7 131 -7q60 0 110 12.5t91.5 39.5t65 76.5t23.5 117.5q0 119 -78 190.5t-225 71.5q-153 0 -241 -93t-88 -263l-127 6q0 202 124 328.5t332 126.5q205 0 318.5 -98t113.5 -261q0 -120 -76 -204.5t-177 -100.5
q119 -15 198.5 -101t79.5 -212q0 -159 -123 -261t-330 -102q-225 0 -355 122t-130 337l127 -8q4 -168 99.5 -257t260.5 -89q148 0 235 70t87 198z" />
    <glyph glyph-name="four.lt" horiz-adv-x="1228" 
d="M905 1290v-821h256v-104h-256v-365h-127v365h-702v124l669 801h160zM778 1171l-581 -702h581v702z" />
    <glyph glyph-name="five.lt" horiz-adv-x="1228" 
d="M995 1290v-121h-637q-2 -58 -21.5 -234t-31.5 -228q51 66 137 108.5t195 42.5q106 0 191.5 -34.5t139.5 -94t82.5 -137.5t28.5 -166q0 -198 -127 -324.5t-334 -126.5q-226 0 -351.5 133.5t-114.5 350.5l129 -13q-2 -169 86 -268.5t256 -99.5q153 0 239 93t86 253
q0 145 -88 235.5t-237 90.5q-112 0 -194 -53t-124 -134l-131 8q27 148 52.5 359t29.5 360h739z" />
    <glyph glyph-name="six.lt" horiz-adv-x="1228" 
d="M662 1212q-108 0 -189 -48t-130 -136t-71.5 -205t-19.5 -262q33 135 138.5 220t271.5 85q207 0 330.5 -123t123.5 -319q0 -200 -125 -324.5t-338 -124.5q-249 0 -382.5 171t-133.5 468q0 155 32 282t95.5 221t165 146t232.5 52q188 0 306.5 -103.5t133.5 -281.5l-125 -6
q-46 288 -315 288zM301 420q0 -153 95 -245.5t257 -92.5q157 0 246.5 92t89.5 246q0 155 -90.5 245.5t-253.5 90.5t-253.5 -90.5t-90.5 -245.5z" />
    <glyph glyph-name="seven.lt" horiz-adv-x="1228" 
d="M915 1171h-772v119h924v-63q-154 -163 -256.5 -367.5t-148.5 -416.5t-48 -443h-139q4 344 123.5 655t316.5 516z" />
    <glyph glyph-name="eight.lt" horiz-adv-x="1228" 
d="M614 1217q-136 0 -217.5 -68.5t-81.5 -198.5q0 -121 82 -188.5t217 -67.5t217 67.5t82 188.5q0 130 -81.5 198.5t-217.5 68.5zM614 592q-164 0 -251 -64.5t-87 -189.5t88 -194.5t250 -69.5t250 69.5t88 194.5t-87 189.5t-251 64.5zM614 -25q-220 0 -347.5 98.5
t-127.5 266.5q0 121 80.5 204t192.5 103q-105 36 -165.5 116.5t-60.5 192.5q0 164 120.5 261.5t307.5 97.5t307.5 -97.5t120.5 -261.5q0 -112 -60 -192.5t-165 -116.5q112 -20 192.5 -103t80.5 -204q0 -168 -128 -266.5t-348 -98.5z" />
    <glyph glyph-name="nine.lt" horiz-adv-x="1228" 
d="M567 78q108 0 189 48t130 136t71.5 205t19.5 262q-33 -135 -138.5 -220t-271.5 -85q-207 0 -330.5 123t-123.5 319q0 200 124.5 324.5t337.5 124.5q249 0 383 -171t134 -468q0 -155 -32 -282t-95.5 -221t-165 -146t-232.5 -52q-188 0 -306.5 103.5t-133.5 281.5l125 7
q21 -135 98 -212t217 -77zM928 870q0 153 -95.5 245.5t-257.5 92.5q-156 0 -245.5 -92t-89.5 -246q0 -155 90.5 -245t253.5 -90t253.5 90t90.5 245z" />
    <glyph glyph-name="period.tab" horiz-adv-x="614" 
d="M225 0v164h164v-164h-164z" />
    <glyph glyph-name="comma.tab" horiz-adv-x="614" 
d="M225 0v164h164v-166q0 -54 -5 -87t-21.5 -63t-50 -43.5t-87.5 -13.5v84q52 4 66 28.5t14 96.5h-80z" />
    <glyph glyph-name="colon.tab" horiz-adv-x="614" 
d="M225 0v164h164v-164h-164zM225 678v164h164v-164h-164z" />
    <glyph glyph-name="semicolon.tab" horiz-adv-x="614" 
d="M225 0v164h164v-166q0 -54 -5 -87t-21.5 -63t-50 -43.5t-87.5 -13.5v84q52 4 66 28.5t14 96.5h-80zM225 678v164h164v-164h-164z" />
    <glyph glyph-name="space.tab" horiz-adv-x="614" 
 />
    <glyph glyph-name="percent.lt" horiz-adv-x="1638" 
d="M274 981q0 -124 44.5 -183t123.5 -59t123.5 59t44.5 183t-44.5 183t-123.5 59t-123.5 -59t-44.5 -183zM150 981q0 153 82 243.5t210 90.5t210.5 -90.5t82.5 -243.5t-82.5 -243.5t-210.5 -90.5t-210 90.5t-82 243.5zM1366 309q0 124 -44.5 183t-123.5 59t-123.5 -59
t-44.5 -183t44.5 -182.5t123.5 -58.5t123.5 58.5t44.5 182.5zM1204 1290l-655 -1290h-113l656 1290h112zM1491 309q0 -153 -82.5 -243.5t-210.5 -90.5t-210.5 90.5t-82.5 243.5t82.5 243.5t210.5 90.5t210.5 -90.5t82.5 -243.5z" />
    <glyph glyph-name="perthousand.lt" horiz-adv-x="2457" 
d="M348 981q0 -124 44.5 -183t123.5 -59t123.5 59t44.5 183t-44.5 183t-123.5 59t-123.5 -59t-44.5 -183zM223 981q0 153 82.5 243.5t210.5 90.5t210.5 -90.5t82.5 -243.5t-82.5 -243.5t-210.5 -90.5t-210.5 90.5t-82.5 243.5zM1440 309q0 124 -44.5 183t-123.5 59
t-123.5 -59t-44.5 -183t44.5 -182.5t123.5 -58.5t123.5 58.5t44.5 182.5zM1565 309q0 -153 -82.5 -243.5t-210.5 -90.5t-210.5 90.5t-82.5 243.5t82.5 243.5t210.5 90.5t210.5 -90.5t82.5 -243.5zM2109 309q0 124 -44 183t-123 59t-123.5 -59t-44.5 -183t44.5 -182.5
t123.5 -58.5q167 0 167 241zM2234 309q0 -153 -82 -243.5t-210 -90.5t-210.5 90.5t-82.5 243.5t82.5 243.5t210.5 90.5t210 -90.5t82 -243.5zM1278 1290l-655 -1290h-113l655 1290h113z" />
    <glyph glyph-name="plus.lt" horiz-adv-x="1228" 
d="M561 1159h107v-467h465v-106h-465v-465h-107v465h-465v106h465v467z" />
    <glyph glyph-name="minus.lt" horiz-adv-x="1228" 
d="M96 586v106h1037v-106h-1037z" />
    <glyph glyph-name="multiply.lt" horiz-adv-x="1228" 
d="M543 631l-342 342l75 76l338 -347l338 347l76 -76l-342 -342l342 -342l-76 -76l-338 346l-338 -346l-75 76z" />
    <glyph glyph-name="divide.lt" horiz-adv-x="1228" 
d="M96 586v106h1037v-106h-1037zM530 977v172h172v-172h-172zM530 129v172h172v-172h-172z" />
    <glyph glyph-name="equal.lt" horiz-adv-x="1228" 
d="M94 432v109h1039v-109h-1039zM94 729v109h1039v-109h-1039z" />
    <glyph glyph-name="less.lt" horiz-adv-x="1228" 
d="M219 571v129l791 449v-125l-695 -389l695 -387v-127z" />
    <glyph glyph-name="greater.lt" horiz-adv-x="1228" 
d="M1010 700v-129l-791 -450v127l692 387l-692 389v125z" />
    <glyph glyph-name="plusminus.lt" horiz-adv-x="1228" 
d="M561 1235h105v-410h475v-104h-475v-410h-105v410h-475v104h475v410zM86 94v107h1055v-107h-1055z" />
    <glyph glyph-name="lessequal.lt" horiz-adv-x="1228" 
d="M217 94v107h793v-107h-793zM217 711v110l793 389v-114l-674 -330l674 -332v-115z" />
    <glyph glyph-name="greaterequal.lt" horiz-adv-x="1228" 
d="M1010 201v-107h-793v107h793zM1010 821v-110l-793 -392v115l674 332l-674 330v114z" />
    <glyph glyph-name="notequal.lt" horiz-adv-x="1228" 
d="M94 729v109h617l207 260h124l-208 -260h299v-109h-385l-150 -188h535v-109h-621l-203 -254h-125l203 254h-293v109h379l150 188h-529z" />
    <glyph glyph-name="approxequal.lt" horiz-adv-x="1228" 
d="M94 674v110q147 95 281 95q89 0 236.5 -45.5t236.5 -45.5q143 0 285 93v-111q-140 -94 -285 -94q-89 0 -236.5 45t-236.5 45q-139 0 -281 -92zM94 395v113q142 92 281 92q89 0 236.5 -45t236.5 -45q144 0 285 92v-110q-142 -93 -285 -93q-89 0 -236.5 45t-236.5 45
q-136 0 -281 -94z" />
    </font>
</defs>
</svg>
