<?xml version="1.0" standalone="no"?>
<!DOCTYPE svg PUBLIC "-//W3C//DTD SVG 1.1//EN" "http://www.w3.org/Graphics/SVG/1.1/DTD/svg11.dtd" >
<svg xmlns="http://www.w3.org/2000/svg" xmlns:xlink="http://www.w3.org/1999/xlink" version="1.1">
<metadata>
Created by FontForge 20170731 at Mon Aug  1 19:22:47 2022
 By Aleksey,,,
Copyright (c) 2020 by Roch Modrzejewski. All rights reserved.
</metadata>
<defs>
<font id="Teramo-PoRgIt" horiz-adv-x="0" >
  <font-face 
    font-family="Teramo Po Rg"
    font-weight="400"
    font-style="italic"
    font-stretch="ultra-condensed"
    units-per-em="2048"
    panose-1="0 0 5 8 0 0 0 0 0 0"
    ascent="1638"
    descent="-410"
    x-height="971"
    cap-height="1466"
    bbox="-780 -563 3674 2187"
    underline-thickness="102"
    underline-position="-307"
    slope="-8.39999"
    unicode-range="U+0020-2265"
  />
<missing-glyph horiz-adv-x="1433" 
d="M190 -72v1610h1051v-1610h-1051zM215 -49l1004 1565h-1004v-1565z" />
    <glyph glyph-name="f_f" unicode="ff" horiz-adv-x="1257" 
d="M1337 1546q89 0 262 -39l-59 -127h-14q-78 76 -130 106t-108 30q-103 0 -176.5 -109t-93.5 -289l-17 -147h318l-4 -27h-316l-92 -819q-28 -250 -155.5 -418t-288.5 -168q-75 0 -156 23l39 96h14q97 -74 168 -74q74 0 126 78.5t65 216.5l112 1065h-428l-92 -819
q-29 -251 -156.5 -418.5t-289.5 -167.5q-70 0 -207 35l47 117h14q74 -59 121.5 -83t91.5 -24q73 0 125.5 79t65.5 216l110 1065h-151l2 19l152 8l4 41q12 113 59.5 213.5t115.5 170t153 110t171 40.5q57 0 122.5 -17t219.5 -73q123 90 256 90zM406 971h428l4 41
q21 205 145 352q-113 92 -174 122t-117 30q-103 0 -176.5 -109t-93.5 -289z" />
    <glyph glyph-name="f_f_i" unicode="ffi" horiz-adv-x="1767" 
d="M1700 268l12 -10q-108 -140 -178.5 -211.5t-110.5 -71.5q-44 0 -76 50t-22 116l117 803h-443l-92 -819q-28 -250 -155.5 -418t-288.5 -168q-75 0 -156 23l39 96h14q97 -74 168 -74q74 0 126 78.5t65 216.5l112 1065h-428l-92 -819q-29 -251 -156.5 -418.5t-289.5 -167.5
q-70 0 -207 35l47 117h14q74 -59 121.5 -83t91.5 -24q73 0 125.5 79t65.5 216l110 1065h-151l2 19l152 8l4 41q12 113 59.5 213.5t115.5 170t153 110t171 40.5q57 0 122.5 -17t219.5 -73q123 90 256 90q89 0 262 -39l-59 -127h-14q-78 76 -130 106t-108 30
q-103 0 -176.5 -109t-93.5 -289l-17 -143l549 4q58 -46 39 -162l-110 -760zM406 971l428 4l4 37q21 205 145 352q-113 92 -174 122t-117 30q-103 0 -176.5 -109t-93.5 -289z" />
    <glyph glyph-name="f_f_l" unicode="ffl" horiz-adv-x="1767" 
d="M1700 268l12 -10q-108 -140 -178.5 -211.5t-110.5 -71.5q-44 0 -76 50t-22 116l184 1258q-76 67 -123.5 92t-97.5 25q-103 0 -176.5 -109t-93.5 -289l-17 -147h261l-5 -27h-258l-92 -819q-28 -250 -155.5 -418t-288.5 -168q-75 0 -156 23l39 96h14q97 -74 168 -74
q74 0 126 78.5t65 216.5l112 1065h-428l-92 -819q-29 -251 -156.5 -418.5t-289.5 -167.5q-70 0 -207 35l47 117h14q74 -59 121.5 -83t91.5 -24q73 0 125.5 79t65.5 216l110 1065h-151l2 19l152 8l4 41q12 113 59.5 213.5t115.5 170t153 110t171 40.5q57 0 122.5 -17
t219.5 -73q123 90 256 90q91 0 211 -30l135 36l15 -8l-219 -1487zM406 971h428l4 41q21 205 145 352q-113 92 -174 122t-117 30q-103 0 -176.5 -109t-93.5 -289z" />
    <glyph glyph-name="f_i" unicode="fi" horiz-adv-x="1171" 
d="M1104 268l12 -10q-110 -141 -180.5 -212t-110.5 -71q-42 0 -74 50t-22 116l117 803h-443l-92 -819q-29 -251 -156.5 -418.5t-289.5 -167.5q-70 0 -207 35l47 117h14q74 -59 121.5 -83t91.5 -24q73 0 125.5 79t65.5 216l110 1065h-151l2 19l152 8l4 41q12 113 59.5 213.5
t115.5 170t153 110t171 40.5q92 0 265 -39l-62 -127h-14q-76 76 -128.5 106t-107.5 30q-103 0 -176.5 -109t-93.5 -289l-16 -145l548 6q58 -46 39 -162l-112 -760z" />
    <glyph glyph-name="f_l" unicode="fl" horiz-adv-x="1171" 
d="M1104 268l12 -10q-110 -141 -180.5 -212t-110.5 -71q-42 0 -74 50t-22 116l182 1260q-73 65 -121.5 90t-97.5 25q-103 0 -176.5 -109t-93.5 -289l-16 -147h260l-4 -27h-259l-92 -819q-29 -251 -156.5 -418.5t-289.5 -167.5q-70 0 -207 35l47 117h14q74 -59 121.5 -83
t91.5 -24q73 0 125.5 79t65.5 216l110 1065h-151l2 19l152 8l4 41q12 113 59.5 213.5t115.5 170t153 110t171 40.5q93 0 213 -30l135 36l15 -8l-221 -1487z" />
    <glyph glyph-name="f_t" unicode="ft" horiz-adv-x="1216" 
d="M1245 944h-260l-133 -887l287 236l12 -10q-280 -308 -354 -308q-42 0 -74.5 50t-22.5 116l119 803h-416l-92 -819q-29 -251 -156.5 -418.5t-289.5 -167.5q-70 0 -207 35l47 117h14q74 -59 121.5 -83t91.5 -24q73 0 125.5 79t65.5 216l110 1065h-151l2 19l152 8l4 41
q12 113 59.5 213.5t115.5 170t153 110t171 40.5q92 0 265 -39l-56 -116h-14q-79 69 -133.5 97t-108.5 28q-103 0 -176.5 -109t-93.5 -289l-16 -147h421l72 184h119l-29 -184h260z" />
    <glyph glyph-name="t_t" unicode="tt" horiz-adv-x="1200" 
d="M1231 944h-260l-133 -887l286 236l11 -10q-277 -308 -353 -308q-42 0 -74 50t-22 116l117 803h-404l-133 -887l287 236l10 -10q-277 -308 -352 -308q-43 0 -75 50t-21 116l116 803h-149l2 19l156 8l73 184h117l-27 -184h408l74 184h116l-26 -184h260z" />
    <glyph glyph-name=".notdef" horiz-adv-x="1433" 
d="M190 -72v1610h1051v-1610h-1051zM215 -49l1004 1565h-1004v-1565z" />
    <glyph glyph-name=".null" 
 />
    <glyph glyph-name="nonmarkingreturn" horiz-adv-x="682" 
 />
    <glyph glyph-name="space" unicode=" " horiz-adv-x="483" 
 />
    <glyph glyph-name="exclam" unicode="!" horiz-adv-x="544" 
d="M258 440l29 1014l10 12h233l9 -12l-263 -1014h-18zM205 -25q-44 0 -76.5 32.5t-32.5 78.5q0 58 42.5 101.5t99.5 43.5q42 0 73 -32.5t31 -77.5q0 -59 -41 -102.5t-96 -43.5z" />
    <glyph glyph-name="quotedbl" unicode="&#x22;" horiz-adv-x="788" 
d="M223 874l86 578l185 25l10 -13l-266 -592zM559 874l86 578l186 25l9 -13l-267 -592z" />
    <glyph glyph-name="numbersign" unicode="#" horiz-adv-x="1411" 
d="M1405 944h-332l-139 -467h328l-7 -33h-329l-133 -444h-37l133 444h-459l-133 -444h-37l133 444h-327l6 33h329l140 467h-326l6 35h330l131 438h37l-131 -438h459l131 438h36l-131 -438h328zM897 477l139 467h-458l-140 -467h459z" />
    <glyph glyph-name="dollar" unicode="$" horiz-adv-x="1148" 
d="M791 752q134 -53 205 -137t71 -193q0 -194 -150.5 -317t-396.5 -130l-37 -251h-24l37 251h-4q-188 0 -469 78l151 334l12 -4l11 -289q4 -4 12.5 -10t37 -22t61 -28t84.5 -23t108 -13l92 637l-137 53q-129 52 -198 132.5t-69 183.5q0 195 144 314.5t379 121.5l37 254h24
l-37 -254q163 -3 398 -64l-136 -305l-12 2l-24 266q-3 3 -9.5 7.5t-29 17t-47 22t-64 19t-80.5 12.5l-88 -606zM567 840l51 -21l89 598h-9q-170 0 -264 -85t-94 -240q0 -92 53 -148.5t174 -103.5zM524 -2q179 2 278 91t99 251q0 96 -51.5 153.5t-171.5 106.5l-64 25z" />
    <glyph glyph-name="percent" unicode="%" horiz-adv-x="2000" 
d="M428 0l1200 1417h35l-1200 -1417h-35zM451 494q-135 0 -220.5 91.5t-85.5 237.5q0 128 62 261t171 224t230 91q134 0 220.5 -90t86.5 -234q0 -97 -37.5 -200.5t-99 -187.5t-148.5 -138.5t-179 -54.5zM465 510q69 0 128 61.5t94.5 154t55 192t19.5 184.5q0 130 -45 205
t-121 75q-57 0 -107 -40t-84 -103.5t-58.5 -142.5t-36 -156t-11.5 -145q0 -131 45 -208t121 -77zM1452 -16q-135 0 -220 91.5t-85 237.5q0 128 62 261t171 224t230 91q134 0 220.5 -90t86.5 -234q0 -97 -37.5 -200.5t-99 -187.5t-149 -138.5t-179.5 -54.5zM1466 0
q69 0 128 61.5t94.5 154t55 192t19.5 184.5q0 130 -45 205t-121 75q-57 0 -107 -40t-84 -103.5t-58.5 -142.5t-36 -156t-11.5 -145q0 -131 45 -208t121 -77z" />
    <glyph glyph-name="ampersand" unicode="&#x26;" horiz-adv-x="1486" 
d="M1405 983q0 -174 -114 -381t-292 -371q157 -105 304 -231l-127 -119h-15q-117 146 -254 273q-239 -183 -456 -183q-161 0 -255 96.5t-94 264.5q0 109 34.5 220.5t92 203.5t128 165t147.5 113.5t145 40.5q102 0 170 -60t68 -132q0 -93 -130 -169t-454 -171
q342 -79 674 -297q140 132 225.5 315.5t85.5 329.5q0 87 -38 176t-128 211v14l152 84q131 -245 131 -393zM592 1042q-113 -63 -193.5 -192.5t-111.5 -290.5q255 96 355.5 163.5t100.5 141.5q0 46 -41 96.5t-110 81.5zM563 61q167 0 324 111q-287 260 -606 354
q-11 -86 -11 -143q0 -169 70.5 -245.5t222.5 -76.5z" />
    <glyph glyph-name="quotesingle" unicode="'" horiz-adv-x="452" 
d="M223 874l86 578l185 25l10 -13l-266 -592z" />
    <glyph glyph-name="parenleft" unicode="(" horiz-adv-x="546" 
d="M373 -356q-5 4 -12.5 12.5t-31 37.5t-46 62t-51 87.5t-51.5 112.5t-44 137t-31 162t-9.5 186.5t16.5 211.5q15 103 43.5 200.5t63.5 176t76 150.5t83 127t83 102.5t76.5 79.5t62.5 55t43 34l15 11l11 -10q-115 -118 -179.5 -229.5t-109.5 -274t-86 -438.5
q-41 -281 -46 -449t26 -293t110 -241z" />
    <glyph glyph-name="parenright" unicode=")" horiz-adv-x="544" 
d="M215 1589q5 -4 12.5 -12.5t31 -37.5t45.5 -62t50.5 -87t51.5 -111.5t43.5 -136.5t31 -162t9.5 -186.5t-17 -211.5q-19 -131 -59.5 -253.5t-90 -213.5t-105 -171t-107 -133.5t-93.5 -92t-67 -56.5l-25 -18l-10 10q116 119 180.5 230.5t109 273t85.5 438.5
q61 404 43.5 609.5t-133.5 373.5z" />
    <glyph glyph-name="asterisk" unicode="*" horiz-adv-x="1028" 
d="M600 1118l-37 369l10 10l164 -20l8 -15l-131 -344h-14zM203 1167l-6 13l71 151h17l274 -237l-8 -13zM1010 1059l-361 10l-4 12l326 158l16 -4l33 -166zM348 719l-115 125l5 14l327 182l8 -8l-208 -309zM750 664l-15 8l-121 354l11 6l268 -260v-18z" />
    <glyph glyph-name="plus" unicode="+" horiz-adv-x="1034" 
d="M952 727l-4 -35h-383l-61 -413h-35l61 413h-380l4 35h383l61 412h35l-62 -412h381z" />
    <glyph glyph-name="comma" unicode="," horiz-adv-x="526" 
d="M6 -283q84 133 114 196t30 107q0 40 -33 89l2 16l176 123q53 -83 53 -125q0 -59 -74.5 -153.5t-253.5 -262.5z" />
    <glyph glyph-name="hyphen" unicode="-" horiz-adv-x="765" 
d="M133 459l14 92l494 27l-16 -119h-492z" />
    <glyph glyph-name="period" unicode="." horiz-adv-x="585" 
d="M221 -25q-43 0 -75.5 33t-32.5 78q0 59 42 102t99 43q43 0 74.5 -32.5t31.5 -77.5q0 -58 -41.5 -102t-97.5 -44z" />
    <glyph glyph-name="slash" unicode="/" horiz-adv-x="348" 
d="M-66 -246l492 1790h37l-492 -1790h-37z" />
    <glyph glyph-name="zero" unicode="0" horiz-adv-x="1132" 
d="M473 -29q-184 0 -291.5 111.5t-107.5 294.5q0 84 29.5 175.5t85 175.5t127 151t163.5 107t187 40q183 0 289 -111t106 -294q0 -84 -29 -175.5t-84 -175t-126 -151t-162.5 -108t-186.5 -40.5zM518 2q74 0 137 41t104.5 106.5t71.5 149t43 166.5t13 160q0 169 -72 269.5
t-192 100.5q-75 0 -138.5 -40.5t-105.5 -105t-71.5 -147t-42.5 -165t-13 -160.5q0 -172 72 -273.5t194 -101.5z" />
    <glyph glyph-name="one" unicode="1" horiz-adv-x="741" 
d="M-35 0l2 14l264 105l125 860h-239l4 25h655l-2 -15l-264 -104l-125 -860h252l-4 -25h-668z" />
    <glyph glyph-name="two" unicode="2" horiz-adv-x="966" 
d="M868 397l15 -2l-78 -395h-836l-2 14l441 437q98 98 143 175t45 148q0 70 -48 109t-138 39q-124 0 -263 -74l-4 12q169 166 367 166q117 0 188.5 -60t71.5 -157q0 -111 -77.5 -211.5t-243.5 -218.5l-324 -232l508 -127z" />
    <glyph glyph-name="three" unicode="3" horiz-adv-x="892" 
d="M328 459q228 -28 338 -98.5t110 -192.5q0 -347 -862 -580v17q356 153 519 284t163 261q0 98 -70.5 166.5t-228.5 127.5l4 17l414 393l-375 127l-236 -367l-12 2l76 388h715l2 -15z" />
    <glyph glyph-name="four" unicode="4" horiz-adv-x="993" 
d="M899 27l-4 -27h-203l-57 -391l-160 -27l-10 4l61 414h-557l-2 14l608 990h224l2 -15l-809 -969l538 5l50 340h168l-52 -340z" />
    <glyph glyph-name="five" unicode="5" horiz-adv-x="858" 
d="M109 551q327 -25 485 -104.5t158 -221.5q0 -354 -865 -637l-6 17q357 185 522.5 330t165.5 270q0 113 -112.5 190t-362.5 137l-10 13l135 459h549l-29 -189l-14 -8l-489 178z" />
    <glyph glyph-name="six" unicode="6" horiz-adv-x="1056" 
d="M457 -25q-170 0 -275.5 105t-105.5 274q0 258 229 541.5t647 544.5l11 -15q-713 -535 -713 -1071q0 -161 62 -257.5t165 -96.5q95 0 175.5 79.5t123.5 192.5t43 224q0 120 -52.5 183.5t-150.5 63.5q-104 0 -229 -55l-6 17q151 86 307 86q131 0 213 -78.5t82 -204.5
q0 -92 -46 -189t-119 -172.5t-169.5 -123.5t-191.5 -48z" />
    <glyph glyph-name="seven" unicode="7" horiz-adv-x="989" 
d="M1020 1004l4 -15l-852 -1405l-172 101l4 16l907 1141l-571 137l-234 -365l-14 2l78 388h850z" />
    <glyph glyph-name="eight" unicode="8" horiz-adv-x="1052" 
d="M688 772q153 -99 219 -186t66 -187q0 -99 -75 -197.5t-202 -162.5t-264 -64q-166 0 -281.5 82.5t-115.5 200.5q0 197 319 414l11 -10q-203 -197 -203 -381q0 -118 88 -198.5t215 -80.5q143 0 238.5 102.5t95.5 237.5q0 79 -61 149t-210 162q-160 98 -227.5 186t-67.5 197
q0 74 38 148.5t99.5 130t142.5 90.5t163 35q131 0 224 -73t93 -177q0 -178 -305 -418zM393 1104q0 -83 57 -151.5t195 -153.5l25 -15q200 256 200 398q0 96 -66 163.5t-159 67.5q-109 0 -180.5 -92.5t-71.5 -216.5z" />
    <glyph glyph-name="nine" unicode="9" horiz-adv-x="1069" 
d="M610 1026q172 0 280.5 -105.5t108.5 -273.5q0 -258 -230.5 -539t-637.5 -520l-12 17q349 246 527.5 509t178.5 533q0 160 -64.5 256t-168.5 96q-95 0 -177.5 -76.5t-127.5 -187.5t-45 -221q0 -116 55 -177t154 -61q111 0 229 56l8 -17q-151 -86 -307 -86
q-134 0 -218.5 74.5t-84.5 198.5t78 246.5t202.5 200t251.5 77.5z" />
    <glyph glyph-name="colon" unicode=":" horiz-adv-x="542" 
d="M311 743q-43 0 -74.5 32.5t-31.5 76.5q0 59 41 101t98 42q43 0 74 -32t31 -76q0 -58 -41 -101t-97 -43zM199 -25q-43 0 -75 32.5t-32 76.5q0 59 41 102t98 43q42 0 73.5 -32.5t31.5 -77.5q0 -57 -41 -100.5t-96 -43.5z" />
    <glyph glyph-name="semicolon" unicode=";" horiz-adv-x="516" 
d="M301 743q-43 0 -74.5 32.5t-31.5 76.5q0 58 41.5 100.5t97.5 42.5q43 0 73.5 -32t30.5 -76q0 -58 -40.5 -101t-96.5 -43zM0 -293l-16 10q85 132 115 195t30 108q0 41 -35 89l4 16l176 123q52 -81 52 -125q0 -59 -74 -154t-252 -262z" />
    <glyph glyph-name="less" unicode="&#x3c;" horiz-adv-x="1062" 
d="M842 147l-692 553l2 17l860 555l20 -29l-835 -536l667 -533z" />
    <glyph glyph-name="equal" unicode="=" horiz-adv-x="1007" 
d="M201 885l6 35h721l-6 -35h-721zM145 500l7 35h720l-6 -35h-721z" />
    <glyph glyph-name="greater" unicode="&#x3e;" horiz-adv-x="1062" 
d="M115 147l-19 29l836 537l-668 532l21 27l694 -553l-4 -17z" />
    <glyph glyph-name="question" unicode="?" horiz-adv-x="905" 
d="M637 1491q133 0 214 -64t81 -170q0 -97 -68.5 -199t-232.5 -253l-236 -215l180 -98l-6 -17h-276l-4 14l264 349q107 141 151 230.5t44 166.5q0 80 -51 122t-148 42q-80 0 -189 -33l-53 -254l-14 -2l-103 199q107 88 223.5 135t223.5 47zM395 231q43 0 75 -32.5t32 -77.5
q0 -58 -42 -102t-98 -44q-43 0 -75.5 33t-32.5 78q0 59 42 102t99 43z" />
    <glyph glyph-name="at" unicode="@" horiz-adv-x="1581" 
d="M1044 57q-27 0 -63.5 29.5t-36.5 52.5q0 56 86 443l-8 4q-171 -293 -271 -412t-178 -119q-65 0 -101 55.5t-36 155.5q0 141 76 292t195 251t233 100q59 0 158 -26l92 71l14 -6l-125 -862q61 11 128 58t128 122t100.5 189t39.5 243q0 228 -135.5 359t-362.5 131
q-153 0 -293.5 -67.5t-243 -181.5t-163 -271.5t-60.5 -329.5q0 -268 141 -415.5t398 -147.5q213 0 393 88l6 -15q-239 -133 -504 -133q-261 0 -418 158.5t-157 419.5q0 191 71 365.5t190.5 301.5t284.5 202t345 75q250 0 397 -141t147 -389q0 -139 -46 -264.5t-116.5 -207.5
t-151.5 -130t-153 -48zM1008 598l32 219q-101 64 -149 64q-73 0 -144 -89t-113 -214t-42 -236q0 -68 14.5 -105.5t40.5 -37.5q44 0 127 91t234 308z" />
    <glyph glyph-name="A" unicode="A" horiz-adv-x="1658" 
d="M1352 25h202l-2 -25h-678l3 25h282l-158 604h-518l-254 -504l220 -111l-3 -14h-481l4 25h183l665 1310l-96 117l2 14h246zM496 651h499l-170 656z" />
    <glyph glyph-name="B" unicode="B" horiz-adv-x="1398" 
d="M0 0l4 14l207 99l168 1331h-197l2 22h684q223 0 334 -81.5t111 -231.5q0 -153 -102.5 -257.5t-276.5 -129.5v-4q387 -41 387 -318q0 -211 -181.5 -327.5t-494.5 -116.5h-645zM475 774h266q190 0 289.5 99t99.5 274q0 135 -74.5 216t-209.5 81h-287zM653 25
q227 0 351 106.5t124 302.5q0 152 -102 234t-299 82h-256l-86 -687q108 -38 268 -38z" />
    <glyph glyph-name="C" unicode="C" horiz-adv-x="1386" 
d="M1008 84l282 410l17 -5l-97 -380q-278 -136 -493 -136q-267 0 -429.5 171t-162.5 448q0 185 54 349t151 286t242.5 193t318.5 71q179 0 446 -76l-49 -364l-18 -2l-125 360q-130 59 -264 59q-115 0 -210 -50t-159.5 -134.5t-109 -199t-65 -240.5t-20.5 -262
q0 -260 113 -423t301 -163q80 0 143 20.5t134 67.5z" />
    <glyph glyph-name="D" unicode="D" horiz-adv-x="1515" 
d="M-2 0l4 14l205 99l166 1331h-193l2 22h623q315 0 487 -163t172 -461q0 -189 -58 -346t-163.5 -266t-257 -169.5t-334.5 -60.5h-653zM653 25q186 0 326.5 102.5t216.5 291t76 437.5q0 280 -123 434t-348 154h-248l-174 -1376q131 -43 274 -43z" />
    <glyph glyph-name="E" unicode="E" horiz-adv-x="1335" 
d="M-4 0l2 14l211 99l166 1331h-191l2 22h1080l-43 -391l-17 -2l-125 369l-526 2l-84 -670h266l150 232h12l-61 -486h-23l31 228l-379 2l-90 -725l584 2l278 393l16 -4l-106 -416h-1153z" />
    <glyph glyph-name="F" unicode="F" horiz-adv-x="1212" 
d="M-4 0l2 14l211 99l166 1331h-191l2 22h1084l-43 -403l-19 -2l-123 381l-530 2l-90 -715h283l149 232h14l-67 -506h-21l33 247l-395 3l-84 -680h282l-2 -25h-661z" />
    <glyph glyph-name="G" unicode="G" horiz-adv-x="1548" 
d="M895 702h641l-4 -22h-182l-70 -551q-307 -156 -543 -156q-298 0 -457 161t-159 444q0 189 59.5 356.5t164.5 290.5t257.5 194.5t329.5 71.5q234 0 446 -76l-47 -366l-18 -5l-125 365q-137 59 -264 59q-121 0 -222 -49t-172 -133t-120.5 -198t-73 -243.5t-23.5 -269.5
q0 -268 113 -423.5t324 -155.5q184 0 354 129l72 555h-283z" />
    <glyph glyph-name="H" unicode="H" horiz-adv-x="1611" 
d="M1647 1452l-193 -94l-168 -1333h217l-2 -25h-594l2 25h199l90 725h-733l-88 -725h217l-2 -25h-594l4 14l207 99l164 1331h-191l2 22h559l-2 -22h-190l-82 -670h733l84 670h-217l2 22h578z" />
    <glyph glyph-name="I" unicode="I" horiz-adv-x="718" 
d="M4 0l4 14l201 99l164 1329h-191l2 24h570l-2 -14l-203 -94l-166 -1333h227l-2 -25h-604z" />
    <glyph glyph-name="J" unicode="J" horiz-adv-x="696" 
d="M180 1466h623l-2 -14l-211 -94l-141 -1151q-28 -231 -129 -385.5t-300 -270.5l-151 123l2 15l291 88q65 113 86 286l170 1379h-242z" />
    <glyph glyph-name="K" unicode="K" horiz-adv-x="1603" 
d="M561 1444l-180 -1419h225l-2 -25h-606l4 14l211 99l168 1331h-197l2 22h576l-2 -22h-199zM1552 1444h-172l-764 -694h113l571 -725h199l-2 -25h-403l-551 698l2 17l704 643l-184 94l2 14h487z" />
    <glyph glyph-name="L" unicode="L" horiz-adv-x="1333" 
d="M14 0l2 14l207 99l164 1329h-192l2 24h677l-2 -24h-301l-176 -1417l561 2l285 440l19 -4l-117 -463h-1129z" />
    <glyph glyph-name="M" unicode="M" horiz-adv-x="1964" 
d="M-35 0l2 14l219 101l222 1208l-109 129l2 14h246l422 -1007l690 1007h225l-4 -22h-133l-94 -1419h207l-2 -25h-603l2 25h218l84 1247l-691 -1004h-14l-430 1010l-227 -1253h272l-2 -25h-502z" />
    <glyph glyph-name="N" unicode="N" horiz-adv-x="1509" 
d="M-4 0l2 14l215 99l158 1220l-127 119l2 14h268l731 -1255l160 1233h-217l4 22h422l-2 -14l-193 -94l-178 -1358h-92l-762 1300l-164 -1275h217l-2 -25h-442z" />
    <glyph glyph-name="O" unicode="O" horiz-adv-x="1456" 
d="M641 -27q-233 0 -377.5 169.5t-144.5 443.5q0 127 36.5 257.5t106 245.5t162 205.5t213.5 143.5t252 53q233 0 376.5 -167t143.5 -439q0 -129 -34.5 -259t-102 -247t-159 -208t-214 -144.5t-258.5 -53.5zM700 6q89 0 166 40.5t132 109.5t98.5 157t69.5 187.5t39.5 196
t13.5 186.5q0 260 -115 419.5t-299 159.5q-232 -100 -364 -326t-132 -546q0 -266 106.5 -425t284.5 -159z" />
    <glyph glyph-name="P" unicode="P" horiz-adv-x="1292" 
d="M-2 0l2 14l209 99l164 1331h-191l2 22h654q229 0 354 -83.5t125 -237.5q0 -103 -40.5 -185t-107.5 -136.5t-168.5 -95.5t-208.5 -64.5t-243 -40.5v16q112 19 198 44.5t161 65.5t123.5 92.5t76 126t27.5 165.5q0 152 -81.5 231.5t-232.5 79.5h-268l-176 -1419h248l-2 -25
h-625z" />
    <glyph glyph-name="Q" unicode="Q" horiz-adv-x="1456" 
d="M2185 -393l6 -15l-80 -155q-475 66 -895 213t-714 350l2 25q81 -19 162 -19q91 0 171 38.5t139.5 105.5t106.5 155t76.5 189t44.5 205t15 206q0 259 -94.5 410t-264.5 151q-121 0 -227 -81.5t-175.5 -211t-109 -287t-39.5 -313.5q0 -169 43 -294l-125 -89
q-108 160 -108 396q0 171 60 336t159.5 290.5t239.5 202t290 76.5q251 0 396 -164t145 -442q0 -164 -55 -325.5t-150.5 -290t-237.5 -208t-304 -79.5q-60 0 -109 8q635 -304 1632 -383z" />
    <glyph glyph-name="R" unicode="R" horiz-adv-x="1419" 
d="M1386 -72q-129 23 -223 67t-158 103.5t-126 151.5l-320 432l2 16q138 17 236 46.5t173.5 79.5t112.5 127.5t37 183.5q0 151 -81.5 230t-233.5 79h-252l-176 -1419h233l-4 -25h-606l2 14l207 99l164 1331h-193l2 22h639q231 0 356.5 -84t125.5 -239q0 -207 -172.5 -312.5
t-544.5 -146.5l80 -109h180l299 -391q59 -80 116.5 -135t131.5 -104z" />
    <glyph glyph-name="S" unicode="S" horiz-adv-x="1239" 
d="M541 -25q-206 0 -518 80l157 344l17 -4l8 -297q5 -4 15 -11t45 -24t74.5 -30t103 -24t130.5 -11q201 0 316 91t115 251q0 103 -57.5 167t-198.5 116l-254 92q-295 109 -295 336q0 197 153.5 318.5t407.5 121.5q178 0 457 -66l-142 -315l-14 4l-25 272q-4 3 -12.5 8.5
t-37 20t-60.5 25t-83 19.5t-104 9q-188 0 -294.5 -87t-106.5 -242q0 -96 58.5 -157t199.5 -114l254 -92q307 -110 307 -352q0 -200 -169.5 -324.5t-446.5 -124.5z" />
    <glyph glyph-name="T" unicode="T" horiz-adv-x="1419" 
d="M377 0l2 14l211 99l164 1329h-344l-236 -410l-18 2l69 432h1256l-56 -432l-18 -2l-119 410h-352l-176 -1417h256l-2 -25h-637z" />
    <glyph glyph-name="U" unicode="U" horiz-adv-x="1581" 
d="M774 -29q-588 0 -502 660l103 813h-197l2 22h576l-4 -22h-197l-104 -823q-37 -297 57 -431.5t338 -134.5q223 0 355 142t167 424l102 823h-223l2 22h439l-2 -14l-201 -94l-92 -727q-85 -660 -619 -660z" />
    <glyph glyph-name="V" unicode="V" horiz-adv-x="1597" 
d="M1227 1466h477l-2 -22h-178l-738 -1444h-43l-385 1444h-182l4 22h651l-2 -22h-272l311 -1233l576 1130l-219 111z" />
    <glyph glyph-name="W" unicode="W" horiz-adv-x="2463" 
d="M2073 1466h499l-2 -22h-178l-698 -1444h-41l-301 1225l-592 -1225h-41l-361 1444h-182l4 22h674l-2 -22h-295l285 -1223l602 1245h43l289 -1245l538 1114l-243 117z" />
    <glyph glyph-name="X" unicode="X" horiz-adv-x="1648" 
d="M1663 1444h-172l-571 -637l450 -782h172l-2 -25h-688l2 25h289l-359 682l-528 -590l188 -103l-2 -14h-469l2 25h172l627 702l-399 717h-174l2 22h688l-2 -22h-291l311 -617l475 529l-182 96l2 14h463z" />
    <glyph glyph-name="Y" unicode="Y" horiz-adv-x="1572" 
d="M1206 1466h473l-2 -22h-176l-577 -817l-76 -602h225l-2 -25h-602l2 14l209 99l63 503l-385 828h-180l2 22h643l-4 -22h-256l352 -791l490 699l-201 100z" />
    <glyph glyph-name="Z" unicode="Z" horiz-adv-x="1396" 
d="M1036 27l252 426l17 -4l-60 -449h-1239l-4 16q612 754 861 1052.5t327 375.5l-750 -4l-217 -398l-14 2l37 422h1147l2 -14q-598 -741 -847.5 -1040.5t-338.5 -386.5z" />
    <glyph glyph-name="bracketleft" unicode="[" horiz-adv-x="641" 
d="M43 -336l283 1907h440l-6 -25h-277l-272 -1859h276l-4 -23h-440z" />
    <glyph glyph-name="backslash" unicode="\" horiz-adv-x="559" 
d="M434 -246h-35l-227 1790h35z" />
    <glyph glyph-name="bracketright" unicode="]" horiz-adv-x="641" 
d="M637 1571l-283 -1907h-440l6 23h277l274 1859h-278l4 25h440z" />
    <glyph glyph-name="asciicircum" unicode="^" horiz-adv-x="886" 
d="M850 870h-39l-233 500l-385 -500h-43l425 547h17z" />
    <glyph glyph-name="underscore" unicode="_" horiz-adv-x="819" 
d="M55 -66h543l-14 -118l-541 26z" />
    <glyph glyph-name="grave" unicode="`" horiz-adv-x="561" 
d="M551 1108l-16 -10l-295 305l8 16h180z" />
    <glyph glyph-name="a" unicode="a" horiz-adv-x="1079" 
d="M1010 268l12 -10q-108 -140 -178.5 -211.5t-110.5 -71.5q-38 0 -65 39t-27 95q0 114 88 497l-6 2q-158 -258 -250 -390.5t-153 -188.5t-113 -56q-72 0 -119 70.5t-47 179.5q0 127 54 267t137 251t190 183.5t207 72.5q51 0 182 -32l107 86l16 -7l-146 -987zM707 623
l36 264q-110 74 -172 74q-86 0 -169.5 -107t-133 -258.5t-49.5 -284.5q0 -83 25.5 -132.5t66.5 -49.5q51 0 131 100t265 394z" />
    <glyph glyph-name="b" unicode="b" horiz-adv-x="1001" 
d="M780 997q82 0 131.5 -67.5t49.5 -181.5q0 -130 -53.5 -270.5t-136.5 -251t-190 -182t-208 -71.5q-68 0 -348 74l4 14l55 33l199 1356h-146v14l330 88l14 -8l-102 -573q-18 -114 -115 -586l8 -2q195 338 309 476t199 138zM428 8q86 0 170 107.5t134 258.5t50 283
q0 159 -88 256q-150 -98 -403 -540l-39 -285q122 -80 176 -80z" />
    <glyph glyph-name="c" unicode="c" horiz-adv-x="874" 
d="M420 117q52 0 129 40t235 148l13 -12q-159 -182 -254 -251t-189 -69q-135 0 -217 92.5t-82 243.5q0 101 30.5 204t84 188.5t120.5 152.5t145.5 105t154.5 38q107 0 293 -49l-148 -284l-14 2l-2 219q-115 64 -205 78q-132 -72 -208.5 -238.5t-76.5 -359.5
q0 -114 51.5 -181t139.5 -67z" />
    <glyph glyph-name="d" unicode="d" horiz-adv-x="1079" 
d="M1010 268l12 -10q-108 -140 -178.5 -211.5t-110.5 -71.5q-41 0 -67.5 38.5t-26.5 95.5q0 91 104 497l-6 2q-165 -257 -261.5 -390.5t-158 -189t-110.5 -55.5q-72 0 -119 70.5t-47 179.5q0 127 54 267t137 251t190 183.5t207 72.5q42 0 133 -24l53 477h-145v14l323 88
l15 -8l-220 -1487zM721 623l31 262q-117 76 -181 76q-86 0 -169.5 -107t-133 -258.5t-49.5 -284.5q0 -83 25.5 -132.5t68.5 -49.5q50 0 131 98.5t277 395.5z" />
    <glyph glyph-name="e" unicode="e" horiz-adv-x="864" 
d="M416 117q56 0 138 46.5t241 170.5l12 -12q-166 -199 -264 -274t-193 -75q-135 0 -217 92.5t-82 243.5q0 125 50.5 252.5t126.5 222t168 154t173 59.5q98 0 169 -56t71 -122q0 -88 -130.5 -160t-442.5 -155q-11 -86 -11 -139q0 -114 51.5 -181t139.5 -67zM512 967
q-104 -58 -174.5 -176.5t-97.5 -266.5q236 89 325.5 149t89.5 128q0 45 -39 92t-104 74z" />
    <glyph glyph-name="f" unicode="f" horiz-adv-x="661" 
d="M739 1546q92 0 265 -39l-62 -127h-14q-76 76 -128.5 106t-107.5 30q-103 0 -176.5 -109t-93.5 -289l-16 -147h317l-6 -27h-314l-92 -819q-29 -251 -156.5 -418.5t-289.5 -167.5q-70 0 -207 35l47 117h14q74 -59 121.5 -83t91.5 -24q73 0 125.5 79t65.5 216l110 1065h-151
l2 19l152 8l4 41q12 113 59.5 213.5t115.5 170t153 110t171 40.5z" />
    <glyph glyph-name="g" unicode="g" horiz-adv-x="886" 
d="M924 1018l-33 -199l-131 19q22 -55 22 -115q0 -105 -63.5 -214t-165.5 -181t-205 -72h-22l-25 -152l274 -67q189 -44 189 -158q0 -68 -54.5 -137t-143.5 -122.5t-212 -87.5t-250 -34q-105 0 -166 36.5t-61 100.5q0 58 57.5 118.5t223.5 176.5l10 -10
q-97 -115 -129.5 -169.5t-32.5 -98.5q0 -54 45.5 -84.5t128.5 -30.5q182 0 304 74.5t122 183.5q0 39 -23.5 63t-82.5 44l-86 26q-103 34 -160 70t-100 94l4 17l149 149q-110 12 -177 85.5t-67 186.5q0 101 66 210.5t169 182t200 72.5q77 0 139.5 -31t99.5 -87l172 141h15z
M395 291q96 0 158.5 120.5t62.5 290.5q0 124 -42.5 191.5t-120.5 67.5q-62 0 -114 -57.5t-81 -151.5t-29 -201q0 -124 44 -192t122 -68z" />
    <glyph glyph-name="h" unicode="h" horiz-adv-x="1038" 
d="M971 272l12 -10q-220 -287 -299 -287q-40 0 -65.5 51.5t-12.5 118.5l107 506q41 187 -33 267q-56 -39 -137.5 -149.5t-255.5 -391.5l-51 -363l-150 -28l-20 12l213 1452h-146v14l330 88l14 -8l-102 -573q-23 -142 -115 -582l8 -2q141 238 233.5 370.5t151 185t107.5 52.5
q48 0 83 -54t43.5 -132t-7.5 -166l-134 -586z" />
    <glyph glyph-name="i" unicode="i" horiz-adv-x="602" 
d="M381 1143q-40 0 -69 29.5t-29 70.5q0 54 38 92.5t89 38.5q40 0 69 -29.5t29 -70.5q0 -54 -38 -92.5t-89 -38.5zM258 -25q-44 0 -76 50t-22 116l112 770l-202 -194l-13 12q193 254 273 254q40 0 72 -50.5t22 -115.5l-111 -760l222 211l12 -10q-108 -140 -178.5 -211.5
t-110.5 -71.5z" />
    <glyph glyph-name="j" unicode="j" horiz-adv-x="503" 
d="M408 1374q40 0 69 -29.5t29 -70.5q0 -54 -38 -92.5t-89 -38.5q-40 0 -69 29.5t-29 70.5q0 54 38 92.5t89 38.5zM326 983q41 0 73.5 -50.5t22.5 -117.5l-94 -643q-38 -251 -140 -416.5t-278 -269.5l-92 86l4 14l219 84q65 119 88 287l141 954l-202 -194l-13 12
q190 254 271 254z" />
    <glyph glyph-name="k" unicode="k" horiz-adv-x="1034" 
d="M965 274l12 -12q-111 -142 -180.5 -214.5t-102.5 -72.5q-37 0 -71.5 65t-142.5 329q-14 33 -21 51l2 14q166 125 233.5 200t67.5 132q0 45 -32 85.5t-79 61.5q-54 -46 -125.5 -152t-238.5 -384l-51 -363l-150 -28l-20 12l213 1452h-146v14l330 88l14 -8l-102 -573
q-23 -142 -115 -582l8 -2q212 363 303.5 485.5t155.5 122.5q63 0 132 -62t69 -124q0 -65 -74.5 -137.5t-263.5 -188.5l186 -389z" />
    <glyph glyph-name="l" unicode="l" horiz-adv-x="524" 
d="M178 -25q-43 0 -75 50t-23 116l192 1309h-157v14l325 88l15 -8l-222 -1487l224 211l10 -10q-108 -140 -178.5 -211.5t-110.5 -71.5z" />
    <glyph glyph-name="m" unicode="m" horiz-adv-x="1628" 
d="M1561 272l12 -10q-223 -287 -301 -287q-40 0 -65 51.5t-11 118.5l107 506q41 187 -33 267q-58 -40 -138 -151.5t-241 -389.5l-51 -363l-154 -28l-14 8l94 657q25 195 -31 267q-58 -40 -137.5 -151.5t-239.5 -389.5l-53 -363l-155 -28l-15 8l133 919l-198 -200l-13 12
q198 268 273 268q37 0 61.5 -42.5t24.5 -98.5q0 -73 -84 -463l8 -2q191 346 296 477t179 131q47 0 79 -52t39.5 -130.5t-3.5 -169.5l-31 -215q122 220 206 345t140 173.5t105 48.5q47 0 81.5 -54t43 -132t-8.5 -166l-133 -586z" />
    <glyph glyph-name="n" unicode="n" horiz-adv-x="1110" 
d="M1042 272l13 -10q-223 -287 -301 -287q-40 0 -65 51.5t-11 118.5l106 506q41 188 -32 267q-58 -40 -141 -151.5t-253 -389.5l-53 -363l-155 -28l-15 8l133 919l-198 -200l-13 12q198 268 273 268q37 0 62.5 -42.5t25.5 -98.5q0 -71 -86 -463l8 -2q206 350 311.5 479
t179.5 129q47 0 82 -54t43.5 -132t-8.5 -166l-133 -586z" />
    <glyph glyph-name="o" unicode="o" horiz-adv-x="966" 
d="M389 -27q-149 0 -241.5 104.5t-92.5 274.5q0 142 79.5 293.5t203.5 251.5t242 100q148 0 239.5 -104.5t91.5 -271.5q0 -145 -74.5 -296t-197.5 -251.5t-250 -100.5zM444 14q83 0 151 82.5t105 215t37 284.5q0 172 -60.5 270.5t-164.5 98.5q-125 -62 -204 -226t-79 -366
q0 -165 58.5 -262t156.5 -97z" />
    <glyph glyph-name="p" unicode="p" horiz-adv-x="1071" 
d="M446 -27q-61 0 -145 23l-65 -461h235l-4 -24h-557l2 16l168 84l188 1302l-198 -200l-13 12q198 268 273 268q37 0 61.5 -42.5t24.5 -98.5q0 -81 -86 -465l8 -4q196 338 310.5 476t197.5 138q77 0 128.5 -76t51.5 -188q0 -135 -52 -274t-133 -245t-187 -173.5t-208 -67.5z
M356 373l-39 -264q44 -109 146 -109q97 0 188 107.5t144 260t53 291.5q0 159 -86 254q-148 -95 -406 -540z" />
    <glyph glyph-name="q" unicode="q" horiz-adv-x="987" 
d="M926 987l-203 -1376l141 -84l-4 -16h-555l4 24h238l67 465q24 156 115 606l-6 2q-158 -258 -250 -390.5t-153 -188.5t-113 -56q-72 0 -119 70.5t-47 179.5q0 127 54 267t137 251t190 183.5t207 72.5q61 0 225 -53l55 49zM707 623l36 262q-111 76 -172 76
q-86 0 -169.5 -107t-133 -258.5t-49.5 -284.5q0 -83 25.5 -132.5t66.5 -49.5q51 0 131 100t265 394z" />
    <glyph glyph-name="r" unicode="r" horiz-adv-x="792" 
d="M696 995q45 0 140 -18l-82 -244h-15l-133 115q-43 -57 -256 -535l-43 -299l-155 -28l-15 8l133 919l-198 -200l-13 12q198 268 273 268q37 0 59.5 -41t22.5 -98q0 -69 -90 -530l6 -2q193 459 251 566t115 107z" />
    <glyph glyph-name="s" unicode="s" horiz-adv-x="798" 
d="M301 -27q-112 0 -313 56l61 131h14q108 -92 168 -126t113 -34q73 0 144 81t71 155q0 47 -30.5 82.5t-102.5 72.5l-121 60q-196 96 -196 219q0 79 55.5 155t147 124t188.5 48q75 0 276 -51l-53 -121h-14q-98 83 -153 114.5t-101 31.5q-66 0 -133.5 -75t-67.5 -148
q0 -49 35 -85t117 -77l120 -60q187 -90 187 -217q0 -81 -58.5 -159t-154.5 -127.5t-199 -49.5z" />
    <glyph glyph-name="t" unicode="t" horiz-adv-x="628" 
d="M659 944h-260l-133 -887l287 236l10 -10q-277 -308 -352 -308q-43 0 -75 50t-21 116l116 803h-149l2 19l156 8l73 184h117l-27 -184h261z" />
    <glyph glyph-name="u" unicode="u" horiz-adv-x="1146" 
d="M1079 276l13 -12q-108 -143 -180 -216t-113 -73q-38 0 -64 46.5t-26 95.5q0 73 88 461l-9 4q-138 -242 -226.5 -373.5t-145.5 -182.5t-107 -51q-79 0 -120 91.5t-17 236.5l104 619l-206 -205l-13 12q202 266 273 266q41 0 74 -53.5t22 -120.5l-88 -522
q-18 -104 -7 -160.5t50 -56.5q47 0 129.5 110.5t259.5 399.5l55 379h166l-131 -905z" />
    <glyph glyph-name="v" unicode="v" horiz-adv-x="978" 
d="M322 -25q-85 0 -129.5 92t-20.5 236l104 619l-206 -205l-13 12q202 266 273 266q41 0 74 -52.5t22 -119.5l-92 -547q-19 -104 -2 -167.5t63 -63.5q50 0 129 96t148.5 221t121.5 245.5t54 168.5l-109 111v14l164 94q78 -142 78 -190q0 -43 -74 -177.5t-175 -280
t-218.5 -259t-191.5 -113.5z" />
    <glyph glyph-name="w" unicode="w" horiz-adv-x="1499" 
d="M1419 995q76 -139 76 -190q0 -39 -44.5 -136t-117.5 -213.5t-155 -225.5t-168 -182t-146 -73q-63 0 -105 67.5t-42 168.5q0 90 69 367l-8 4q-131 -238 -220 -372t-145 -184.5t-104 -50.5q-76 0 -118.5 94t-18.5 234l104 619l-206 -205l-13 12q202 266 273 266
q41 0 74 -53.5t22 -120.5l-88 -522q-18 -104 -7 -160.5t50 -56.5q48 0 130.5 113t248.5 397l51 350h166l-98 -666q-15 -103 -0.5 -165t55.5 -62q59 0 137.5 96t140.5 221t106 243.5t46 166.5l-104 111v14z" />
    <glyph glyph-name="x" unicode="x" horiz-adv-x="1091" 
d="M1001 825l-139 103l-250 -375l209 -455l180 176l11 -12q-99 -138 -170.5 -212.5t-104.5 -74.5q-21 0 -38.5 16.5t-46 71t-62.5 136t-94 233.5l-260 -385q-49 -72 -111 -72q-51 0 -164 29l66 152h22l152 -111l284 412l-190 415l-164 -157l-12 10q85 121 156.5 195.5
t103.5 74.5q14 0 25 -5.5t25.5 -24.5t28 -44t36.5 -77.5t46 -110t62 -155.5l221 340q25 41 52 59t65 18q51 0 154 -20l-68 -150h-25z" />
    <glyph glyph-name="y" unicode="y" horiz-adv-x="1021" 
d="M946 995q74 -142 74 -190q0 -35 -74.5 -181.5t-189.5 -335.5t-239.5 -371t-240 -306.5t-174.5 -124.5q-86 0 -204 41l86 186h14l133 -114q241 140 408 389h-119q-49 568 -176 899l-172 -170l-13 12q82 119 154 192.5t111 73.5q57 0 109 -165t83 -378.5t45 -426.5
q170 263 326 751l-111 111v14z" />
    <glyph glyph-name="z" unicode="z" horiz-adv-x="958" 
d="M733 137l133 199l13 -2q-47 -209 -80 -278.5t-86 -69.5q-47 0 -151.5 38t-373.5 152l-192 -201l-19 19q633 672 795 831l-526 -12l-113 -166l-14 2l55 322h758l2 -15l-647 -675z" />
    <glyph glyph-name="braceleft" unicode="{" horiz-adv-x="741" 
d="M528 -336q-435 0 -335 658l8 55q19 124 -9 177.5t-135 80.5l2 14q60 8 96.5 21t61 40t36.5 63.5t21 98.5l9 56q50 328 178 485.5t350 157.5h53l-4 -25h-43q-155 0 -238 -88t-96 -270l-20 -285q-9 -109 -67 -164t-218 -100l-2 -8q145 -63 186.5 -121t18.5 -162l-66 -301
q-38 -183 18 -271.5t210 -88.5h45l-6 -23h-54z" />
    <glyph glyph-name="bar" unicode="|" horiz-adv-x="448" 
d="M92 -299l303 2064h35l-303 -2064h-35z" />
    <glyph glyph-name="braceright" unicode="}" horiz-adv-x="739" 
d="M252 1571q216 0 301 -166t35 -492l-8 -55q-19 -124 8.5 -177.5t134.5 -80.5l-2 -14q-115 -15 -156 -59.5t-59 -164.5l-8 -55q-50 -328 -178.5 -485.5t-350.5 -157.5h-55l6 23h43q154 0 236.5 88.5t95.5 271.5l22 285q9 109 67 163.5t218 98.5l2 10q-144 61 -186 119.5
t-19 163.5l64 301q40 182 -16.5 270t-210.5 88h-43l4 25h55z" />
    <glyph glyph-name="asciitilde" unicode="~" horiz-adv-x="1013" 
d="M725 598q-42 0 -118 48t-149 96.5t-108 48.5q-32 0 -63 -36.5t-97 -146.5l-28 17q73 120 111 159t83 39q42 0 118 -48.5t149 -97t108 -48.5q32 0 64.5 37t95.5 147l29 -16q-69 -119 -108.5 -159t-86.5 -40z" />
    <glyph glyph-name="uni00A0" unicode="&#xa0;" horiz-adv-x="1228" 
 />
    <glyph glyph-name="exclamdown" unicode="&#xa1;" horiz-adv-x="540" 
d="M338 995q44 0 76 -32t32 -78q0 -59 -42 -102.5t-99 -43.5q-42 0 -73 33t-31 78q0 59 41 102t96 43zM285 528l-29 -1011l-10 -13h-234l-8 13l262 1011h19z" />
    <glyph glyph-name="cent" unicode="&#xa2;" horiz-adv-x="872" 
d="M451 340q53 0 130.5 40t235.5 148l10 -12q-151 -175 -244.5 -245t-183.5 -74l-32 -222h-23l33 222q-132 3 -210.5 95t-78.5 240q0 146 61.5 289.5t161 245t211.5 137.5l35 238h23l-33 -232q46 11 76 11q104 0 290 -47l-145 -287l-14 2l-4 219q-109 62 -203 80q-1 0 -2 -1
t-2 -1l-123 -844q10 -2 31 -2zM262 590q0 -96 36 -159.5t99 -82.5l121 821q-120 -80 -188 -239.5t-68 -339.5z" />
    <glyph glyph-name="sterling" unicode="&#xa3;" horiz-adv-x="1011" 
d="M434 588q0 -207 -190 -418l651 -4l-53 -191h-19l-598 175q-45 -48 -96.5 -92t-80.5 -64l-28 -19l-8 11l30 30t67.5 78.5t85.5 120t67.5 145.5t30.5 162q0 32 -8 90h-168l4 19l158 6q-10 40 -34.5 106t-39.5 125t-15 121q0 125 71.5 229.5t188.5 163t250 58.5
q160 0 322 -49l-131 -279l-17 2l-18 264q-70 39 -160 39q-153 0 -241 -99t-88 -276q0 -73 30 -199t35 -200l328 14l-6 -45h-320v-24z" />
    <glyph glyph-name="currency" unicode="&#xa4;" horiz-adv-x="1372" 
d="M1233 774q0 -125 -45.5 -233.5t-126.5 -186.5l106 -123l-28 -22l-101 125q-155 -133 -372 -133q-201 0 -334 133l-142 -127l-26 24l149 123q-108 120 -108 295q0 123 44.5 229.5t125.5 182.5l-109 125l29 24l104 -127q156 134 375 134q200 0 332 -132l139 127l25 -26
l-144 -121q107 -123 107 -291zM240 651q0 -179 123 -298.5t307 -119.5q225 0 376.5 155t151.5 384q0 177 -122.5 294.5t-305.5 117.5q-227 0 -378.5 -152t-151.5 -381z" />
    <glyph glyph-name="yen" unicode="&#xa5;" horiz-adv-x="1601" 
d="M1202 1417h449l-2 -22h-170l-541 -777h330l-2 -24h-336l-33 -248h334l-2 -22h-334l-39 -301h213l-2 -23h-573l2 14l198 95l29 215h-334l2 22h334l33 248h-332l2 24h320l-355 777h-170l2 22h613l-2 -22h-246l336 -764l467 676l-195 96z" />
    <glyph glyph-name="brokenbar" unicode="&#xa6;" horiz-adv-x="448" 
d="M289 1032l106 733h35l-106 -733h-35zM92 -299l107 733h34l-106 -733h-35z" />
    <glyph glyph-name="section" unicode="&#xa7;" horiz-adv-x="1134" 
d="M344 -270q-39 0 -83 4t-69 8l-24 4l8 25q88 -19 172 -19q113 0 176.5 56.5t63.5 164.5q0 68 -33 143.5t-119 202.5l-141 216q-68 102 -101.5 197t-33.5 204q0 252 178 403.5t473 151.5q39 0 80 -4t63 -8l21 -4l-10 -25q-80 18 -160 18q-118 0 -182 -46.5t-64 -139.5
q0 -62 35 -136t123 -206l162 -244q75 -110 111 -210t36 -216q0 -244 -187 -392t-495 -148zM500 -236q9 1 24 4t58 16.5t82.5 33t88 56.5t83.5 82.5t59 116.5t25 154q1 85 -33.5 164.5t-118.5 204.5l-166 248q-133 199 -133 350q0 51 16 96t38.5 72.5t45 48t38.5 29.5l16 8
q-7 -1 -20 -4t-50 -17t-70.5 -33t-74.5 -56.5t-70.5 -83.5t-49.5 -117.5t-20 -155.5q0 -83 31.5 -159.5t110.5 -192.5l141 -213q135 -201 135 -365q0 -60 -19 -112t-46.5 -82.5t-55 -53t-46.5 -31.5z" />
    <glyph glyph-name="dieresis" unicode="&#xa8;" horiz-adv-x="776" 
d="M309 1143q-38 0 -66 28t-28 68q0 52 35.5 89.5t85.5 37.5q38 0 65 -28t27 -68q0 -51 -35 -89t-84 -38zM668 1143q-38 0 -66.5 28.5t-28.5 67.5q0 53 36 90t87 37q37 0 64.5 -28.5t27.5 -67.5q0 -51 -35.5 -89t-84.5 -38z" />
    <glyph glyph-name="copyright" unicode="&#xa9;" horiz-adv-x="1708" 
d="M991 1491q193 0 345.5 -84t236.5 -231.5t84 -331.5q0 -243 -110.5 -442t-308 -313t-443.5 -114q-194 0 -347.5 85.5t-238 235t-84.5 335.5q0 240 111 436.5t309.5 310t445.5 113.5zM795 -2q178 0 333.5 64.5t266 176.5t174 269t63.5 336t-82 321.5t-228.5 222.5
t-330.5 80q-178 0 -334.5 -64t-267.5 -174.5t-175 -266t-64 -332.5q0 -275 182 -454t463 -179zM932 1133q-112 -60 -177 -198t-65 -298q0 -96 44.5 -152.5t119.5 -56.5q45 0 113 34.5t202 123.5l9 -11q-134 -153 -216.5 -210.5t-164.5 -57.5q-116 0 -187 78t-71 205
q0 105 41 210.5t105 184t147.5 127.5t164.5 49q88 0 254 -41l-127 -237h-12l-4 184q-94 54 -176 66z" />
    <glyph glyph-name="ordfeminine" unicode="&#xaa;" horiz-adv-x="763" 
d="M831 1090l9 -9q-154 -194 -209 -194q-32 0 -57 31t-25 71q0 60 55 303l-6 2q-153 -249 -218.5 -328t-129.5 -79q-54 0 -86.5 43t-32.5 114q0 114 63.5 234.5t159 198t183.5 77.5q54 0 135 -24l90 61l12 -6l-92 -629zM588 1313l24 170q-71 47 -110 47q-55 0 -106 -67
t-80 -159.5t-29 -173.5q0 -114 59 -114q31 0 80.5 60.5t161.5 236.5z" />
    <glyph glyph-name="guillemotleft" unicode="&#xab;" horiz-adv-x="854" 
d="M502 870l12 -12l-231 -360l123 -365l-15 -6l-307 371zM840 870l14 -12l-231 -360l122 -365l-14 -6l-307 371z" />
    <glyph glyph-name="logicalnot" unicode="&#xac;" horiz-adv-x="1042" 
d="M168 819h782l-55 -383h-37l51 348h-745z" />
    <glyph glyph-name="registered" unicode="&#xae;" horiz-adv-x="1708" 
d="M795 -25q-194 0 -347.5 85.5t-238 235t-84.5 335.5q0 240 111 436.5t309.5 310t445.5 113.5q193 0 345.5 -84t236.5 -231.5t84 -331.5q0 -243 -110.5 -442t-308 -313t-443.5 -114zM795 -2q178 0 333.5 64.5t266 176.5t174 269t63.5 336t-82 321.5t-228.5 222.5t-330.5 80
q-178 0 -334.5 -64t-267.5 -174.5t-175 -266t-64 -332.5q0 -275 182 -454t463 -179zM422 309l2 10l125 56l115 768h-115l4 16h395q156 0 230.5 -46t74.5 -142q0 -104 -113 -173t-317 -91l45 -74h144l194 -307h94l-12 -17h-244l-241 396l2 12q148 19 227.5 86.5t79.5 173.5
q0 166 -180 166h-123l-121 -817h117l-2 -17h-381z" />
    <glyph glyph-name="degree" unicode="&#xb0;" horiz-adv-x="804" 
d="M459 807q-117 0 -196 78.5t-79 195.5q0 153 100.5 256t250.5 103q116 0 194 -79.5t78 -197.5q0 -152 -99.5 -254t-248.5 -102zM463 836q132 0 221.5 93t89.5 230q0 107 -70 178.5t-174 71.5q-133 0 -223 -93t-90 -231q0 -107 70 -178t176 -71z" />
    <glyph glyph-name="plusminus" unicode="&#xb1;" horiz-adv-x="1042" 
d="M602 911h361l-5 -34h-362l-53 -371h-35l53 371h-360l4 34h362l54 373h34zM98 180l4 35h758l-4 -35h-758z" />
    <glyph glyph-name="acute" unicode="&#xb4;" horiz-adv-x="559" 
d="M195 1108l206 311h187l4 -16l-383 -305z" />
    <glyph glyph-name="paragraph" unicode="&#xb6;" horiz-adv-x="1175" 
d="M539 -141l94 647q-211 17 -340 133t-129 289q0 151 80 274.5t220 193.5t312 70h25l-238 -1599zM457 -449l-148 123l2 15l307 112q52 104 76 262l209 1403h379l-2 -14l-215 -94l-170 -1151q-34 -227 -138.5 -383.5t-299.5 -272.5z" />
    <glyph glyph-name="periodcentered" unicode="&#xb7;" horiz-adv-x="585" 
d="M279 371q-43 0 -76 32.5t-33 77.5q0 59 42 102.5t99 43.5q43 0 75 -33t32 -78q0 -58 -41.5 -101.5t-97.5 -43.5z" />
    <glyph glyph-name="ordmasculine" unicode="&#xba;" horiz-adv-x="686" 
d="M389 887q-109 0 -178.5 69.5t-69.5 178.5q0 94 58 192.5t146 162.5t169 64q108 0 178 -69.5t70 -177.5q0 -96 -55.5 -194.5t-143 -162t-174.5 -63.5zM426 913q53 0 96.5 59.5t65.5 147.5t22 180q0 109 -39 169.5t-106 60.5q-77 -39 -125.5 -152t-48.5 -241
q0 -105 36.5 -164.5t98.5 -59.5z" />
    <glyph glyph-name="guillemotright" unicode="&#xbb;" horiz-adv-x="851" 
d="M43 127l-14 10l233 361l-123 364l15 8l307 -372zM383 127l-14 10l233 361l-125 364l15 8l309 -372z" />
    <glyph glyph-name="onequarter" unicode="&#xbc;" horiz-adv-x="1617" 
d="M487 526l-4 -16h-434l2 12l150 51l116 738h-141l2 12l295 119l12 -6l-143 -910h145zM1425 1417h35l-1200 -1417h-35zM1536 254h-135l-37 -238h121l-2 -16h-387l2 12l125 51l30 191h-383l-2 10l400 643h198l2 -12l-581 -627l368 2l33 211h148l-33 -209h137z" />
    <glyph glyph-name="onehalf" unicode="&#xbd;" horiz-adv-x="1765" 
d="M487 526l-4 -16h-434l2 12l150 51l116 738h-141l2 12l295 119l12 -6l-143 -910h145zM1425 1417h35l-1200 -1417h-35zM1647 266l10 -2l-51 -264h-631l-2 12l303 334q122 133 170.5 207.5t48.5 140.5t-45.5 106t-120.5 40q-118 0 -219 -66l-8 8q119 140 305 140
q106 0 172 -55.5t66 -145.5q0 -91 -75 -185.5t-253 -236.5l-223 -188l381 -97z" />
    <glyph glyph-name="threequarters" unicode="&#xbe;" horiz-adv-x="1736" 
d="M727 817q0 -138 -126.5 -230.5t-315.5 -92.5q-100 0 -189 26l6 119l11 4l213 -119q107 22 174 98t67 179q0 179 -180 246l2 10l270 252l-274 92l-170 -248l-8 2l49 262h537l2 -12l-383 -350q160 -23 237.5 -81.5t77.5 -156.5zM1544 1417h35l-1200 -1417h-35zM1655 254
h-135l-37 -238h121l-2 -16h-388l3 12l124 51l31 191h-383l-2 10l399 643h199l2 -12l-581 -627l368 2l33 211h147l-32 -209h137z" />
    <glyph glyph-name="questiondown" unicode="&#xbf;" horiz-adv-x="905" 
d="M510 739q-42 0 -73 33t-31 78q0 59 41 102t96 43q44 0 76 -32t32 -78q0 -59 -42 -102.5t-99 -43.5zM612 -141l103 -197q-105 -88 -220.5 -135t-224.5 -47q-135 0 -216 63.5t-81 169.5q0 98 69 200.5t234 252.5l236 215l-180 98l4 17h278l4 -15l-266 -348
q-106 -142 -150 -231.5t-44 -165.5q0 -79 51.5 -121.5t146.5 -42.5q80 0 189 33l53 252z" />
    <glyph glyph-name="Agrave" unicode="&#xc0;" horiz-adv-x="1658" 
d="M954 1602l-10 -13l-385 242l8 16h197zM1352 25h202l-2 -25h-678l3 25h282l-158 604h-518l-254 -504l220 -111l-3 -14h-481l4 25h183l665 1310l-96 117l2 14h246zM496 651h499l-170 656z" />
    <glyph glyph-name="Aacute" unicode="&#xc1;" horiz-adv-x="1658" 
d="M1227 1831l-445 -242l-10 15l252 243h197zM1352 25h202l-2 -25h-678l3 25h282l-158 604h-518l-254 -504l220 -111l-3 -14h-481l4 25h183l665 1310l-96 117l2 14h246zM496 651h499l-170 656z" />
    <glyph glyph-name="Acircumflex" unicode="&#xc2;" horiz-adv-x="1658" 
d="M889 1698l-287 -111l-8 15l301 241h16l246 -244l-10 -12zM1352 25h202l-2 -25h-678l3 25h282l-158 604h-518l-254 -504l220 -111l-3 -14h-481l4 25h183l665 1310l-96 117l2 14h246zM496 651h499l-170 656z" />
    <glyph glyph-name="Atilde" unicode="&#xc3;" horiz-adv-x="1658" 
d="M682 1714q-27 0 -51 -18.5t-66 -73.5l-18 10q74 122 116 163.5t91 41.5q40 0 186.5 -52t181.5 -52q27 0 51 18.5t66 73.5l18 -10q-74 -122 -115.5 -163.5t-90.5 -41.5q-40 0 -187 52t-182 52zM1352 25h202l-2 -25h-678l3 25h282l-158 604h-518l-254 -504l220 -111l-3 -14
h-481l4 25h183l665 1310l-96 117l2 14h246zM496 651h499l-170 656z" />
    <glyph glyph-name="Adieresis" unicode="&#xc4;" horiz-adv-x="1658" 
d="M684 1604q-40 0 -69 29t-29 69q0 54 37.5 92.5t89.5 38.5q38 0 66 -29.5t28 -70.5q0 -52 -36.5 -90.5t-86.5 -38.5zM1073 1604q-38 0 -67 29t-29 69q0 54 37 92.5t88 38.5q38 0 66 -29.5t28 -70.5q0 -53 -36 -91t-87 -38zM1352 25h202l-2 -25h-678l3 25h282l-158 604
h-518l-254 -504l220 -111l-3 -14h-481l4 25h183l665 1310l-96 117l2 14h246zM496 651h499l-170 656z" />
    <glyph glyph-name="Aring" unicode="&#xc5;" horiz-adv-x="1658" 
d="M889 1591q-76 0 -124 43t-48 111q0 93 65.5 161t161.5 68q77 0 123.5 -43.5t46.5 -111.5q0 -94 -65 -161t-160 -67zM1032 1925q-39 25 -92 25q-48 0 -92 -23l-47 -287q35 -24 90 -24q45 0 90 20zM1352 25h202l-2 -25h-678l3 25h282l-158 604h-518l-254 -504l220 -111
l-3 -14h-481l4 25h183l665 1310l-96 117l2 14h246zM496 651h499l-170 656z" />
    <glyph glyph-name="AE" unicode="&#xc6;" horiz-adv-x="2199" 
d="M1827 27l278 393l17 -4l-107 -416h-1212l4 25h248l80 604h-498l-381 -516l205 -99l-2 -14h-492l2 25h191l968 1304l-120 123l2 14h1122l-45 -391l-16 -2l-125 369l-525 2l-88 -670h269l149 232h14l-61 -486h-25l31 228l-379 2l-96 -725zM655 651h482l104 793z" />
    <glyph glyph-name="Ccedilla" unicode="&#xc7;" horiz-adv-x="1386" 
d="M1008 84l282 410l17 -5l-97 -380q-278 -136 -493 -136h-19l-32 -69q109 -34 157.5 -72t48.5 -84q0 -55 -63 -117.5t-209 -150.5l-8 10q123 156 123 252q0 70 -76 149l39 84q-251 12 -402 182t-151 435q0 185 54 349t151 286t242.5 193t318.5 71q179 0 446 -76l-49 -364
l-18 -2l-125 360q-130 59 -264 59q-115 0 -210 -50t-159.5 -134.5t-109 -199t-65 -240.5t-20.5 -262q0 -260 113 -423t301 -163q80 0 143 20.5t134 67.5z" />
    <glyph glyph-name="Egrave" unicode="&#xc8;" horiz-adv-x="1335" 
d="M825 1589l-385 242l9 16h196l191 -245zM-4 0l2 14l211 99l166 1331h-191l2 22h1080l-43 -391l-17 -2l-125 369l-526 2l-84 -670h266l150 232h12l-61 -486h-23l31 228l-379 2l-90 -725l584 2l278 393l16 -4l-106 -416h-1153z" />
    <glyph glyph-name="Eacute" unicode="&#xc9;" horiz-adv-x="1335" 
d="M664 1589l-11 15l252 243h197l6 -16zM-4 0l2 14l211 99l166 1331h-191l2 22h1080l-43 -391l-17 -2l-125 369l-526 2l-84 -670h266l150 232h12l-61 -486h-23l31 228l-379 2l-90 -725l584 2l278 393l16 -4l-106 -416h-1153z" />
    <glyph glyph-name="Ecircumflex" unicode="&#xca;" horiz-adv-x="1335" 
d="M483 1587l-8 15l301 241h17l245 -244l-10 -12l-258 111zM-4 0l2 14l211 99l166 1331h-191l2 22h1080l-43 -391l-17 -2l-125 369l-526 2l-84 -670h266l150 232h12l-61 -486h-23l31 228l-379 2l-90 -725l584 2l278 393l16 -4l-106 -416h-1153z" />
    <glyph glyph-name="Edieresis" unicode="&#xcb;" horiz-adv-x="1335" 
d="M565 1604q-40 0 -69 29t-29 69q0 54 37.5 92.5t89.5 38.5q38 0 66 -29.5t28 -70.5q0 -52 -36.5 -90.5t-86.5 -38.5zM954 1604q-38 0 -67 29t-29 69q0 54 37 92.5t88 38.5q38 0 66 -29.5t28 -70.5q0 -53 -36 -91t-87 -38zM-4 0l2 14l211 99l166 1331h-191l2 22h1080
l-43 -391l-17 -2l-125 369l-526 2l-84 -670h266l150 232h12l-61 -486h-23l31 228l-379 2l-90 -725l584 2l278 393l16 -4l-106 -416h-1153z" />
    <glyph glyph-name="Igrave" unicode="&#xcc;" horiz-adv-x="718" 
d="M551 1589l-385 242l8 16h197l190 -245zM4 0l4 14l201 99l164 1329h-191l2 24h570l-2 -14l-203 -94l-166 -1333h227l-2 -25h-604z" />
    <glyph glyph-name="Iacute" unicode="&#xcd;" horiz-adv-x="718" 
d="M389 1589l-10 15l252 243h196l7 -16zM4 0l4 14l201 99l164 1329h-191l2 24h570l-2 -14l-203 -94l-166 -1333h227l-2 -25h-604z" />
    <glyph glyph-name="Icircumflex" unicode="&#xce;" horiz-adv-x="718" 
d="M209 1587l-8 15l301 241h16l246 -244l-10 -12l-258 111zM4 0l4 14l201 99l164 1329h-191l2 24h570l-2 -14l-203 -94l-166 -1333h227l-2 -25h-604z" />
    <glyph glyph-name="Idieresis" unicode="&#xcf;" horiz-adv-x="718" 
d="M291 1604q-40 0 -69 29t-29 69q0 54 37 92.5t89 38.5q38 0 66.5 -29.5t28.5 -70.5q0 -52 -36.5 -90.5t-86.5 -38.5zM680 1604q-38 0 -67 29t-29 69q0 54 37 92.5t88 38.5q38 0 66 -29.5t28 -70.5q0 -53 -36 -91t-87 -38zM4 0l4 14l201 99l164 1329h-191l2 24h570l-2 -14
l-203 -94l-166 -1333h227l-2 -25h-604z" />
    <glyph glyph-name="Eth" unicode="&#xd0;" horiz-adv-x="1525" 
d="M815 1466q315 0 487.5 -163t172.5 -461q0 -189 -58 -346t-163.5 -266t-257 -169.5t-334.5 -60.5h-654l2 14l205 99l82 637h-186l2 24h188l86 670h-192l2 22h618zM664 25q186 0 326.5 102.5t217 291t76.5 437.5q0 280 -123.5 434t-349.5 154h-244l-86 -670h387l-2 -24
h-389l-88 -682q131 -43 275 -43z" />
    <glyph glyph-name="Ntilde" unicode="&#xd1;" horiz-adv-x="1509" 
d="M614 1622l-18 10q74 122 116 163.5t91 41.5q40 0 186.5 -52t181.5 -52q27 0 51 18.5t66 73.5l19 -10q-74 -122 -116 -163.5t-91 -41.5q-40 0 -187 52t-182 52q-27 0 -51 -18.5t-66 -73.5zM-4 0l2 14l215 99l158 1220l-127 119l2 14h268l731 -1255l160 1233h-217l4 22h422
l-2 -14l-193 -94l-178 -1358h-92l-762 1300l-164 -1275h217l-2 -25h-442z" />
    <glyph glyph-name="Ograve" unicode="&#xd2;" horiz-adv-x="1456" 
d="M948 1589l-385 242l8 16h197l190 -245zM641 -27q-233 0 -377.5 169.5t-144.5 443.5q0 127 36.5 257.5t106 245.5t162 205.5t213.5 143.5t252 53q233 0 376.5 -167t143.5 -439q0 -129 -34.5 -259t-102 -247t-159 -208t-214 -144.5t-258.5 -53.5zM700 6q89 0 166 40.5
t132 109.5t98.5 157t69.5 187.5t39.5 196t13.5 186.5q0 260 -115 419.5t-299 159.5q-232 -100 -364 -326t-132 -546q0 -266 106.5 -425t284.5 -159z" />
    <glyph glyph-name="Oacute" unicode="&#xd3;" horiz-adv-x="1456" 
d="M784 1589l-10 15l252 243h197l6 -16zM641 -27q-233 0 -377.5 169.5t-144.5 443.5q0 127 36.5 257.5t106 245.5t162 205.5t213.5 143.5t252 53q233 0 376.5 -167t143.5 -439q0 -129 -34.5 -259t-102 -247t-159 -208t-214 -144.5t-258.5 -53.5zM700 6q89 0 166 40.5
t132 109.5t98.5 157t69.5 187.5t39.5 196t13.5 186.5q0 260 -115 419.5t-299 159.5q-232 -100 -364 -326t-132 -546q0 -266 106.5 -425t284.5 -159z" />
    <glyph glyph-name="Ocircumflex" unicode="&#xd4;" horiz-adv-x="1456" 
d="M606 1587l-8 15l301 241h16l246 -244l-10 -12l-258 111zM641 -27q-233 0 -377.5 169.5t-144.5 443.5q0 127 36.5 257.5t106 245.5t162 205.5t213.5 143.5t252 53q233 0 376.5 -167t143.5 -439q0 -129 -34.5 -259t-102 -247t-159 -208t-214 -144.5t-258.5 -53.5zM700 6
q89 0 166 40.5t132 109.5t98.5 157t69.5 187.5t39.5 196t13.5 186.5q0 260 -115 419.5t-299 159.5q-232 -100 -364 -326t-132 -546q0 -266 106.5 -425t284.5 -159z" />
    <glyph glyph-name="Otilde" unicode="&#xd5;" horiz-adv-x="1456" 
d="M567 1622l-18 10q74 122 116 163.5t91 41.5q40 0 186.5 -52t181.5 -52q27 0 51 18.5t66 73.5l19 -10q-74 -122 -116 -163.5t-91 -41.5q-40 0 -187 52t-182 52q-27 0 -51 -18.5t-66 -73.5zM641 -27q-233 0 -377.5 169.5t-144.5 443.5q0 127 36.5 257.5t106 245.5
t162 205.5t213.5 143.5t252 53q233 0 376.5 -167t143.5 -439q0 -129 -34.5 -259t-102 -247t-159 -208t-214 -144.5t-258.5 -53.5zM700 6q89 0 166 40.5t132 109.5t98.5 157t69.5 187.5t39.5 196t13.5 186.5q0 260 -115 419.5t-299 159.5q-232 -100 -364 -326t-132 -546
q0 -266 106.5 -425t284.5 -159z" />
    <glyph glyph-name="Odieresis" unicode="&#xd6;" horiz-adv-x="1456" 
d="M688 1604q-40 0 -69 29t-29 69q0 54 37.5 92.5t89.5 38.5q38 0 66 -29.5t28 -70.5q0 -52 -36.5 -90.5t-86.5 -38.5zM1077 1604q-38 0 -67 29t-29 69q0 54 37 92.5t88 38.5q38 0 66 -29.5t28 -70.5q0 -53 -36 -91t-87 -38zM641 -27q-233 0 -377.5 169.5t-144.5 443.5
q0 127 36.5 257.5t106 245.5t162 205.5t213.5 143.5t252 53q233 0 376.5 -167t143.5 -439q0 -129 -34.5 -259t-102 -247t-159 -208t-214 -144.5t-258.5 -53.5zM700 6q89 0 166 40.5t132 109.5t98.5 157t69.5 187.5t39.5 196t13.5 186.5q0 260 -115 419.5t-299 159.5
q-232 -100 -364 -326t-132 -546q0 -266 106.5 -425t284.5 -159z" />
    <glyph glyph-name="multiply" unicode="&#xd7;" horiz-adv-x="835" 
d="M811 999l-338 -294l246 -289l-25 -21l-245 289l-334 -291l-23 25l336 291l-250 292l27 21l248 -293l338 293z" />
    <glyph glyph-name="Oslash" unicode="&#xd8;" horiz-adv-x="1456" 
d="M1425 1505l-155 -186q139 -164 139 -434q0 -129 -34.5 -259t-102 -247t-159 -208t-214 -144.5t-258.5 -53.5q-224 0 -371 160l-153 -182l-17 14l156 187q-137 169 -137 434q0 127 36.5 257.5t106 245.5t162 205.5t213.5 143.5t252 53q222 0 366 -156l154 185zM309 590
q0 -180 51 -316l793 943q-53 117 -143 181t-205 64q-232 -100 -364 -326t-132 -546zM1219 883q0 170 -56 311l-794 -942q52 -119 136 -182.5t195 -63.5q89 0 166 40.5t132 109.5t98.5 157t69.5 187.5t39.5 196t13.5 186.5z" />
    <glyph glyph-name="Ugrave" unicode="&#xd9;" horiz-adv-x="1581" 
d="M1057 1589l-385 242l8 16h197l190 -245zM774 -29q-588 0 -502 660l103 813h-197l2 22h576l-4 -22h-197l-104 -823q-37 -297 57 -431.5t338 -134.5q223 0 355 142t167 424l102 823h-223l2 22h439l-2 -14l-201 -94l-92 -727q-85 -660 -619 -660z" />
    <glyph glyph-name="Uacute" unicode="&#xda;" horiz-adv-x="1581" 
d="M893 1589l-10 15l252 243h196l6 -16zM774 -29q-588 0 -502 660l103 813h-197l2 22h576l-4 -22h-197l-104 -823q-37 -297 57 -431.5t338 -134.5q223 0 355 142t167 424l102 823h-223l2 22h439l-2 -14l-201 -94l-92 -727q-85 -660 -619 -660z" />
    <glyph glyph-name="Ucircumflex" unicode="&#xdb;" horiz-adv-x="1581" 
d="M713 1587l-8 15l301 241h16l246 -244l-11 -12l-258 111zM774 -29q-588 0 -502 660l103 813h-197l2 22h576l-4 -22h-197l-104 -823q-37 -297 57 -431.5t338 -134.5q223 0 355 142t167 424l102 823h-223l2 22h439l-2 -14l-201 -94l-92 -727q-85 -660 -619 -660z" />
    <glyph glyph-name="Udieresis" unicode="&#xdc;" horiz-adv-x="1581" 
d="M797 1604q-40 0 -69.5 29t-29.5 69q0 54 37.5 92.5t89.5 38.5q38 0 66.5 -29.5t28.5 -70.5q0 -52 -36.5 -90.5t-86.5 -38.5zM1186 1604q-38 0 -67 29t-29 69q0 54 36.5 92.5t87.5 38.5q38 0 66.5 -29.5t28.5 -70.5q0 -53 -36 -91t-87 -38zM774 -29q-588 0 -502 660
l103 813h-197l2 22h576l-4 -22h-197l-104 -823q-37 -297 57 -431.5t338 -134.5q223 0 355 142t167 424l102 823h-223l2 22h439l-2 -14l-201 -94l-92 -727q-85 -660 -619 -660z" />
    <glyph glyph-name="Yacute" unicode="&#xdd;" horiz-adv-x="1572" 
d="M1303 1831l-445 -242l-10 15l252 243h196zM1206 1466h473l-2 -22h-176l-577 -817l-76 -602h225l-2 -25h-602l2 14l209 99l63 503l-385 828h-180l2 22h643l-4 -22h-256l352 -791l490 699l-201 100z" />
    <glyph glyph-name="Thorn" unicode="&#xde;" horiz-adv-x="1298" 
d="M514 365q142 24 244 59.5t182 92.5t120 142t40 199q0 152 -81.5 231.5t-232.5 79.5h-260l-145 -1144h248l-2 -25h-629l2 14l213 99l168 1331h-197l2 22h582l-2 -22h-205l-33 -252h275q229 0 355 -84t126 -238q0 -103 -40.5 -185t-108 -136.5t-169.5 -95.5t-209 -64.5
t-243 -40.5v17z" />
    <glyph glyph-name="germandbls" unicode="&#xdf;" horiz-adv-x="1210" 
d="M963 567q178 -119 178 -252q0 -83 -58.5 -163t-154.5 -129.5t-199 -49.5q-112 0 -313 56l61 131h15q109 -92 168 -126t112 -34q74 0 139.5 81t65.5 161q0 50 -27.5 90t-95.5 92l-109 74q-184 130 -184 254q0 55 23 107.5t83 121t140 141.5t219 189q-116 115 -190 160
t-144 45q-103 0 -176 -109t-92 -289l-111 -993q-29 -250 -157 -418t-289 -168q-70 0 -207 35l45 117h14q76 -59 123.5 -83t91.5 -24q73 0 124.5 78.5t66.5 216.5l104 1014l-147 61l2 17h154l4 41q11 113 58 213.5t115.5 170t153.5 110t172 40.5q74 0 170 -26t254 -90
q-258 -261 -353 -388.5t-95 -212.5q0 -53 29.5 -94t105.5 -94z" />
    <glyph glyph-name="agrave" unicode="&#xe0;" horiz-adv-x="1079" 
d="M666 1108l-17 -10l-295 305l8 16h181zM1010 268l12 -10q-108 -140 -178.5 -211.5t-110.5 -71.5q-38 0 -65 39t-27 95q0 114 88 497l-6 2q-158 -258 -250 -390.5t-153 -188.5t-113 -56q-72 0 -119 70.5t-47 179.5q0 127 54 267t137 251t190 183.5t207 72.5q51 0 182 -32
l107 86l16 -7l-146 -987zM707 623l36 264q-110 74 -172 74q-86 0 -169.5 -107t-133 -258.5t-49.5 -284.5q0 -83 25.5 -132.5t66.5 -49.5q51 0 131 100t265 394z" />
    <glyph glyph-name="aacute" unicode="&#xe1;" horiz-adv-x="1079" 
d="M948 1403l-383 -305l-14 10l207 311h186zM1010 268l12 -10q-108 -140 -178.5 -211.5t-110.5 -71.5q-38 0 -65 39t-27 95q0 114 88 497l-6 2q-158 -258 -250 -390.5t-153 -188.5t-113 -56q-72 0 -119 70.5t-47 179.5q0 127 54 267t137 251t190 183.5t207 72.5
q51 0 182 -32l107 86l16 -7l-146 -987zM707 623l36 264q-110 74 -172 74q-86 0 -169.5 -107t-133 -258.5t-49.5 -284.5q0 -83 25.5 -132.5t66.5 -49.5q51 0 131 100t265 394z" />
    <glyph glyph-name="acircumflex" unicode="&#xe2;" horiz-adv-x="1079" 
d="M637 1276l-272 -164l-7 10l287 303h14l205 -303l-10 -10zM1010 268l12 -10q-108 -140 -178.5 -211.5t-110.5 -71.5q-38 0 -65 39t-27 95q0 114 88 497l-6 2q-158 -258 -250 -390.5t-153 -188.5t-113 -56q-72 0 -119 70.5t-47 179.5q0 127 54 267t137 251t190 183.5
t207 72.5q51 0 182 -32l107 86l16 -7l-146 -987zM707 623l36 264q-110 74 -172 74q-86 0 -169.5 -107t-133 -258.5t-49.5 -284.5q0 -83 25.5 -132.5t66.5 -49.5q51 0 131 100t265 394z" />
    <glyph glyph-name="atilde" unicode="&#xe3;" horiz-adv-x="1079" 
d="M444 1253q-23 0 -45 -18t-65 -72l-15 8q72 122 110 162.5t79 40.5q38 0 156.5 -51t150.5 -51q23 0 44.5 18.5t62.5 73.5l16 -8q-72 -125 -109.5 -165t-78.5 -40q-38 0 -156 51t-150 51zM1010 268l12 -10q-108 -140 -178.5 -211.5t-110.5 -71.5q-38 0 -65 39t-27 95
q0 114 88 497l-6 2q-158 -258 -250 -390.5t-153 -188.5t-113 -56q-72 0 -119 70.5t-47 179.5q0 127 54 267t137 251t190 183.5t207 72.5q51 0 182 -32l107 86l16 -7l-146 -987zM707 623l36 264q-110 74 -172 74q-86 0 -169.5 -107t-133 -258.5t-49.5 -284.5
q0 -83 25.5 -132.5t66.5 -49.5q51 0 131 100t265 394z" />
    <glyph glyph-name="adieresis" unicode="&#xe4;" horiz-adv-x="1079" 
d="M440 1143q-38 0 -66 28t-28 68q0 52 35.5 89.5t85.5 37.5q38 0 65 -28t27 -68q0 -51 -35 -89t-84 -38zM793 1143q-39 0 -67 28.5t-28 67.5q0 52 35.5 89.5t85.5 37.5q38 0 65 -28t27 -68q0 -52 -34.5 -89.5t-83.5 -37.5zM1010 268l12 -10q-108 -140 -178.5 -211.5
t-110.5 -71.5q-38 0 -65 39t-27 95q0 114 88 497l-6 2q-158 -258 -250 -390.5t-153 -188.5t-113 -56q-72 0 -119 70.5t-47 179.5q0 127 54 267t137 251t190 183.5t207 72.5q51 0 182 -32l107 86l16 -7l-146 -987zM707 623l36 264q-110 74 -172 74q-86 0 -169.5 -107
t-133 -258.5t-49.5 -284.5q0 -83 25.5 -132.5t66.5 -49.5q51 0 131 100t265 394z" />
    <glyph glyph-name="aring" unicode="&#xe5;" horiz-adv-x="1079" 
d="M616 1096q-76 0 -124 42.5t-48 110.5q0 93 66 161.5t162 68.5q77 0 123.5 -44t46.5 -112q0 -94 -65.5 -160.5t-160.5 -66.5zM760 1430q-37 24 -92 24q-51 0 -93 -22l-47 -287q36 -25 90 -25q44 0 91 21zM1010 268l12 -10q-108 -140 -178.5 -211.5t-110.5 -71.5
q-38 0 -65 39t-27 95q0 114 88 497l-6 2q-158 -258 -250 -390.5t-153 -188.5t-113 -56q-72 0 -119 70.5t-47 179.5q0 127 54 267t137 251t190 183.5t207 72.5q51 0 182 -32l107 86l16 -7l-146 -987zM707 623l36 264q-110 74 -172 74q-86 0 -169.5 -107t-133 -258.5
t-49.5 -284.5q0 -83 25.5 -132.5t66.5 -49.5q51 0 131 100t265 394z" />
    <glyph glyph-name="ae" unicode="&#xe6;" horiz-adv-x="1445" 
d="M997 117q56 0 138 46.5t241 170.5l13 -12q-166 -199 -264 -274t-193 -75q-134 0 -210.5 91.5t-76.5 244.5q0 97 31 199q-209 -317 -303.5 -426t-165.5 -109q-72 0 -119 70.5t-47 179.5q0 127 54 267t137 251t190 183.5t207 72.5q34 0 96 -17.5t215 -68.5q114 86 211 86
q98 0 169 -56t71 -122q0 -89 -130 -160.5t-444 -154.5q-10 -78 -10 -139q0 -114 51 -181t139 -67zM1094 967q-104 -58 -175 -176.5t-98 -266.5q236 89 326 149t90 128q0 45 -39 92t-104 74zM711 604q53 117 131 211q-120 86 -176.5 116t-94.5 30q-86 0 -169.5 -107
t-133 -258.5t-49.5 -284.5q0 -83 25.5 -132.5t66.5 -49.5q51 0 131.5 96t268.5 379z" />
    <glyph glyph-name="ccedilla" unicode="&#xe7;" horiz-adv-x="874" 
d="M420 117q52 0 129 40t235 148l13 -12q-159 -182 -254 -251t-189 -69h-22l-27 -63q191 -70 191 -158q0 -51 -61 -112.5t-202 -155.5l-8 10q127 156 127 254q0 69 -73 148l32 79q-117 15 -186.5 105.5t-69.5 228.5q0 101 30.5 204t84 188.5t120.5 152.5t145.5 105t154.5 38
q107 0 293 -49l-148 -284l-14 2l-2 219q-115 64 -205 78q-132 -72 -208.5 -238.5t-76.5 -359.5q0 -114 51.5 -181t139.5 -67z" />
    <glyph glyph-name="egrave" unicode="&#xe8;" horiz-adv-x="864" 
d="M623 1108l-17 -10l-295 305l8 16h181zM416 117q56 0 138 46.5t241 170.5l12 -12q-166 -199 -264 -274t-193 -75q-135 0 -217 92.5t-82 243.5q0 125 50.5 252.5t126.5 222t168 154t173 59.5q98 0 169 -56t71 -122q0 -88 -130.5 -160t-442.5 -155q-11 -86 -11 -139
q0 -114 51.5 -181t139.5 -67zM512 967q-104 -58 -174.5 -176.5t-97.5 -266.5q236 89 325.5 149t89.5 128q0 45 -39 92t-104 74z" />
    <glyph glyph-name="eacute" unicode="&#xe9;" horiz-adv-x="864" 
d="M905 1403l-383 -305l-14 10l207 311h186zM809 819q0 -88 -130.5 -160t-442.5 -155q-11 -86 -11 -139q0 -114 51.5 -181t139.5 -67q56 0 138 46.5t241 170.5l12 -12q-166 -199 -264 -274t-193 -75q-135 0 -217 92.5t-82 243.5q0 125 50.5 252.5t126.5 222t168 154
t173 59.5q98 0 169 -56t71 -122zM512 967q-104 -58 -174.5 -176.5t-97.5 -266.5q236 89 325.5 149t89.5 128q0 45 -39 92t-104 74z" />
    <glyph glyph-name="ecircumflex" unicode="&#xea;" horiz-adv-x="864" 
d="M616 1425l205 -303l-10 -10l-217 164l-272 -164l-7 10l287 303h14zM809 819q0 -88 -130.5 -160t-442.5 -155q-11 -86 -11 -139q0 -114 51.5 -181t139.5 -67q56 0 138 46.5t241 170.5l12 -12q-166 -199 -264 -274t-193 -75q-135 0 -217 92.5t-82 243.5q0 125 50.5 252.5
t126.5 222t168 154t173 59.5q98 0 169 -56t71 -122zM512 967q-104 -58 -174.5 -176.5t-97.5 -266.5q236 89 325.5 149t89.5 128q0 45 -39 92t-104 74z" />
    <glyph glyph-name="edieresis" unicode="&#xeb;" horiz-adv-x="864" 
d="M397 1143q-38 0 -66 28t-28 68q0 52 35.5 89.5t85.5 37.5q38 0 65 -28t27 -68q0 -51 -35 -89t-84 -38zM776 1366q38 0 65 -28t27 -68q0 -52 -34.5 -89.5t-83.5 -37.5q-38 0 -66.5 28.5t-28.5 67.5q0 52 35.5 89.5t85.5 37.5zM809 819q0 -88 -130.5 -160t-442.5 -155
q-11 -86 -11 -139q0 -114 51.5 -181t139.5 -67q56 0 138 46.5t241 170.5l12 -12q-166 -199 -264 -274t-193 -75q-135 0 -217 92.5t-82 243.5q0 125 50.5 252.5t126.5 222t168 154t173 59.5q98 0 169 -56t71 -122zM512 967q-104 -58 -174.5 -176.5t-97.5 -266.5
q236 89 325.5 149t89.5 128q0 45 -39 92t-104 74z" />
    <glyph glyph-name="igrave" unicode="&#xec;" horiz-adv-x="602" 
d="M434 1108l-16 -10l-295 305l8 16h180zM258 -25q-44 0 -76 50t-22 116l112 770l-202 -194l-13 12q193 254 273 254q40 0 72 -50.5t22 -115.5l-111 -760l222 211l12 -10q-108 -140 -178.5 -211.5t-110.5 -71.5z" />
    <glyph glyph-name="iacute" unicode="&#xed;" horiz-adv-x="602" 
d="M319 1108l207 311h187l4 -16l-383 -305zM258 -25q-44 0 -76 50t-22 116l112 770l-202 -194l-13 12q193 254 273 254q40 0 72 -50.5t22 -115.5l-111 -760l222 211l12 -10q-108 -140 -178.5 -211.5t-110.5 -71.5z" />
    <glyph glyph-name="icircumflex" unicode="&#xee;" horiz-adv-x="602" 
d="M414 1425h14l205 -303l-10 -10l-217 164l-273 -164l-6 10zM258 -25q-44 0 -76 50t-22 116l112 770l-202 -194l-13 12q193 254 273 254q40 0 72 -50.5t22 -115.5l-111 -760l222 211l12 -10q-108 -140 -178.5 -211.5t-110.5 -71.5z" />
    <glyph glyph-name="idieresis" unicode="&#xef;" horiz-adv-x="602" 
d="M209 1143q-38 0 -66 28t-28 68q0 52 35.5 89.5t85.5 37.5q38 0 65 -28t27 -68q0 -51 -35 -89t-84 -38zM561 1143q-38 0 -66 28t-28 68q0 52 35.5 89.5t85.5 37.5q38 0 65 -28t27 -68q0 -51 -35 -89t-84 -38zM258 -25q-44 0 -76 50t-22 116l112 770l-202 -194l-13 12
q193 254 273 254q40 0 72 -50.5t22 -115.5l-111 -760l222 211l12 -10q-108 -140 -178.5 -211.5t-110.5 -71.5z" />
    <glyph glyph-name="eth" unicode="&#xf0;" horiz-adv-x="956" 
d="M670 1231q223 -274 223 -547q0 -192 -72.5 -355.5t-197.5 -258.5t-273 -95q-142 0 -229.5 84.5t-87.5 221.5q0 191 149.5 344t427.5 247l4 -12q-411 -220 -411 -553q0 -140 52.5 -216.5t147.5 -76.5q156 0 237 153t81 439q0 265 -146 574l-165 -95l-11 21l168 92
q-70 144 -161 279l10 12q137 -120 239 -240l168 92l11 -18z" />
    <glyph glyph-name="ntilde" unicode="&#xf1;" horiz-adv-x="1110" 
d="M471 1253q-23 0 -46 -18t-65 -72l-14 8q72 122 110 162.5t79 40.5q38 0 156.5 -51t150.5 -51q23 0 43.5 18t62.5 74l17 -8q-72 -124 -110 -164.5t-79 -40.5q-38 0 -155.5 51t-149.5 51zM1042 272l13 -10q-223 -287 -301 -287q-40 0 -65 51.5t-11 118.5l106 506
q41 188 -32 267q-58 -40 -141 -151.5t-253 -389.5l-53 -363l-155 -28l-15 8l133 919l-198 -200l-13 12q198 268 273 268q37 0 62.5 -42.5t25.5 -98.5q0 -71 -86 -463l8 -2q206 350 311.5 479t179.5 129q47 0 82 -54t43.5 -132t-8.5 -166l-133 -586z" />
    <glyph glyph-name="ograve" unicode="&#xf2;" horiz-adv-x="966" 
d="M633 1108l-17 -10l-294 305l8 16h180zM389 -27q-149 0 -241.5 104.5t-92.5 274.5q0 142 79.5 293.5t203.5 251.5t242 100q148 0 239.5 -104.5t91.5 -271.5q0 -145 -74.5 -296t-197.5 -251.5t-250 -100.5zM444 14q83 0 151 82.5t105 215t37 284.5q0 172 -60.5 270.5
t-164.5 98.5q-125 -62 -204 -226t-79 -366q0 -165 58.5 -262t156.5 -97z" />
    <glyph glyph-name="oacute" unicode="&#xf3;" horiz-adv-x="966" 
d="M520 1108l207 311h186l5 -16l-383 -305zM389 -27q-149 0 -241.5 104.5t-92.5 274.5q0 142 79.5 293.5t203.5 251.5t242 100q148 0 239.5 -104.5t91.5 -271.5q0 -145 -74.5 -296t-197.5 -251.5t-250 -100.5zM444 14q83 0 151 82.5t105 215t37 284.5q0 172 -60.5 270.5
t-164.5 98.5q-125 -62 -204 -226t-79 -366q0 -165 58.5 -262t156.5 -97z" />
    <glyph glyph-name="ocircumflex" unicode="&#xf4;" horiz-adv-x="966" 
d="M612 1425h15l204 -303l-10 -10l-217 164l-272 -164l-6 10zM389 -27q-149 0 -241.5 104.5t-92.5 274.5q0 142 79.5 293.5t203.5 251.5t242 100q148 0 239.5 -104.5t91.5 -271.5q0 -145 -74.5 -296t-197.5 -251.5t-250 -100.5zM444 14q83 0 151 82.5t105 215t37 284.5
q0 172 -60.5 270.5t-164.5 98.5q-125 -62 -204 -226t-79 -366q0 -165 58.5 -262t156.5 -97z" />
    <glyph glyph-name="otilde" unicode="&#xf5;" horiz-adv-x="966" 
d="M303 1163l-14 8q72 122 109.5 162.5t78.5 40.5q38 0 156.5 -51t150.5 -51q23 0 44.5 18.5t62.5 73.5l16 -8q-72 -125 -109.5 -165t-78.5 -40q-38 0 -155.5 51t-149.5 51q-23 0 -46 -18t-65 -72zM389 -27q-149 0 -241.5 104.5t-92.5 274.5q0 142 79.5 293.5t203.5 251.5
t242 100q148 0 239.5 -104.5t91.5 -271.5q0 -145 -74.5 -296t-197.5 -251.5t-250 -100.5zM444 14q83 0 151 82.5t105 215t37 284.5q0 172 -60.5 270.5t-164.5 98.5q-125 -62 -204 -226t-79 -366q0 -165 58.5 -262t156.5 -97z" />
    <glyph glyph-name="odieresis" unicode="&#xf6;" horiz-adv-x="966" 
d="M410 1143q-38 0 -66.5 28.5t-28.5 67.5q0 52 35.5 89.5t85.5 37.5q38 0 65 -28t27 -68q0 -52 -34.5 -89.5t-83.5 -37.5zM762 1143q-38 0 -66 28t-28 68q0 52 35 89.5t85 37.5q38 0 65.5 -28t27.5 -68q0 -51 -35 -89t-84 -38zM389 -27q-149 0 -241.5 104.5t-92.5 274.5
q0 142 79.5 293.5t203.5 251.5t242 100q148 0 239.5 -104.5t91.5 -271.5q0 -145 -74.5 -296t-197.5 -251.5t-250 -100.5zM444 14q83 0 151 82.5t105 215t37 284.5q0 172 -60.5 270.5t-164.5 98.5q-125 -62 -204 -226t-79 -366q0 -165 58.5 -262t156.5 -97z" />
    <glyph glyph-name="divide" unicode="&#xf7;" horiz-adv-x="1044" 
d="M592 946q-43 0 -74 31t-31 74q0 58 40 99.5t96 41.5q41 0 71.5 -31.5t30.5 -75.5q0 -57 -39.5 -98t-93.5 -41zM150 692l6 35h805l-7 -35h-804zM487 233q-43 0 -73.5 31t-30.5 74q0 58 39.5 99.5t95.5 41.5q42 0 72.5 -31t30.5 -75q0 -57 -40 -98.5t-94 -41.5z" />
    <glyph glyph-name="oslash" unicode="&#xf8;" horiz-adv-x="966" 
d="M963 1004l-123 -138q71 -99 71 -245q0 -145 -74.5 -296t-197.5 -251.5t-250 -100.5q-154 0 -248 111l-118 -133l-17 14l123 137q-74 99 -74 250q0 142 79.5 293.5t203.5 251.5t242 100q156 0 245 -112l121 135zM229 373q0 -81 15 -142l475 533q-25 96 -78.5 148.5
t-128.5 52.5q-125 -62 -204 -226t-79 -366zM737 596q0 76 -12 141l-475 -532q23 -91 73.5 -141t120.5 -50q83 0 151 82.5t105 215.5t37 284z" />
    <glyph glyph-name="ugrave" unicode="&#xf9;" horiz-adv-x="1146" 
d="M698 1108l-16 -10l-295 305l8 16h180zM1079 276l13 -12q-108 -143 -180 -216t-113 -73q-38 0 -64 46.5t-26 95.5q0 73 88 461l-9 4q-138 -242 -226.5 -373.5t-145.5 -182.5t-107 -51q-79 0 -120 91.5t-17 236.5l104 619l-206 -205l-13 12q202 266 273 266q41 0 74 -53.5
t22 -120.5l-88 -522q-18 -104 -7 -160.5t50 -56.5q47 0 129.5 110.5t259.5 399.5l55 379h166l-131 -905z" />
    <glyph glyph-name="uacute" unicode="&#xfa;" horiz-adv-x="1146" 
d="M981 1403l-383 -305l-14 10l207 311h186zM1079 276l13 -12q-108 -143 -180 -216t-113 -73q-38 0 -64 46.5t-26 95.5q0 73 88 461l-9 4q-138 -242 -226.5 -373.5t-145.5 -182.5t-107 -51q-79 0 -120 91.5t-17 236.5l104 619l-206 -205l-13 12q202 266 273 266
q41 0 74 -53.5t22 -120.5l-88 -522q-18 -104 -7 -160.5t50 -56.5q47 0 129.5 110.5t259.5 399.5l55 379h166l-131 -905z" />
    <glyph glyph-name="ucircumflex" unicode="&#xfb;" horiz-adv-x="1146" 
d="M670 1276l-273 -164l-6 10l287 303h14l205 -303l-10 -10zM1079 276l13 -12q-108 -143 -180 -216t-113 -73q-38 0 -64 46.5t-26 95.5q0 73 88 461l-9 4q-138 -242 -226.5 -373.5t-145.5 -182.5t-107 -51q-79 0 -120 91.5t-17 236.5l104 619l-206 -205l-13 12
q202 266 273 266q41 0 74 -53.5t22 -120.5l-88 -522q-18 -104 -7 -160.5t50 -56.5q47 0 129.5 110.5t259.5 399.5l55 379h166l-131 -905z" />
    <glyph glyph-name="udieresis" unicode="&#xfc;" horiz-adv-x="1146" 
d="M473 1143q-38 0 -66 28t-28 68q0 52 35.5 89.5t85.5 37.5q38 0 65 -28t27 -68q0 -51 -35 -89t-84 -38zM825 1143q-38 0 -66 28t-28 68q0 52 35.5 89.5t85.5 37.5q38 0 65 -28t27 -68q0 -51 -35 -89t-84 -38zM1079 276l13 -12q-108 -143 -180 -216t-113 -73
q-38 0 -64 46.5t-26 95.5q0 73 88 461l-9 4q-138 -242 -226.5 -373.5t-145.5 -182.5t-107 -51q-79 0 -120 91.5t-17 236.5l104 619l-206 -205l-13 12q202 266 273 266q41 0 74 -53.5t22 -120.5l-88 -522q-18 -104 -7 -160.5t50 -56.5q47 0 129.5 110.5t259.5 399.5l55 379
h166l-131 -905z" />
    <glyph glyph-name="yacute" unicode="&#xfd;" horiz-adv-x="1021" 
d="M963 1403l-383 -305l-15 10l207 311h186zM946 995q74 -142 74 -190q0 -35 -74.5 -181.5t-189.5 -335.5t-239.5 -371t-240 -306.5t-174.5 -124.5q-86 0 -204 41l86 186h14l133 -114q241 140 408 389h-119q-49 568 -176 899l-172 -170l-13 12q82 119 154 192.5t111 73.5
q57 0 109 -165t83 -378.5t45 -426.5q170 263 326 751l-111 111v14z" />
    <glyph glyph-name="thorn" unicode="&#xfe;" horiz-adv-x="1001" 
d="M377 -27q-65 0 -146 23l-67 -461h237l-6 -24h-555l2 16l168 84l269 1839h-146v14l330 88l14 -8l-102 -573q-18 -114 -115 -586l8 -2q194 337 309 475.5t199 138.5q77 0 128.5 -76t51.5 -188q0 -180 -86 -358t-221.5 -290t-271.5 -112zM287 373l-39 -264q41 -109 145 -109
q97 0 188 107.5t144 260t53 291.5q0 155 -86 254q-147 -94 -405 -540z" />
    <glyph glyph-name="ydieresis" unicode="&#xff;" horiz-adv-x="1021" 
d="M455 1143q-39 0 -67 28.5t-28 67.5q0 52 35.5 89.5t85.5 37.5q38 0 65 -28t27 -68q0 -52 -34.5 -89.5t-83.5 -37.5zM807 1143q-38 0 -66 28t-28 68q0 52 35.5 89.5t85.5 37.5q38 0 65 -28t27 -68q0 -51 -35 -89t-84 -38zM946 995q74 -142 74 -190q0 -35 -74.5 -181.5
t-189.5 -335.5t-239.5 -371t-240 -306.5t-174.5 -124.5q-86 0 -204 41l86 186h14l133 -114q241 140 408 389h-119q-49 568 -176 899l-172 -170l-13 12q82 119 154 192.5t111 73.5q57 0 109 -165t83 -378.5t45 -426.5q170 263 326 751l-111 111v14z" />
    <glyph glyph-name="Amacron" unicode="&#x100;" horiz-adv-x="1658" 
d="M1167 1737l-8 -41h-547l6 28zM1352 25h202l-2 -25h-678l3 25h282l-158 604h-518l-254 -504l220 -111l-3 -14h-481l4 25h183l665 1310l-96 117l2 14h246zM496 651h499l-170 656z" />
    <glyph glyph-name="amacron" unicode="&#x101;" horiz-adv-x="1079" 
d="M874 1262l-8 -41h-483l4 28zM1010 268l12 -10q-108 -140 -178.5 -211.5t-110.5 -71.5q-38 0 -65 39t-27 95q0 114 88 497l-6 2q-158 -258 -250 -390.5t-153 -188.5t-113 -56q-72 0 -119 70.5t-47 179.5q0 127 54 267t137 251t190 183.5t207 72.5q51 0 182 -32l107 86
l16 -7l-146 -987zM707 623l36 264q-110 74 -172 74q-86 0 -169.5 -107t-133 -258.5t-49.5 -284.5q0 -83 25.5 -132.5t66.5 -49.5q51 0 131 100t265 394z" />
    <glyph glyph-name="Abreve" unicode="&#x102;" horiz-adv-x="1658" 
d="M879 1587q-57 0 -103 23.5t-71.5 57t-43 67t-23.5 57.5l-5 23l12 4q3 -5 10 -12.5t29.5 -27t48.5 -34.5t67 -27t85 -12t88 11.5t75.5 28t56.5 33.5t37 29l13 11l14 -7l-6 -12q-6 -13 -17.5 -33t-28 -43.5t-41 -47.5t-52.5 -44t-66 -32.5t-79 -12.5zM1352 25h202l-2 -25
h-678l3 25h282l-158 604h-518l-254 -504l220 -111l-3 -14h-481l4 25h183l665 1310l-96 117l2 14h246zM496 651h499l-170 656z" />
    <glyph glyph-name="abreve" unicode="&#x103;" horiz-adv-x="1079" 
d="M614 1130q-53 0 -94 23.5t-61 56.5t-32.5 66t-15.5 56l-3 24l10 6q2 -5 7 -13t23.5 -28.5t40 -36t59 -28.5t79.5 -13t83 12.5t69.5 29.5t50.5 34.5t33 30.5l11 12l11 -6q-3 -9 -9.5 -24.5t-30.5 -54.5t-52.5 -68.5t-76.5 -54t-102 -24.5zM1010 268l12 -10
q-108 -140 -178.5 -211.5t-110.5 -71.5q-38 0 -65 39t-27 95q0 114 88 497l-6 2q-158 -258 -250 -390.5t-153 -188.5t-113 -56q-72 0 -119 70.5t-47 179.5q0 127 54 267t137 251t190 183.5t207 72.5q51 0 182 -32l107 86l16 -7l-146 -987zM707 623l36 264q-110 74 -172 74
q-86 0 -169.5 -107t-133 -258.5t-49.5 -284.5q0 -83 25.5 -132.5t66.5 -49.5q51 0 131 100t265 394z" />
    <glyph glyph-name="Aogonek" unicode="&#x104;" horiz-adv-x="1658" 
d="M1352 25h202l-2 -25h-200q-112 -116 -159.5 -188.5t-47.5 -135.5q0 -105 162 -135l-4 -16q-55 -27 -136 -27q-78 0 -122 37.5t-44 102.5q0 83 74.5 163.5t257.5 198.5h-459l3 25h282l-158 604h-518l-254 -504l220 -111l-3 -14h-481l4 25h183l665 1310l-96 117l2 14h246z
M496 651h499l-170 656z" />
    <glyph glyph-name="aogonek" unicode="&#x105;" horiz-adv-x="1079" 
d="M1022 258q-139 -181 -211 -242q-113 -116 -160 -188t-47 -135q0 -105 162 -135l-4 -17q-53 -26 -135 -26q-78 0 -122 37t-44 102q0 75 61.5 148.5t208.5 172.5q-38 1 -64 40.5t-26 93.5q0 114 88 497l-6 2q-158 -258 -250 -390.5t-153 -188.5t-113 -56q-72 0 -119 70.5
t-47 179.5q0 127 54 267t137 251t190 183.5t207 72.5q51 0 182 -32l107 86l16 -7l-146 -987l222 211zM707 623l36 264q-110 74 -172 74q-86 0 -169.5 -107t-133 -258.5t-49.5 -284.5q0 -83 25.5 -132.5t66.5 -49.5q51 0 131 100t265 394z" />
    <glyph glyph-name="Cacute" unicode="&#x106;" horiz-adv-x="1386" 
d="M1274 1831l-445 -242l-10 15l252 243h197zM1008 84l282 410l17 -5l-97 -380q-278 -136 -493 -136q-267 0 -429.5 171t-162.5 448q0 185 54 349t151 286t242.5 193t318.5 71q179 0 446 -76l-49 -364l-18 -2l-125 360q-130 59 -264 59q-115 0 -210 -50t-159.5 -134.5
t-109 -199t-65 -240.5t-20.5 -262q0 -260 113 -423t301 -163q80 0 143 20.5t134 67.5z" />
    <glyph glyph-name="cacute" unicode="&#x107;" horiz-adv-x="874" 
d="M946 1403l-383 -305l-14 10l207 311h186zM514 963q-132 -72 -208.5 -238.5t-76.5 -359.5q0 -114 51.5 -181t139.5 -67q52 0 129 40t235 148l13 -12q-159 -182 -254 -251t-189 -69q-135 0 -217 92.5t-82 243.5q0 101 30.5 204t84 188.5t120.5 152.5t145.5 105t154.5 38
q107 0 293 -49l-148 -284l-14 2l-2 219q-115 64 -205 78z" />
    <glyph glyph-name="Ccircumflex" unicode="&#x108;" horiz-adv-x="1386" 
d="M936 1698l-287 -111l-8 15l301 241h16l246 -244l-10 -12zM1008 84l282 410l17 -5l-97 -380q-278 -136 -493 -136q-267 0 -429.5 171t-162.5 448q0 185 54 349t151 286t242.5 193t318.5 71q179 0 446 -76l-49 -364l-18 -2l-125 360q-130 59 -264 59q-115 0 -210 -50
t-159.5 -134.5t-109 -199t-65 -240.5t-20.5 -262q0 -260 113 -423t301 -163q80 0 143 20.5t134 67.5z" />
    <glyph glyph-name="ccircumflex" unicode="&#x109;" horiz-adv-x="874" 
d="M633 1276l-273 -164l-6 10l287 303h14l205 -303l-10 -10zM420 117q52 0 129 40t235 148l13 -12q-159 -182 -254 -251t-189 -69q-135 0 -217 92.5t-82 243.5q0 101 30.5 204t84 188.5t120.5 152.5t145.5 105t154.5 38q107 0 293 -49l-148 -284l-14 2l-2 219
q-115 64 -205 78q-132 -72 -208.5 -238.5t-76.5 -359.5q0 -114 51.5 -181t139.5 -67z" />
    <glyph glyph-name="Cdotaccent" unicode="&#x10a;" horiz-adv-x="1386" 
d="M924 1595q-45 0 -77 31t-32 76q0 60 40.5 101.5t98.5 41.5q44 0 76.5 -31.5t32.5 -76.5q0 -60 -41 -101t-98 -41zM1008 84l282 410l17 -5l-97 -380q-278 -136 -493 -136q-267 0 -429.5 171t-162.5 448q0 185 54 349t151 286t242.5 193t318.5 71q179 0 446 -76l-49 -364
l-18 -2l-125 360q-130 59 -264 59q-115 0 -210 -50t-159.5 -134.5t-109 -199t-65 -240.5t-20.5 -262q0 -260 113 -423t301 -163q80 0 143 20.5t134 67.5z" />
    <glyph glyph-name="cdotaccent" unicode="&#x10b;" horiz-adv-x="874" 
d="M608 1143q-40 0 -69 29.5t-29 70.5q0 54 38 92.5t89 38.5q40 0 69 -29.5t29 -70.5q0 -54 -38 -92.5t-89 -38.5zM420 117q52 0 129 40t235 148l13 -12q-159 -182 -254 -251t-189 -69q-135 0 -217 92.5t-82 243.5q0 101 30.5 204t84 188.5t120.5 152.5t145.5 105t154.5 38
q107 0 293 -49l-148 -284l-14 2l-2 219q-115 64 -205 78q-132 -72 -208.5 -238.5t-76.5 -359.5q0 -114 51.5 -181t139.5 -67z" />
    <glyph glyph-name="Ccaron" unicode="&#x10c;" horiz-adv-x="1386" 
d="M934 1587h-16l-248 244l10 12l258 -108l287 108l8 -12zM1008 84l282 410l17 -5l-97 -380q-278 -136 -493 -136q-267 0 -429.5 171t-162.5 448q0 185 54 349t151 286t242.5 193t318.5 71q179 0 446 -76l-49 -364l-18 -2l-125 360q-130 59 -264 59q-115 0 -210 -50
t-159.5 -134.5t-109 -199t-65 -240.5t-20.5 -262q0 -260 113 -423t301 -163q80 0 143 20.5t134 67.5z" />
    <glyph glyph-name="ccaron" unicode="&#x10d;" horiz-adv-x="874" 
d="M618 1112h-14l-209 303l13 10l219 -165l270 165l4 -10zM514 963q-132 -72 -208.5 -238.5t-76.5 -359.5q0 -114 51.5 -181t139.5 -67q52 0 129 40t235 148l13 -12q-159 -182 -254 -251t-189 -69q-135 0 -217 92.5t-82 243.5q0 101 30.5 204t84 188.5t120.5 152.5
t145.5 105t154.5 38q107 0 293 -49l-148 -284l-14 2l-2 219q-115 64 -205 78z" />
    <glyph glyph-name="Dcaron" unicode="&#x10e;" horiz-adv-x="1515" 
d="M844 1587l-248 244l10 12l258 -108l287 108l8 -12l-299 -244h-16zM-2 0l4 14l205 99l166 1331h-193l2 22h623q315 0 487 -163t172 -461q0 -189 -58 -346t-163.5 -266t-257 -169.5t-334.5 -60.5h-653zM653 25q186 0 326.5 102.5t216.5 291t76 437.5q0 280 -123 434
t-348 154h-248l-174 -1376q131 -43 274 -43z" />
    <glyph glyph-name="dcaron" unicode="&#x10f;" horiz-adv-x="1439" 
d="M788 57l222 211l12 -10q-108 -140 -178.5 -211.5t-110.5 -71.5q-41 0 -67.5 38.5t-26.5 95.5q0 91 104 497l-6 2q-165 -257 -261.5 -390.5t-158 -189t-110.5 -55.5q-72 0 -119 70.5t-47 179.5q0 127 54 267t137 251t190 183.5t207 72.5q42 0 133 -24l53 477h-145v14
l323 88l15 -8zM1403 1534q74 -62 74 -141q0 -76 -66.5 -152.5t-236.5 -210.5h-13l-6 10q71 90 100 146.5t29 107.5q0 57 -43 97l2 14zM721 623l31 262q-117 76 -181 76q-86 0 -169.5 -107t-133 -258.5t-49.5 -284.5q0 -83 25.5 -132.5t68.5 -49.5q50 0 131 98.5t277 395.5z
" />
    <glyph glyph-name="Dcroat" unicode="&#x110;" horiz-adv-x="1525" 
d="M815 1466q315 0 487.5 -163t172.5 -461q0 -189 -58 -346t-163.5 -266t-257 -169.5t-334.5 -60.5h-654l2 14l205 99l82 637h-186l2 24h188l86 670h-192l2 22h618zM664 25q186 0 326.5 102.5t217 291t76.5 437.5q0 280 -123.5 434t-349.5 154h-244l-86 -670h387l-2 -24
h-389l-88 -682q131 -43 275 -43z" />
    <glyph glyph-name="dcroat" unicode="&#x111;" horiz-adv-x="1079" 
d="M1100 1194h-144l-168 -1137l222 211l12 -10q-108 -140 -178.5 -211.5t-110.5 -71.5q-41 0 -67.5 38.5t-26.5 95.5q0 91 104 497l-6 2q-165 -257 -261.5 -390.5t-158 -189t-110.5 -55.5q-72 0 -119 70.5t-47 179.5q0 127 54 267t137 251t190 183.5t207 72.5q42 0 133 -24
l24 221h-270l4 25h268l27 231h-145v14l323 88l15 -8l-47 -325h141zM721 623l31 262q-117 76 -181 76q-86 0 -169.5 -107t-133 -258.5t-49.5 -284.5q0 -83 25.5 -132.5t68.5 -49.5q50 0 131 98.5t277 395.5z" />
    <glyph glyph-name="Emacron" unicode="&#x112;" horiz-adv-x="1335" 
d="M494 1696l6 28l549 13l-9 -41h-546zM-4 0l2 14l211 99l166 1331h-191l2 22h1080l-43 -391l-17 -2l-125 369l-526 2l-84 -670h266l150 232h12l-61 -486h-23l31 228l-379 2l-90 -725l584 2l278 393l16 -4l-106 -416h-1153z" />
    <glyph glyph-name="emacron" unicode="&#x113;" horiz-adv-x="864" 
d="M344 1249l487 13l-8 -41h-483zM809 819q0 -88 -130.5 -160t-442.5 -155q-11 -86 -11 -139q0 -114 51.5 -181t139.5 -67q56 0 138 46.5t241 170.5l12 -12q-166 -199 -264 -274t-193 -75q-135 0 -217 92.5t-82 243.5q0 125 50.5 252.5t126.5 222t168 154t173 59.5
q98 0 169 -56t71 -122zM512 967q-104 -58 -174.5 -176.5t-97.5 -266.5q236 89 325.5 149t89.5 128q0 45 -39 92t-104 74z" />
    <glyph glyph-name="Ebreve" unicode="&#x114;" horiz-adv-x="1335" 
d="M760 1587q-57 0 -103 23.5t-71.5 57t-43 67t-22.5 57.5l-6 23l12 4q3 -5 10 -12.5t29.5 -27t48.5 -34.5t67 -27t85 -12t88 11.5t75.5 28t56.5 33.5t38 29l12 11l15 -7l-6 -12q-6 -13 -17.5 -33t-28.5 -43.5t-41 -47.5t-52.5 -44t-66.5 -32.5t-79 -12.5zM-4 0l2 14l211 99
l166 1331h-191l2 22h1080l-43 -391l-17 -2l-125 369l-526 2l-84 -670h266l150 232h12l-61 -486h-23l31 228l-379 2l-90 -725l584 2l278 393l16 -4l-106 -416h-1153z" />
    <glyph glyph-name="ebreve" unicode="&#x115;" horiz-adv-x="864" 
d="M571 1130q-53 0 -94 23.5t-61 56.5t-32.5 66t-15.5 56l-3 24l10 6q2 -5 7 -13t23.5 -28.5t40 -36t59 -28.5t79.5 -13t83 12.5t69 29.5t50.5 34.5t33.5 30.5l11 12l11 -6q-3 -9 -9.5 -24.5t-30.5 -54.5t-52.5 -68.5t-76.5 -54t-102 -24.5zM809 819q0 -88 -130.5 -160
t-442.5 -155q-11 -86 -11 -139q0 -114 51.5 -181t139.5 -67q56 0 138 46.5t241 170.5l12 -12q-166 -199 -264 -274t-193 -75q-135 0 -217 92.5t-82 243.5q0 125 50.5 252.5t126.5 222t168 154t173 59.5q98 0 169 -56t71 -122zM512 967q-104 -58 -174.5 -176.5t-97.5 -266.5
q236 89 325.5 149t89.5 128q0 45 -39 92t-104 74z" />
    <glyph glyph-name="Edotaccent" unicode="&#x116;" horiz-adv-x="1335" 
d="M758 1595q-45 0 -77 31t-32 76q0 60 40.5 101.5t98.5 41.5q44 0 76.5 -31.5t32.5 -76.5q0 -60 -41 -101t-98 -41zM-4 0l2 14l211 99l166 1331h-191l2 22h1080l-43 -391l-17 -2l-125 369l-526 2l-84 -670h266l150 232h12l-61 -486h-23l31 228l-379 2l-90 -725l584 2
l278 393l16 -4l-106 -416h-1153z" />
    <glyph glyph-name="edotaccent" unicode="&#x117;" horiz-adv-x="864" 
d="M569 1143q-40 0 -69 29.5t-29 70.5q0 54 38 92.5t89 38.5q40 0 69 -29.5t29 -70.5q0 -54 -38 -92.5t-89 -38.5zM416 117q56 0 138 46.5t241 170.5l12 -12q-166 -199 -264 -274t-193 -75q-135 0 -217 92.5t-82 243.5q0 125 50.5 252.5t126.5 222t168 154t173 59.5
q98 0 169 -56t71 -122q0 -88 -130.5 -160t-442.5 -155q-11 -86 -11 -139q0 -114 51.5 -181t139.5 -67zM512 967q-104 -58 -174.5 -176.5t-97.5 -266.5q236 89 325.5 149t89.5 128q0 45 -39 92t-104 74z" />
    <glyph glyph-name="Eogonek" unicode="&#x118;" horiz-adv-x="1335" 
d="M1239 420l16 -4l-106 -416h2q-112 -116 -159.5 -188.5t-47.5 -135.5q0 -105 162 -135l-4 -16q-56 -27 -135 -27q-78 0 -122 37.5t-44 102.5q0 83 74.5 163.5t257.5 198.5h-1137l2 14l211 99l166 1331h-191l2 22h1080l-43 -391l-17 -2l-125 369l-526 2l-84 -670h266
l150 232h12l-61 -486h-23l31 228l-379 2l-90 -725l584 2z" />
    <glyph glyph-name="eogonek" unicode="&#x119;" horiz-adv-x="907" 
d="M389 117q56 0 138 46.5t241 170.5l10 -12q-103 -125 -175 -197.5t-130 -106.5q-104 -109 -148 -178t-44 -131q0 -109 165 -139l-4 -16q-52 -27 -135 -27q-77 0 -121.5 37.5t-44.5 101.5q0 74 63 149.5t210 174.5q-44 -17 -90 -17q-135 0 -217 92.5t-82 243.5
q0 125 50 252.5t126 222t168 154t174 59.5q96 0 167.5 -56t71.5 -122q0 -89 -129.5 -160.5t-443.5 -154.5q-10 -78 -10 -139q0 -114 51 -181t139 -67zM485 967q-104 -58 -174.5 -176.5t-97.5 -266.5q236 89 326 149t90 128q0 45 -39.5 92t-104.5 74z" />
    <glyph glyph-name="Ecaron" unicode="&#x11a;" horiz-adv-x="1335" 
d="M752 1587l-248 244l10 12l258 -108l287 108l8 -12l-299 -244h-16zM-4 0l2 14l211 99l166 1331h-191l2 22h1080l-43 -391l-17 -2l-125 369l-526 2l-84 -670h266l150 232h12l-61 -486h-23l31 228l-379 2l-90 -725l584 2l278 393l16 -4l-106 -416h-1153z" />
    <glyph glyph-name="ecaron" unicode="&#x11b;" horiz-adv-x="864" 
d="M578 1112h-15l-209 303l13 10l219 -165l270 165l4 -10zM809 819q0 -88 -130.5 -160t-442.5 -155q-11 -86 -11 -139q0 -114 51.5 -181t139.5 -67q56 0 138 46.5t241 170.5l12 -12q-166 -199 -264 -274t-193 -75q-135 0 -217 92.5t-82 243.5q0 125 50.5 252.5t126.5 222
t168 154t173 59.5q98 0 169 -56t71 -122zM512 967q-104 -58 -174.5 -176.5t-97.5 -266.5q236 89 325.5 149t89.5 128q0 45 -39 92t-104 74z" />
    <glyph glyph-name="Gcircumflex" unicode="&#x11c;" horiz-adv-x="1548" 
d="M956 1698l-286 -111l-8 15l301 241h16l246 -244l-11 -12zM895 702h641l-4 -22h-182l-70 -551q-307 -156 -543 -156q-298 0 -457 161t-159 444q0 189 59.5 356.5t164.5 290.5t257.5 194.5t329.5 71.5q234 0 446 -76l-47 -366l-18 -5l-125 365q-137 59 -264 59
q-121 0 -222 -49t-172 -133t-120.5 -198t-73 -243.5t-23.5 -269.5q0 -268 113 -423.5t324 -155.5q184 0 354 129l72 555h-283z" />
    <glyph glyph-name="gcircumflex" unicode="&#x11d;" horiz-adv-x="886" 
d="M545 1276l-273 -164l-6 10l287 303h14l205 -303l-10 -10zM924 1018l-33 -199l-131 19q22 -55 22 -115q0 -105 -63.5 -214t-165.5 -181t-205 -72h-22l-25 -152l274 -67q189 -44 189 -158q0 -68 -54.5 -137t-143.5 -122.5t-212 -87.5t-250 -34q-105 0 -166 36.5t-61 100.5
q0 58 57.5 118.5t223.5 176.5l10 -10q-97 -115 -129.5 -169.5t-32.5 -98.5q0 -54 45.5 -84.5t128.5 -30.5q182 0 304 74.5t122 183.5q0 39 -23.5 63t-82.5 44l-86 26q-103 34 -160 70t-100 94l4 17l149 149q-110 12 -177 85.5t-67 186.5q0 101 66 210.5t169 182t200 72.5
q77 0 139.5 -31t99.5 -87l172 141h15zM395 291q96 0 158.5 120.5t62.5 290.5q0 124 -42.5 191.5t-120.5 67.5q-62 0 -114 -57.5t-81 -151.5t-29 -201q0 -124 44 -192t122 -68z" />
    <glyph glyph-name="Gbreve" unicode="&#x11e;" horiz-adv-x="1548" 
d="M946 1587q-57 0 -103 23.5t-71.5 57t-43 67t-22.5 57.5l-6 23l13 4q3 -5 9.5 -12.5t29.5 -27t48.5 -34.5t66.5 -27t85 -12t88.5 11.5t76 28t56.5 33.5t37 29l13 11l14 -7l-6 -12q-6 -13 -17.5 -33t-28.5 -43.5t-41 -47.5t-52.5 -44t-66.5 -32.5t-79 -12.5zM895 702h641
l-4 -22h-182l-70 -551q-307 -156 -543 -156q-298 0 -457 161t-159 444q0 189 59.5 356.5t164.5 290.5t257.5 194.5t329.5 71.5q234 0 446 -76l-47 -366l-18 -5l-125 365q-137 59 -264 59q-121 0 -222 -49t-172 -133t-120.5 -198t-73 -243.5t-23.5 -269.5q0 -268 113 -423.5
t324 -155.5q184 0 354 129l72 555h-283z" />
    <glyph glyph-name="gbreve" unicode="&#x11f;" horiz-adv-x="886" 
d="M522 1130q-53 0 -94 23.5t-61.5 56.5t-33 66t-15.5 56l-3 24l11 6q2 -5 7 -13t23.5 -28.5t40 -36t59 -28.5t79.5 -13t83 12.5t69.5 29.5t50.5 34.5t33 30.5l11 12l11 -6q-3 -9 -9.5 -24.5t-30.5 -54.5t-52.5 -68.5t-76.5 -54t-102 -24.5zM924 1018l-33 -199l-131 19
q22 -55 22 -115q0 -105 -63.5 -214t-165.5 -181t-205 -72h-22l-25 -152l274 -67q189 -44 189 -158q0 -68 -54.5 -137t-143.5 -122.5t-212 -87.5t-250 -34q-105 0 -166 36.5t-61 100.5q0 58 57.5 118.5t223.5 176.5l10 -10q-97 -115 -129.5 -169.5t-32.5 -98.5
q0 -54 45.5 -84.5t128.5 -30.5q182 0 304 74.5t122 183.5q0 39 -23.5 63t-82.5 44l-86 26q-103 34 -160 70t-100 94l4 17l149 149q-110 12 -177 85.5t-67 186.5q0 101 66 210.5t169 182t200 72.5q77 0 139.5 -31t99.5 -87l172 141h15zM395 291q96 0 158.5 120.5t62.5 290.5
q0 124 -42.5 191.5t-120.5 67.5q-62 0 -114 -57.5t-81 -151.5t-29 -201q0 -124 44 -192t122 -68z" />
    <glyph glyph-name="Gdotaccent" unicode="&#x120;" horiz-adv-x="1548" 
d="M944 1595q-45 0 -76.5 31t-31.5 76q0 60 40.5 101.5t98.5 41.5q43 0 75.5 -31.5t32.5 -76.5q0 -60 -41 -101t-98 -41zM895 702h641l-4 -22h-182l-70 -551q-307 -156 -543 -156q-298 0 -457 161t-159 444q0 189 59.5 356.5t164.5 290.5t257.5 194.5t329.5 71.5
q234 0 446 -76l-47 -366l-18 -5l-125 365q-137 59 -264 59q-121 0 -222 -49t-172 -133t-120.5 -198t-73 -243.5t-23.5 -269.5q0 -268 113 -423.5t324 -155.5q184 0 354 129l72 555h-283z" />
    <glyph glyph-name="gdotaccent" unicode="&#x121;" horiz-adv-x="886" 
d="M522 1145q-40 0 -69 29.5t-29 70.5q0 54 37.5 93.5t89.5 39.5q39 0 67.5 -29.5t28.5 -70.5q0 -54 -37 -93.5t-88 -39.5zM924 1018l-33 -199l-131 19q22 -55 22 -115q0 -105 -63.5 -214t-165.5 -181t-205 -72h-22l-25 -152l274 -67q189 -44 189 -158q0 -68 -54.5 -137
t-143.5 -122.5t-212 -87.5t-250 -34q-105 0 -166 36.5t-61 100.5q0 58 57.5 118.5t223.5 176.5l10 -10q-97 -115 -129.5 -169.5t-32.5 -98.5q0 -54 45.5 -84.5t128.5 -30.5q182 0 304 74.5t122 183.5q0 39 -23.5 63t-82.5 44l-86 26q-103 34 -160 70t-100 94l4 17l149 149
q-110 12 -177 85.5t-67 186.5q0 101 66 210.5t169 182t200 72.5q77 0 139.5 -31t99.5 -87l172 141h15zM395 291q96 0 158.5 120.5t62.5 290.5q0 124 -42.5 191.5t-120.5 67.5q-62 0 -114 -57.5t-81 -151.5t-29 -201q0 -124 44 -192t122 -68z" />
    <glyph glyph-name="uni0122" unicode="&#x122;" horiz-adv-x="1548" 
d="M895 702h641l-4 -22h-182l-70 -551q-307 -156 -543 -156q-298 0 -457 161t-159 444q0 189 59.5 356.5t164.5 290.5t257.5 194.5t329.5 71.5q234 0 446 -76l-47 -366l-18 -5l-125 365q-137 59 -264 59q-121 0 -222 -49t-172 -133t-120.5 -198t-73 -243.5t-23.5 -269.5
q0 -268 113 -423.5t324 -155.5q184 0 354 129l72 555h-283zM774 -100q60 -48 60 -119q0 -83 -65 -153.5t-222 -174.5h-12l-9 10q121 139 121 236q0 56 -39 92l2 14z" />
    <glyph glyph-name="uni0123" unicode="&#x123;" horiz-adv-x="886" 
d="M459 1077q-60 51 -60 119q0 83 65 153.5t222 174.5h14l7 -8q-119 -147 -119 -238q0 -60 37 -90l-2 -17zM924 1018l-33 -199l-131 19q22 -55 22 -115q0 -105 -63.5 -214t-165.5 -181t-205 -72h-22l-25 -152l274 -67q189 -44 189 -158q0 -68 -54.5 -137t-143.5 -122.5
t-212 -87.5t-250 -34q-105 0 -166 36.5t-61 100.5q0 58 57.5 118.5t223.5 176.5l10 -10q-97 -115 -129.5 -169.5t-32.5 -98.5q0 -54 45.5 -84.5t128.5 -30.5q182 0 304 74.5t122 183.5q0 39 -23.5 63t-82.5 44l-86 26q-103 34 -160 70t-100 94l4 17l149 149
q-110 12 -177 85.5t-67 186.5q0 101 66 210.5t169 182t200 72.5q77 0 139.5 -31t99.5 -87l172 141h15zM395 291q96 0 158.5 120.5t62.5 290.5q0 124 -42.5 191.5t-120.5 67.5q-62 0 -114 -57.5t-81 -151.5t-29 -201q0 -124 44 -192t122 -68z" />
    <glyph glyph-name="Hcircumflex" unicode="&#x124;" horiz-adv-x="1611" 
d="M950 1698l-286 -111l-9 15l301 241h17l246 -244l-11 -12zM1647 1452l-193 -94l-168 -1333h217l-2 -25h-594l2 25h199l90 725h-733l-88 -725h217l-2 -25h-594l4 14l207 99l164 1331h-191l2 22h559l-2 -22h-190l-82 -670h733l84 670h-217l2 22h578z" />
    <glyph glyph-name="hcircumflex" unicode="&#x125;" horiz-adv-x="1038" 
d="M385 1745l-287 -111l-8 15l301 241h17l245 -243l-10 -13zM971 272l12 -10q-220 -287 -299 -287q-40 0 -65.5 51.5t-12.5 118.5l107 506q41 187 -33 267q-56 -39 -137.5 -149.5t-255.5 -391.5l-51 -363l-150 -28l-20 12l213 1452h-146v14l330 88l14 -8l-102 -573
q-23 -142 -115 -582l8 -2q141 238 233.5 370.5t151 185t107.5 52.5q48 0 83 -54t43.5 -132t-7.5 -166l-134 -586z" />
    <glyph glyph-name="Hbar" unicode="&#x126;" horiz-adv-x="1622" 
d="M1661 1452l-195 -94l-30 -225h174l-2 -25h-174l-144 -1083h217l-2 -25h-596l2 25h199l94 725h-729l-94 -725h217l-2 -25h-598l4 14l211 99l131 995h-174l2 25h174l41 311h-192l2 22h561l-2 -22h-189l-41 -311h729l41 311h-217l2 22h582zM1208 774l43 334h-729l-43 -334
h729z" />
    <glyph glyph-name="hbar" unicode="&#x127;" horiz-adv-x="1052" 
d="M985 272l12 -10q-112 -143 -180.5 -215t-101.5 -72q-30 0 -68.5 36.5t-34.5 64.5l115 653q6 38 -26 79.5t-62 41.5q-35 0 -108 -96.5t-244 -376.5l-51 -363l-150 -28l-20 12l176 1196h-144l2 25h144l35 231h-146v14l330 88l14 -8l-57 -325h264l-2 -25h-268l-39 -223
q-23 -142 -115 -582l8 -2q83 165 147.5 280t106.5 178.5t78 98t57.5 43t47.5 8.5q43 0 92.5 -39t80 -94.5t21.5 -97.5l-139 -707z" />
    <glyph glyph-name="Itilde" unicode="&#x128;" horiz-adv-x="718" 
d="M170 1622l-18 10q74 122 115.5 163.5t90.5 41.5q40 0 187 -52t182 -52q27 0 51 18.5t66 73.5l18 -10q-74 -122 -116 -163.5t-91 -41.5q-40 0 -186.5 52t-181.5 52q-27 0 -51 -18.5t-66 -73.5zM4 0l4 14l201 99l164 1329h-191l2 24h570l-2 -14l-203 -94l-166 -1333h227
l-2 -25h-604z" />
    <glyph glyph-name="itilde" unicode="&#x129;" horiz-adv-x="602" 
d="M102 1163l-14 8q72 122 109.5 162.5t78.5 40.5q38 0 157 -51t151 -51q23 0 43.5 18t62.5 74l17 -8q-72 -124 -110 -164.5t-79 -40.5q-38 0 -155.5 51t-149.5 51q-23 0 -46 -18t-65 -72zM258 -25q-44 0 -76 50t-22 116l112 770l-202 -194l-13 12q193 254 273 254
q40 0 72 -50.5t22 -115.5l-111 -760l222 211l12 -10q-108 -140 -178.5 -211.5t-110.5 -71.5z" />
    <glyph glyph-name="Imacron" unicode="&#x12a;" horiz-adv-x="718" 
d="M219 1696l6 28l549 13l-8 -41h-547zM4 0l4 14l201 99l164 1329h-191l2 24h570l-2 -14l-203 -94l-166 -1333h227l-2 -25h-604z" />
    <glyph glyph-name="imacron" unicode="&#x12b;" horiz-adv-x="602" 
d="M117 1221l4 28l485 13l-6 -41h-483zM258 -25q-44 0 -76 50t-22 116l112 770l-202 -194l-13 12q193 254 273 254q40 0 72 -50.5t22 -115.5l-111 -760l222 211l12 -10q-108 -140 -178.5 -211.5t-110.5 -71.5z" />
    <glyph glyph-name="Ibreve" unicode="&#x12c;" horiz-adv-x="718" 
d="M485 1587q-57 0 -103 23.5t-71.5 57t-42.5 67t-22 57.5l-6 23l12 4q3 -5 10 -12.5t29.5 -27t48.5 -34.5t67 -27t85 -12t88 11.5t75.5 28t56.5 33.5t38 29l12 11l14 -7l-6 -12q-6 -13 -17.5 -33t-28.5 -43.5t-41 -47.5t-52.5 -44t-66.5 -32.5t-79 -12.5zM4 0l4 14l201 99
l164 1329h-191l2 24h570l-2 -14l-203 -94l-166 -1333h227l-2 -25h-604z" />
    <glyph glyph-name="ibreve" unicode="&#x12d;" horiz-adv-x="602" 
d="M383 1130q-53 0 -94 23.5t-61.5 56.5t-33 66t-15.5 56l-3 24l10 6q2 -5 7 -13t23.5 -28.5t40 -36t59 -28.5t79.5 -13t83 12.5t69.5 29.5t51 34.5t33.5 30.5l11 12l10 -6q-3 -9 -9.5 -24.5t-30 -54.5t-52 -68.5t-76.5 -54t-102 -24.5zM258 -25q-44 0 -76 50t-22 116
l112 770l-202 -194l-13 12q193 254 273 254q40 0 72 -50.5t22 -115.5l-111 -760l222 211l12 -10q-108 -140 -178.5 -211.5t-110.5 -71.5z" />
    <glyph glyph-name="Iogonek" unicode="&#x12e;" horiz-adv-x="718" 
d="M752 1452l-203 -94l-166 -1333h227l-2 -25h-227q-112 -116 -159.5 -188.5t-47.5 -135.5q0 -105 162 -135l-4 -16q-55 -27 -135 -27q-78 0 -122 37.5t-44 102.5q0 83 74 163.5t257 198.5h-358l4 14l201 99l164 1329h-191l2 24h570z" />
    <glyph glyph-name="iogonek" unicode="&#x12f;" horiz-adv-x="602" 
d="M381 1143q-40 0 -69 29.5t-29 70.5q0 54 38 92.5t89 38.5q40 0 69 -29.5t29 -70.5q0 -54 -38 -92.5t-89 -38.5zM547 258q-139 -181 -211 -242q-113 -116 -160 -188t-47 -135q0 -105 162 -135l-4 -17q-53 -26 -135 -26q-78 0 -123 37t-45 102q0 75 62 148t210 173
q-43 2 -74.5 51.5t-21.5 114.5l112 770l-202 -194l-13 12q193 254 273 254q40 0 72 -50.5t22 -115.5l-111 -760l222 211z" />
    <glyph glyph-name="Idotaccent" unicode="&#x130;" horiz-adv-x="718" 
d="M483 1595q-45 0 -76.5 31t-31.5 76q0 60 40.5 101.5t98.5 41.5q44 0 76.5 -31.5t32.5 -76.5q0 -59 -41.5 -100.5t-98.5 -41.5zM4 0l4 14l201 99l164 1329h-191l2 24h570l-2 -14l-203 -94l-166 -1333h227l-2 -25h-604z" />
    <glyph glyph-name="dotlessi" unicode="&#x131;" horiz-adv-x="602" 
d="M258 -25q-44 0 -76 50t-22 116l112 770l-202 -194l-13 12q193 254 273 254q40 0 72 -50.5t22 -115.5l-111 -760l222 211l12 -10q-108 -140 -178.5 -211.5t-110.5 -71.5z" />
    <glyph glyph-name="IJ" unicode="&#x132;" horiz-adv-x="1366" 
d="M610 25l-2 -25h-604l4 14l201 99l164 1329h-191l2 24h570l-2 -14l-203 -94l-166 -1333h227zM850 1466h623l-3 -14l-210 -94l-142 -1151q-28 -231 -129 -385.5t-299 -270.5l-151 123l2 15l290 88q67 115 87 286l169 1379h-241z" />
    <glyph glyph-name="ij" unicode="&#x133;" horiz-adv-x="1058" 
d="M381 1143q-40 0 -69 29.5t-29 70.5q0 54 38 92.5t89 38.5q40 0 69 -29.5t29 -70.5q0 -54 -38 -92.5t-89 -38.5zM963 1374q39 0 67.5 -29.5t28.5 -70.5q0 -54 -37 -92.5t-88 -38.5q-40 0 -69 29.5t-29 70.5q0 54 37.5 92.5t89.5 38.5zM535 268l12 -10
q-108 -140 -178.5 -211.5t-110.5 -71.5q-44 0 -76 50t-22 116l112 770l-202 -194l-13 12q193 254 273 254q40 0 72 -50.5t22 -115.5l-111 -760zM881 983q41 0 73.5 -50.5t22.5 -117.5l-94 -643q-38 -251 -140 -416.5t-278 -269.5l-90 86l2 14l219 84q65 119 88 287l141 954
l-202 -194l-13 12q190 254 271 254z" />
    <glyph glyph-name="Jcircumflex" unicode="&#x134;" horiz-adv-x="696" 
d="M541 1698l-287 -111l-8 15l301 241h16l246 -244l-10 -12zM176 1442l4 24h623l-2 -14l-211 -94l-141 -1151q-28 -231 -129 -385.5t-300 -270.5l-151 123l2 15l291 88q65 113 86 286l170 1379h-242z" />
    <glyph glyph-name="jcircumflex" unicode="&#x135;" horiz-adv-x="503" 
d="M424 1425l205 -303l-11 -10l-217 164l-272 -164l-6 10l287 303h14zM326 983q41 0 73.5 -50.5t22.5 -117.5l-94 -643q-38 -251 -140 -416.5t-278 -269.5l-92 86l4 14l219 84q65 119 88 287l141 954l-202 -194l-13 12q190 254 271 254z" />
    <glyph glyph-name="uni0136" unicode="&#x136;" horiz-adv-x="1603" 
d="M606 25l-2 -25h-606l4 14l211 99l168 1331h-197l2 22h576l-2 -22h-199l-180 -1419h225zM1552 1444h-172l-764 -694h113l571 -725h199l-2 -25h-403l-551 698l2 17l704 643l-184 94l2 14h487zM850 -100q59 -47 59 -119q0 -84 -65 -154.5t-221 -173.5h-13l-8 10
q121 139 121 236q0 56 -39 92l2 14z" />
    <glyph glyph-name="uni0137" unicode="&#x137;" horiz-adv-x="1034" 
d="M965 274l12 -12q-111 -142 -180.5 -214.5t-102.5 -72.5q-37 0 -71.5 65t-142.5 329q-14 33 -21 51l2 14q166 125 233.5 200t67.5 132q0 45 -32 85.5t-79 61.5q-54 -46 -125.5 -152t-238.5 -384l-51 -363l-150 -28l-20 12l213 1452h-146v14l330 88l14 -8l-102 -573
q-23 -142 -115 -582l8 -2q212 363 303.5 485.5t155.5 122.5q63 0 132 -62t69 -124q0 -65 -74.5 -137.5t-263.5 -188.5l186 -389zM479 -100q60 -48 60 -119q0 -83 -65 -153.5t-222 -174.5h-12l-9 10q121 139 121 236q0 56 -39 92l2 14z" />
    <glyph glyph-name="kgreenlandic" unicode="&#x138;" horiz-adv-x="1103" 
d="M1034 274l13 -12q-220 -287 -281 -287q-41 0 -77.5 71.5t-158.5 373.5l2 14q164 126 233 202t69 130q0 46 -30 86.5t-73 60.5q-61 -44 -133.5 -149t-239.5 -387l-53 -363l-155 -28l-15 8l133 919l-198 -200l-13 12q198 268 260 268q29 0 70 -39t41 -65q0 -57 -96 -500
l8 -2q209 363 304 485.5t171 122.5q64 0 123 -62t59 -124q0 -66 -73.5 -138.5t-261.5 -187.5l184 -389z" />
    <glyph glyph-name="Lacute" unicode="&#x139;" horiz-adv-x="1333" 
d="M397 1589l-10 15l252 243h197l6 -16zM14 0l2 14l207 99l164 1329h-192l2 24h677l-2 -24h-301l-176 -1417l561 2l285 440l19 -4l-117 -463h-1129z" />
    <glyph glyph-name="lacute" unicode="&#x13a;" horiz-adv-x="524" 
d="M260 1638l-10 15l252 243h196l7 -16zM178 -25q-43 0 -75 50t-23 116l192 1309h-157v14l325 88l15 -8l-222 -1487l224 211l10 -10q-108 -140 -178.5 -211.5t-110.5 -71.5z" />
    <glyph glyph-name="uni013B" unicode="&#x13b;" horiz-adv-x="1333" 
d="M14 0l2 14l207 99l164 1329h-192l2 24h677l-2 -24h-301l-176 -1417l561 2l285 440l19 -4l-117 -463h-1129zM471 -547l-8 10q121 139 121 236q0 56 -39 92l2 14l164 95q59 -47 59 -119q0 -83 -65 -153.5t-222 -174.5h-12z" />
    <glyph glyph-name="uni013C" unicode="&#x13c;" horiz-adv-x="524" 
d="M178 -25q-43 0 -75 50t-23 116l192 1309h-157v14l325 88l15 -8l-222 -1487l224 211l10 -10q-108 -140 -178.5 -211.5t-110.5 -71.5zM-23 -547l-6 10q121 139 121 236q0 56 -39 92l2 14l164 95q60 -48 60 -119q0 -83 -65 -153.5t-222 -174.5h-15z" />
    <glyph glyph-name="Lcaron" unicode="&#x13d;" horiz-adv-x="1333" 
d="M926 1030l-6 10q71 90 100 146.5t29 107.5q0 57 -43 97l2 14l159 129q74 -62 74 -141q0 -76 -66.5 -152.5t-236.5 -210.5h-12zM14 0l2 14l207 99l164 1329h-192l2 24h677l-2 -24h-301l-176 -1417l561 2l285 440l19 -4l-117 -463h-1129z" />
    <glyph glyph-name="lcaron" unicode="&#x13e;" horiz-adv-x="884" 
d="M178 -25q-43 0 -75 50t-23 116l192 1309h-157v14l325 88l15 -8l-222 -1487l224 211l10 -10q-108 -140 -178.5 -211.5t-110.5 -71.5zM606 1028l-6 10q71 90 100 146.5t29 109.5q0 55 -43 95l2 14l160 131q74 -65 74 -143q0 -75 -67.5 -152.5t-236.5 -210.5h-12z" />
    <glyph glyph-name="Ldot" unicode="&#x13f;" horiz-adv-x="1347" 
d="M14 0l2 14l207 99l164 1329h-192l2 24h677l-2 -24h-301l-176 -1417l561 2l285 440l19 -4l-117 -463h-1129zM842 608q-43 0 -75 32.5t-32 76.5q0 57 41 99t98 42q42 0 72.5 -31t30.5 -75q0 -59 -40 -101.5t-95 -42.5z" />
    <glyph glyph-name="ldot" unicode="&#x140;" horiz-adv-x="784" 
d="M178 -25q-43 0 -75 50t-23 116l192 1309h-157v14l325 88l15 -8l-222 -1487l224 211l10 -10q-108 -140 -178.5 -211.5t-110.5 -71.5zM635 637q-43 0 -75 33t-32 78q0 59 41.5 102t98.5 43q43 0 74.5 -32.5t31.5 -78.5q0 -59 -41 -102t-98 -43z" />
    <glyph glyph-name="Lslash" unicode="&#x141;" horiz-adv-x="1341" 
d="M1249 467l19 -4l-117 -463h-1128l4 14l204 99l52 417l-199 -141l-6 4l2 25l207 145l108 879h-205l3 24h688l-2 -24h-301l-95 -764l299 213l11 -4l-5 -25l-309 -215l-76 -622l562 2z" />
    <glyph glyph-name="lslash" unicode="&#x142;" horiz-adv-x="559" 
d="M526 895l-155 -109l-109 -729l223 211l13 -10q-110 -141 -180.5 -212t-110.5 -71q-42 0 -74 50t-22 116l82 557l-150 -106l-8 4l4 22l158 107l104 725h-156v14l324 88l14 -8l-108 -731l145 107l10 -5z" />
    <glyph glyph-name="Nacute" unicode="&#x143;" horiz-adv-x="1509" 
d="M831 1589l-10 15l252 243h197l6 -16zM-4 0l2 14l215 99l158 1220l-127 119l2 14h268l731 -1255l160 1233h-217l4 22h422l-2 -14l-193 -94l-178 -1358h-92l-762 1300l-164 -1275h217l-2 -25h-442z" />
    <glyph glyph-name="nacute" unicode="&#x144;" horiz-adv-x="1110" 
d="M975 1403l-383 -305l-14 10l206 311h187zM1042 272l13 -10q-223 -287 -301 -287q-40 0 -65 51.5t-11 118.5l106 506q41 188 -32 267q-58 -40 -141 -151.5t-253 -389.5l-53 -363l-155 -28l-15 8l133 919l-198 -200l-13 12q198 268 273 268q37 0 62.5 -42.5t25.5 -98.5
q0 -71 -86 -463l8 -2q206 350 311.5 479t179.5 129q47 0 82 -54t43.5 -132t-8.5 -166l-133 -586z" />
    <glyph glyph-name="uni0145" unicode="&#x145;" horiz-adv-x="1509" 
d="M-4 0l2 14l215 99l158 1220l-127 119l2 14h268l731 -1255l160 1233h-217l4 22h422l-2 -14l-193 -94l-178 -1358h-92l-762 1300l-164 -1275h217l-2 -25h-442zM514 -547l-8 10q121 139 121 236q0 56 -39 92l2 14l164 95q59 -47 59 -119q0 -83 -65 -153.5t-222 -174.5h-12z
" />
    <glyph glyph-name="uni0146" unicode="&#x146;" horiz-adv-x="1110" 
d="M1042 272l13 -10q-223 -287 -301 -287q-40 0 -65 51.5t-11 118.5l106 506q41 188 -32 267q-58 -40 -141 -151.5t-253 -389.5l-53 -363l-155 -28l-15 8l133 919l-198 -200l-13 12q198 268 273 268q37 0 62.5 -42.5t25.5 -98.5q0 -71 -86 -463l8 -2q206 350 311.5 479
t179.5 129q47 0 82 -54t43.5 -132t-8.5 -166l-133 -586zM539 -100q59 -47 59 -119q0 -83 -65 -153.5t-222 -174.5h-12l-8 10q121 139 121 236q0 56 -39 92l2 14z" />
    <glyph glyph-name="Ncaron" unicode="&#x147;" horiz-adv-x="1509" 
d="M922 1587l-248 244l10 12l258 -108l287 108l8 -12l-299 -244h-16zM-4 0l2 14l215 99l158 1220l-127 119l2 14h268l731 -1255l160 1233h-217l4 22h422l-2 -14l-193 -94l-178 -1358h-92l-762 1300l-164 -1275h217l-2 -25h-442z" />
    <glyph glyph-name="ncaron" unicode="&#x148;" horiz-adv-x="1110" 
d="M647 1112h-14l-209 303l12 10l219 -165l271 165l4 -10zM1042 272l13 -10q-223 -287 -301 -287q-40 0 -65 51.5t-11 118.5l106 506q41 188 -32 267q-58 -40 -141 -151.5t-253 -389.5l-53 -363l-155 -28l-15 8l133 919l-198 -200l-13 12q198 268 273 268q37 0 62.5 -42.5
t25.5 -98.5q0 -71 -86 -463l8 -2q206 350 311.5 479t179.5 129q47 0 82 -54t43.5 -132t-8.5 -166l-133 -586z" />
    <glyph glyph-name="napostrophe" unicode="&#x149;" horiz-adv-x="1458" 
d="M455 1511q51 -80 51 -125q0 -59 -73.5 -153.5t-252.5 -261.5l-14 10q84 132 113.5 195t29.5 108q0 37 -35 88l5 14zM1393 272l10 -10q-220 -287 -299 -287q-40 0 -65 51.5t-11 118.5l105 506q40 187 -31 267q-57 -40 -139.5 -151t-253.5 -390l-54 -363l-155 -28l-15 8
l133 919l-198 -200l-12 12q198 268 272 268q37 0 62.5 -42.5t25.5 -98.5q0 -58 -86 -463l6 -2q208 350 314 479t180 129q47 0 81.5 -54t43 -132t-8.5 -166l-133 -586z" />
    <glyph glyph-name="Eng" unicode="&#x14a;" horiz-adv-x="1585" 
d="M1137 1466h424l-2 -14l-195 -94l-160 -1231q-31 -233 -124 -379.5t-281 -261.5l-88 90v14l311 115q95 118 135 295h-61l-762 1300l-164 -1275h215l-2 -25h-442l2 14l215 99l159 1220l-129 119l2 14h271l729 -1255l162 1233h-217z" />
    <glyph glyph-name="eng" unicode="&#x14b;" horiz-adv-x="1040" 
d="M831 995q47 0 81 -54t42.5 -132t-4.5 -166l-90 -475q-50 -254 -149.5 -417t-270.5 -265l-92 86l4 14l217 84q58 105 93 287l122 694q36 194 -32 267q-57 -40 -139 -150.5t-255 -390.5l-51 -363l-155 -28l-15 8l133 919l-198 -200l-13 12q194 268 273 268q37 0 62.5 -42.5
t25.5 -98.5q0 -58 -86 -463l6 -2q142 239 233.5 371t150 184.5t107.5 52.5z" />
    <glyph glyph-name="Omacron" unicode="&#x14c;" horiz-adv-x="1456" 
d="M616 1696l7 28l548 13l-8 -41h-547zM641 -27q-233 0 -377.5 169.5t-144.5 443.5q0 127 36.5 257.5t106 245.5t162 205.5t213.5 143.5t252 53q233 0 376.5 -167t143.5 -439q0 -129 -34.5 -259t-102 -247t-159 -208t-214 -144.5t-258.5 -53.5zM700 6q89 0 166 40.5
t132 109.5t98.5 157t69.5 187.5t39.5 196t13.5 186.5q0 260 -115 419.5t-299 159.5q-232 -100 -364 -326t-132 -546q0 -266 106.5 -425t284.5 -159z" />
    <glyph glyph-name="omacron" unicode="&#x14d;" horiz-adv-x="966" 
d="M352 1221l4 28l488 13l-8 -41h-484zM389 -27q-149 0 -241.5 104.5t-92.5 274.5q0 142 79.5 293.5t203.5 251.5t242 100q148 0 239.5 -104.5t91.5 -271.5q0 -145 -74.5 -296t-197.5 -251.5t-250 -100.5zM444 14q83 0 151 82.5t105 215t37 284.5q0 172 -60.5 270.5
t-164.5 98.5q-125 -62 -204 -226t-79 -366q0 -165 58.5 -262t156.5 -97z" />
    <glyph glyph-name="Obreve" unicode="&#x14e;" horiz-adv-x="1456" 
d="M883 1587q-57 0 -103 23.5t-71.5 57t-43 67t-23.5 57.5l-5 23l12 4q3 -5 10 -12.5t29.5 -27t48.5 -34.5t67 -27t85 -12t88 11.5t75.5 28t56.5 33.5t37 29l13 11l15 -7l-6 -12q-6 -13 -17.5 -33t-28.5 -43.5t-41 -47.5t-52.5 -44t-66.5 -32.5t-79 -12.5zM641 -27
q-233 0 -377.5 169.5t-144.5 443.5q0 127 36.5 257.5t106 245.5t162 205.5t213.5 143.5t252 53q233 0 376.5 -167t143.5 -439q0 -129 -34.5 -259t-102 -247t-159 -208t-214 -144.5t-258.5 -53.5zM700 6q89 0 166 40.5t132 109.5t98.5 157t69.5 187.5t39.5 196t13.5 186.5
q0 260 -115 419.5t-299 159.5q-232 -100 -364 -326t-132 -546q0 -266 106.5 -425t284.5 -159z" />
    <glyph glyph-name="obreve" unicode="&#x14f;" horiz-adv-x="966" 
d="M582 1130q-53 0 -94 23.5t-61.5 56.5t-33 66t-15.5 56l-3 24l10 6q2 -5 7 -13t23.5 -28.5t40 -36t59 -28.5t79.5 -13t83 12.5t69.5 29.5t51 34.5t33.5 30.5l11 12l10 -6q-3 -9 -9.5 -24.5t-30 -54.5t-52 -68.5t-76.5 -54t-102 -24.5zM389 -27q-149 0 -241.5 104.5
t-92.5 274.5q0 142 79.5 293.5t203.5 251.5t242 100q148 0 239.5 -104.5t91.5 -271.5q0 -145 -74.5 -296t-197.5 -251.5t-250 -100.5zM444 14q83 0 151 82.5t105 215t37 284.5q0 172 -60.5 270.5t-164.5 98.5q-125 -62 -204 -226t-79 -366q0 -165 58.5 -262t156.5 -97z" />
    <glyph glyph-name="Ohungarumlaut" unicode="&#x150;" horiz-adv-x="1456" 
d="M637 1589l-14 13l221 245h172l8 -16zM989 1589l-14 13l219 245h174l6 -16zM641 -27q-233 0 -377.5 169.5t-144.5 443.5q0 127 36.5 257.5t106 245.5t162 205.5t213.5 143.5t252 53q233 0 376.5 -167t143.5 -439q0 -129 -34.5 -259t-102 -247t-159 -208t-214 -144.5
t-258.5 -53.5zM700 6q89 0 166 40.5t132 109.5t98.5 157t69.5 187.5t39.5 196t13.5 186.5q0 260 -115 419.5t-299 159.5q-232 -100 -364 -326t-132 -546q0 -266 106.5 -425t284.5 -159z" />
    <glyph glyph-name="ohungarumlaut" unicode="&#x151;" horiz-adv-x="966" 
d="M393 1108l158 311h168l4 -16l-315 -305zM659 1108l162 311h164l6 -16l-313 -305zM389 -27q-149 0 -241.5 104.5t-92.5 274.5q0 142 79.5 293.5t203.5 251.5t242 100q148 0 239.5 -104.5t91.5 -271.5q0 -145 -74.5 -296t-197.5 -251.5t-250 -100.5zM444 14q83 0 151 82.5
t105 215t37 284.5q0 172 -60.5 270.5t-164.5 98.5q-125 -62 -204 -226t-79 -366q0 -165 58.5 -262t156.5 -97z" />
    <glyph glyph-name="OE" unicode="&#x152;" horiz-adv-x="2101" 
d="M1724 27l279 393l18 -4l-106 -416h-1090q-96 -27 -184 -27q-234 0 -378 169.5t-144 443.5q0 127 36.5 257.5t106 245.5t162 205.5t213.5 143.5t252 53q85 0 162 -25h979l-43 -391l-17 -2l-125 369l-737 2q141 -67 221 -213.5t80 -345.5q0 -68 -8 -123h188l150 231h12
l-61 -485h-23l29 227l-299 4q-35 -235 -171 -433.5t-337 -282.5zM309 590q0 -266 106.5 -425t284.5 -159q89 0 166 40.5t132 109.5t98.5 157t69.5 187.5t39.5 196t13.5 186.5q0 260 -115.5 419.5t-300.5 159.5q-231 -100 -362.5 -326t-131.5 -546z" />
    <glyph glyph-name="oe" unicode="&#x153;" horiz-adv-x="1525" 
d="M1077 117q56 0 138 46.5t241 170.5l12 -12q-166 -200 -263.5 -274.5t-192.5 -74.5q-99 0 -172 60.5t-99 163.5q-71 -102 -163 -163t-189 -61q-149 0 -241.5 104.5t-92.5 274.5q0 142 79.5 293.5t203.5 251.5t242 100q109 0 185 -68.5t103 -185.5q76 114 174.5 184
t188.5 70q98 0 168.5 -56t70.5 -122q0 -89 -129.5 -160.5t-443.5 -154.5q-10 -78 -10 -139q0 -114 51 -181t139 -67zM1174 967q-104 -58 -175 -176.5t-98 -266.5q236 89 326 149t90 128q0 45 -39 92t-104 74zM444 14q83 0 151 82.5t105 215.5t37 284q0 172 -60.5 270.5
t-164.5 98.5q-125 -62 -204 -226t-79 -366q0 -165 58.5 -262t156.5 -97z" />
    <glyph glyph-name="Racute" unicode="&#x154;" horiz-adv-x="1419" 
d="M731 1589l-10 15l252 243h196l7 -16zM1386 -72q-129 23 -223 67t-158 103.5t-126 151.5l-320 432l2 16q138 17 236 46.5t173.5 79.5t112.5 127.5t37 183.5q0 151 -81.5 230t-233.5 79h-252l-176 -1419h233l-4 -25h-606l2 14l207 99l164 1331h-193l2 22h639
q231 0 356.5 -84t125.5 -239q0 -207 -172.5 -312.5t-544.5 -146.5l80 -109h180l299 -391q59 -80 116.5 -135t131.5 -104z" />
    <glyph glyph-name="racute" unicode="&#x155;" horiz-adv-x="792" 
d="M850 1403l-383 -305l-14 10l206 311h187zM330 322q193 459 251 566t115 107q45 0 140 -18l-82 -244h-15l-133 115q-43 -57 -256 -535l-43 -299l-155 -28l-15 8l133 919l-198 -200l-13 12q198 268 273 268q37 0 59.5 -41t22.5 -98q0 -69 -90 -530z" />
    <glyph glyph-name="uni0156" unicode="&#x156;" horiz-adv-x="1419" 
d="M1386 -72q-129 23 -223 67t-158 103.5t-126 151.5l-320 432l2 16q138 17 236 46.5t173.5 79.5t112.5 127.5t37 183.5q0 151 -81.5 230t-233.5 79h-252l-176 -1419h233l-4 -25h-606l2 14l207 99l164 1331h-193l2 22h639q231 0 356.5 -84t125.5 -239q0 -207 -172.5 -312.5
t-544.5 -146.5l80 -109h180l299 -391q59 -80 116.5 -135t131.5 -104zM535 -547l-9 10q121 139 121 236q0 56 -39 92l2 14l164 95q60 -48 60 -119q0 -83 -65 -153.5t-222 -174.5h-12z" />
    <glyph glyph-name="uni0157" unicode="&#x157;" horiz-adv-x="792" 
d="M696 995q45 0 140 -18l-82 -244h-15l-133 115q-43 -57 -256 -535l-43 -299l-155 -28l-15 8l133 919l-198 -200l-13 12q198 268 273 268q37 0 59.5 -41t22.5 -98q0 -69 -90 -530l6 -2q193 459 251 566t115 107zM246 -100q59 -47 59 -119q0 -83 -65 -153.5t-222 -174.5h-12
l-8 10q121 139 121 236q0 56 -39 92l2 14z" />
    <glyph glyph-name="Rcaron" unicode="&#x158;" horiz-adv-x="1419" 
d="M819 1587l-248 244l11 12l258 -108l286 108l9 -12l-299 -244h-17zM1386 -72q-129 23 -223 67t-158 103.5t-126 151.5l-320 432l2 16q138 17 236 46.5t173.5 79.5t112.5 127.5t37 183.5q0 151 -81.5 230t-233.5 79h-252l-176 -1419h233l-4 -25h-606l2 14l207 99l164 1331
h-193l2 22h639q231 0 356.5 -84t125.5 -239q0 -207 -172.5 -312.5t-544.5 -146.5l80 -109h180l299 -391q59 -80 116.5 -135t131.5 -104z" />
    <glyph glyph-name="rcaron" unicode="&#x159;" horiz-adv-x="792" 
d="M522 1112h-14l-209 303l12 10l219 -165l271 165l4 -10zM696 995q45 0 140 -18l-82 -244h-15l-133 115q-43 -57 -256 -535l-43 -299l-155 -28l-15 8l133 919l-198 -200l-13 12q198 268 273 268q37 0 59.5 -41t22.5 -98q0 -69 -90 -530l6 -2q193 459 251 566t115 107z" />
    <glyph glyph-name="Sacute" unicode="&#x15a;" horiz-adv-x="1239" 
d="M692 1589l-10 15l252 243h196l7 -16zM541 -25q-206 0 -518 80l157 344l17 -4l8 -297q5 -4 15 -11t45 -24t74.5 -30t103 -24t130.5 -11q201 0 316 91t115 251q0 103 -57.5 167t-198.5 116l-254 92q-295 109 -295 336q0 197 153.5 318.5t407.5 121.5q178 0 457 -66
l-142 -315l-14 4l-25 272q-4 3 -12.5 8.5t-37 20t-60.5 25t-83 19.5t-104 9q-188 0 -294.5 -87t-106.5 -242q0 -96 58.5 -157t199.5 -114l254 -92q307 -110 307 -352q0 -200 -169.5 -324.5t-446.5 -124.5z" />
    <glyph glyph-name="sacute" unicode="&#x15b;" horiz-adv-x="798" 
d="M451 1108l206 311h187l4 -16l-383 -305zM301 -27q-112 0 -313 56l61 131h14q108 -92 168 -126t113 -34q73 0 144 81t71 155q0 47 -30.5 82.5t-102.5 72.5l-121 60q-196 96 -196 219q0 79 55.5 155t147 124t188.5 48q75 0 276 -51l-53 -121h-14q-98 83 -153 114.5
t-101 31.5q-66 0 -133.5 -75t-67.5 -148q0 -49 35 -85t117 -77l120 -60q187 -90 187 -217q0 -81 -58.5 -159t-154.5 -127.5t-199 -49.5z" />
    <glyph glyph-name="Scircumflex" unicode="&#x15c;" horiz-adv-x="1239" 
d="M514 1587l-8 15l301 241h16l246 -244l-10 -12l-258 111zM541 -25q-206 0 -518 80l157 344l17 -4l8 -297q5 -4 15 -11t45 -24t74.5 -30t103 -24t130.5 -11q201 0 316 91t115 251q0 103 -57.5 167t-198.5 116l-254 92q-295 109 -295 336q0 197 153.5 318.5t407.5 121.5
q178 0 457 -66l-142 -315l-14 4l-25 272q-4 3 -12.5 8.5t-37 20t-60.5 25t-83 19.5t-104 9q-188 0 -294.5 -87t-106.5 -242q0 -96 58.5 -157t199.5 -114l254 -92q307 -110 307 -352q0 -200 -169.5 -324.5t-446.5 -124.5z" />
    <glyph glyph-name="scircumflex" unicode="&#x15d;" horiz-adv-x="798" 
d="M545 1425h14l205 -303l-10 -10l-217 164l-273 -164l-6 10zM301 -27q-112 0 -313 56l61 131h14q108 -92 168 -126t113 -34q73 0 144 81t71 155q0 47 -30.5 82.5t-102.5 72.5l-121 60q-196 96 -196 219q0 79 55.5 155t147 124t188.5 48q75 0 276 -51l-53 -121h-14
q-98 83 -153 114.5t-101 31.5q-66 0 -133.5 -75t-67.5 -148q0 -49 35 -85t117 -77l120 -60q187 -90 187 -217q0 -81 -58.5 -159t-154.5 -127.5t-199 -49.5z" />
    <glyph glyph-name="Scedilla" unicode="&#x15e;" horiz-adv-x="1239" 
d="M850 776q307 -110 307 -352q0 -200 -169.5 -324.5t-446.5 -124.5h-13l-34 -71q109 -34 157.5 -72t48.5 -84q0 -55 -63 -117.5t-209 -150.5l-8 10q123 156 123 252q0 70 -76 149l39 84q-195 6 -483 80l157 344l17 -4l8 -297q5 -4 15 -11t45 -24t74.5 -30t103 -24
t130.5 -11q201 0 316 91t115 251q0 103 -57.5 167t-198.5 116l-254 92q-295 109 -295 336q0 197 153.5 318.5t407.5 121.5q178 0 457 -66l-142 -315l-14 4l-25 272q-4 3 -12.5 8.5t-37 20t-60.5 25t-83 19.5t-104 9q-188 0 -294.5 -87t-106.5 -242q0 -96 58.5 -157
t199.5 -114z" />
    <glyph glyph-name="scedilla" unicode="&#x15f;" horiz-adv-x="798" 
d="M455 971q-66 0 -133.5 -75t-67.5 -148q0 -49 35 -85t117 -77l120 -60q187 -90 187 -217q0 -81 -58.5 -159t-154.5 -127.5t-199 -49.5l-27 -63q191 -70 191 -158q0 -52 -60.5 -113t-201.5 -155l-8 10q127 156 127 254q0 68 -74 148l33 77q-100 3 -293 56l61 131h14
q108 -92 168 -126t113 -34q73 0 144 81t71 155q0 47 -30.5 82.5t-102.5 72.5l-121 60q-196 96 -196 219q0 79 55.5 155t147 124t188.5 48q75 0 276 -51l-53 -121h-14q-98 83 -153 114.5t-101 31.5z" />
    <glyph glyph-name="Scaron" unicode="&#x160;" horiz-adv-x="1239" 
d="M782 1587l-247 244l10 12l258 -108l287 108l8 -12l-299 -244h-17zM541 -25q-206 0 -518 80l157 344l17 -4l8 -297q5 -4 15 -11t45 -24t74.5 -30t103 -24t130.5 -11q201 0 316 91t115 251q0 103 -57.5 167t-198.5 116l-254 92q-295 109 -295 336q0 197 153.5 318.5
t407.5 121.5q178 0 457 -66l-142 -315l-14 4l-25 272q-4 3 -12.5 8.5t-37 20t-60.5 25t-83 19.5t-104 9q-188 0 -294.5 -87t-106.5 -242q0 -96 58.5 -157t199.5 -114l254 -92q307 -110 307 -352q0 -200 -169.5 -324.5t-446.5 -124.5z" />
    <glyph glyph-name="scaron" unicode="&#x161;" horiz-adv-x="798" 
d="M506 1112l-209 303l12 10l219 -165l271 165l4 -10l-283 -303h-14zM301 -27q-112 0 -313 56l61 131h14q108 -92 168 -126t113 -34q73 0 144 81t71 155q0 47 -30.5 82.5t-102.5 72.5l-121 60q-196 96 -196 219q0 79 55.5 155t147 124t188.5 48q75 0 276 -51l-53 -121h-14
q-98 83 -153 114.5t-101 31.5q-66 0 -133.5 -75t-67.5 -148q0 -49 35 -85t117 -77l120 -60q187 -90 187 -217q0 -81 -58.5 -159t-154.5 -127.5t-199 -49.5z" />
    <glyph glyph-name="uni0162" unicode="&#x162;" horiz-adv-x="1419" 
d="M225 1466h1256l-56 -432l-18 -2l-119 410h-352l-176 -1417h256l-2 -25h-352l-37 -76q110 -34 158 -71.5t48 -83.5q0 -55 -63 -118t-209 -151l-8 11q123 156 123 251q0 71 -76 150l41 88h-262l2 14l211 99l164 1329h-344l-236 -410l-18 2z" />
    <glyph glyph-name="uni0163" unicode="&#x163;" horiz-adv-x="714" 
d="M635 944h-258l-133 -887l284 236l13 -10q-280 -308 -342 -308q-10 0 -27 7l-31 -72q191 -70 191 -158q0 -51 -60 -111.5t-202 -156.5l-9 10q127 156 127 254q0 69 -73 148l37 94q-30 15 -52.5 38t-21.5 42l131 874h-152l4 14l156 13l72 184h119l-27 -184h260z" />
    <glyph glyph-name="Tcaron" unicode="&#x164;" horiz-adv-x="1419" 
d="M860 1587l-248 244l11 12l258 -108l286 108l9 -12l-299 -244h-17zM377 0l2 14l211 99l164 1329h-344l-236 -410l-18 2l69 432h1256l-56 -432l-18 -2l-119 410h-352l-176 -1417h256l-2 -25h-637z" />
    <glyph glyph-name="tcaron" unicode="&#x165;" horiz-adv-x="628" 
d="M535 1092l-7 10q66 120 66 203q0 73 -57 118v15l137 129q94 -73 94 -172q0 -65 -48.5 -132.5t-172.5 -170.5h-12zM430 1155l-27 -184h261l-5 -27h-260l-133 -887l287 236l10 -10q-277 -308 -352 -308q-43 0 -75 50t-21 116l116 803h-149l2 14l156 11l73 186h117z" />
    <glyph glyph-name="Tbar" unicode="&#x166;" horiz-adv-x="1419" 
d="M1481 1466l-56 -432l-18 -2l-119 408l-350 4l-84 -674h264l-2 -22h-264l-90 -723h256l-2 -25h-641l2 14l211 99l78 635h-265l2 22h265l84 674l-342 -4l-236 -408l-18 2l69 432h1256z" />
    <glyph glyph-name="tbar" unicode="&#x167;" horiz-adv-x="630" 
d="M659 944h-260l-55 -373h260l-4 -24h-260l-74 -490l287 236l12 -10q-280 -308 -354 -308q-43 0 -75 50t-21 116l59 406l-149 8l2 16h151l55 373h-151l4 19l156 8l71 184h119l-29 -184h261z" />
    <glyph glyph-name="Utilde" unicode="&#x168;" horiz-adv-x="1581" 
d="M676 1622l-19 10q74 122 116 163.5t91 41.5q40 0 187 -52t182 -52q27 0 51 18.5t66 73.5l18 -10q-74 -122 -116 -163.5t-91 -41.5q-40 0 -186.5 52t-181.5 52q-27 0 -51 -18.5t-66 -73.5zM774 -29q-588 0 -502 660l103 813h-197l2 22h576l-4 -22h-197l-104 -823
q-37 -297 57 -431.5t338 -134.5q223 0 355 142t167 424l102 823h-223l2 22h439l-2 -14l-201 -94l-92 -727q-85 -660 -619 -660z" />
    <glyph glyph-name="utilde" unicode="&#x169;" horiz-adv-x="1146" 
d="M477 1253q-23 0 -45 -18t-65 -72l-15 8q72 122 110 162.5t79 40.5q38 0 156.5 -51t150.5 -51q23 0 43.5 18t62.5 74l17 -8q-72 -124 -110 -164.5t-79 -40.5q-38 0 -155.5 51t-149.5 51zM1079 276l13 -12q-108 -143 -180 -216t-113 -73q-38 0 -64 46.5t-26 95.5
q0 73 88 461l-9 4q-138 -242 -226.5 -373.5t-145.5 -182.5t-107 -51q-79 0 -120 91.5t-17 236.5l104 619l-206 -205l-13 12q202 266 273 266q41 0 74 -53.5t22 -120.5l-88 -522q-18 -104 -7 -160.5t50 -56.5q47 0 129.5 110.5t259.5 399.5l55 379h166l-131 -905z" />
    <glyph glyph-name="Umacron" unicode="&#x16a;" horiz-adv-x="1581" 
d="M725 1696l6 28l549 13l-8 -41h-547zM774 -29q-588 0 -502 660l103 813h-197l2 22h576l-4 -22h-197l-104 -823q-37 -297 57 -431.5t338 -134.5q223 0 355 142t167 424l102 823h-223l2 22h439l-2 -14l-201 -94l-92 -727q-85 -660 -619 -660z" />
    <glyph glyph-name="umacron" unicode="&#x16b;" horiz-adv-x="1146" 
d="M907 1262l-8 -41h-483l4 28zM1079 276l13 -12q-108 -143 -180 -216t-113 -73q-38 0 -64 46.5t-26 95.5q0 73 88 461l-9 4q-138 -242 -226.5 -373.5t-145.5 -182.5t-107 -51q-79 0 -120 91.5t-17 236.5l104 619l-206 -205l-13 12q202 266 273 266q41 0 74 -53.5t22 -120.5
l-88 -522q-18 -104 -7 -160.5t50 -56.5q47 0 129.5 110.5t259.5 399.5l55 379h166l-131 -905z" />
    <glyph glyph-name="Ubreve" unicode="&#x16c;" horiz-adv-x="1581" 
d="M989 1587q-57 0 -103 23.5t-71.5 57t-43 67t-23.5 57.5l-5 23l13 4q3 -5 9.5 -12.5t29.5 -27t48.5 -34.5t66.5 -27t85 -12t88.5 11.5t76 28t56.5 33.5t38 29l12 11l14 -7l-6 -12q-6 -13 -17.5 -33t-28.5 -43.5t-41 -47.5t-52.5 -44t-66.5 -32.5t-79 -12.5zM774 -29
q-588 0 -502 660l103 813h-197l2 22h576l-4 -22h-197l-104 -823q-37 -297 57 -431.5t338 -134.5q223 0 355 142t167 424l102 823h-223l2 22h439l-2 -14l-201 -94l-92 -727q-85 -660 -619 -660z" />
    <glyph glyph-name="ubreve" unicode="&#x16d;" horiz-adv-x="1146" 
d="M647 1130q-53 0 -94 23.5t-61.5 56.5t-33 66t-15.5 56l-3 24l11 6q2 -5 7 -13t23 -28.5t40 -36t59 -28.5t79 -13t83 12.5t69.5 29.5t51 34.5t33.5 30.5l11 12l11 -6q-3 -9 -9.5 -24.5t-30.5 -54.5t-52.5 -68.5t-76.5 -54t-102 -24.5zM1079 276l13 -12
q-108 -143 -180 -216t-113 -73q-38 0 -64 46.5t-26 95.5q0 73 88 461l-9 4q-138 -242 -226.5 -373.5t-145.5 -182.5t-107 -51q-79 0 -120 91.5t-17 236.5l104 619l-206 -205l-13 12q202 266 273 266q41 0 74 -53.5t22 -120.5l-88 -522q-18 -104 -7 -160.5t50 -56.5
q47 0 129.5 110.5t259.5 399.5l55 379h166l-131 -905z" />
    <glyph glyph-name="Uring" unicode="&#x16e;" horiz-adv-x="1581" 
d="M999 1591q-76 0 -124 43t-48 111q0 93 66 161t162 68q77 0 123.5 -43.5t46.5 -111.5q0 -94 -65.5 -161t-160.5 -67zM1143 1925q-39 25 -92 25q-49 0 -93 -23l-47 -287q35 -24 90 -24q46 0 91 20zM1249 1466h439l-2 -14l-201 -94l-92 -727q-85 -660 -619 -660
q-588 0 -502 660l103 813h-197l2 22h576l-4 -22h-197l-104 -823q-37 -297 57 -431.5t338 -134.5q223 0 355 142t167 424l102 823h-223z" />
    <glyph glyph-name="uring" unicode="&#x16f;" horiz-adv-x="1146" 
d="M649 1096q-76 0 -124 42.5t-48 110.5q0 93 66 161.5t162 68.5q77 0 123 -43.5t46 -112.5q0 -94 -65 -160.5t-160 -66.5zM793 1430q-37 24 -93 24q-50 0 -92 -22l-47 -287q36 -25 90 -25q43 0 90 21zM1079 276l13 -12q-108 -143 -180 -216t-113 -73q-38 0 -64 46.5
t-26 95.5q0 73 88 461l-9 4q-138 -242 -226.5 -373.5t-145.5 -182.5t-107 -51q-79 0 -120 91.5t-17 236.5l104 619l-206 -205l-13 12q202 266 273 266q41 0 74 -53.5t22 -120.5l-88 -522q-18 -104 -7 -160.5t50 -56.5q47 0 129.5 110.5t259.5 399.5l55 379h166l-131 -905z
" />
    <glyph glyph-name="Uhungarumlaut" unicode="&#x170;" horiz-adv-x="1581" 
d="M745 1589l-14 13l221 245h172l9 -16zM1098 1589l-15 13l220 245h174l6 -16zM774 -29q-588 0 -502 660l103 813h-197l2 22h576l-4 -22h-197l-104 -823q-37 -297 57 -431.5t338 -134.5q223 0 355 142t167 424l102 823h-223l2 22h439l-2 -14l-201 -94l-92 -727
q-85 -660 -619 -660z" />
    <glyph glyph-name="uhungarumlaut" unicode="&#x171;" horiz-adv-x="1146" 
d="M786 1403l-315 -305l-14 10l157 311h168zM741 1098l-18 10l162 311h164l6 -16zM1079 276l13 -12q-108 -143 -180 -216t-113 -73q-38 0 -64 46.5t-26 95.5q0 73 88 461l-9 4q-138 -242 -226.5 -373.5t-145.5 -182.5t-107 -51q-79 0 -120 91.5t-17 236.5l104 619l-206 -205
l-13 12q202 266 273 266q41 0 74 -53.5t22 -120.5l-88 -522q-18 -104 -7 -160.5t50 -56.5q47 0 129.5 110.5t259.5 399.5l55 379h166l-131 -905z" />
    <glyph glyph-name="Uogonek" unicode="&#x172;" horiz-adv-x="1581" 
d="M1249 1466h439l-2 -14l-201 -94l-92 -727q-73 -557 -465 -643q-106 -110 -150.5 -180.5t-44.5 -131.5q0 -105 162 -135l-4 -16q-55 -27 -135 -27q-78 0 -122 37.5t-44 102.5q0 79 68.5 157t232.5 185q-55 -9 -117 -9q-588 0 -502 660l103 813h-197l2 22h576l-4 -22h-197
l-104 -823q-37 -297 57 -431.5t338 -134.5q223 0 355 142t167 424l102 823h-223z" />
    <glyph glyph-name="uogonek" unicode="&#x173;" horiz-adv-x="1146" 
d="M1092 264q-133 -178 -215 -248h2q-113 -116 -160 -188t-47 -135q0 -105 162 -135l-5 -17q-53 -26 -135 -26q-78 0 -122 37t-44 102q0 75 61.5 148t209.5 173q-38 0 -64 46.5t-26 95.5q0 73 88 461l-9 4q-138 -242 -226.5 -373.5t-145.5 -182.5t-107 -51q-79 0 -120 91.5
t-17 236.5l104 619l-206 -205l-13 12q202 266 273 266q41 0 74 -53.5t22 -120.5l-88 -522q-18 -104 -7 -160.5t50 -56.5q47 0 129.5 110.5t259.5 399.5l55 379h166l-131 -905l219 210z" />
    <glyph glyph-name="Wcircumflex" unicode="&#x174;" horiz-adv-x="2463" 
d="M1436 1698l-287 -111l-8 15l301 241h16l246 -244l-10 -12zM2073 1466h499l-2 -22h-178l-698 -1444h-41l-301 1225l-592 -1225h-41l-361 1444h-182l4 22h674l-2 -22h-295l285 -1223l602 1245h43l289 -1245l538 1114l-243 117z" />
    <glyph glyph-name="wcircumflex" unicode="&#x175;" horiz-adv-x="1499" 
d="M950 1276l-272 -164l-6 10l286 303h15l205 -303l-11 -10zM1419 995q76 -139 76 -190q0 -39 -44.5 -136t-117.5 -213.5t-155 -225.5t-168 -182t-146 -73q-63 0 -105 67.5t-42 168.5q0 90 69 367l-8 4q-131 -238 -220 -372t-145 -184.5t-104 -50.5q-76 0 -118.5 94
t-18.5 234l104 619l-206 -205l-13 12q202 266 273 266q41 0 74 -53.5t22 -120.5l-88 -522q-18 -104 -7 -160.5t50 -56.5q48 0 130.5 113t248.5 397l51 350h166l-98 -666q-15 -103 -0.5 -165t55.5 -62q59 0 137.5 96t140.5 221t106 243.5t46 166.5l-104 111v14z" />
    <glyph glyph-name="Ycircumflex" unicode="&#x176;" horiz-adv-x="1572" 
d="M965 1698l-287 -111l-8 15l301 241h16l246 -244l-10 -12zM1206 1466h473l-2 -22h-176l-577 -817l-76 -602h225l-2 -25h-602l2 14l209 99l63 503l-385 828h-180l2 22h643l-4 -22h-256l352 -791l490 699l-201 100z" />
    <glyph glyph-name="ycircumflex" unicode="&#x177;" horiz-adv-x="1021" 
d="M651 1276l-272 -164l-6 10l286 303h15l205 -303l-11 -10zM946 995q74 -142 74 -190q0 -35 -74.5 -181.5t-189.5 -335.5t-239.5 -371t-240 -306.5t-174.5 -124.5q-86 0 -204 41l86 186h14l133 -114q241 140 408 389h-119q-49 568 -176 899l-172 -170l-13 12
q82 119 154 192.5t111 73.5q57 0 109 -165t83 -378.5t45 -426.5q170 263 326 751l-111 111v14z" />
    <glyph glyph-name="Ydieresis" unicode="&#x178;" horiz-adv-x="1572" 
d="M760 1604q-40 0 -69 29t-29 69q0 54 37 92.5t89 38.5q38 0 66.5 -29.5t28.5 -70.5q0 -52 -36.5 -90.5t-86.5 -38.5zM1149 1604q-38 0 -67 29t-29 69q0 54 37 92.5t88 38.5q38 0 66 -29.5t28 -70.5q0 -53 -36 -91t-87 -38zM1206 1466h473l-2 -22h-176l-577 -817l-76 -602
h225l-2 -25h-602l2 14l209 99l63 503l-385 828h-180l2 22h643l-4 -22h-256l352 -791l490 699l-201 100z" />
    <glyph glyph-name="Zacute" unicode="&#x179;" horiz-adv-x="1396" 
d="M1208 1831l-444 -242l-10 15l252 243h196zM1036 27l252 426l17 -4l-60 -449h-1239l-4 16q612 754 861 1052.5t327 375.5l-750 -4l-217 -398l-14 2l37 422h1147l2 -14q-598 -741 -847.5 -1040.5t-338.5 -386.5z" />
    <glyph glyph-name="zacute" unicode="&#x17a;" horiz-adv-x="958" 
d="M893 1403l-383 -305l-14 10l206 311h187zM733 137l133 199l13 -2q-47 -209 -80 -278.5t-86 -69.5q-47 0 -151.5 38t-373.5 152l-192 -201l-19 19q633 672 795 831l-526 -12l-113 -166l-14 2l55 322h758l2 -15l-647 -675z" />
    <glyph glyph-name="Zdotaccent" unicode="&#x17b;" horiz-adv-x="1396" 
d="M858 1595q-45 0 -76.5 31t-31.5 76q0 60 40.5 101.5t98.5 41.5q43 0 75.5 -31.5t32.5 -76.5q0 -60 -41 -101t-98 -41zM1036 27l252 426l17 -4l-60 -449h-1239l-4 16q612 754 861 1052.5t327 375.5l-750 -4l-217 -398l-14 2l37 422h1147l2 -14q-598 -741 -847.5 -1040.5
t-338.5 -386.5z" />
    <glyph glyph-name="zdotaccent" unicode="&#x17c;" horiz-adv-x="958" 
d="M555 1143q-40 0 -69 29.5t-29 70.5q0 54 38 92.5t89 38.5q40 0 69 -29.5t29 -70.5q0 -54 -38 -92.5t-89 -38.5zM733 137l133 199l13 -2q-47 -209 -80 -278.5t-86 -69.5q-47 0 -151.5 38t-373.5 152l-192 -201l-19 19q633 672 795 831l-526 -12l-113 -166l-14 2l55 322
h758l2 -15l-647 -675z" />
    <glyph glyph-name="Zcaron" unicode="&#x17d;" horiz-adv-x="1396" 
d="M868 1587h-16l-248 244l10 12l258 -108l287 108l8 -12zM1036 27l252 426l17 -4l-60 -449h-1239l-4 16q612 754 861 1052.5t327 375.5l-750 -4l-217 -398l-14 2l37 422h1147l2 -14q-598 -741 -847.5 -1040.5t-338.5 -386.5z" />
    <glyph glyph-name="zcaron" unicode="&#x17e;" horiz-adv-x="958" 
d="M565 1112h-14l-209 303l12 10l219 -165l271 165l4 -10zM733 137l133 199l13 -2q-47 -209 -80 -278.5t-86 -69.5q-47 0 -151.5 38t-373.5 152l-192 -201l-19 19q633 672 795 831l-526 -12l-113 -166l-14 2l55 322h758l2 -15l-647 -675z" />
    <glyph glyph-name="longs" unicode="&#x17f;" horiz-adv-x="487" 
d="M739 1546q92 0 265 -39l-62 -127h-14q-76 76 -128.5 106t-107.5 30q-103 0 -176.5 -109t-93.5 -289l-111 -993q-29 -251 -156.5 -418.5t-289.5 -167.5q-70 0 -207 35l47 117h14q74 -59 121.5 -83t91.5 -24q73 0 125.5 79t65.5 216l110 1065h-151l2 19l152 8l4 41
q12 113 59.5 213.5t115.5 170t153 110t171 40.5z" />
    <glyph glyph-name="florin" unicode="&#x192;" horiz-adv-x="854" 
d="M692 1440q89 0 262 -39l-61 -127h-14q-75 75 -128 105t-108 30q-98 0 -162.5 -103t-85.5 -274l-18 -168h317l-4 -26h-317l-76 -686q-28 -240 -147.5 -403t-276.5 -163q-70 0 -207 35l47 117h15q74 -59 121 -83t90 -24q70 0 113 72t57 203l96 932h-152l2 18l152 8l6 62
q23 215 164.5 364.5t314.5 149.5z" />
    <glyph glyph-name="uni01C4" unicode="&#x1c4;" horiz-adv-x="2848" 
d="M2320 1587h-16l-248 244l10 12l258 -108l287 108l8 -12zM805 1466q315 0 487 -163t172 -461q0 -189 -58 -346t-163.5 -266t-257 -169.5t-334.5 -60.5h-653l4 14l205 99l166 1331h-193l2 22h623zM2488 27l252 426l17 -4l-60 -449h-1239l-4 16q612 754 861 1052.5
t327 375.5l-750 -4l-217 -398l-14 2l37 422h1147l2 -14q-598 -741 -847.5 -1040.5t-338.5 -386.5zM653 25q186 0 326.5 102.5t216.5 291t76 437.5q0 280 -123 434t-348 154h-248l-174 -1376q131 -43 274 -43z" />
    <glyph glyph-name="uni01C5" unicode="&#x1c5;" horiz-adv-x="2465" 
d="M805 1466q315 0 487 -163t172 -461q0 -189 -58 -346t-163.5 -266t-257 -169.5t-334.5 -60.5h-653l4 14l205 99l166 1331h-193l2 22h623zM653 25q186 0 326.5 102.5t216.5 291t76 437.5q0 280 -123 434t-348 154h-248l-174 -1376q131 -43 274 -43zM2073 1112h-17l-207 303
l11 10l221 -165l270 165l4 -10zM2241 137l133 199l12 -2q-47 -209 -80 -278.5t-86 -69.5q-47 0 -150.5 38t-373.5 152l-193 -201l-18 19q645 685 794 831l-526 -12l-113 -166l-14 2l55 322h758l2 -15l-647 -675z" />
    <glyph glyph-name="uni01C6" unicode="&#x1c6;" horiz-adv-x="2004" 
d="M788 57l222 211l12 -10q-108 -140 -178.5 -211.5t-110.5 -71.5q-41 0 -67.5 38.5t-26.5 95.5q0 91 104 497l-6 2q-165 -257 -261.5 -390.5t-158 -189t-110.5 -55.5q-72 0 -119 70.5t-47 179.5q0 127 54 267t137 251t190 183.5t207 72.5q42 0 133 -24l53 477h-145v14
l323 88l15 -8zM1612 1112h-17l-206 303l10 10l221 -165l270 165l4 -10zM1780 137l133 199l12 -2q-47 -209 -80 -278.5t-86 -69.5q-47 0 -150.5 38t-373.5 152l-193 -201l-18 19q633 672 795 831l-527 -12l-112 -166l-15 2l56 322h757l2 -15l-647 -675zM721 623l31 262
q-117 76 -181 76q-86 0 -169.5 -107t-133 -258.5t-49.5 -284.5q0 -83 25.5 -132.5t68.5 -49.5q50 0 131 98.5t277 395.5z" />
    <glyph glyph-name="uni01C7" unicode="&#x1c7;" horiz-adv-x="1943" 
d="M1260 463l-117 -463h-1129l2 14l207 99l164 1329h-192l2 24h677l-2 -24h-301l-176 -1417l561 2l285 440zM1427 1466h623l-2 -14l-211 -94l-141 -1151q-28 -231 -129 -385.5t-299 -270.5l-152 123l2 15l291 88q65 113 86 286l170 1379h-242z" />
    <glyph glyph-name="uni01C8" unicode="&#x1c8;" horiz-adv-x="1792" 
d="M1260 463l-117 -463h-1129l2 14l207 99l164 1329h-192l2 24h677l-2 -24h-301l-176 -1417l561 2l285 440zM1696 1374q39 0 67.5 -29.5t28.5 -70.5q0 -54 -37 -92.5t-88 -38.5q-40 0 -69 29.5t-29 70.5q0 54 37.5 92.5t89.5 38.5zM1614 983q41 0 73.5 -50.5t22.5 -117.5
l-94 -643q-38 -251 -140 -416.5t-278 -269.5l-90 86l2 14l219 84q65 119 88 287l142 954l-203 -194l-13 12q190 254 271 254z" />
    <glyph glyph-name="uni01C9" unicode="&#x1c9;" horiz-adv-x="980" 
d="M457 268l10 -10q-108 -140 -178.5 -211.5t-110.5 -71.5q-43 0 -75 50t-23 116l192 1309h-157v14l325 88l15 -8l-222 -1487zM885 1374q40 0 69 -29.5t29 -70.5q0 -54 -38 -92.5t-89 -38.5q-40 0 -69 29.5t-29 70.5q0 54 38 92.5t89 38.5zM803 983q41 0 73.5 -50.5
t22.5 -117.5l-94 -643q-38 -251 -140 -416.5t-278 -269.5l-90 86l2 14l219 84q65 119 88 287l142 954l-203 -194l-13 12q190 254 271 254z" />
    <glyph glyph-name="uni01CA" unicode="&#x1ca;" horiz-adv-x="2207" 
d="M1612 1452l-193 -94l-178 -1358h-92l-762 1300l-164 -1275h217l-2 -25h-442l2 14l215 99l158 1220l-127 119l2 14h268l731 -1255l160 1233h-217l4 22h422zM1692 1466h622l-2 -14l-211 -94l-141 -1151q-28 -231 -129 -385.5t-299 -270.5l-152 123l2 15l291 88
q65 113 86 286l170 1379h-241z" />
    <glyph glyph-name="uni01CB" unicode="&#x1cb;" horiz-adv-x="1972" 
d="M1612 1452l-193 -94l-178 -1358h-92l-762 1300l-164 -1275h217l-2 -25h-442l2 14l215 99l158 1220l-127 119l2 14h268l731 -1255l160 1233h-217l4 22h422zM1878 1374q39 0 67.5 -29.5t28.5 -70.5q0 -54 -37 -92.5t-88 -38.5q-40 0 -69 29.5t-29 70.5q0 54 37.5 92.5
t89.5 38.5zM1796 983q41 0 73.5 -50.5t22.5 -117.5l-94 -643q-38 -251 -140 -416.5t-278 -269.5l-90 86l2 14l219 84q65 119 88 287l142 954l-203 -194l-12 12q190 254 270 254z" />
    <glyph glyph-name="uni01CC" unicode="&#x1cc;" horiz-adv-x="1570" 
d="M1475 1374q40 0 69 -29.5t29 -70.5q0 -54 -38 -92.5t-89 -38.5q-40 0 -69 29.5t-29 70.5q0 54 38 92.5t89 38.5zM1042 272l13 -10q-223 -287 -301 -287q-40 0 -65 51.5t-11 118.5l106 506q41 188 -32 267q-58 -40 -141 -151.5t-253 -389.5l-53 -363l-155 -28l-15 8
l133 919l-198 -200l-13 12q198 268 273 268q37 0 62.5 -42.5t25.5 -98.5q0 -71 -86 -463l8 -2q206 350 311.5 479t179.5 129q47 0 82 -54t43.5 -132t-8.5 -166l-133 -586zM1393 983q41 0 73.5 -50.5t22.5 -117.5l-94 -643q-38 -251 -140 -416.5t-278 -269.5l-90 86l2 14
l219 84q65 119 88 287l141 954l-202 -194l-13 12q190 254 271 254z" />
    <glyph glyph-name="uni01CD" unicode="&#x1cd;" horiz-adv-x="1658" 
d="M887 1587h-17l-247 244l10 12l258 -108l287 108l8 -12zM1352 25h202l-2 -25h-678l3 25h282l-158 604h-518l-254 -504l220 -111l-3 -14h-481l4 25h183l665 1310l-96 117l2 14h246zM496 651h499l-170 656z" />
    <glyph glyph-name="uni01CE" unicode="&#x1ce;" horiz-adv-x="1079" 
d="M621 1112h-15l-209 303l13 10l219 -165l270 165l4 -10zM1010 268l12 -10q-108 -140 -178.5 -211.5t-110.5 -71.5q-38 0 -65 39t-27 95q0 114 88 497l-6 2q-158 -258 -250 -390.5t-153 -188.5t-113 -56q-72 0 -119 70.5t-47 179.5q0 127 54 267t137 251t190 183.5
t207 72.5q51 0 182 -32l107 86l16 -7l-146 -987zM707 623l36 264q-110 74 -172 74q-86 0 -169.5 -107t-133 -258.5t-49.5 -284.5q0 -83 25.5 -132.5t66.5 -49.5q51 0 131 100t265 394z" />
    <glyph glyph-name="uni01CF" unicode="&#x1cf;" horiz-adv-x="718" 
d="M477 1587l-248 244l11 12l258 -108l286 108l9 -12l-299 -244h-17zM4 0l4 14l201 99l164 1329h-191l2 24h570l-2 -14l-203 -94l-166 -1333h227l-2 -25h-604z" />
    <glyph glyph-name="uni01D0" unicode="&#x1d0;" horiz-adv-x="602" 
d="M375 1112l-209 303l12 10l219 -165l271 165l4 -10l-283 -303h-14zM258 -25q-44 0 -76 50t-22 116l112 770l-202 -194l-13 12q193 254 273 254q40 0 72 -50.5t22 -115.5l-111 -760l222 211l12 -10q-108 -140 -178.5 -211.5t-110.5 -71.5z" />
    <glyph glyph-name="uni01D1" unicode="&#x1d1;" horiz-adv-x="1456" 
d="M874 1587l-247 244l10 12l258 -108l287 108l8 -12l-299 -244h-17zM641 -27q-233 0 -377.5 169.5t-144.5 443.5q0 127 36.5 257.5t106 245.5t162 205.5t213.5 143.5t252 53q233 0 376.5 -167t143.5 -439q0 -129 -34.5 -259t-102 -247t-159 -208t-214 -144.5t-258.5 -53.5z
M700 6q89 0 166 40.5t132 109.5t98.5 157t69.5 187.5t39.5 196t13.5 186.5q0 260 -115 419.5t-299 159.5q-232 -100 -364 -326t-132 -546q0 -266 106.5 -425t284.5 -159z" />
    <glyph glyph-name="uni01D2" unicode="&#x1d2;" horiz-adv-x="966" 
d="M575 1112l-208 303l12 10l219 -165l270 165l4 -10l-282 -303h-15zM389 -27q-149 0 -241.5 104.5t-92.5 274.5q0 142 79.5 293.5t203.5 251.5t242 100q148 0 239.5 -104.5t91.5 -271.5q0 -145 -74.5 -296t-197.5 -251.5t-250 -100.5zM444 14q83 0 151 82.5t105 215
t37 284.5q0 172 -60.5 270.5t-164.5 98.5q-125 -62 -204 -226t-79 -366q0 -165 58.5 -262t156.5 -97z" />
    <glyph glyph-name="uni01D3" unicode="&#x1d3;" horiz-adv-x="1581" 
d="M981 1587l-248 244l10 12l258 -108l287 108l8 -12l-299 -244h-16zM774 -29q-588 0 -502 660l103 813h-197l2 22h576l-4 -22h-197l-104 -823q-37 -297 57 -431.5t338 -134.5q223 0 355 142t167 424l102 823h-223l2 22h439l-2 -14l-201 -94l-92 -727q-85 -660 -619 -660z
" />
    <glyph glyph-name="uni01D4" unicode="&#x1d4;" horiz-adv-x="1146" 
d="M653 1112h-14l-209 303l12 10l220 -165l270 165l4 -10zM1079 276l13 -12q-108 -143 -180 -216t-113 -73q-38 0 -64 46.5t-26 95.5q0 73 88 461l-9 4q-138 -242 -226.5 -373.5t-145.5 -182.5t-107 -51q-79 0 -120 91.5t-17 236.5l104 619l-206 -205l-13 12
q202 266 273 266q41 0 74 -53.5t22 -120.5l-88 -522q-18 -104 -7 -160.5t50 -56.5q47 0 129.5 110.5t259.5 399.5l55 379h166l-131 -905z" />
    <glyph glyph-name="uni01EA" unicode="&#x1ea;" horiz-adv-x="1456" 
d="M1409 885q0 -141 -42.5 -283.5t-118.5 -264.5t-190.5 -213.5t-248.5 -127.5q-110 -113 -156.5 -185t-46.5 -135q0 -105 162 -135l-4 -16q-56 -27 -135 -27q-78 0 -122 37.5t-44 102.5q0 79 70.5 158t240.5 192q-64 -15 -133 -15q-233 0 -377.5 169.5t-144.5 443.5
q0 127 36.5 257.5t106 245.5t162 205.5t213.5 143.5t252 53q233 0 376.5 -167t143.5 -439zM309 590q0 -266 106.5 -425t284.5 -159q89 0 166 40.5t132 109.5t98.5 157t69.5 187.5t39.5 196t13.5 186.5q0 260 -115 419.5t-299 159.5q-232 -100 -364 -326t-132 -546z" />
    <glyph glyph-name="uni01EB" unicode="&#x1eb;" horiz-adv-x="966" 
d="M911 621q0 -175 -106 -353t-256 -254q-111 -114 -158 -186t-47 -135q0 -105 162 -135l-4 -17q-53 -26 -135 -26q-78 0 -122 37t-44 102q0 78 67 155t226 183q-55 -19 -105 -19q-149 0 -241.5 104.5t-92.5 274.5q0 142 79.5 293.5t203.5 251.5t242 100q148 0 239.5 -104.5
t91.5 -271.5zM229 373q0 -165 58.5 -262t156.5 -97q83 0 151 82.5t105 215t37 284.5q0 172 -60.5 270.5t-164.5 98.5q-125 -62 -204 -226t-79 -366z" />
    <glyph glyph-name="uni01F1" unicode="&#x1f1;" horiz-adv-x="2848" 
d="M805 1466q315 0 487 -163t172 -461q0 -189 -58 -346t-163.5 -266t-257 -169.5t-334.5 -60.5h-653l4 14l205 99l166 1331h-193l2 22h623zM2488 27l252 426l17 -4l-60 -449h-1239l-4 16q612 754 861 1052.5t327 375.5l-750 -4l-217 -398l-14 2l37 422h1147l2 -14
q-598 -741 -847.5 -1040.5t-338.5 -386.5zM653 25q186 0 326.5 102.5t216.5 291t76 437.5q0 280 -123 434t-348 154h-248l-174 -1376q131 -43 274 -43z" />
    <glyph glyph-name="uni01F2" unicode="&#x1f2;" horiz-adv-x="2465" 
d="M805 1466q315 0 487 -163t172 -461q0 -189 -58 -346t-163.5 -266t-257 -169.5t-334.5 -60.5h-653l4 14l205 99l166 1331h-193l2 22h623zM653 25q186 0 326.5 102.5t216.5 291t76 437.5q0 280 -123 434t-348 154h-248l-174 -1376q131 -43 274 -43zM2241 137l133 199l12 -2
q-47 -209 -80 -278.5t-86 -69.5q-47 0 -150.5 38t-373.5 152l-193 -201l-18 19q645 685 794 831l-526 -12l-113 -166l-14 2l55 322h758l2 -15l-647 -675z" />
    <glyph glyph-name="uni01F3" unicode="&#x1f3;" horiz-adv-x="2004" 
d="M788 57l222 211l12 -10q-108 -140 -178.5 -211.5t-110.5 -71.5q-41 0 -67.5 38.5t-26.5 95.5q0 91 104 497l-6 2q-165 -257 -261.5 -390.5t-158 -189t-110.5 -55.5q-72 0 -119 70.5t-47 179.5q0 127 54 267t137 251t190 183.5t207 72.5q42 0 133 -24l53 477h-145v14
l323 88l15 -8zM1780 137l133 199l12 -2q-47 -209 -80 -278.5t-86 -69.5q-47 0 -150.5 38t-373.5 152l-193 -201l-18 19q633 672 795 831l-527 -12l-112 -166l-15 2l56 322h757l2 -15l-647 -675zM721 623l31 262q-117 76 -181 76q-86 0 -169.5 -107t-133 -258.5t-49.5 -284.5
q0 -83 25.5 -132.5t68.5 -49.5q50 0 131 98.5t277 395.5z" />
    <glyph glyph-name="uni01F4" unicode="&#x1f4;" horiz-adv-x="1548" 
d="M1292 1831l-444 -242l-10 15l252 243h196zM895 702h641l-4 -22h-182l-70 -551q-307 -156 -543 -156q-298 0 -457 161t-159 444q0 189 59.5 356.5t164.5 290.5t257.5 194.5t329.5 71.5q234 0 446 -76l-47 -366l-18 -5l-125 365q-137 59 -264 59q-121 0 -222 -49t-172 -133
t-120.5 -198t-73 -243.5t-23.5 -269.5q0 -268 113 -423.5t324 -155.5q184 0 354 129l72 555h-283z" />
    <glyph glyph-name="uni01F5" unicode="&#x1f5;" horiz-adv-x="886" 
d="M856 1403l-383 -305l-14 10l207 311h186zM924 1018l-33 -199l-131 19q22 -55 22 -115q0 -105 -63.5 -214t-165.5 -181t-205 -72h-22l-25 -152l274 -67q189 -44 189 -158q0 -68 -54.5 -137t-143.5 -122.5t-212 -87.5t-250 -34q-105 0 -166 36.5t-61 100.5q0 58 57.5 118.5
t223.5 176.5l10 -10q-97 -115 -129.5 -169.5t-32.5 -98.5q0 -54 45.5 -84.5t128.5 -30.5q182 0 304 74.5t122 183.5q0 39 -23.5 63t-82.5 44l-86 26q-103 34 -160 70t-100 94l4 17l149 149q-110 12 -177 85.5t-67 186.5q0 101 66 210.5t169 182t200 72.5q77 0 139.5 -31
t99.5 -87l172 141h15zM395 291q96 0 158.5 120.5t62.5 290.5q0 124 -42.5 191.5t-120.5 67.5q-62 0 -114 -57.5t-81 -151.5t-29 -201q0 -124 44 -192t122 -68z" />
    <glyph glyph-name="Aringacute" unicode="&#x1fa;" horiz-adv-x="1658" 
d="M889 1591q-76 0 -124 43t-48 111q0 61 29.5 113.5t80.5 83.5l-2 2l252 243h197l6 -16l-362 -199q8 2 26 2q77 0 123.5 -43.5t46.5 -111.5q0 -94 -65 -161t-160 -67zM1032 1925q-39 25 -92 25q-48 0 -92 -23l-47 -287q35 -24 90 -24q45 0 90 20zM1352 25h202l-2 -25h-678
l3 25h282l-158 604h-518l-254 -504l220 -111l-3 -14h-481l4 25h183l665 1310l-96 117l2 14h246zM496 651h499l-170 656z" />
    <glyph glyph-name="aringacute" unicode="&#x1fb;" horiz-adv-x="1079" 
d="M616 1096q-76 0 -124 42.5t-48 110.5q0 70 39.5 128.5t104.5 84.5l207 310h186l4 -17l-352 -280q24 4 39 4q77 0 123.5 -44t46.5 -112q0 -94 -65.5 -160.5t-160.5 -66.5zM760 1430q-37 24 -92 24q-51 0 -93 -22l-47 -287q36 -25 90 -25q44 0 91 21zM1010 268l12 -10
q-108 -140 -178.5 -211.5t-110.5 -71.5q-38 0 -65 39t-27 95q0 114 88 497l-6 2q-158 -258 -250 -390.5t-153 -188.5t-113 -56q-72 0 -119 70.5t-47 179.5q0 127 54 267t137 251t190 183.5t207 72.5q51 0 182 -32l107 86l16 -7l-146 -987zM707 623l36 264q-110 74 -172 74
q-86 0 -169.5 -107t-133 -258.5t-49.5 -284.5q0 -83 25.5 -132.5t66.5 -49.5q51 0 131 100t265 394z" />
    <glyph glyph-name="AEacute" unicode="&#x1fc;" horiz-adv-x="2199" 
d="M1696 1831l-445 -242l-10 15l252 243h197zM1827 27l278 393l17 -4l-107 -416h-1212l4 25h248l80 604h-498l-381 -516l205 -99l-2 -14h-492l2 25h191l968 1304l-120 123l2 14h1122l-45 -391l-16 -2l-125 369l-525 2l-88 -670h269l149 232h14l-61 -486h-25l31 228l-379 2
l-96 -725zM655 651h482l104 793z" />
    <glyph glyph-name="aeacute" unicode="&#x1fd;" horiz-adv-x="1445" 
d="M1200 1403l-383 -305l-14 10l207 311h186zM997 117q56 0 138 46.5t241 170.5l13 -12q-166 -199 -264 -274t-193 -75q-134 0 -210.5 91.5t-76.5 244.5q0 97 31 199q-209 -317 -303.5 -426t-165.5 -109q-72 0 -119 70.5t-47 179.5q0 127 54 267t137 251t190 183.5t207 72.5
q34 0 96 -17.5t215 -68.5q114 86 211 86q98 0 169 -56t71 -122q0 -89 -130 -160.5t-444 -154.5q-10 -78 -10 -139q0 -114 51 -181t139 -67zM1094 967q-104 -58 -175 -176.5t-98 -266.5q236 89 326 149t90 128q0 45 -39 92t-104 74zM711 604q53 117 131 211
q-120 86 -176.5 116t-94.5 30q-86 0 -169.5 -107t-133 -258.5t-49.5 -284.5q0 -83 25.5 -132.5t66.5 -49.5q51 0 131.5 96t268.5 379z" />
    <glyph glyph-name="Oslashacute" unicode="&#x1fe;" horiz-adv-x="1456" 
d="M1270 1831l-445 -242l-10 15l252 243h197zM1425 1505l-155 -186q139 -164 139 -434q0 -129 -34.5 -259t-102 -247t-159 -208t-214 -144.5t-258.5 -53.5q-224 0 -371 160l-153 -182l-17 14l156 187q-137 169 -137 434q0 127 36.5 257.5t106 245.5t162 205.5t213.5 143.5
t252 53q222 0 366 -156l154 185zM309 590q0 -180 51 -316l793 943q-53 117 -143 181t-205 64q-232 -100 -364 -326t-132 -546zM1219 883q0 170 -56 311l-794 -942q52 -119 136 -182.5t195 -63.5q89 0 166 40.5t132 109.5t98.5 157t69.5 187.5t39.5 196t13.5 186.5z" />
    <glyph glyph-name="oslashacute" unicode="&#x1ff;" horiz-adv-x="966" 
d="M924 1403l-383 -305l-15 10l207 311h187zM963 1004l-123 -138q71 -99 71 -245q0 -145 -74.5 -296t-197.5 -251.5t-250 -100.5q-154 0 -248 111l-118 -133l-17 14l123 137q-74 99 -74 250q0 142 79.5 293.5t203.5 251.5t242 100q156 0 245 -112l121 135zM229 373
q0 -81 15 -142l475 533q-25 96 -78.5 148.5t-128.5 52.5q-125 -62 -204 -226t-79 -366zM737 596q0 76 -12 141l-475 -532q23 -91 73.5 -141t120.5 -50q83 0 151 82.5t105 215.5t37 284z" />
    <glyph glyph-name="uni0200" unicode="&#x200;" horiz-adv-x="1658" 
d="M780 1604l-14 -15l-328 242l8 16h175zM1128 1604l-14 -15l-328 242l9 16h174zM1352 25h202l-2 -25h-678l3 25h282l-158 604h-518l-254 -504l220 -111l-3 -14h-481l4 25h183l665 1310l-96 117l2 14h246zM496 651h499l-170 656z" />
    <glyph glyph-name="uni0201" unicode="&#x201;" horiz-adv-x="1079" 
d="M514 1106l-18 -8l-250 305l8 16h174zM809 1106l-18 -8l-252 305l8 16h174zM1010 268l12 -10q-108 -140 -178.5 -211.5t-110.5 -71.5q-38 0 -65 39t-27 95q0 114 88 497l-6 2q-158 -258 -250 -390.5t-153 -188.5t-113 -56q-72 0 -119 70.5t-47 179.5q0 127 54 267t137 251
t190 183.5t207 72.5q51 0 182 -32l107 86l16 -7l-146 -987zM707 623l36 264q-110 74 -172 74q-86 0 -169.5 -107t-133 -258.5t-49.5 -284.5q0 -83 25.5 -132.5t66.5 -49.5q51 0 131 100t265 394z" />
    <glyph glyph-name="uni0204" unicode="&#x204;" horiz-adv-x="1335" 
d="M649 1589l-327 242l8 16h174l160 -243zM997 1589l-327 242l8 16h174l160 -243zM-4 0l2 14l211 99l166 1331h-191l2 22h1080l-43 -391l-17 -2l-125 369l-526 2l-84 -670h266l150 232h12l-61 -486h-23l31 228l-379 2l-90 -725l584 2l278 393l16 -4l-106 -416h-1153z" />
    <glyph glyph-name="uni0205" unicode="&#x205;" horiz-adv-x="864" 
d="M469 1106l-18 -8l-250 305l8 16h174zM764 1106l-19 -8l-251 305l8 16h174zM416 117q56 0 138 46.5t241 170.5l12 -12q-166 -199 -264 -274t-193 -75q-135 0 -217 92.5t-82 243.5q0 125 50.5 252.5t126.5 222t168 154t173 59.5q98 0 169 -56t71 -122q0 -88 -130.5 -160
t-442.5 -155q-11 -86 -11 -139q0 -114 51.5 -181t139.5 -67zM512 967q-104 -58 -174.5 -176.5t-97.5 -266.5q236 89 325.5 149t89.5 128q0 45 -39 92t-104 74z" />
    <glyph glyph-name="uni0208" unicode="&#x208;" horiz-adv-x="718" 
d="M373 1589l-328 242l8 16h174l160 -243zM721 1589l-328 242l8 16h174l160 -243zM4 0l4 14l201 99l164 1329h-191l2 24h570l-2 -14l-203 -94l-166 -1333h227l-2 -25h-604z" />
    <glyph glyph-name="uni0209" unicode="&#x209;" horiz-adv-x="602" 
d="M281 1106l-19 -8l-250 305l8 16h175zM575 1106l-18 -8l-252 305l8 16h174zM258 -25q-44 0 -76 50t-22 116l112 770l-202 -194l-13 12q193 254 273 254q40 0 72 -50.5t22 -115.5l-111 -760l222 211l12 -10q-108 -140 -178.5 -211.5t-110.5 -71.5z" />
    <glyph glyph-name="uni020C" unicode="&#x20c;" horiz-adv-x="1456" 
d="M770 1589l-328 242l9 16h174l159 -243zM1118 1589l-327 242l8 16h174l160 -243zM641 -27q-233 0 -377.5 169.5t-144.5 443.5q0 127 36.5 257.5t106 245.5t162 205.5t213.5 143.5t252 53q233 0 376.5 -167t143.5 -439q0 -129 -34.5 -259t-102 -247t-159 -208t-214 -144.5
t-258.5 -53.5zM700 6q89 0 166 40.5t132 109.5t98.5 157t69.5 187.5t39.5 196t13.5 186.5q0 260 -115 419.5t-299 159.5q-232 -100 -364 -326t-132 -546q0 -266 106.5 -425t284.5 -159z" />
    <glyph glyph-name="uni020D" unicode="&#x20d;" horiz-adv-x="966" 
d="M481 1106l-18 -8l-250 305l8 16h174zM776 1106l-18 -8l-252 305l8 16h174zM389 -27q-149 0 -241.5 104.5t-92.5 274.5q0 142 79.5 293.5t203.5 251.5t242 100q148 0 239.5 -104.5t91.5 -271.5q0 -145 -74.5 -296t-197.5 -251.5t-250 -100.5zM444 14q83 0 151 82.5
t105 215t37 284.5q0 172 -60.5 270.5t-164.5 98.5q-125 -62 -204 -226t-79 -366q0 -165 58.5 -262t156.5 -97z" />
    <glyph glyph-name="uni0210" unicode="&#x210;" horiz-adv-x="1419" 
d="M715 1589l-328 242l8 16h174l160 -243zM1063 1589l-328 242l8 16h175l159 -243zM1386 -72q-129 23 -223 67t-158 103.5t-126 151.5l-320 432l2 16q138 17 236 46.5t173.5 79.5t112.5 127.5t37 183.5q0 151 -81.5 230t-233.5 79h-252l-176 -1419h233l-4 -25h-606l2 14
l207 99l164 1331h-193l2 22h639q231 0 356.5 -84t125.5 -239q0 -207 -172.5 -312.5t-544.5 -146.5l80 -109h180l299 -391q59 -80 116.5 -135t131.5 -104z" />
    <glyph glyph-name="uni0211" unicode="&#x211;" horiz-adv-x="792" 
d="M414 1106l-19 -8l-250 305l9 16h174zM709 1106l-19 -8l-252 305l8 16h175zM696 995q45 0 140 -18l-82 -244h-15l-133 115q-43 -57 -256 -535l-43 -299l-155 -28l-15 8l133 919l-198 -200l-13 12q198 268 273 268q37 0 59.5 -41t22.5 -98q0 -69 -90 -530l6 -2
q193 459 251 566t115 107z" />
    <glyph glyph-name="uni0214" unicode="&#x214;" horiz-adv-x="1581" 
d="M879 1589l-328 242l8 16h174l160 -243zM1227 1589l-328 242l8 16h174l160 -243zM774 -29q-588 0 -502 660l103 813h-197l2 22h576l-4 -22h-197l-104 -823q-37 -297 57 -431.5t338 -134.5q223 0 355 142t167 424l102 823h-223l2 22h439l-2 -14l-201 -94l-92 -727
q-85 -660 -619 -660z" />
    <glyph glyph-name="uni0215" unicode="&#x215;" horiz-adv-x="1146" 
d="M547 1106l-19 -8l-249 305l8 16h174zM842 1106l-19 -8l-252 305l9 16h174zM1079 276l13 -12q-108 -143 -180 -216t-113 -73q-38 0 -64 46.5t-26 95.5q0 73 88 461l-9 4q-138 -242 -226.5 -373.5t-145.5 -182.5t-107 -51q-79 0 -120 91.5t-17 236.5l104 619l-206 -205
l-13 12q202 266 273 266q41 0 74 -53.5t22 -120.5l-88 -522q-18 -104 -7 -160.5t50 -56.5q47 0 129.5 110.5t259.5 399.5l55 379h166l-131 -905z" />
    <glyph glyph-name="uni0218" unicode="&#x218;" horiz-adv-x="1239" 
d="M541 -25q-206 0 -518 80l157 344l17 -4l8 -297q5 -4 15 -11t45 -24t74.5 -30t103 -24t130.5 -11q201 0 316 91t115 251q0 103 -57.5 167t-198.5 116l-254 92q-295 109 -295 336q0 197 153.5 318.5t407.5 121.5q178 0 457 -66l-142 -315l-14 4l-25 272q-4 3 -12.5 8.5
t-37 20t-60.5 25t-83 19.5t-104 9q-188 0 -294.5 -87t-106.5 -242q0 -96 58.5 -157t199.5 -114l254 -92q307 -110 307 -352q0 -200 -169.5 -324.5t-446.5 -124.5zM328 -547l-9 10q121 139 121 236q0 56 -39 92l2 14l164 95q60 -48 60 -119q0 -83 -65 -153.5t-222 -174.5h-12
z" />
    <glyph glyph-name="uni0219" unicode="&#x219;" horiz-adv-x="798" 
d="M301 -27q-112 0 -313 56l61 131h14q108 -92 168 -126t113 -34q73 0 144 81t71 155q0 47 -30.5 82.5t-102.5 72.5l-121 60q-196 96 -196 219q0 79 55.5 155t147 124t188.5 48q75 0 276 -51l-53 -121h-14q-98 83 -153 114.5t-101 31.5q-66 0 -133.5 -75t-67.5 -148
q0 -49 35 -85t117 -77l120 -60q187 -90 187 -217q0 -81 -58.5 -159t-154.5 -127.5t-199 -49.5zM100 -547l-8 10q121 139 121 236q0 56 -39 92l2 14l164 95q59 -47 59 -119q0 -84 -65 -154.5t-221 -173.5h-13z" />
    <glyph glyph-name="uni021A" unicode="&#x21a;" horiz-adv-x="1419" 
d="M377 0l2 14l211 99l164 1329h-344l-236 -410l-18 2l69 432h1256l-56 -432l-18 -2l-119 410h-352l-176 -1417h256l-2 -25h-637zM463 -547l-8 10q120 138 120 236q0 57 -38 92l2 14l163 95q60 -48 60 -119q0 -83 -65 -153.5t-222 -174.5h-12z" />
    <glyph glyph-name="uni021B" unicode="&#x21b;" horiz-adv-x="628" 
d="M659 944h-260l-133 -887l287 236l10 -10q-277 -308 -352 -308q-43 0 -75 50t-21 116l116 803h-149l2 19l156 8l73 184h117l-27 -184h261zM221 -100q60 -48 60 -119q0 -83 -65 -153.5t-222 -174.5h-14l-7 10q121 139 121 236q0 56 -39 92l2 14z" />
    <glyph glyph-name="uni0237" unicode="&#x237;" horiz-adv-x="503" 
d="M326 983q41 0 73.5 -50.5t22.5 -117.5l-94 -643q-38 -251 -140 -416.5t-278 -269.5l-92 86l4 14l219 84q65 119 88 287l141 954l-202 -194l-13 12q190 254 271 254z" />
    <glyph glyph-name="uni0259" unicode="&#x259;" horiz-adv-x="864" 
d="M514 997q135 0 217 -91.5t82 -243.5q0 -125 -50 -253t-126 -222t-168 -154t-174 -60q-96 0 -168 56.5t-72 122.5q0 88 130.5 160t443.5 155q10 78 10 139q0 114 -51 181t-139 67q-56 0 -138 -46.5t-241 -170.5l-11 12q164 199 261.5 273.5t193.5 74.5zM352 4
q104 58 175 176.5t98 265.5q-236 -89 -326 -149t-90 -127q0 -45 39 -92t104 -74z" />
    <glyph glyph-name="caron" unicode="&#x2c7;" horiz-adv-x="710" 
d="M449 1112l-209 303l12 10l219 -165l270 165l4 -10l-282 -303h-14z" />
    <glyph glyph-name="gravecomb" unicode="&#x300;" 
d="M-10 1108l-17 -10l-295 305l9 16h180z" />
    <glyph glyph-name="acutecomb" unicode="&#x301;" 
d="M-365 1108l207 311h187l4 -16l-383 -305z" />
    <glyph glyph-name="uni0302" unicode="&#x302;" 
d="M-227 1425h14l205 -303l-10 -10l-218 164l-272 -164l-6 10z" />
    <glyph glyph-name="tildecomb" unicode="&#x303;" 
d="M-580 1163l-14 8q72 122 109.5 162.5t78.5 40.5q38 0 157 -51t151 -51q23 0 43.5 18t62.5 74l17 -8q-72 -124 -110 -164.5t-79 -40.5q-38 0 -155.5 51t-149.5 51q-23 0 -46 -18t-65 -72z" />
    <glyph glyph-name="uni0304" unicode="&#x304;" 
d="M-477 1221l4 28l487 13l-8 -41h-483z" />
    <glyph glyph-name="uni0306" unicode="&#x306;" 
d="M-246 1130q-53 0 -94 23.5t-61.5 56.5t-33 66t-15.5 56l-3 24l11 6q2 -5 7 -13t23.5 -28.5t40 -36t59 -28.5t79.5 -13t83 12.5t69.5 29.5t50.5 34.5t33 30.5l11 12l11 -6q-3 -9 -9.5 -24.5t-30.5 -54.5t-52.5 -68.5t-76.5 -54t-102 -24.5z" />
    <glyph glyph-name="uni0307" unicode="&#x307;" 
d="M-113 1143q-40 0 -69 29.5t-29 70.5q0 54 38 92.5t89 38.5q40 0 69 -29.5t29 -70.5q0 -54 -38 -92.5t-89 -38.5z" />
    <glyph glyph-name="uni0308" unicode="&#x308;" 
d="M-459 1143q-38 0 -66 28t-28 68q0 52 35.5 89.5t85.5 37.5q38 0 65 -28t27 -68q0 -51 -35 -89t-84 -38zM-106 1143q-38 0 -66.5 28.5t-28.5 67.5q0 52 35.5 89.5t85.5 37.5q38 0 65 -28t27 -68q0 -52 -34.5 -89.5t-83.5 -37.5z" />
    <glyph glyph-name="uni030A" unicode="&#x30a;" 
d="M-143 1479q77 0 123.5 -44t46.5 -112q0 -94 -65.5 -160.5t-160.5 -66.5q-76 0 -124 42.5t-48 110.5q0 93 66 161.5t162 68.5zM-287 1145q36 -25 90 -25q44 0 91 21l51 289q-38 24 -92 24q-51 0 -93 -22z" />
    <glyph glyph-name="uni030B" unicode="&#x30b;" 
d="M-563 1108l157 311h168l5 -16l-316 -305zM-297 1108l162 311h164l6 -16l-314 -305z" />
    <glyph glyph-name="uni030C" unicode="&#x30c;" 
d="M-262 1112l-209 303l12 10l219 -165l271 165l4 -10l-283 -303h-14z" />
    <glyph glyph-name="uni030F" unicode="&#x30f;" 
d="M-305 1106l-19 -8l-249 305l8 16h174zM-10 1106l-19 -8l-252 305l9 16h174z" />
    <glyph glyph-name="uni0312" unicode="&#x312;" 
d="M43 1524l6 -8q-119 -147 -119 -238q0 -60 37 -90l-2 -17l-164 -94q-59 50 -59 119q0 83 65 153.5t222 174.5h14z" />
    <glyph glyph-name="dotbelowcomb" unicode="&#x323;" 
d="M-340 -401q-40 0 -69 29.5t-29 70.5q0 54 37.5 93.5t89.5 39.5q39 0 67.5 -29.5t28.5 -70.5q0 -54 -37 -93.5t-88 -39.5z" />
    <glyph glyph-name="uni0326" unicode="&#x326;" 
d="M-510 -547l-6 10q121 139 121 236q0 56 -39 92l2 14l164 95q59 -47 59 -119q0 -83 -65 -153.5t-222 -174.5h-14z" />
    <glyph glyph-name="uni0327" unicode="&#x327;" 
d="M-475 -516l-8 10q127 156 127 254q0 68 -74 148l39 94h20l-32 -80q190 -70 190 -158q0 -52 -60.5 -113t-201.5 -155z" />
    <glyph glyph-name="uni0328" unicode="&#x328;" 
d="M-379 -492q-78 0 -123 37.5t-45 102.5q0 82 75 163t259 199h18q-112 -116 -159 -188t-47 -135q0 -106 161 -136l-4 -16q-56 -27 -135 -27z" />
    <glyph glyph-name="uni1E0C" unicode="&#x1e0c;" horiz-adv-x="1515" 
d="M-2 0l4 14l205 99l166 1331h-193l2 22h623q315 0 487 -163t172 -461q0 -189 -58 -346t-163.5 -266t-257 -169.5t-334.5 -60.5h-653zM653 25q186 0 326.5 102.5t216.5 291t76 437.5q0 280 -123 434t-348 154h-248l-174 -1376q131 -43 274 -43zM621 -401q-40 0 -69.5 29.5
t-29.5 70.5q0 54 37.5 93.5t89.5 39.5q39 0 67.5 -29.5t28.5 -70.5q0 -54 -36.5 -93.5t-87.5 -39.5z" />
    <glyph glyph-name="uni1E0D" unicode="&#x1e0d;" horiz-adv-x="1079" 
d="M1010 268l12 -10q-108 -140 -178.5 -211.5t-110.5 -71.5q-41 0 -67.5 38.5t-26.5 95.5q0 91 104 497l-6 2q-165 -257 -261.5 -390.5t-158 -189t-110.5 -55.5q-72 0 -119 70.5t-47 179.5q0 127 54 267t137 251t190 183.5t207 72.5q42 0 133 -24l53 477h-145v14l323 88
l15 -8l-220 -1487zM721 623l31 262q-117 76 -181 76q-86 0 -169.5 -107t-133 -258.5t-49.5 -284.5q0 -83 25.5 -132.5t68.5 -49.5q50 0 131 98.5t277 395.5zM440 -168q39 0 68 -29.5t29 -70.5q0 -54 -37 -93.5t-88 -39.5q-40 0 -69.5 29.5t-29.5 70.5q0 54 37.5 93.5
t89.5 39.5z" />
    <glyph glyph-name="uni1E24" unicode="&#x1e24;" horiz-adv-x="1611" 
d="M1647 1452l-193 -94l-168 -1333h217l-2 -25h-594l2 25h199l90 725h-733l-88 -725h217l-2 -25h-594l4 14l207 99l164 1331h-191l2 22h559l-2 -22h-190l-82 -670h733l84 670h-217l2 22h578zM733 -168q39 0 67.5 -29.5t28.5 -70.5q0 -54 -36.5 -93.5t-87.5 -39.5
q-40 0 -69.5 29.5t-29.5 70.5q0 54 37.5 93.5t89.5 39.5z" />
    <glyph glyph-name="uni1E25" unicode="&#x1e25;" horiz-adv-x="1038" 
d="M971 272l12 -10q-220 -287 -299 -287q-40 0 -65.5 51.5t-12.5 118.5l107 506q41 187 -33 267q-56 -39 -137.5 -149.5t-255.5 -391.5l-51 -363l-150 -28l-20 12l213 1452h-146v14l330 88l14 -8l-102 -573q-23 -142 -115 -582l8 -2q141 238 233.5 370.5t151 185t107.5 52.5
q48 0 83 -54t43.5 -132t-7.5 -166l-134 -586zM422 -168q39 0 67.5 -29.5t28.5 -70.5q0 -54 -37 -93.5t-88 -39.5q-40 0 -69 29.5t-29 70.5q0 54 37.5 93.5t89.5 39.5z" />
    <glyph glyph-name="uni1E44" unicode="&#x1e44;" horiz-adv-x="1509" 
d="M928 1595q-45 0 -77 31t-32 76q0 60 40.5 101.5t98.5 41.5q44 0 76.5 -31.5t32.5 -76.5q0 -60 -41 -101t-98 -41zM-4 0l2 14l215 99l158 1220l-127 119l2 14h268l731 -1255l160 1233h-217l4 22h422l-2 -14l-193 -94l-178 -1358h-92l-762 1300l-164 -1275h217l-2 -25h-442
z" />
    <glyph glyph-name="uni1E45" unicode="&#x1e45;" horiz-adv-x="1110" 
d="M639 1143q-40 0 -69 29.5t-29 70.5q0 54 38 92.5t89 38.5q40 0 69 -29.5t29 -70.5q0 -54 -38 -92.5t-89 -38.5zM1042 272l13 -10q-223 -287 -301 -287q-40 0 -65 51.5t-11 118.5l106 506q41 188 -32 267q-58 -40 -141 -151.5t-253 -389.5l-53 -363l-155 -28l-15 8
l133 919l-198 -200l-13 12q198 268 273 268q37 0 62.5 -42.5t25.5 -98.5q0 -71 -86 -463l8 -2q206 350 311.5 479t179.5 129q47 0 82 -54t43.5 -132t-8.5 -166l-133 -586z" />
    <glyph glyph-name="uni1E5A" unicode="&#x1e5a;" horiz-adv-x="1419" 
d="M1386 -72q-129 23 -223 67t-158 103.5t-126 151.5l-320 432l2 16q138 17 236 46.5t173.5 79.5t112.5 127.5t37 183.5q0 151 -81.5 230t-233.5 79h-252l-176 -1419h233l-4 -25h-606l2 14l207 99l164 1331h-193l2 22h639q231 0 356.5 -84t125.5 -239q0 -207 -172.5 -312.5
t-544.5 -146.5l80 -109h180l299 -391q59 -80 116.5 -135t131.5 -104zM715 -401q-40 0 -69.5 29.5t-29.5 70.5q0 54 37.5 93.5t89.5 39.5q39 0 68 -29.5t29 -70.5q0 -54 -37 -93.5t-88 -39.5z" />
    <glyph glyph-name="uni1E5B" unicode="&#x1e5b;" horiz-adv-x="792" 
d="M696 995q45 0 140 -18l-82 -244h-15l-133 115q-43 -57 -256 -535l-43 -299l-155 -28l-15 8l133 919l-198 -200l-13 12q198 268 273 268q37 0 59.5 -41t22.5 -98q0 -69 -90 -530l6 -2q193 459 251 566t115 107zM215 -170q39 0 67.5 -29.5t28.5 -70.5q0 -54 -37 -93.5
t-88 -39.5q-40 0 -69 30t-29 72q0 54 37.5 92.5t89.5 38.5z" />
    <glyph glyph-name="uni1E62" unicode="&#x1e62;" horiz-adv-x="1239" 
d="M541 -25q-206 0 -518 80l157 344l17 -4l8 -297q5 -4 15 -11t45 -24t74.5 -30t103 -24t130.5 -11q201 0 316 91t115 251q0 103 -57.5 167t-198.5 116l-254 92q-295 109 -295 336q0 197 153.5 318.5t407.5 121.5q178 0 457 -66l-142 -315l-14 4l-25 272q-4 3 -12.5 8.5
t-37 20t-60.5 25t-83 19.5t-104 9q-188 0 -294.5 -87t-106.5 -242q0 -96 58.5 -157t199.5 -114l254 -92q307 -110 307 -352q0 -200 -169.5 -324.5t-446.5 -124.5zM508 -401q-40 0 -69 29.5t-29 70.5q0 54 37.5 93.5t89.5 39.5q39 0 67.5 -29.5t28.5 -70.5q0 -54 -37 -93.5
t-88 -39.5z" />
    <glyph glyph-name="uni1E63" unicode="&#x1e63;" horiz-adv-x="798" 
d="M301 -27q-112 0 -313 56l61 131h14q108 -92 168 -126t113 -34q73 0 144 81t71 155q0 47 -30.5 82.5t-102.5 72.5l-121 60q-196 96 -196 219q0 79 55.5 155t147 124t188.5 48q75 0 276 -51l-53 -121h-14q-98 83 -153 114.5t-101 31.5q-66 0 -133.5 -75t-67.5 -148
q0 -49 35 -85t117 -77l120 -60q187 -90 187 -217q0 -81 -58.5 -159t-154.5 -127.5t-199 -49.5zM289 -403q-40 0 -69.5 29.5t-29.5 70.5q0 54 38 92.5t89 38.5q40 0 69.5 -29.5t29.5 -70.5q0 -54 -38 -92.5t-89 -38.5z" />
    <glyph glyph-name="uni1E6C" unicode="&#x1e6c;" horiz-adv-x="1419" 
d="M377 0l2 14l211 99l164 1329h-344l-236 -410l-18 2l69 432h1256l-56 -432l-18 -2l-119 410h-352l-176 -1417h256l-2 -25h-637zM643 -401q-40 0 -69 29.5t-29 70.5q0 54 37.5 93.5t89.5 39.5q39 0 67.5 -29.5t28.5 -70.5q0 -54 -37 -93.5t-88 -39.5z" />
    <glyph glyph-name="uni1E6D" unicode="&#x1e6d;" horiz-adv-x="628" 
d="M659 944h-260l-133 -887l287 236l10 -10q-277 -308 -352 -308q-43 0 -75 50t-21 116l116 803h-149l2 19l156 8l73 184h117l-27 -184h261zM186 -168q39 0 68 -29.5t29 -70.5q0 -54 -37.5 -93.5t-89.5 -39.5q-40 0 -69.5 29.5t-29.5 70.5q0 54 38.5 93.5t90.5 39.5z" />
    <glyph glyph-name="Wgrave" unicode="&#x1e80;" horiz-adv-x="2463" 
d="M1503 1602l-10 -13l-385 242l8 16h197zM2073 1466h499l-2 -22h-178l-698 -1444h-41l-301 1225l-592 -1225h-41l-361 1444h-182l4 22h674l-2 -22h-295l285 -1223l602 1245h43l289 -1245l538 1114l-243 117z" />
    <glyph glyph-name="wgrave" unicode="&#x1e81;" horiz-adv-x="1499" 
d="M979 1108l-16 -10l-295 305l8 16h180zM1419 995q76 -139 76 -190q0 -39 -44.5 -136t-117.5 -213.5t-155 -225.5t-168 -182t-146 -73q-63 0 -105 67.5t-42 168.5q0 90 69 367l-8 4q-131 -238 -220 -372t-145 -184.5t-104 -50.5q-76 0 -118.5 94t-18.5 234l104 619
l-206 -205l-13 12q202 266 273 266q41 0 74 -53.5t22 -120.5l-88 -522q-18 -104 -7 -160.5t50 -56.5q48 0 130.5 113t248.5 397l51 350h166l-98 -666q-15 -103 -0.5 -165t55.5 -62q59 0 137.5 96t140.5 221t106 243.5t46 166.5l-104 111v14z" />
    <glyph glyph-name="Wacute" unicode="&#x1e82;" horiz-adv-x="2463" 
d="M1774 1831l-445 -242l-10 15l252 243h196zM2073 1466h499l-2 -22h-178l-698 -1444h-41l-301 1225l-592 -1225h-41l-361 1444h-182l4 22h674l-2 -22h-295l285 -1223l602 1245h43l289 -1245l538 1114l-243 117z" />
    <glyph glyph-name="wacute" unicode="&#x1e83;" horiz-adv-x="1499" 
d="M1262 1403l-383 -305l-15 10l207 311h186zM1419 995q76 -139 76 -190q0 -39 -44.5 -136t-117.5 -213.5t-155 -225.5t-168 -182t-146 -73q-63 0 -105 67.5t-42 168.5q0 90 69 367l-8 4q-131 -238 -220 -372t-145 -184.5t-104 -50.5q-76 0 -118.5 94t-18.5 234l104 619
l-206 -205l-13 12q202 266 273 266q41 0 74 -53.5t22 -120.5l-88 -522q-18 -104 -7 -160.5t50 -56.5q48 0 130.5 113t248.5 397l51 350h166l-98 -666q-15 -103 -0.5 -165t55.5 -62q59 0 137.5 96t140.5 221t106 243.5t46 166.5l-104 111v14z" />
    <glyph glyph-name="Wdieresis" unicode="&#x1e84;" horiz-adv-x="2463" 
d="M1233 1604q-40 0 -69 29t-29 69q0 54 37.5 92.5t89.5 38.5q38 0 66 -29.5t28 -70.5q0 -52 -36.5 -90.5t-86.5 -38.5zM1622 1604q-38 0 -67 29t-29 69q0 54 37 92.5t88 38.5q38 0 66 -29.5t28 -70.5q0 -53 -36 -91t-87 -38zM2073 1466h499l-2 -22h-178l-698 -1444h-41
l-301 1225l-592 -1225h-41l-361 1444h-182l4 22h674l-2 -22h-295l285 -1223l602 1245h43l289 -1245l538 1114l-243 117z" />
    <glyph glyph-name="wdieresis" unicode="&#x1e85;" horiz-adv-x="1499" 
d="M754 1143q-38 0 -66.5 28.5t-28.5 67.5q0 52 35.5 89.5t85.5 37.5q38 0 65 -28t27 -68q0 -52 -34.5 -89.5t-83.5 -37.5zM1106 1143q-38 0 -66 28t-28 68q0 52 35.5 89.5t85.5 37.5q38 0 65 -28t27 -68q0 -51 -35 -89t-84 -38zM1419 995q76 -139 76 -190q0 -39 -44.5 -136
t-117.5 -213.5t-155 -225.5t-168 -182t-146 -73q-63 0 -105 67.5t-42 168.5q0 90 69 367l-8 4q-131 -238 -220 -372t-145 -184.5t-104 -50.5q-76 0 -118.5 94t-18.5 234l104 619l-206 -205l-13 12q202 266 273 266q41 0 74 -53.5t22 -120.5l-88 -522q-18 -104 -7 -160.5
t50 -56.5q48 0 130.5 113t248.5 397l51 350h166l-98 -666q-15 -103 -0.5 -165t55.5 -62q59 0 137.5 96t140.5 221t106 243.5t46 166.5l-104 111v14z" />
    <glyph glyph-name="uni1E92" unicode="&#x1e92;" horiz-adv-x="1396" 
d="M1036 27l252 426l17 -4l-60 -449h-1239l-4 16q612 754 861 1052.5t327 375.5l-750 -4l-217 -398l-14 2l37 422h1147l2 -14q-598 -741 -847.5 -1040.5t-338.5 -386.5zM608 -168q39 0 68 -29.5t29 -70.5q0 -54 -37 -93.5t-88 -39.5q-40 0 -69.5 29.5t-29.5 70.5
q0 54 37.5 93.5t89.5 39.5z" />
    <glyph glyph-name="uni1E93" unicode="&#x1e93;" horiz-adv-x="958" 
d="M733 137l133 199l13 -2q-47 -209 -80 -278.5t-86 -69.5q-47 0 -151.5 38t-373.5 152l-192 -201l-19 19q633 672 795 831l-526 -12l-113 -166l-14 2l55 322h758l2 -15l-647 -675zM346 -168q39 0 67.5 -29.5t28.5 -70.5q0 -54 -37 -93.5t-88 -39.5q-40 0 -69 29.5t-29 70.5
q0 54 37.5 93.5t89.5 39.5z" />
    <glyph glyph-name="uni1EA0" unicode="&#x1ea0;" horiz-adv-x="1658" 
d="M1352 25h202l-2 -25h-678l3 25h282l-158 604h-518l-254 -504l220 -111l-3 -14h-481l4 25h183l665 1310l-96 117l2 14h246zM496 651h499l-170 656zM698 -168q39 0 68 -29.5t29 -70.5q0 -54 -37 -93.5t-88 -39.5q-40 0 -69.5 29.5t-29.5 70.5q0 54 37.5 93.5t89.5 39.5z
" />
    <glyph glyph-name="uni1EA1" unicode="&#x1ea1;" horiz-adv-x="1079" 
d="M1010 268l12 -10q-108 -140 -178.5 -211.5t-110.5 -71.5q-38 0 -65 39t-27 95q0 114 88 497l-6 2q-158 -258 -250 -390.5t-153 -188.5t-113 -56q-72 0 -119 70.5t-47 179.5q0 127 54 267t137 251t190 183.5t207 72.5q51 0 182 -32l107 86l16 -7l-146 -987zM707 623
l36 264q-110 74 -172 74q-86 0 -169.5 -107t-133 -258.5t-49.5 -284.5q0 -83 25.5 -132.5t66.5 -49.5q51 0 131 100t265 394zM391 -168q39 0 67.5 -29.5t28.5 -70.5q0 -54 -37 -93.5t-88 -39.5q-40 0 -69 29.5t-29 70.5q0 54 37.5 93.5t89.5 39.5z" />
    <glyph glyph-name="uni1EAD" unicode="&#x1ead;" horiz-adv-x="1079" 
d="M637 1276l-272 -164l-7 10l287 303h14l205 -303l-10 -10zM1010 268l12 -10q-108 -140 -178.5 -211.5t-110.5 -71.5q-38 0 -65 39t-27 95q0 114 88 497l-6 2q-158 -258 -250 -390.5t-153 -188.5t-113 -56q-72 0 -119 70.5t-47 179.5q0 127 54 267t137 251t190 183.5
t207 72.5q51 0 182 -32l107 86l16 -7l-146 -987zM707 623l36 264q-110 74 -172 74q-86 0 -169.5 -107t-133 -258.5t-49.5 -284.5q0 -83 25.5 -132.5t66.5 -49.5q51 0 131 100t265 394zM391 -168q39 0 67.5 -29.5t28.5 -70.5q0 -54 -37 -93.5t-88 -39.5q-40 0 -69 29.5
t-29 70.5q0 54 37.5 93.5t89.5 39.5z" />
    <glyph glyph-name="uni1EB0" unicode="&#x1eb0;" horiz-adv-x="1658" 
d="M936 1827l-12 -10l-383 239l8 17h196zM645 1819q3 -5 10 -12.5t29.5 -27t48.5 -34.5t67 -27t85 -12t88 11.5t75.5 28t56.5 33.5t37 29l13 11l14 -7l-6 -12q-6 -13 -17.5 -33t-28 -43.5t-41 -47.5t-52.5 -44t-66 -32.5t-79 -12.5q-57 0 -103 23.5t-71.5 57t-43 67
t-23.5 57.5l-5 23zM1352 25h202l-2 -25h-678l3 25h282l-158 604h-518l-254 -504l220 -111l-3 -14h-481l4 25h183l665 1310l-96 117l2 14h246zM496 651h499l-170 656z" />
    <glyph glyph-name="uni1EB6" unicode="&#x1eb6;" horiz-adv-x="1658" 
d="M879 1587q-57 0 -103 23.5t-71.5 57t-43 67t-23.5 57.5l-5 23l12 4q3 -5 10 -12.5t29.5 -27t48.5 -34.5t67 -27t85 -12t88 11.5t75.5 28t56.5 33.5t37 29l13 11l14 -7l-6 -12q-6 -13 -17.5 -33t-28 -43.5t-41 -47.5t-52.5 -44t-66 -32.5t-79 -12.5zM1352 25h202l-2 -25
h-678l3 25h282l-158 604h-518l-254 -504l220 -111l-3 -14h-481l4 25h183l665 1310l-96 117l2 14h246zM496 651h499l-170 656zM698 -168q39 0 68 -29.5t29 -70.5q0 -54 -37 -93.5t-88 -39.5q-40 0 -69.5 29.5t-29.5 70.5q0 54 37.5 93.5t89.5 39.5z" />
    <glyph glyph-name="uni1EB7" unicode="&#x1eb7;" horiz-adv-x="1079" 
d="M614 1130q-53 0 -94 23.5t-61 56.5t-32.5 66t-15.5 56l-3 24l10 6q2 -5 7 -13t23.5 -28.5t40 -36t59 -28.5t79.5 -13t83 12.5t69.5 29.5t50.5 34.5t33 30.5l11 12l11 -6q-3 -9 -9.5 -24.5t-30.5 -54.5t-52.5 -68.5t-76.5 -54t-102 -24.5zM1010 268l12 -10
q-108 -140 -178.5 -211.5t-110.5 -71.5q-38 0 -65 39t-27 95q0 114 88 497l-6 2q-158 -258 -250 -390.5t-153 -188.5t-113 -56q-72 0 -119 70.5t-47 179.5q0 127 54 267t137 251t190 183.5t207 72.5q51 0 182 -32l107 86l16 -7l-146 -987zM707 623l36 264q-110 74 -172 74
q-86 0 -169.5 -107t-133 -258.5t-49.5 -284.5q0 -83 25.5 -132.5t66.5 -49.5q51 0 131 100t265 394zM391 -168q39 0 67.5 -29.5t28.5 -70.5q0 -54 -37 -93.5t-88 -39.5q-40 0 -69 29.5t-29 70.5q0 54 37.5 93.5t89.5 39.5z" />
    <glyph glyph-name="uni1EB8" unicode="&#x1eb8;" horiz-adv-x="1335" 
d="M-4 0l2 14l211 99l166 1331h-191l2 22h1080l-43 -391l-17 -2l-125 369l-526 2l-84 -670h266l150 232h12l-61 -486h-23l31 228l-379 2l-90 -725l584 2l278 393l16 -4l-106 -416h-1153zM592 -401q-40 0 -69 29.5t-29 70.5q0 54 37.5 93.5t89.5 39.5q39 0 67.5 -29.5
t28.5 -70.5q0 -54 -37 -93.5t-88 -39.5z" />
    <glyph glyph-name="uni1EB9" unicode="&#x1eb9;" horiz-adv-x="864" 
d="M416 117q56 0 138 46.5t241 170.5l12 -12q-166 -199 -264 -274t-193 -75q-135 0 -217 92.5t-82 243.5q0 125 50.5 252.5t126.5 222t168 154t173 59.5q98 0 169 -56t71 -122q0 -88 -130.5 -160t-442.5 -155q-11 -86 -11 -139q0 -114 51.5 -181t139.5 -67zM512 967
q-104 -58 -174.5 -176.5t-97.5 -266.5q236 89 325.5 149t89.5 128q0 45 -39 92t-104 74zM383 -168q39 0 67.5 -29.5t28.5 -70.5q0 -54 -37 -93.5t-88 -39.5q-40 0 -69 29.5t-29 70.5q0 54 37.5 93.5t89.5 39.5z" />
    <glyph glyph-name="uni1EBC" unicode="&#x1ebc;" horiz-adv-x="1335" 
d="M446 1622l-18 10q74 122 116 163.5t91 41.5q40 0 187 -52t182 -52q27 0 50.5 18.5t65.5 73.5l19 -10q-74 -122 -116 -163.5t-91 -41.5q-40 0 -187 52t-182 52q-27 0 -51 -18.5t-66 -73.5zM-4 0l2 14l211 99l166 1331h-191l2 22h1080l-43 -391l-17 -2l-125 369l-526 2
l-84 -670h266l150 232h12l-61 -486h-23l31 228l-379 2l-90 -725l584 2l278 393l16 -4l-106 -416h-1153z" />
    <glyph glyph-name="uni1EBD" unicode="&#x1ebd;" horiz-adv-x="864" 
d="M401 1253q-23 0 -45 -18t-65 -72l-15 8q72 122 110 162.5t79 40.5q38 0 156.5 -51t150.5 -51q23 0 44.5 18.5t62.5 73.5l16 -8q-72 -125 -109.5 -165t-78.5 -40q-38 0 -156 51t-150 51zM809 819q0 -88 -130.5 -160t-442.5 -155q-11 -86 -11 -139q0 -114 51.5 -181
t139.5 -67q56 0 138 46.5t241 170.5l12 -12q-166 -199 -264 -274t-193 -75q-135 0 -217 92.5t-82 243.5q0 125 50.5 252.5t126.5 222t168 154t173 59.5q98 0 169 -56t71 -122zM512 967q-104 -58 -174.5 -176.5t-97.5 -266.5q236 89 325.5 149t89.5 128q0 45 -39 92t-104 74z
" />
    <glyph glyph-name="uni1EC6" unicode="&#x1ec6;" horiz-adv-x="1335" 
d="M483 1587l-8 15l301 241h17l245 -244l-10 -12l-258 111zM-4 0l2 14l211 99l166 1331h-191l2 22h1080l-43 -391l-17 -2l-125 369l-526 2l-84 -670h266l150 232h12l-61 -486h-23l31 228l-379 2l-90 -725l584 2l278 393l16 -4l-106 -416h-1153zM592 -401q-40 0 -69 29.5
t-29 70.5q0 54 37.5 93.5t89.5 39.5q39 0 67.5 -29.5t28.5 -70.5q0 -54 -37 -93.5t-88 -39.5z" />
    <glyph glyph-name="uni1EC7" unicode="&#x1ec7;" horiz-adv-x="864" 
d="M616 1425l205 -303l-10 -10l-217 164l-272 -164l-7 10l287 303h14zM809 819q0 -88 -130.5 -160t-442.5 -155q-11 -86 -11 -139q0 -114 51.5 -181t139.5 -67q56 0 138 46.5t241 170.5l12 -12q-166 -199 -264 -274t-193 -75q-135 0 -217 92.5t-82 243.5q0 125 50.5 252.5
t126.5 222t168 154t173 59.5q98 0 169 -56t71 -122zM512 967q-104 -58 -174.5 -176.5t-97.5 -266.5q236 89 325.5 149t89.5 128q0 45 -39 92t-104 74zM395 -172q39 0 68 -29.5t29 -70.5q0 -54 -37 -92.5t-88 -38.5q-40 0 -69.5 29.5t-29.5 70.5q0 54 37.5 92.5t89.5 38.5z
" />
    <glyph glyph-name="uni1ECA" unicode="&#x1eca;" horiz-adv-x="718" 
d="M4 0l4 14l201 99l164 1329h-191l2 24h570l-2 -14l-203 -94l-166 -1333h227l-2 -25h-604zM260 -401q-40 0 -69 29.5t-29 70.5q0 54 37.5 93.5t89.5 39.5q39 0 67.5 -29.5t28.5 -70.5q0 -54 -37 -93.5t-88 -39.5z" />
    <glyph glyph-name="uni1ECB" unicode="&#x1ecb;" horiz-adv-x="602" 
d="M381 1143q-40 0 -69 29.5t-29 70.5q0 54 38 92.5t89 38.5q40 0 69 -29.5t29 -70.5q0 -54 -38 -92.5t-89 -38.5zM258 -25q-44 0 -76 50t-22 116l112 770l-202 -194l-13 12q193 254 273 254q40 0 72 -50.5t22 -115.5l-111 -760l222 211l12 -10q-108 -140 -178.5 -211.5
t-110.5 -71.5zM197 -406q-40 0 -69.5 30t-29.5 71q0 54 37.5 93.5t89.5 39.5q39 0 68 -29.5t29 -70.5q0 -54 -37 -94t-88 -40z" />
    <glyph glyph-name="uni1ECC" unicode="&#x1ecc;" horiz-adv-x="1456" 
d="M641 -27q-233 0 -377.5 169.5t-144.5 443.5q0 127 36.5 257.5t106 245.5t162 205.5t213.5 143.5t252 53q233 0 376.5 -167t143.5 -439q0 -129 -34.5 -259t-102 -247t-159 -208t-214 -144.5t-258.5 -53.5zM700 6q89 0 166 40.5t132 109.5t98.5 157t69.5 187.5t39.5 196
t13.5 186.5q0 260 -115 419.5t-299 159.5q-232 -100 -364 -326t-132 -546q0 -266 106.5 -425t284.5 -159zM641 -401q-40 0 -69 29.5t-29 70.5q0 54 37.5 93.5t89.5 39.5q39 0 67.5 -29.5t28.5 -70.5q0 -54 -37 -93.5t-88 -39.5z" />
    <glyph glyph-name="uni1ECD" unicode="&#x1ecd;" horiz-adv-x="966" 
d="M389 -27q-149 0 -241.5 104.5t-92.5 274.5q0 142 79.5 293.5t203.5 251.5t242 100q148 0 239.5 -104.5t91.5 -271.5q0 -145 -74.5 -296t-197.5 -251.5t-250 -100.5zM444 14q83 0 151 82.5t105 215t37 284.5q0 172 -60.5 270.5t-164.5 98.5q-125 -62 -204 -226t-79 -366
q0 -165 58.5 -262t156.5 -97zM373 -403q-41 0 -71 29.5t-30 70.5q0 54 38 92.5t91 38.5q39 0 68 -29.5t29 -70.5q0 -54 -37 -92.5t-88 -38.5z" />
    <glyph glyph-name="uni1ED8" unicode="&#x1ed8;" horiz-adv-x="1456" 
d="M606 1587l-8 15l301 241h16l246 -244l-10 -12l-258 111zM641 -27q-233 0 -377.5 169.5t-144.5 443.5q0 127 36.5 257.5t106 245.5t162 205.5t213.5 143.5t252 53q233 0 376.5 -167t143.5 -439q0 -129 -34.5 -259t-102 -247t-159 -208t-214 -144.5t-258.5 -53.5zM700 6
q89 0 166 40.5t132 109.5t98.5 157t69.5 187.5t39.5 196t13.5 186.5q0 260 -115 419.5t-299 159.5q-232 -100 -364 -326t-132 -546q0 -266 106.5 -425t284.5 -159zM641 -401q-40 0 -69 29.5t-29 70.5q0 54 37.5 93.5t89.5 39.5q39 0 67.5 -29.5t28.5 -70.5q0 -54 -37 -93.5
t-88 -39.5z" />
    <glyph glyph-name="uni1ED9" unicode="&#x1ed9;" horiz-adv-x="966" 
d="M612 1425h15l204 -303l-10 -10l-217 164l-272 -164l-6 10zM389 -27q-149 0 -241.5 104.5t-92.5 274.5q0 142 79.5 293.5t203.5 251.5t242 100q148 0 239.5 -104.5t91.5 -271.5q0 -145 -74.5 -296t-197.5 -251.5t-250 -100.5zM444 14q83 0 151 82.5t105 215t37 284.5
q0 172 -60.5 270.5t-164.5 98.5q-125 -62 -204 -226t-79 -366q0 -165 58.5 -262t156.5 -97zM371 -403q-40 0 -69.5 29.5t-29.5 70.5q0 54 37.5 92.5t89.5 38.5q39 0 68 -29.5t29 -70.5q0 -54 -37 -92.5t-88 -38.5z" />
    <glyph glyph-name="uni1EE4" unicode="&#x1ee4;" horiz-adv-x="1581" 
d="M774 -29q-588 0 -502 660l103 813h-197l2 22h576l-4 -22h-197l-104 -823q-37 -297 57 -431.5t338 -134.5q223 0 355 142t167 424l102 823h-223l2 22h439l-2 -14l-201 -94l-92 -727q-85 -660 -619 -660zM739 -401q-40 0 -69 29.5t-29 70.5q0 54 37.5 93.5t89.5 39.5
q39 0 67.5 -29.5t28.5 -70.5q0 -54 -37 -93.5t-88 -39.5z" />
    <glyph glyph-name="uni1EE5" unicode="&#x1ee5;" horiz-adv-x="1146" 
d="M1079 276l13 -12q-108 -143 -180 -216t-113 -73q-38 0 -64 46.5t-26 95.5q0 73 88 461l-9 4q-138 -242 -226.5 -373.5t-145.5 -182.5t-107 -51q-79 0 -120 91.5t-17 236.5l104 619l-206 -205l-13 12q202 266 273 266q41 0 74 -53.5t22 -120.5l-88 -522
q-18 -104 -7 -160.5t50 -56.5q47 0 129.5 110.5t259.5 399.5l55 379h166l-131 -905zM506 -168q39 0 67.5 -29.5t28.5 -70.5q0 -54 -37 -93.5t-88 -39.5q-40 0 -69 29.5t-29 70.5q0 54 37.5 93.5t89.5 39.5z" />
    <glyph glyph-name="Ygrave" unicode="&#x1ef2;" horiz-adv-x="1572" 
d="M1030 1602l-10 -13l-385 242l8 16h197zM1206 1466h473l-2 -22h-176l-577 -817l-76 -602h225l-2 -25h-602l2 14l209 99l63 503l-385 828h-180l2 22h643l-4 -22h-256l352 -791l490 699l-201 100z" />
    <glyph glyph-name="ygrave" unicode="&#x1ef3;" horiz-adv-x="1021" 
d="M680 1108l-16 -10l-295 305l8 16h180zM946 995q74 -142 74 -190q0 -35 -74.5 -181.5t-189.5 -335.5t-239.5 -371t-240 -306.5t-174.5 -124.5q-86 0 -204 41l86 186h14l133 -114q241 140 408 389h-119q-49 568 -176 899l-172 -170l-13 12q82 119 154 192.5t111 73.5
q57 0 109 -165t83 -378.5t45 -426.5q170 263 326 751l-111 111v14z" />
    <glyph glyph-name="uni1EF4" unicode="&#x1ef4;" horiz-adv-x="1572" 
d="M1206 1466h473l-2 -22h-176l-577 -817l-76 -602h225l-2 -25h-602l2 14l209 99l63 503l-385 828h-180l2 22h643l-4 -22h-256l352 -791l490 699l-201 100zM754 -168q39 0 67.5 -29.5t28.5 -70.5q0 -54 -37 -93.5t-88 -39.5q-40 0 -69 29.5t-29 70.5q0 54 37.5 93.5
t89.5 39.5z" />
    <glyph glyph-name="uni1EF5" unicode="&#x1ef5;" horiz-adv-x="1021" 
d="M946 995q74 -142 74 -190q0 -35 -74.5 -181.5t-189.5 -335.5t-239.5 -371t-240 -306.5t-174.5 -124.5q-86 0 -204 41l86 186h14l133 -114q241 140 408 389h-119q-49 568 -176 899l-172 -170l-13 12q82 119 154 192.5t111 73.5q57 0 109 -165t83 -378.5t45 -426.5
q170 263 326 751l-111 111v14zM748 -168q39 0 67.5 -29.5t28.5 -70.5q0 -54 -37 -93.5t-88 -39.5q-40 0 -69 29.5t-29 70.5q0 54 37.5 93.5t89.5 39.5z" />
    <glyph glyph-name="uni1EF8" unicode="&#x1ef8;" horiz-adv-x="1572" 
d="M758 1714q-27 0 -51 -18.5t-66 -73.5l-18 10q74 122 115.5 163.5t90.5 41.5q40 0 187 -52t182 -52q27 0 51 18.5t66 73.5l18 -10q-74 -122 -116 -163.5t-91 -41.5q-40 0 -186.5 52t-181.5 52zM1206 1466h473l-2 -22h-176l-577 -817l-76 -602h225l-2 -25h-602l2 14l209 99
l63 503l-385 828h-180l2 22h643l-4 -22h-256l352 -791l490 699l-201 100z" />
    <glyph glyph-name="uni1EF9" unicode="&#x1ef9;" horiz-adv-x="1021" 
d="M459 1253q-23 0 -46 -18t-65 -72l-14 8q72 122 109.5 162.5t78.5 40.5q38 0 156.5 -51t150.5 -51q23 0 44.5 18.5t62.5 73.5l16 -8q-72 -125 -109.5 -165t-78.5 -40q-38 0 -155.5 51t-149.5 51zM946 995q74 -142 74 -190q0 -35 -74.5 -181.5t-189.5 -335.5t-239.5 -371
t-240 -306.5t-174.5 -124.5q-86 0 -204 41l86 186h14l133 -114q241 140 408 389h-119q-49 568 -176 899l-172 -170l-13 12q82 119 154 192.5t111 73.5q57 0 109 -165t83 -378.5t45 -426.5q170 263 326 751l-111 111v14z" />
    <glyph glyph-name="uni2002" unicode="&#x2002;" horiz-adv-x="1228" 
 />
    <glyph glyph-name="uni2003" unicode="&#x2003;" horiz-adv-x="1228" 
 />
    <glyph glyph-name="uni2004" unicode="&#x2004;" horiz-adv-x="1228" 
 />
    <glyph glyph-name="uni2005" unicode="&#x2005;" horiz-adv-x="1228" 
 />
    <glyph glyph-name="uni2006" unicode="&#x2006;" horiz-adv-x="1228" 
 />
    <glyph glyph-name="uni2007" unicode="&#x2007;" horiz-adv-x="1228" 
 />
    <glyph glyph-name="uni2008" unicode="&#x2008;" horiz-adv-x="1228" 
 />
    <glyph glyph-name="uni2009" unicode="&#x2009;" horiz-adv-x="1228" 
 />
    <glyph glyph-name="uni200A" unicode="&#x200a;" horiz-adv-x="1228" 
 />
    <glyph glyph-name="endash" unicode="&#x2013;" horiz-adv-x="964" 
d="M133 459l14 92l693 27l-17 -119h-690z" />
    <glyph glyph-name="emdash" unicode="&#x2014;" horiz-adv-x="1380" 
d="M133 459l14 92l1108 27l-16 -119h-1106z" />
    <glyph glyph-name="quoteleft" unicode="&#x2018;" horiz-adv-x="473" 
d="M530 1501q-83 -131 -113 -195t-30 -108q0 -39 33 -90l-2 -14l-178 -125q-52 89 -52 127q0 58 73.5 151t254.5 264z" />
    <glyph glyph-name="quoteright" unicode="&#x2019;" horiz-adv-x="473" 
d="M166 981q84 132 113.5 195t29.5 108q0 37 -35 88l5 14l176 125q51 -80 51 -125q0 -59 -73.5 -153.5t-252.5 -261.5z" />
    <glyph glyph-name="quotesinglbase" unicode="&#x201a;" horiz-adv-x="526" 
d="M6 -283q84 133 114 196t30 107q0 40 -33 89l2 16l176 123q53 -83 53 -125q0 -59 -74.5 -153.5t-253.5 -262.5z" />
    <glyph glyph-name="quotedblleft" unicode="&#x201c;" horiz-adv-x="784" 
d="M530 1497q-84 -131 -114.5 -195t-30.5 -108q0 -36 35 -88l-2 -16l-178 -123q-52 81 -52 125q0 59 73.5 152t254.5 263zM842 1497q-84 -132 -114 -196t-30 -107q0 -40 35 -88l-4 -16l-176 -123q-51 80 -51 125q0 59 73 152.5t252 262.5z" />
    <glyph glyph-name="quotedblright" unicode="&#x201d;" horiz-adv-x="784" 
d="M166 981q84 132 113.5 195t29.5 108q0 37 -35 88l5 14l176 125q51 -80 51 -125q0 -59 -73.5 -153.5t-252.5 -261.5zM477 981q86 133 116 195.5t30 107.5q0 33 -35 88l2 14l178 125q51 -80 51 -125q0 -59 -74 -153.5t-253 -261.5z" />
    <glyph glyph-name="quotedblbase" unicode="&#x201e;" horiz-adv-x="839" 
d="M6 -283q84 133 114 196t30 107q0 40 -33 89l2 16l176 123q53 -83 53 -125q0 -59 -74.5 -153.5t-253.5 -262.5zM319 -283q84 133 114 196t30 107q0 41 -35 89l4 16l176 123q51 -80 51 -125q0 -59 -73.5 -154t-251.5 -262z" />
    <glyph glyph-name="dagger" unicode="&#x2020;" horiz-adv-x="1069" 
d="M614 1075l-28 377l8 14h166l8 -14l-139 -377h-15zM176 940l-14 10l24 166l15 8l366 -84l-2 -14zM1028 940l-366 86l2 14l391 84l12 -8l-25 -166zM416 -270l51 901l133 358h14l29 -358l-213 -901h-14z" />
    <glyph glyph-name="daggerdbl" unicode="&#x2021;" horiz-adv-x="1069" 
d="M614 1075l-28 377l8 14h166l8 -14l-139 -377h-15zM176 940l-14 10l26 166l13 8l366 -84l-2 -14zM1028 940l-366 86l2 14l391 84l14 -8l-27 -166zM485 207l-22 391l137 391h14l25 -391l-139 -391h-15zM47 72l-12 10l24 166l15 8l366 -84l-2 -14zM901 72l-366 86l2 14
l391 84l12 -8l-25 -166zM342 -270l-8 14l139 379h14l31 -379l-8 -14h-168z" />
    <glyph glyph-name="bullet" unicode="&#x2022;" horiz-adv-x="692" 
d="M324 281q-71 0 -122.5 52t-51.5 124q0 94 67 163.5t158 69.5q69 0 119.5 -52t50.5 -124q0 -95 -65.5 -164t-155.5 -69z" />
    <glyph glyph-name="ellipsis" unicode="&#x2026;" horiz-adv-x="1374" 
d="M221 -25q-43 0 -75.5 33t-32.5 78q0 59 42 102t99 43q43 0 74.5 -32.5t31.5 -77.5q0 -58 -41.5 -102t-97.5 -44zM616 -25q-44 0 -76 32.5t-32 78.5q0 59 41.5 102t99.5 43q42 0 73.5 -32.5t31.5 -77.5q0 -59 -41.5 -102.5t-96.5 -43.5zM1010 -25q-43 0 -76 33t-33 78
q0 59 42 102t99 43q43 0 75 -32.5t32 -77.5q0 -58 -41.5 -102t-97.5 -44z" />
    <glyph glyph-name="perthousand" unicode="&#x2030;" horiz-adv-x="2856" 
d="M428 0l1200 1417h35l-1200 -1417h-35zM451 494q-135 0 -220.5 91.5t-85.5 237.5q0 128 62 261t171 224t230 91q134 0 220.5 -90t86.5 -234q0 -97 -37.5 -200.5t-99 -187.5t-148.5 -138.5t-179 -54.5zM465 510q69 0 128 61.5t94.5 154t55 192t19.5 184.5q0 130 -45 205
t-121 75q-57 0 -107 -40t-84 -103.5t-58.5 -142.5t-36 -156t-11.5 -145q0 -131 45 -208t121 -77zM1452 -16q-135 0 -220 91.5t-85 237.5q0 128 62 261t171 224t230 91q134 0 220.5 -90t86.5 -234q0 -97 -37.5 -200.5t-99 -187.5t-149 -138.5t-179.5 -54.5zM2308 -16
q-134 0 -219.5 91.5t-85.5 237.5q0 95 37.5 197.5t99 186.5t149 138t179.5 54q134 0 219.5 -90t85.5 -234q0 -97 -37.5 -200.5t-99 -187.5t-149 -138.5t-179.5 -54.5zM1466 0q69 0 128 61.5t94.5 154t55 192t19.5 184.5q0 130 -45 205t-121 75q-57 0 -107 -40t-84 -103.5
t-58.5 -142.5t-36 -156t-11.5 -145q0 -131 45 -208t121 -77zM2322 0q70 0 129 61.5t94 154t54.5 192t19.5 184.5q0 130 -45 205t-120 75q-70 0 -129 -60.5t-94 -152t-54.5 -190t-19.5 -184.5q0 -131 44.5 -208t120.5 -77z" />
    <glyph glyph-name="uni2031" unicode="&#x2031;" horiz-adv-x="3758" 
d="M428 0l1200 1417h35l-1200 -1417h-35zM451 494q-135 0 -220.5 91.5t-85.5 237.5q0 128 62 261t171 224t230 91q134 0 220.5 -90t86.5 -234q0 -97 -37.5 -200.5t-99 -187.5t-148.5 -138.5t-179 -54.5zM465 510q69 0 128 61.5t94.5 154t55 192t19.5 184.5q0 130 -45 205
t-121 75q-57 0 -107 -40t-84 -103.5t-58.5 -142.5t-36 -156t-11.5 -145q0 -131 45 -208t121 -77zM1452 -16q-135 0 -220 91.5t-85 237.5q0 128 62 261t171 224t230 91q134 0 220.5 -90t86.5 -234q0 -97 -37.5 -200.5t-99 -187.5t-149 -138.5t-179.5 -54.5zM2308 -16
q-134 0 -219.5 91.5t-85.5 237.5q0 95 37.5 197.5t99 186.5t149 138t179.5 54q134 0 219.5 -90t85.5 -234q0 -97 -37.5 -200.5t-99 -187.5t-149 -138.5t-179.5 -54.5zM3209 -16q-135 0 -220 91.5t-85 237.5q0 95 37.5 197.5t99 186.5t149 138t179.5 54q134 0 219.5 -90
t85.5 -234q0 -97 -37.5 -200.5t-99 -187.5t-149 -138.5t-179.5 -54.5zM1466 0q69 0 128 61.5t94.5 154t55 192t19.5 184.5q0 130 -45 205t-121 75q-57 0 -107 -40t-84 -103.5t-58.5 -142.5t-36 -156t-11.5 -145q0 -131 45 -208t121 -77zM2322 0q70 0 129 61.5t94 154
t54.5 192t19.5 184.5q0 130 -45 205t-120 75q-70 0 -129 -60.5t-94 -152t-54.5 -190t-19.5 -184.5q0 -131 44.5 -208t120.5 -77zM3224 0q69 0 128 61.5t94.5 154t55 192t19.5 184.5q0 130 -45 205t-121 75q-70 0 -129 -60.5t-94 -152t-54.5 -190t-19.5 -184.5
q0 -131 45 -208t121 -77z" />
    <glyph glyph-name="guilsinglleft" unicode="&#x2039;" horiz-adv-x="514" 
d="M473 870l14 -12l-231 -360l123 -365l-14 -6l-308 371z" />
    <glyph glyph-name="guilsinglright" unicode="&#x203a;" horiz-adv-x="514" 
d="M43 127l-14 10l233 361l-123 364l15 8l307 -372z" />
    <glyph glyph-name="fraction" unicode="&#x2044;" horiz-adv-x="262" 
d="M-455 0l1203 1417h34l-1200 -1417h-37z" />
    <glyph glyph-name="franc" unicode="&#x20a3;" horiz-adv-x="1273" 
d="M242 1417h1030l-41 -391l-19 -2l-116 369l-502 2l-92 -690h272l144 223h14l-66 -490h-20l31 240l-377 2l-41 -313h221l-2 -25h-223l-41 -319h270l-2 -23h-631l2 14l201 95l31 233h-166l2 25h166l135 1028h-182z" />
    <glyph glyph-name="Euro" unicode="&#x20ac;" horiz-adv-x="1511" 
d="M1104 80l260 395l14 -2l-90 -369q-256 -131 -444 -131q-227 0 -369 151.5t-153 399.5h-207l2 23h205v14q0 167 40 309h-196l2 25h201q74 245 245 395t402 150q169 0 399 -72l-49 -352l-16 -4l-111 350q-117 57 -231 57q-93 0 -171.5 -40t-136 -112.5t-99 -165.5
t-66.5 -206h532l-10 -25h-529q-30 -153 -30 -323h438l-8 -23h-430q5 -235 101.5 -381.5t256.5 -146.5q72 0 129 20t119 64z" />
    <glyph glyph-name="uni2116" unicode="&#x2116;" horiz-adv-x="2273" 
d="M1925 887q-108 0 -178 70t-70 178q0 93 58.5 192t147 163t169.5 64q108 0 177 -69t69 -178q0 -96 -55 -194.5t-143 -162t-175 -63.5zM1964 913q52 0 95 59.5t65 147.5t22 180q0 109 -38 169.5t-105 60.5q-77 -39 -126.5 -152t-49.5 -241q0 -105 37.5 -164.5t99.5 -59.5z
M-4 0l2 14l215 99l158 1220l-127 119l2 14h268l731 -1255l160 1233h-217l4 22h422l-2 -14l-193 -94l-178 -1358h-92l-762 1300l-164 -1275h217l-2 -25h-442zM1602 627l4 24h559l-2 -24h-561z" />
    <glyph glyph-name="uni2117" unicode="&#x2117;" horiz-adv-x="1708" 
d="M795 -25q-194 0 -347.5 85.5t-238 235t-84.5 335.5q0 240 111 436.5t309.5 310t445.5 113.5q193 0 345.5 -84t236.5 -231.5t84 -331.5q0 -243 -110.5 -442t-308 -313t-443.5 -114zM795 -2q178 0 333.5 64.5t266 176.5t174 269t63.5 336t-82 321.5t-228.5 222.5t-330.5 80
q-178 0 -334.5 -64t-267.5 -174.5t-175 -266t-64 -332.5q0 -275 182 -454t463 -179zM475 309l2 10l125 56l115 768h-113l2 16h400q153 0 233 -50t80 -146q0 -114 -122 -191.5t-347 -103.5v12q153 28 237 103t84 184q0 86 -44 131t-126 45h-137l-123 -817h123l-2 -17h-387z
" />
    <glyph glyph-name="uni2120" unicode="&#x2120;" horiz-adv-x="2330" 
d="M522 887q-144 0 -362 51l112 231l13 -4l16 -198q9 -7 27.5 -17.5t79.5 -27.5t129 -17q118 0 192 57.5t74 151.5q0 64 -39 103t-119 65l-168 57q-205 70 -205 224q0 132 112.5 213.5t297.5 81.5q137 0 322 -43l-101 -213h-10l-25 186q-8 6 -23.5 15t-66.5 23.5t-106 14.5
q-111 0 -180.5 -55t-69.5 -146q0 -56 37.5 -93t124.5 -68l168 -58q217 -76 217 -229q0 -138 -122.5 -221.5t-324.5 -83.5zM999 903v12l146 64l139 760l-76 92l2 10h205l275 -610l438 610h186l-2 -16h-92l-57 -905h137l-2 -17h-436v17h143l47 778l-453 -631h-12l-291 635
l-141 -782h172v-17h-328z" />
    <glyph glyph-name="trademark" unicode="&#x2122;" horiz-adv-x="2455" 
d="M410 903l2 12l137 62l102 848l-211 -2l-176 -275l-14 2l49 291h885l-35 -291l-14 -2l-101 275l-217 2l-108 -905h165l-2 -17h-462zM1124 903v12l146 64l139 760l-74 92v10h205l277 -610l438 610h184l-2 -16h-92l-55 -905h135l-2 -17h-436l2 17h141l47 778l-451 -631h-12
l-291 635l-143 -782h172v-17h-328z" />
    <glyph glyph-name="oneeighth" unicode="&#x215b;" horiz-adv-x="1748" 
d="M487 526l-4 -16h-434l2 12l150 51l116 738h-141l2 12l295 119l12 -6l-143 -910h145zM1425 1417h35l-1200 -1417h-35zM1446 522q106 -65 153.5 -122t47.5 -121q0 -100 -121 -189.5t-269 -89.5q-116 0 -200 54t-84 126q0 121 215 256l6 -6q-123 -126 -123 -233
q0 -73 62 -125t147 -52q90 0 152.5 61t62.5 140q0 52 -40.5 96t-141.5 103q-110 64 -159.5 124.5t-49.5 131.5q0 95 99.5 178.5t219.5 83.5q94 0 164 -48t70 -112q0 -111 -211 -256zM1237 739q0 -51 40 -96t138 -102q14 -9 19 -11q131 159 131 244q0 59 -48 102.5t-114 43.5
q-73 0 -119.5 -53.5t-46.5 -127.5z" />
    <glyph glyph-name="threeeighths" unicode="&#x215c;" horiz-adv-x="1867" 
d="M727 817q0 -138 -126.5 -230.5t-315.5 -92.5q-100 0 -189 26l6 119l11 4l213 -119q107 22 174 98t67 179q0 179 -180 246l2 10l270 252l-274 92l-170 -248l-8 2l49 262h537l2 -12l-383 -350q160 -23 237.5 -81.5t77.5 -156.5zM1544 1417h35l-1200 -1417h-35zM1565 522
q106 -65 153 -122t47 -121q0 -100 -120.5 -189.5t-268.5 -89.5q-116 0 -200 54t-84 126q0 121 215 256l6 -6q-123 -126 -123 -233q0 -73 62 -125t147 -52q90 0 152.5 61t62.5 140q0 52 -40.5 96t-141.5 103q-110 64 -159.5 124.5t-49.5 131.5q0 95 99.5 178.5t219.5 83.5
q94 0 164 -48t70 -112q0 -111 -211 -256zM1356 739q0 -51 40 -96t138 -102q15 -10 18 -11q131 159 131 244q0 59 -47.5 102.5t-113.5 43.5q-73 0 -119.5 -53.5t-46.5 -127.5z" />
    <glyph glyph-name="fiveeighths" unicode="&#x215d;" horiz-adv-x="1839" 
d="M696 823q0 -146 -120 -237.5t-312 -91.5q-91 0 -184 26l8 117l8 6l213 -117q104 20 167 97t63 188q0 112 -79.5 174.5t-236.5 83.5l-8 10l102 338h406l-23 -153l-12 -7l-358 146l-97 -322q463 -6 463 -258zM1516 1417h34l-1200 -1417h-35zM1536 522q106 -65 153.5 -122
t47.5 -121q0 -100 -120.5 -189.5t-268.5 -89.5q-116 0 -200.5 54t-84.5 126q0 121 215 256l6 -6q-123 -126 -123 -233q0 -73 62 -125t147 -52q90 0 152.5 61t62.5 140q0 52 -40.5 96t-141.5 103q-110 64 -159.5 124.5t-49.5 131.5q0 95 99.5 178.5t219.5 83.5q94 0 164 -48
t70 -112q0 -111 -211 -256zM1327 739q0 -51 40 -96t138 -102q14 -9 19 -11q131 159 131 244q0 59 -48 102.5t-114 43.5q-73 0 -119.5 -53.5t-46.5 -127.5z" />
    <glyph glyph-name="seveneighths" unicode="&#x215e;" horiz-adv-x="1660" 
d="M842 1405l-525 -895h-206l2 12l647 768l-408 113l-170 -250l-12 2l51 262h617zM1337 1417h35l-1200 -1417h-35zM1358 522q106 -65 153.5 -122t47.5 -121q0 -100 -121 -189.5t-269 -89.5q-116 0 -200 54t-84 126q0 121 215 256l6 -6q-123 -126 -123 -233q0 -73 62 -125
t147 -52q90 0 152.5 61t62.5 140q0 52 -40.5 96t-141.5 103q-110 64 -159.5 124.5t-49.5 131.5q0 95 99.5 178.5t219.5 83.5q94 0 164 -48t70 -112q0 -111 -211 -256zM1149 739q0 -51 40 -96t138 -102q14 -9 19 -11q131 159 131 244q0 59 -48 102.5t-114 43.5
q-73 0 -119.5 -53.5t-46.5 -127.5z" />
    <glyph glyph-name="arrowleft" unicode="&#x2190;" horiz-adv-x="1302" 
d="M1225 817h14l-33 -213h-14l-858 98h-15l238 -477l-14 -10l-422 496l567 493l12 -10l-378 -475h16z" />
    <glyph glyph-name="arrowup" unicode="&#x2191;" horiz-adv-x="1398" 
d="M1235 766l-12 -12l-435 307l-2 -17l-28 -872l-2 -14h-213l2 14l225 872l2 15l-516 -305l-8 12l553 494z" />
    <glyph glyph-name="arrowright" unicode="&#x2192;" horiz-adv-x="1521" 
d="M1010 1204l422 -493l-566 -496l-14 12l379 475h-14l-887 -98h-15l31 213h16l857 -98h14l-238 477z" />
    <glyph glyph-name="arrowdown" unicode="&#x2193;" horiz-adv-x="1398" 
d="M1212 666l7 -13l-555 -495l-433 495l13 13l432 -310l2 17l27 872l4 15h211l-2 -15l-226 -872l-2 -17z" />
    <glyph glyph-name="arrowboth" unicode="&#x2194;" horiz-adv-x="1835" 
d="M1329 1204l422 -493l-567 -496l-13 12l371 467h-1188l236 -469l-15 -10l-423 496l569 493l12 -10l-375 -467h1188l-231 469z" />
    <glyph glyph-name="arrowupdn" unicode="&#x2195;" horiz-adv-x="1085" 
d="M1108 1026l-422 301l-174 -1186l508 301l10 -12l-561 -496l-428 496l12 12l424 -299l174 1186l-512 -303l-8 12l561 496l426 -496z" />
    <glyph glyph-name="partialdiff" unicode="&#x2202;" horiz-adv-x="1046" 
d="M399 -25q-141 0 -229 85t-88 221q0 191 149.5 344t427.5 247l7 -12q-414 -220 -414 -553q0 -139 53 -216t148 -77q157 0 237 152.5t80 439.5q0 202 -80 413t-235 408l10 13q226 -170 351.5 -370.5t125.5 -389.5q0 -191 -72.5 -353t-197.5 -257t-273 -95z" />
    <glyph glyph-name="emptyset" unicode="&#x2205;" horiz-adv-x="1316" 
d="M1243 1208l-139 -149q102 -117 102 -285q0 -162 -73.5 -293t-203.5 -205.5t-290 -74.5q-102 0 -191 38t-153 105l-156 -135l142 151q-103 128 -103 289q0 160 74.5 290t205 204t290.5 74q103 0 191 -37.5t151 -104.5zM213 651q0 -151 92 -264l4 4l756 660
q-123 133 -322 133q-227 0 -378.5 -152t-151.5 -381zM1171 772q0 150 -92 262l-6 -8l-751 -657q126 -136 321 -136q149 0 270 70.5t189.5 193.5t68.5 275z" />
    <glyph glyph-name="minus" unicode="&#x2212;" horiz-adv-x="958" 
d="M150 692l6 35h721l-7 -35h-720z" />
    <glyph glyph-name="infinity" unicode="&#x221e;" horiz-adv-x="1730" 
d="M1350 1079q140 0 217.5 -82t77.5 -231q0 -189 -112.5 -307.5t-291.5 -118.5q-71 0 -129 14.5t-98 38.5t-72.5 60t-52.5 73.5t-37 85.5q-41 -61 -78.5 -105.5t-86.5 -84.5t-107.5 -61t-124.5 -21q-140 0 -216.5 80.5t-76.5 228.5q0 191 112 310.5t293 119.5q88 0 155 -21
t111 -61.5t71.5 -85t49.5 -104.5q41 61 78.5 105t86 84.5t107 61.5t124.5 21zM1251 365q162 0 265.5 111.5t103.5 285.5q0 142 -69.5 218.5t-202.5 76.5q-64 0 -119.5 -21t-103.5 -63.5t-83 -85.5t-79 -107q11 -34 25 -84.5t23.5 -85t24.5 -76t32.5 -69t42.5 -52t60 -36.5
t80 -12zM459 365q64 0 120 21t103.5 62t83.5 84t78 105q-13 37 -29.5 98t-27 99t-31 84.5t-44 73t-63 45t-90.5 18.5q-165 0 -270 -114t-105 -288q0 -139 71.5 -213.5t203.5 -74.5z" />
    <glyph glyph-name="approxequal" unicode="&#x2248;" horiz-adv-x="1019" 
d="M758 786q-34 0 -89 30.5t-104.5 67t-101.5 67t-80 30.5q-32 0 -63 -36.5t-97 -147.5l-28 16q73 120 111 159.5t83 39.5q42 0 118 -48t149 -96.5t108 -48.5q32 0 64.5 37t95.5 145l28 -16q-69 -119 -108 -159t-86 -40zM698 414q-34 0 -89.5 30.5t-104.5 66.5t-100.5 66.5
t-79.5 30.5q-32 0 -63 -36.5t-99 -147.5l-27 16q70 118 109.5 158.5t83.5 40.5q34 0 90 -30t105.5 -66.5t101.5 -66.5t80 -30q32 0 62.5 36t96.5 147l27 -17q-69 -119 -107.5 -158.5t-85.5 -39.5z" />
    <glyph glyph-name="notequal" unicode="&#x2260;" horiz-adv-x="1007" 
d="M922 885h-263l-208 -350h421l-6 -35h-436l-186 -312h-37l186 312h-248l7 35h262l209 350h-422l6 35h438l184 309h37l-184 -309h246z" />
    <glyph glyph-name="lessequal" unicode="&#x2264;" horiz-adv-x="1091" 
d="M907 348l-708 475l4 17l846 477l20 -29l-817 -459l674 -452zM86 100l4 35h789l-5 -35h-788z" />
    <glyph glyph-name="greaterequal" unicode="&#x2265;" horiz-adv-x="1085" 
d="M145 348l-20 29l819 459l-676 452l19 29l708 -475l-4 -17zM92 100l6 35h787l-4 -35h-789z" />
    <glyph glyph-name="Q.ss01" horiz-adv-x="1454" 
d="M717 -23q199 -129 425.5 -202t524.5 -105l-2 -14l-96 -168q-578 119 -869 408l-8 79q-18 -2 -51 -2q-233 0 -377.5 169.5t-144.5 443.5q0 127 36.5 257.5t106 245.5t162 205.5t213.5 143.5t252 53q233 0 376.5 -167t143.5 -439q0 -121 -30.5 -244t-91.5 -235.5
t-143 -203.5t-193 -151t-234 -74zM309 590q0 -266 106.5 -425t284.5 -159q89 0 166 40.5t132 109.5t98.5 157t69.5 187.5t39.5 196t13.5 186.5q0 260 -115 419.5t-299 159.5q-232 -100 -364 -326t-132 -546z" />
    <glyph glyph-name="Q.titl" horiz-adv-x="1456" 
d="M641 -27q-233 0 -377.5 169.5t-144.5 443.5q0 127 36.5 257.5t106 245.5t162 205.5t213.5 143.5t252 53q233 0 376.5 -167t143.5 -439q0 -129 -34.5 -259t-102 -247t-159 -208t-214 -144.5t-258.5 -53.5zM700 6q89 0 166 40.5t132 109.5t98.5 157t69.5 187.5t39.5 196
t13.5 186.5q0 260 -115 419.5t-299 159.5q-232 -100 -364 -326t-132 -546q0 -266 106.5 -425t284.5 -159zM1104 -322l-586 152v14h623l-21 -157z" />
    <glyph glyph-name="R.titl" horiz-adv-x="1470" 
d="M-6 0l2 14l213 99l166 1331h-195l2 22h639q231 0 356.5 -84t125.5 -239q0 -206 -174.5 -312t-548.5 -147l79 -109h181l405 -550h160l-2 -25h-363l-487 682l2 16q138 17 237 46.5t175.5 79.5t114.5 127.5t38 183.5q0 151 -82 230t-233 79h-250l-178 -1419h227l-4 -25h-606
z" />
    <glyph glyph-name="i.loclTRK" horiz-adv-x="602" 
d="M381 1143q-40 0 -69 29.5t-29 70.5q0 54 38 92.5t89 38.5q40 0 69 -29.5t29 -70.5q0 -54 -38 -92.5t-89 -38.5zM258 -25q-44 0 -76 50t-22 116l112 770l-202 -194l-13 12q193 254 273 254q40 0 72 -50.5t22 -115.5l-111 -760l222 211l12 -10q-108 -140 -178.5 -211.5
t-110.5 -71.5z" />
    <glyph glyph-name="H_H" horiz-adv-x="2525" 
d="M1069 1444l2 22h578l-2 -14l-193 -94l-168 -1333h217l-2 -25h-594l2 25h199l90 725h-733l-88 -725h217l-2 -25h-594l4 14l207 99l164 1331h-191l2 22h559l-2 -22h-190l-82 -670h733l84 670h-217zM2560 1452l-195 -94l-165 -1333h217l-4 -25h-594l2 25h200l90 725h-432
l4 24h431l84 670h-218l2 22h580z" />
    <glyph glyph-name="T_h" horiz-adv-x="2244" 
d="M2179 272l10 -10q-220 -287 -299 -287q-40 0 -64.5 51.5t-10.5 118.5l104 506q40 187 -31 267q-57 -40 -139.5 -151t-253.5 -390l-53 -363l-148 -28l-22 12l211 1442l-547 2l-176 -1417h256l-2 -25h-637l2 14l211 99l164 1329h-344l-236 -410l-18 2l69 432h1118l326 86
l14 -8l-102 -573q-22 -135 -113 -582l7 -2q208 351 313.5 479.5t179.5 128.5q47 0 82 -54t43.5 -132t-8.5 -166l-133 -586z" />
    <glyph glyph-name="c_b" horiz-adv-x="1857" 
d="M1636 997q82 0 131.5 -67.5t49.5 -181.5q0 -130 -53.5 -270.5t-136.5 -251t-190 -182t-208 -71.5q-68 0 -348 74l2 14l57 35l203 1377q-161 -64 -244.5 -152t-83.5 -191q0 -93 68 -182l-148 -284l-14 2l-2 219q-115 64 -205 78q-132 -72 -208.5 -238.5t-76.5 -359.5
q0 -114 51.5 -181t139.5 -67q52 0 129 40t235 148l13 -12q-159 -182 -254 -251t-189 -69q-135 0 -217 92.5t-82 243.5q0 101 30.5 204t84 188.5t120.5 152.5t145.5 105t154.5 38q56 0 129 -12v12q0 209 146.5 346.5t455.5 208.5l14 -8l-100 -573q-31 -176 -115 -586l8 -2
q195 338 309 476t199 138zM1282 8q87 0 171 107.5t133.5 258.5t49.5 283q0 161 -86 256q-150 -98 -403 -540l-41 -283q124 -82 176 -82z" />
    <glyph glyph-name="c_h" horiz-adv-x="1894" 
d="M1827 272l12 -10q-223 -287 -301 -287q-38 0 -63.5 52t-12.5 118l107 506q41 187 -33 267q-57 -40 -139.5 -151t-253.5 -390l-51 -363l-150 -28l-20 12l217 1475q-159 -64 -241.5 -152t-82.5 -191q0 -93 68 -182l-148 -284l-14 2l-2 219q-115 64 -205 78
q-132 -72 -208.5 -238.5t-76.5 -359.5q0 -114 51.5 -181t139.5 -67q52 0 129 40t235 148l13 -12q-159 -182 -254 -251t-189 -69q-135 0 -217 92.5t-82 243.5q0 101 30.5 204t84 188.5t120.5 152.5t145.5 105t154.5 38q56 0 129 -12v12q0 209 146 346.5t452 208.5l14 -8
l-100 -573q-15 -91 -115 -582l8 -2q142 239 233 370.5t150 184.5t109 53q47 0 82 -54t43.5 -132t-8.5 -166l-131 -586z" />
    <glyph glyph-name="c_k" horiz-adv-x="1890" 
d="M1821 274l12 -12q-223 -287 -283 -287q-38 0 -69.5 60t-132.5 305q-21 52 -33 80l2 14q166 126 233.5 200.5t67.5 131.5q0 45 -32 85.5t-79 61.5q-55 -47 -128.5 -155.5t-235.5 -380.5l-51 -363l-150 -28l-20 12l215 1472q-158 -65 -240 -151t-82 -189q0 -93 68 -182
l-148 -284l-14 2l-2 219q-115 64 -205 78q-132 -72 -208.5 -238.5t-76.5 -359.5q0 -114 51.5 -181t139.5 -67q52 0 129 40t235 148l13 -12q-159 -182 -254 -251t-189 -69q-135 0 -217 92.5t-82 243.5q0 101 30.5 204t84 188.5t120.5 152.5t145.5 105t154.5 38q56 0 129 -12
v12q0 209 146 346.5t452 208.5l14 -8l-100 -573q-15 -91 -115 -582l8 -2q142 246 224.5 373t136.5 181t98 54q63 0 132 -62t69 -124q0 -65 -74.5 -137.5t-263.5 -188.5l186 -389z" />
    <glyph glyph-name="c_l" horiz-adv-x="1380" 
d="M1311 268l12 -10q-108 -140 -178.5 -211.5t-110.5 -71.5q-43 0 -75 50t-23 116l197 1334q-154 -65 -236 -153.5t-82 -191.5q0 -93 68 -182l-148 -284l-14 2l-2 219q-115 64 -205 78q-132 -72 -208.5 -238.5t-76.5 -359.5q0 -114 51.5 -181t139.5 -67q52 0 129 40t235 148
l13 -12q-159 -182 -254 -251t-189 -69q-135 0 -217 92.5t-82 243.5q0 101 30.5 204t84 188.5t120.5 152.5t145.5 105t154.5 38q56 0 129 -12v12q0 207 142 344.5t433 210.5l15 -8l-219 -1487z" />
    <glyph glyph-name="f_b" horiz-adv-x="1640" 
d="M1417 997q82 0 131 -67.5t49 -181.5q0 -174 -88.5 -356t-226.5 -300.5t-272 -118.5q-66 0 -346 74l2 14l57 35l188 1305q-73 65 -121.5 90t-97.5 25q-103 0 -176.5 -109t-93.5 -289l-16 -147h260l-4 -27h-259l-92 -819q-29 -251 -156.5 -418.5t-289.5 -167.5
q-70 0 -207 35l47 117h14q74 -59 121.5 -83t91.5 -24q73 0 125.5 79t65.5 216l110 1065h-151l2 19l152 8l4 41q12 113 59.5 213.5t115.5 170t153 110t171 40.5q92 0 222 -33l143 39l14 -8l-100 -573q-16 -94 -115 -586l6 -2q196 338 310.5 476t197.5 138zM1065 8
q87 0 171 107.5t133.5 258.5t49.5 283q0 161 -86 256q-150 -98 -403 -540l-43 -283q124 -82 178 -82z" />
    <glyph glyph-name="f_f_y" horiz-adv-x="2113" 
d="M2038 995q73 -140 73 -190q0 -29 -53.5 -139t-137.5 -256t-189.5 -309t-205 -299.5t-190 -226t-139.5 -89.5q-90 0 -205 41l84 186h17l131 -114q239 139 407 389h-119q-51 584 -198 956h-314l-92 -819q-28 -250 -155.5 -418t-288.5 -168q-75 0 -156 23l39 96h14
q97 -74 168 -74q74 0 126 78.5t65 216.5l112 1065h-428l-92 -819q-29 -251 -156.5 -418.5t-289.5 -167.5q-70 0 -207 35l47 117h14q74 -59 121.5 -83t91.5 -24q73 0 125.5 79t65.5 216l110 1065h-151l2 19l152 8l4 41q12 113 59.5 213.5t115.5 170t153 110t171 40.5
q57 0 122.5 -17t219.5 -73q123 90 256 90q89 0 262 -39l-59 -127h-14q-78 76 -130 106t-108 30q-103 0 -176.5 -109t-93.5 -289l-17 -143l480 4q60 -139 107 -405.5t65 -548.5q166 255 327 751l-112 111v14zM406 971l428 4l4 37q21 205 145 352q-113 92 -174 122t-117 30
q-103 0 -176.5 -109t-93.5 -289z" />
    <glyph glyph-name="f_h" horiz-adv-x="1681" 
d="M1614 272l12 -10q-223 -287 -301 -287q-40 0 -65 51.5t-11 118.5l107 506q40 187 -33 267q-57 -40 -139.5 -151t-253.5 -390l-53 -363l-148 -28l-22 12l204 1403q-73 65 -121.5 90t-97.5 25q-103 0 -176.5 -109t-93.5 -289l-16 -147h260l-4 -27h-259l-92 -819
q-29 -251 -156.5 -418.5t-289.5 -167.5q-70 0 -207 35l47 117h14q74 -59 121.5 -83t91.5 -24q73 0 125.5 79t65.5 216l110 1065h-151l2 19l152 8l4 41q12 113 59.5 213.5t115.5 170t153 110t171 40.5q92 0 222 -33l143 39l14 -8l-100 -573q-26 -150 -115 -582l8 -2
q206 350 312 479t180 129q47 0 82 -54t43.5 -132t-8.5 -166l-134 -586z" />
    <glyph glyph-name="f_j" horiz-adv-x="1075" 
d="M954 979q55 -43 39 -164l-96 -643q-38 -252 -139 -417.5t-277 -268.5l-92 86l4 14l219 86q61 108 88 285l146 987h-443l-92 -819q-29 -251 -156.5 -418.5t-289.5 -167.5q-70 0 -207 35l47 117h14q74 -59 121.5 -83t91.5 -24q73 0 125.5 79t65.5 216l110 1065h-151l2 19
l152 8l4 41q12 113 59.5 213.5t115.5 170t153 110t171 40.5q92 0 265 -39l-62 -127h-14q-76 76 -128.5 106t-107.5 30q-103 0 -176.5 -109t-93.5 -289l-16 -145z" />
    <glyph glyph-name="f_k" horiz-adv-x="1675" 
d="M1608 274l10 -12q-220 -287 -281 -287q-39 0 -72.5 64t-144.5 338q-4 9 -6.5 14.5t-5.5 13.5t-6 15l2 14q166 126 233.5 200.5t67.5 131.5q0 45 -32 85.5t-79 61.5q-55 -47 -128.5 -155.5t-235.5 -380.5l-53 -363l-148 -28l-20 12l202 1403q-73 65 -121.5 90t-97.5 25
q-103 0 -176.5 -109t-93.5 -289l-16 -147h260l-4 -27h-259l-92 -819q-29 -251 -156.5 -418.5t-289.5 -167.5q-70 0 -207 35l47 117h14q74 -59 121.5 -83t91.5 -24q73 0 125.5 79t65.5 216l110 1065h-151l2 19l152 8l4 41q12 113 59.5 213.5t115.5 170t153 110t171 40.5
q92 0 222 -33l143 39l14 -8l-100 -573q-26 -150 -115 -582l8 -2q142 246 224.5 373t136.5 181t98 54q63 0 131 -62t68 -124q0 -65 -74 -137.5t-262 -188.5l184 -389z" />
    <glyph glyph-name="f_y" horiz-adv-x="1515" 
d="M1442 995q71 -137 71 -190q0 -29 -53.5 -139t-137 -256t-189 -309t-205.5 -299.5t-190 -226t-140 -89.5q-87 0 -205 41l86 186h15l133 -114q236 138 405 389h-117q-50 575 -198 956h-314l-92 -819q-29 -251 -156.5 -418.5t-289.5 -167.5q-70 0 -207 35l47 117h14
q74 -59 121.5 -83t91.5 -24q73 0 125.5 79t65.5 216l110 1065h-151l2 19l152 8l4 41q12 113 59.5 213.5t115.5 170t153 110t171 40.5q92 0 265 -39l-62 -127h-14q-76 76 -128.5 106t-107.5 30q-103 0 -176.5 -109t-93.5 -289l-16 -145l477 6q61 -139 108.5 -404.5
t65.5 -549.5q92 144 168.5 326t156.5 425l-112 111v14z" />
    <glyph glyph-name="s_b" horiz-adv-x="1781" 
d="M1559 997q82 0 131 -67.5t49 -181.5q0 -130 -53.5 -270.5t-136.5 -251t-190 -182t-208 -71.5q-66 0 -346 74l2 14l57 35l201 1377q-168 -64 -254 -152t-86 -191q0 -79 51 -184l-53 -121h-14q-98 83 -153 114.5t-101 31.5q-66 0 -128.5 -75.5t-62.5 -152.5q0 -47 33 -81
t109 -70l122 -60q187 -87 187 -217q0 -83 -59 -163t-155.5 -129.5t-199.5 -49.5q-112 0 -313 56l61 131h14q108 -92 168 -126t113 -34q74 0 139.5 81t65.5 161q0 43 -29 76t-96 67l-121 59q-194 96 -194 222q0 80 55.5 157.5t147 125.5t188.5 48q56 0 129 -16v16
q0 210 148.5 346t467.5 209l15 -8l-101 -573q-16 -94 -115 -586l7 -2q196 338 310.5 476t197.5 138zM1206 8q65 0 131.5 64.5t114.5 161t78.5 211t30.5 212.5q0 161 -86 256q-151 -99 -404 -540l-43 -285q125 -80 178 -80z" />
    <glyph glyph-name="s_h" horiz-adv-x="1818" 
d="M1751 272l12 -10q-223 -287 -301 -287q-40 0 -65 51.5t-11 118.5l107 506q41 187 -33 267q-57 -40 -139.5 -151t-253.5 -390l-53 -363l-148 -28l-22 12l217 1475q-165 -64 -250.5 -152.5t-85.5 -190.5q0 -79 51 -184l-53 -121h-14q-98 83 -153 114.5t-101 31.5
q-66 0 -128.5 -75.5t-62.5 -152.5q0 -47 33 -81t109 -70l122 -60q187 -87 187 -217q0 -83 -59 -163t-155.5 -129.5t-199.5 -49.5q-112 0 -313 56l61 131h14q108 -92 168 -126t113 -34q74 0 139.5 81t65.5 161q0 43 -29 76t-96 67l-121 59q-194 96 -194 222q0 80 55.5 157.5
t147 125.5t188.5 48q56 0 129 -16v16q0 209 148 345.5t464 209.5l14 -8l-100 -573q-26 -150 -115 -582l9 -2q206 350 311.5 479t179.5 129q47 0 82 -54t43.5 -132t-8.5 -166l-133 -586z" />
    <glyph glyph-name="s_k" horiz-adv-x="1812" 
d="M1743 274l12 -12q-220 -287 -280 -287q-41 0 -77.5 71.5t-158.5 373.5l2 14q166 126 233.5 200.5t67.5 131.5q0 45 -31.5 85.5t-78.5 61.5q-56 -47 -130 -156t-235 -380l-53 -363l-148 -28l-22 12l217 1475q-165 -64 -250.5 -152.5t-85.5 -190.5q0 -79 51 -184l-53 -121
h-14q-98 83 -153 114.5t-101 31.5q-66 0 -128.5 -75.5t-62.5 -152.5q0 -47 33 -81t109 -70l122 -60q187 -87 187 -217q0 -83 -59 -163t-155.5 -129.5t-199.5 -49.5q-112 0 -313 56l61 131h14q108 -92 168 -126t113 -34q74 0 139.5 81t65.5 161q0 43 -29 76t-96 67l-121 59
q-194 96 -194 222q0 80 55.5 157.5t147 125.5t188.5 48q56 0 129 -16v16q0 209 148 345.5t464 209.5l14 -8l-100 -573q-26 -150 -115 -582l9 -2q142 247 224.5 373.5t136 180.5t97.5 54q63 0 131 -62t68 -124q0 -65 -74 -137.5t-262 -188.5l184 -389z" />
    <glyph glyph-name="s_l" horiz-adv-x="1302" 
d="M1235 268l12 -10q-110 -141 -180.5 -212t-110.5 -71q-42 0 -74 50t-22 116l195 1336q-160 -64 -245 -154t-85 -193q0 -79 51 -184l-53 -121h-14q-98 83 -153 114.5t-101 31.5q-66 0 -128.5 -75.5t-62.5 -152.5q0 -47 33 -81t109 -70l122 -60q187 -87 187 -217
q0 -83 -59 -163t-155.5 -129.5t-199.5 -49.5q-112 0 -313 56l61 131h14q108 -92 168 -126t113 -34q74 0 139.5 81t65.5 161q0 43 -29 76t-96 67l-121 59q-194 96 -194 222q0 80 55.5 157.5t147 125.5t188.5 48q56 0 129 -16v16q0 208 144.5 345t445.5 210l14 -8l-221 -1487z
" />
    <glyph glyph-name="t_y" horiz-adv-x="1517" 
d="M1442 995q74 -142 74 -190q0 -29 -53.5 -139t-137 -256t-189 -309t-205.5 -299.5t-190.5 -226t-140.5 -89.5q-90 0 -205 41l84 186h17l131 -114q239 139 407 389h-116q-54 584 -201 956h-318l-133 -887l287 236l10 -10q-277 -308 -352 -308q-43 0 -75 50t-21 116l116 803
h-149l2 19l156 8l73 184h117l-27 -182l482 6q60 -139 107 -405.5t65 -548.5q166 255 327 751l-112 111v14z" />
    <glyph glyph-name="a.sups" horiz-adv-x="763" 
d="M831 1090l9 -9q-154 -194 -209 -194q-32 0 -57 31t-25 71q0 60 55 303l-6 2q-153 -249 -218.5 -328t-129.5 -79q-54 0 -86.5 43t-32.5 114q0 114 63.5 234.5t159 198t183.5 77.5q54 0 135 -24l90 61l12 -6l-92 -629zM588 1313l24 170q-71 47 -110 47q-55 0 -106 -67
t-80 -159.5t-29 -173.5q0 -114 59 -114q31 0 80.5 60.5t161.5 236.5z" />
    <glyph glyph-name="b.sups" horiz-adv-x="710" 
d="M668 1554q57 0 92 -45t35 -118q0 -114 -63 -233t-158.5 -195t-184.5 -76q-52 0 -266 53l2 12l39 27l127 850h-98v10l260 66l10 -9l-68 -358q-20 -100 -76 -364l9 -3q125 209 203.5 296t136.5 87zM426 911q54 0 105 66.5t80.5 159t29.5 174.5q0 98 -55 159
q-88 -57 -246 -315l-29 -192q77 -52 115 -52z" />
    <glyph glyph-name="c.sups" horiz-adv-x="616" 
d="M410 1004q51 0 109 25t149 89l10 -12q-105 -125 -177.5 -172t-156.5 -47q-89 0 -146 60t-57 159q0 82 35 165t89 144.5t122 100t131 38.5q79 0 215 -34l-110 -191l-15 2l-4 154q-71 36 -137 45q-78 -45 -127 -153.5t-49 -227.5q0 -69 32 -107t87 -38z" />
    <glyph glyph-name="n.sups" horiz-adv-x="796" 
d="M862 1096l10 -9q-157 -200 -217 -200q-33 0 -56.5 41.5t-12.5 95.5l65 297q22 112 -20 160q-38 -30 -91 -96.5t-155 -223.5l-33 -246l-139 -24l-12 8l86 586l-135 -131l-11 8q139 190 201 190q31 0 54.5 -33t23.5 -73q0 -48 -51 -266l4 -2q134 214 206.5 294t125.5 80
t82.5 -77.5t9.5 -157.5l-86 -361z" />
    <glyph glyph-name="o.sups" horiz-adv-x="686" 
d="M389 887q-109 0 -178.5 69.5t-69.5 178.5q0 94 58 192.5t146 162.5t169 64q108 0 178 -69.5t70 -177.5q0 -96 -55.5 -194.5t-143 -162t-174.5 -63.5zM426 913q53 0 96.5 59.5t65.5 147.5t22 180q0 109 -39 169.5t-106 60.5q-77 -39 -125.5 -152t-48.5 -241
q0 -105 36.5 -164.5t98.5 -59.5z" />
    <glyph glyph-name="zero.zero" horiz-adv-x="1132" 
d="M666 1026q183 0 289 -111t106 -294q0 -84 -29 -175.5t-84 -175t-126 -151t-162.5 -108t-186.5 -40.5q-184 0 -291.5 111.5t-107.5 294.5q0 84 29.5 175.5t85 175.5t127 151t163.5 107t187 40zM623 995q-75 0 -138.5 -40.5t-105.5 -105t-71.5 -147t-42.5 -165t-13 -160.5
q0 -77 16 -146l594 566q-29 94 -91 146t-148 52zM518 2q74 0 137 41t104.5 106.5t71.5 149t43 166.5t13 160q0 80 -19 151l-594 -567q29 -99 93 -153t151 -54z" />
    <glyph glyph-name="zero.lf" horiz-adv-x="1263" 
d="M541 -27q-186 0 -294 137.5t-108 364.5q0 120 31.5 249.5t91.5 247t138 211.5t179 150t207 56q187 0 295.5 -136t108.5 -360q0 -151 -50.5 -313.5t-135 -297.5t-207.5 -222t-256 -87zM559 -2q88 0 164 61t128.5 158.5t90 219.5t55 243.5t17.5 230.5q0 213 -63 334
t-181 121q-88 0 -165 -60.5t-129 -157t-90 -217t-55.5 -241t-17.5 -229.5q0 -216 63.5 -339.5t182.5 -123.5z" />
    <glyph glyph-name="zero.zero.lf" horiz-adv-x="1263" 
d="M786 1389q187 0 295.5 -136t108.5 -360q0 -151 -50.5 -313.5t-135 -297.5t-207.5 -222t-256 -87q-186 0 -294 137.5t-108 364.5q0 120 31.5 249.5t91.5 247t138 211.5t179 150t207 56zM770 1366q-88 0 -165 -60.5t-129 -156.5t-90 -216.5t-55.5 -240t-17.5 -227.5
q0 -53 2 -78l691 660q-19 153 -79 236t-157 83zM559 -2q88 0 164 61t128.5 158t90 218.5t55 242.5t17.5 229q0 63 -6 115l-691 -660q14 -173 76 -268.5t166 -95.5z" />
    <glyph glyph-name="one.lf" horiz-adv-x="710" 
d="M-23 0l3 14l231 86l184 1166h-219l2 14l395 162l15 -10l-221 -1407h225l-4 -25h-611z" />
    <glyph glyph-name="two.lf" horiz-adv-x="1060" 
d="M934 397l14 -2l-80 -395h-880l-2 14l450 527q184 215 256 337t72 228q0 104 -65 166.5t-175 62.5q-185 0 -329 -110l-11 12q167 203 422 203q151 0 241.5 -83.5t90.5 -221.5q0 -139 -102 -283.5t-351 -374.5l-344 -330l557 -127z" />
    <glyph glyph-name="three.lf" horiz-adv-x="1009" 
d="M469 858q438 -78 438 -377q0 -142 -80 -258t-221.5 -182t-314.5 -66q-143 0 -268 41l10 172l12 9l295 -183q170 28 277.5 150t107.5 291q0 293 -287 391l4 16l408 408l-408 125l-233 -367l-12 2l75 387h742l4 -14z" />
    <glyph glyph-name="four.lf" horiz-adv-x="1069" 
d="M989 414h-201l-59 -389h189l-5 -25h-536l4 14l192 86l50 314h-557l-5 16l609 987h223l2 -14l-809 -967l539 2l53 340h168l-53 -338h200z" />
    <glyph glyph-name="five.lf" horiz-adv-x="997" 
d="M383 1417h559l-29 -188l-14 -8l-498 178l-147 -510q315 -5 476 -106t161 -294q0 -230 -165.5 -372t-432.5 -142q-141 0 -266 41l10 172l12 7l295 -181q167 28 267 150.5t100 304.5q0 340 -471 401l-11 13z" />
    <glyph glyph-name="six.lf" horiz-adv-x="1105" 
d="M481 -25q-170 0 -275.5 105t-105.5 274q0 258 229.5 541.5t647.5 544.5l10 -15q-713 -535 -713 -1071q0 -161 62.5 -257.5t165.5 -96.5q95 0 175.5 79.5t123.5 192.5t43 224q0 120 -52.5 183.5t-150.5 63.5q-104 0 -229 -55l-6 17q151 86 307 86q132 0 213.5 -78.5
t81.5 -204.5q0 -92 -46 -189t-119 -172.5t-170 -123.5t-192 -48z" />
    <glyph glyph-name="seven.lf" horiz-adv-x="794" 
d="M1028 1417l4 -14l-799 -1403h-243l4 16l930 1237l-590 142l-234 -367l-14 2l76 387h866z" />
    <glyph glyph-name="eight.lf" horiz-adv-x="1101" 
d="M717 768q151 -97 215.5 -183.5t64.5 -185.5q0 -100 -75 -198t-201.5 -162t-263.5 -64q-166 0 -282 82.5t-116 200.5q0 196 320 414l10 -10q-203 -197 -203 -381q0 -118 89 -198.5t217 -80.5q142 0 236.5 102.5t94.5 237.5q0 80 -60.5 149.5t-209.5 161.5
q-160 98 -227.5 186t-67.5 197q0 75 38.5 148.5t100.5 129.5t145.5 91t168.5 35q135 0 229 -73t94 -177q0 -181 -317 -422zM418 1104q0 -83 57 -151.5t195 -153.5q15 -9 30 -21q213 260 213 404q0 97 -67.5 164t-165.5 67q-116 0 -189 -92t-73 -217z" />
    <glyph glyph-name="nine.lf" horiz-adv-x="1052" 
d="M666 1440q170 0 276.5 -105t106.5 -274q0 -257 -230 -540.5t-649 -545.5l-12 19q714 528 714 1067q0 162 -62 258t-167 96q-70 0 -135 -47t-109 -119t-70 -159t-26 -168q0 -120 52.5 -183t150.5 -63q115 0 229 53l6 -18q-153 -86 -305 -86q-132 0 -214.5 78t-82.5 204
q0 93 46 190t119.5 172t170 123t191.5 48z" />
    </font>
</defs>
</svg>
