<?xml version="1.0" standalone="no"?>
<!DOCTYPE svg PUBLIC "-//W3C//DTD SVG 1.1//EN" "http://www.w3.org/Graphics/SVG/1.1/DTD/svg11.dtd" >
<svg xmlns="http://www.w3.org/2000/svg" xmlns:xlink="http://www.w3.org/1999/xlink" version="1.1">
<metadata>
Created by FontForge 20170731 at Mon Aug  1 19:22:47 2022
 By Aleksey,,,
Copyright (c) 2020 by Roch Modrzejewski. All rights reserved.
</metadata>
<defs>
<font id="Teramo-PoRg" horiz-adv-x="0" >
  <font-face 
    font-family="Teramo Po Rg"
    font-weight="400"
    font-stretch="ultra-condensed"
    units-per-em="2048"
    panose-1="0 0 5 8 0 0 0 0 0 0"
    ascent="1638"
    descent="-410"
    x-height="971"
    cap-height="1466"
    bbox="-825 -551 4063 2187"
    underline-thickness="102"
    underline-position="-307"
    unicode-range="U+0020-2265"
  />
<missing-glyph horiz-adv-x="1433" 
d="M190 -72v1610h1051v-1610h-1051zM215 -49l1004 1565h-1004v-1565z" />
    <glyph glyph-name="f_f" unicode="ff" horiz-adv-x="1433" 
d="M1372 1546q155 0 307 -51l-71 -133h-15q-150 156 -295 156q-124 0 -191 -86t-67 -244v-217h353v-27h-353v-919h252v-25h-596v14l162 86v844h-467v-919h170v-25h-514v14l162 86v844h-158v17l158 8v35q0 255 135.5 398.5t378.5 143.5q173 0 356 -73q119 73 293 73zM391 971
h467v33q0 239 121 382q-163 132 -330 132q-124 0 -191 -86t-67 -244v-217z" />
    <glyph glyph-name="f_f_i" unicode="ffi" horiz-adv-x="1908" 
d="M1718 25h154v-25h-498v14l162 86v844h-496v-919h195v-25h-539v14l162 86v844h-467v-919h170v-25h-514v14l162 86v844h-158v17l158 8v35q0 255 135.5 398.5t378.5 143.5q173 0 356 -73q119 73 293 73q155 0 307 -51l-69 -133h-17q-150 156 -293 156q-126 0 -193 -85.5
t-67 -244.5v-217l664 8l14 -10v-944zM391 971h467v33q0 239 121 382q-163 132 -330 132q-124 0 -191 -86t-67 -244v-217z" />
    <glyph glyph-name="f_f_l" unicode="ffl" horiz-adv-x="1908" 
d="M1698 25h170v-25h-514v14l162 86v1360q-104 58 -218 58q-124 0 -191 -86t-67 -244v-217h279v-27h-279v-919h179v-25h-523v14l162 86v844h-467v-919h170v-25h-514v14l162 86v844h-158v17l158 8v35q0 255 135.5 398.5t378.5 143.5q173 0 356 -73q119 73 293 73
q96 0 195 -22l116 30l15 -10v-1519zM391 971h467v33q0 239 121 382q-163 132 -330 132q-124 0 -191 -86t-67 -244v-217z" />
    <glyph glyph-name="f_i" unicode="fi" horiz-adv-x="1259" 
d="M1069 25h154v-25h-500v14l164 86v844h-496v-919h195v-25h-539v14l162 86v844h-158v17l158 8v35q0 255 135.5 398.5t378.5 143.5q155 0 307 -51l-72 -133h-14q-150 156 -295 156q-124 0 -191 -86t-67 -244v-217l662 8l16 -10v-944z" />
    <glyph glyph-name="f_l" unicode="fl" horiz-adv-x="1259" 
d="M1049 25h170v-25h-514v14l161 86v1360q-110 58 -217 58q-124 0 -191 -86t-67 -244v-217h279v-27h-279v-919h178v-25h-522v14l162 86v844h-158v17l158 8v35q0 255 135.5 398.5t378.5 143.5q91 0 195 -22l116 30l15 -10v-1519z" />
    <glyph glyph-name=".notdef" horiz-adv-x="1433" 
d="M190 -72v1610h1051v-1610h-1051zM215 -49l1004 1565h-1004v-1565z" />
    <glyph glyph-name=".null" 
 />
    <glyph glyph-name="nonmarkingreturn" horiz-adv-x="682" 
 />
    <glyph glyph-name="space" unicode=" " horiz-adv-x="526" 
 />
    <glyph glyph-name="exclam" unicode="!" horiz-adv-x="526" 
d="M254 440l-121 1014l8 12h244l10 -12l-123 -1014h-18zM262 -25q-57 0 -93 36.5t-36 92.5q0 54 38.5 91.5t94.5 37.5t91.5 -36t35.5 -93q0 -53 -38.5 -91t-92.5 -38z" />
    <glyph glyph-name="quotedbl" unicode="&#x22;" horiz-adv-x="782" 
d="M158 874v578l180 25l8 -13l-174 -592zM516 874v578l178 25l11 -13l-175 -592z" />
    <glyph glyph-name="numbersign" unicode="#" horiz-adv-x="1398" 
d="M1350 944h-340l-70 -465h334v-37h-340l-66 -442h-37l66 442h-477l-66 -442h-37l66 442h-334v37h340l70 465h-334v35h340l65 438h37l-65 -438h477l65 438h37l-65 -438h334v-35zM903 479l70 465h-477l-70 -465h477z" />
    <glyph glyph-name="dollar" unicode="$" horiz-adv-x="1216" 
d="M1141 369q0 -180 -134.5 -283t-377.5 -111v-251h-23v251h-16q-262 0 -516 78l114 334l13 -2l49 -291q6 -4 16 -10t45.5 -22t74 -28.5t98.5 -22.5t122 -11v629l-160 53q-165 56 -248 148t-83 227q0 180 127.5 279t361.5 104v254h23v-254h2q237 0 456 -64l-96 -305l-14 2
l-60 266q-4 3 -12.5 8t-37 17.5t-59.5 22.5t-80 19t-99 11v-604l168 -57q346 -121 346 -387zM539 844l65 -23v596q-163 0 -253.5 -73.5t-90.5 -206.5q0 -108 65 -174.5t214 -118.5zM629 0q165 3 257.5 79t92.5 210q0 115 -62 184.5t-210 120.5l-78 27v-621z" />
    <glyph glyph-name="percent" unicode="%" horiz-adv-x="2150" 
d="M473 494q-182 0 -285.5 119.5t-103.5 326.5q0 220 113 356t297 136q181 0 284 -118.5t103 -322.5q0 -226 -111.5 -361.5t-296.5 -135.5zM563 0l993 1417h35l-993 -1417h-35zM481 512q230 0 230 438q0 220 -59.5 341.5t-168.5 121.5q-229 0 -229 -432q0 -222 59.5 -345.5
t167.5 -123.5zM1659 -16q-182 0 -285.5 119.5t-103.5 326.5q0 220 112.5 356t296.5 136q181 0 284 -118.5t103 -322.5q0 -226 -111 -361.5t-296 -135.5zM1667 2q229 0 229 438q0 220 -59 341.5t-168 121.5q-229 0 -229 -432q0 -222 59.5 -345.5t167.5 -123.5z" />
    <glyph glyph-name="ampersand" unicode="&#x26;" horiz-adv-x="1349" 
d="M932 557q130 -251 233.5 -390.5t225.5 -229.5l-9 -15q-210 74 -358.5 219t-294.5 420l-137 258q-295 -191 -295 -428q0 -184 138.5 -269t447.5 -91l2 -15q-121 -41 -267 -41q-242 0 -374.5 94t-132.5 265q0 154 122.5 285t348.5 217l-328 616l6 14h797l10 -346l-14 -2
l-183 324l-421 2q67 -105 158 -272t325 -615z" />
    <glyph glyph-name="quotesingle" unicode="'" horiz-adv-x="425" 
d="M158 874v578l180 25l8 -13l-174 -592z" />
    <glyph glyph-name="parenleft" unicode="(" horiz-adv-x="532" 
d="M479 -356q-9 7 -23.5 19.5t-56.5 58.5t-80.5 98.5t-85.5 138t-81 178.5t-57 219t-23 260t22.5 260t58.5 220.5t79.5 177.5t86.5 139.5t79 97t58 59.5l23 19l13 -10q-97 -117 -146 -235t-69.5 -284t-20.5 -444t20.5 -443.5t69.5 -283t146 -235.5z" />
    <glyph glyph-name="parenright" unicode=")" horiz-adv-x="532" 
d="M53 -356l-10 10q140 172 186.5 364.5t46.5 597.5q0 278 -20 444t-69 284t-144 235l10 10q9 -7 23.5 -19.5t57 -58.5t81 -98t85.5 -138t81 -179t57 -219.5t23 -260.5t-22.5 -259.5t-58.5 -220t-79.5 -177.5t-87 -139t-79.5 -97t-58 -60z" />
    <glyph glyph-name="asterisk" unicode="*" horiz-adv-x="991" 
d="M487 1118l-84 359l9 14h166l10 -14l-86 -359h-15zM88 1112l-8 14l53 158l17 2l301 -199l-5 -12zM903 1112l-358 -37l-6 12l303 199l16 -2l53 -158zM293 688l-131 109l4 14l299 225l10 -8l-168 -336zM698 688l-16 4l-166 336l10 8l299 -225l2 -14z" />
    <glyph glyph-name="plus" unicode="+" horiz-adv-x="1099" 
d="M971 727v-37h-402v-411h-37v411h-401v37h401v412h37v-412h402z" />
    <glyph glyph-name="comma" unicode="," horiz-adv-x="448" 
d="M61 -297l-6 10q64 122 84.5 174.5t20.5 94.5q0 72 -60 120v15l150 131q98 -73 98 -174q0 -67 -53.5 -139.5t-218.5 -231.5h-15z" />
    <glyph glyph-name="hyphen" unicode="-" horiz-adv-x="763" 
d="M131 457v98l502 27v-125h-502z" />
    <glyph glyph-name="period" unicode="." horiz-adv-x="462" 
d="M231 -25q-58 0 -94.5 36.5t-36.5 92.5q0 54 39.5 91.5t93.5 37.5q57 0 92 -36t35 -93q0 -52 -38 -90.5t-91 -38.5z" />
    <glyph glyph-name="slash" unicode="/" horiz-adv-x="520" 
d="M-4 -246l491 1790h37l-491 -1790h-37z" />
    <glyph glyph-name="zero" unicode="0" horiz-adv-x="1236" 
d="M600 -29q-245 0 -380.5 132t-135.5 366q0 256 151.5 408.5t401.5 152.5q236 0 376 -129.5t140 -357.5q0 -261 -149.5 -416.5t-403.5 -155.5zM618 0q172 0 257.5 122t85.5 372q0 246 -89.5 379t-253.5 133q-173 0 -257.5 -121t-84.5 -367q0 -250 88.5 -384t253.5 -134z
" />
    <glyph glyph-name="one" unicode="1" horiz-adv-x="673" 
d="M57 0v14l199 86v754h-221v14l387 166l16 -8v-1001h205v-25h-586z" />
    <glyph glyph-name="two" unicode="2" horiz-adv-x="1003" 
d="M922 401l16 -4l-18 -397h-891l-6 14l397 439q81 89 115 153t34 129q0 89 -59 138t-166 49q-131 0 -266 -74l-6 12q161 170 372 170q138 0 223 -72t85 -190q0 -97 -62.5 -182t-216.5 -199l-301 -235l561 -129z" />
    <glyph glyph-name="three" unicode="3" horiz-adv-x="940" 
d="M346 461q268 -12 398 -92.5t130 -231.5q0 -224 -200.5 -356.5t-626.5 -192.5l-2 17q331 100 484 219.5t153 279.5q0 127 -87.5 208t-279.5 134l2 17l392 391l-437 131l-190 -371l-14 2l16 392h790l5 -17z" />
    <glyph glyph-name="four" unicode="4" horiz-adv-x="1026" 
d="M1016 25v-25h-213v-387l-166 -31l-16 6v412h-592l-6 14l481 994h244l6 -17l-703 -968l570 2v337h182v-337h213z" />
    <glyph glyph-name="five" unicode="5" horiz-adv-x="903" 
d="M92 553q393 -9 568.5 -98t175.5 -279q0 -453 -828 -588l-2 17q321 103 477 236t156 306q0 153 -134.5 246t-428.5 142l-10 12l65 461h623v-199l-15 -8l-585 186z" />
    <glyph glyph-name="six" unicode="6" horiz-adv-x="1120" 
d="M573 -25q-229 0 -356 132.5t-127 373.5q0 602 838 959l10 -17q-333 -191 -494 -410.5t-161 -486.5q0 -256 79 -391t228 -135q289 0 289 389q0 174 -71.5 264t-205.5 90q-117 0 -223 -53l-6 15q133 86 293 86q186 0 286.5 -93t100.5 -270q0 -201 -132.5 -327t-347.5 -126z
" />
    <glyph glyph-name="seven" unicode="7" horiz-adv-x="1026" 
d="M993 1008l6 -17l-680 -1366l-190 103v14l774 1096l-631 145l-190 -369l-14 2l16 392h909z" />
    <glyph glyph-name="eight" unicode="8" horiz-adv-x="1112" 
d="M694 772q194 -96 274.5 -190t80.5 -222q0 -173 -138.5 -279t-367.5 -106q-220 0 -351 89.5t-131 240.5q0 225 281 365l12 -11q-82 -74 -119.5 -150t-37.5 -171q0 -163 90.5 -250.5t259.5 -87.5q154 0 236.5 81t82.5 230q0 106 -71.5 177.5t-266.5 160.5q-208 96 -293 194
t-85 240q0 161 114 259t301 98q181 0 288.5 -81t107.5 -218q0 -223 -267 -369zM309 1143q0 -110 68 -182t254 -158q7 -3 21.5 -10.5t21.5 -10.5q82 74 119.5 156t37.5 184q0 141 -70 217t-200 76q-120 0 -186 -71t-66 -201z" />
    <glyph glyph-name="nine" unicode="9" horiz-adv-x="1136" 
d="M555 1030q234 0 363 -128t129 -361q0 -633 -846 -953l-8 19q661 345 661 889q0 247 -81.5 378.5t-233.5 131.5q-297 0 -297 -373q0 -172 73 -262t209 -90q125 0 234 47l6 -15q-137 -82 -301 -82q-189 0 -292 93t-103 270q0 193 133.5 314.5t353.5 121.5z" />
    <glyph glyph-name="colon" unicode=":" horiz-adv-x="538" 
d="M268 741q-56 0 -92.5 36.5t-36.5 90.5t38.5 90.5t94.5 36.5t91.5 -35.5t35.5 -91.5q0 -51 -38.5 -89t-92.5 -38zM268 -25q-56 0 -92.5 36.5t-36.5 90.5t38.5 90.5t94.5 36.5t91.5 -35.5t35.5 -91.5q0 -51 -38.5 -89t-92.5 -38z" />
    <glyph glyph-name="semicolon" unicode=";" horiz-adv-x="505" 
d="M256 739q-58 0 -94.5 36t-36.5 91q0 54 38.5 91.5t94.5 37.5q57 0 92 -35.5t35 -91.5q0 -52 -38.5 -90.5t-90.5 -38.5zM106 -281l-8 11q58 113 77.5 162.5t19.5 89.5q0 70 -62 120v15l150 131q98 -73 98 -174q0 -68 -52 -138.5t-210 -216.5h-13z" />
    <glyph glyph-name="less" unicode="&#x3c;" horiz-adv-x="1120" 
d="M944 145l-813 557v17l813 555l21 -29l-785 -534l785 -537z" />
    <glyph glyph-name="equal" unicode="=" horiz-adv-x="1114" 
d="M156 883v37h802v-37h-802zM156 498v37h802v-37h-802z" />
    <glyph glyph-name="greater" unicode="&#x3e;" horiz-adv-x="1120" 
d="M176 145l-20 29l786 537l-786 534l20 29l815 -555v-17z" />
    <glyph glyph-name="question" unicode="?" horiz-adv-x="882" 
d="M461 1491q160 0 258 -82t98 -213q0 -101 -53 -189.5t-182 -205.5l-228 -211l195 -98l-2 -17h-281l-4 14l234 349q80 119 109.5 189t29.5 142q0 109 -63.5 169.5t-178.5 60.5q-97 0 -188 -31l-17 -256l-14 -2l-131 199q179 182 418 182zM410 233q57 0 93 -36t36 -93
q0 -52 -39 -90.5t-92 -38.5q-57 0 -93 36.5t-36 92.5q0 54 38.5 91.5t92.5 37.5z" />
    <glyph glyph-name="at" unicode="@" horiz-adv-x="1744" 
d="M1333 918l15 -9l-121 -815q50 9 102.5 37.5t105.5 81.5t94 121.5t67 165.5t26 207q0 233 -143.5 361t-405.5 128q-171 0 -322 -65t-258.5 -177.5t-170 -270.5t-62.5 -337q0 -563 590 -563q226 0 401 88l9 -14q-242 -133 -517 -133q-299 0 -462.5 151t-163.5 426
q0 199 72.5 374.5t198 300.5t301 197t374.5 72q286 0 443 -138.5t157 -391.5q0 -118 -30 -224t-79.5 -182t-111.5 -132t-126.5 -83.5t-123.5 -27.5q-35 0 -56 31t-38 108h-4q-61 -67 -138 -103t-157 -36q-138 0 -214.5 79.5t-76.5 225.5q0 149 65 274.5t180 199t255 73.5
q99 0 229 -62zM1087 217l91 602q-93 78 -179 78q-89 0 -163 -68t-116 -179.5t-42 -239.5q0 -271 219 -271q107 0 190 78z" />
    <glyph glyph-name="A" unicode="A" horiz-adv-x="1687" 
d="M1458 25h191v-25h-680v25h288l-237 602h-531l-194 -502l217 -111v-14h-473v25h190l510 1312l-112 115v14h254zM498 651h512l-258 654z" />
    <glyph glyph-name="B" unicode="B" horiz-adv-x="1421" 
d="M45 0v14l209 99v1329h-201v24h721q473 0 473 -348q0 -147 -88 -238.5t-250 -111.5v-4q439 -24 439 -354q0 -199 -166.5 -304.5t-483.5 -105.5h-653zM442 774h269q348 0 348 322q0 166 -84.5 256t-241.5 90h-291v-668zM719 25q216 0 323 90t107 274q0 361 -449 361h-258
v-687q116 -38 277 -38z" />
    <glyph glyph-name="C" unicode="C" horiz-adv-x="1427" 
d="M1315 494l18 -2l-49 -383q-263 -136 -524 -136q-307 0 -486.5 193.5t-179.5 525.5q0 238 89 419.5t252.5 280.5t377.5 99q237 0 455 -84l10 -367l-18 -2l-191 365q-136 65 -276 65q-242 0 -371 -187.5t-129 -539.5q0 -342 132.5 -542.5t358.5 -200.5q164 0 293 88z" />
    <glyph glyph-name="D" unicode="D" horiz-adv-x="1562" 
d="M758 1466q340 0 526 -182.5t186 -503.5q0 -366 -197 -573t-568 -207h-660v14l209 99v1329h-201v24h705zM717 25q285 0 419 172.5t134 533.5q0 345 -137 528t-394 183h-297v-1374q123 -43 275 -43z" />
    <glyph glyph-name="E" unicode="E" horiz-adv-x="1402" 
d="M45 0v14l209 99v1329h-201v24h1166l22 -393l-18 -2l-193 369l-588 2v-668h322l127 230h16v-484h-24v228l-441 2v-725l623 2l240 393l18 -2l-55 -418h-1223z" />
    <glyph glyph-name="F" unicode="F" horiz-adv-x="1300" 
d="M45 0v14l209 99v1329h-201v24h1153l23 -405l-19 -2l-194 383h-574v-713h318l127 229h16v-503h-24v247l-437 3v-680h301v-25h-698z" />
    <glyph glyph-name="G" unicode="G" horiz-adv-x="1587" 
d="M881 702h661v-22h-188v-551q-298 -156 -574 -156q-330 0 -507 182.5t-177 522.5q0 241 93.5 426t265 286t395.5 101q252 0 463 -84l10 -371l-18 -2l-187 365q-141 69 -287 69q-259 0 -398.5 -191.5t-139.5 -549.5q0 -350 133 -539.5t379 -189.5q214 0 366 129v553h-290
v22z" />
    <glyph glyph-name="H" unicode="H" horiz-adv-x="1656" 
d="M1403 25h209v-25h-606v25h208v725h-772v-725h209v-25h-606v14l209 99v1329h-201v24h598v-24h-209v-668h772v668h-208v24h598v-14l-201 -94v-1333z" />
    <glyph glyph-name="I" unicode="I" horiz-adv-x="702" 
d="M45 0v14l209 99v1329h-201v24h596v-14l-200 -94v-1333h208v-25h-612z" />
    <glyph glyph-name="J" unicode="J" horiz-adv-x="704" 
d="M115 -449l-166 123v15l289 112q38 104 38 262v1379h-239v24h631v-14l-203 -94v-1151q0 -231 -82.5 -385.5t-267.5 -270.5z" />
    <glyph glyph-name="K" unicode="K" horiz-adv-x="1605" 
d="M442 1442v-1417h209v-25h-606v14l209 99v1329h-201v24h598v-24h-209zM1384 25h183v-25h-400l-647 698v17l662 643l-178 94v14h483v-24h-184l-713 -692h123z" />
    <glyph glyph-name="L" unicode="L" horiz-adv-x="1349" 
d="M45 0v14l209 99v1329h-201v24h697v-24h-301v-1417l567 2l244 440l18 -4l-59 -463h-1174z" />
    <glyph glyph-name="M" unicode="M" horiz-adv-x="1994" 
d="M37 0v14l215 101l72 1206l-127 131v14h256l551 -1001l565 1001h231v-24h-135l82 -1417h209v-25h-613v25h218l-72 1243l-569 -1002h-17l-559 1010l-72 -1251h277v-25h-512z" />
    <glyph glyph-name="N" unicode="N" horiz-adv-x="1585" 
d="M41 0v14l209 99v1222l-150 117v14h279l946 -1257l-4 1229v4h-209v24h436v-14l-200 -94v-1358h-95l-983 1298l4 -1269v-4h209v-25h-442z" />
    <glyph glyph-name="O" unicode="O" horiz-adv-x="1556" 
d="M760 -27q-307 0 -485.5 194t-178.5 527q0 237 87.5 418t247 280t368.5 99q304 0 482.5 -192t178.5 -517q0 -369 -190.5 -589t-509.5 -220zM774 0q235 0 360.5 188.5t125.5 542.5q0 337 -129.5 536t-346.5 199q-235 0 -361 -185.5t-126 -535.5q0 -342 130 -543.5
t347 -201.5z" />
    <glyph glyph-name="P" unicode="P" horiz-adv-x="1320" 
d="M45 0v14l209 99v1329h-201v24h695q505 0 505 -360q0 -207 -169 -321t-547 -164l-2 18q278 44 403 149.5t125 294.5q0 359 -350 359h-271v-1417h209v-25h-606z" />
    <glyph glyph-name="Q" unicode="Q" horiz-adv-x="1552" 
d="M838 -23q238 -128 494 -201.5t585 -105.5v-14l-76 -168q-647 120 -1010 408l-22 79q-16 -2 -51 -2q-307 0 -485.5 194t-178.5 527q0 237 87.5 418t247 280t368.5 99q305 0 483 -192t178 -517q0 -344 -167 -560.5t-453 -244.5zM295 745q0 -342 130 -543.5t347 -201.5
q235 0 360 188t125 543q0 338 -129 536.5t-346 198.5q-235 0 -361 -185.5t-126 -535.5z" />
    <glyph glyph-name="R" unicode="R" horiz-adv-x="1423" 
d="M1470 -72q-191 31 -317 103.5t-244 220.5l-372 430v16q266 32 384.5 124.5t118.5 267.5q0 179 -82.5 265.5t-252.5 86.5h-263v-1417h209v-25h-606v14l209 99v1329h-201v24h686q492 0 492 -354q0 -187 -157.5 -288.5t-508.5 -139.5l94 -109h191l346 -391
q120 -139 281 -239z" />
    <glyph glyph-name="S" unicode="S" horiz-adv-x="1306" 
d="M637 -25q-291 0 -563 80l123 344l14 -2l51 -299q6 -4 18 -10.5t52 -23.5t83 -30t110.5 -23.5t136.5 -10.5q198 0 306.5 76.5t108.5 216.5q0 119 -70 190.5t-243 130.5l-283 93q-184 60 -273 155t-89 232q0 190 145.5 293.5t411.5 103.5q252 0 495 -66l-104 -315l-16 2
l-62 274q-5 3 -15 8.5t-44 19.5t-71 24.5t-94.5 19t-117.5 8.5q-185 0 -286 -75t-101 -213q0 -109 71.5 -177t246.5 -127l282 -92q187 -61 279 -160.5t92 -240.5q0 -193 -155.5 -299.5t-438.5 -106.5z" />
    <glyph glyph-name="T" unicode="T" horiz-adv-x="1421" 
d="M397 0v14l219 99v1329h-327l-197 -410l-18 2l14 432h1245l15 -432l-19 -2l-196 410h-328v-1417h219v-25h-627z" />
    <glyph glyph-name="U" unicode="U" horiz-adv-x="1624" 
d="M799 -29q-559 0 -559 660v811h-201v24h598v-24h-209v-821q0 -564 467 -564t467 564v821h-209v24h434v-14l-201 -94v-727q0 -660 -587 -660z" />
    <glyph glyph-name="V" unicode="V" horiz-adv-x="1630" 
d="M1128 1466h465v-24h-180l-569 -1442h-41l-582 1442h-184v24h670v-24h-277l475 -1225l443 1126l-220 109v14z" />
    <glyph glyph-name="W" unicode="W" horiz-adv-x="2490" 
d="M1970 1466h484v-24h-179l-524 -1442h-43l-455 1221l-444 -1221h-43l-545 1442h-184v24h686v-24h-293l438 -1213l449 1237h43l448 -1241l402 1108l-240 119v14z" />
    <glyph glyph-name="X" unicode="X" horiz-adv-x="1669" 
d="M1454 25h174v-25h-700v25h289l-445 682l-457 -590l199 -103v-14h-473v25h170l549 700l-494 717h-176v24h701v-24h-291l389 -613l411 529l-194 94v14h465v-24h-172l-496 -633z" />
    <glyph glyph-name="Y" unicode="Y" horiz-adv-x="1605" 
d="M1108 1466h461v-24h-180l-480 -811l-2 -606h209v-25h-606v14l209 99l2 501l-500 828h-184v24h661v-24h-264l463 -787l412 699l-201 98v14z" />
    <glyph glyph-name="Z" unicode="Z" horiz-adv-x="1404" 
d="M1067 27l231 426l17 -4l-35 -449h-1208l-6 16q612 846 800 1102.5t252 325.5l-788 -4l-189 -398l-16 2l8 422h1186l4 -14q-879 -1236 -1051 -1427z" />
    <glyph glyph-name="bracketleft" unicode="[" horiz-adv-x="608" 
d="M158 -336v1907h438v-25h-277v-1859h277v-23h-438z" />
    <glyph glyph-name="backslash" unicode="\" horiz-adv-x="520" 
d="M524 -246h-37l-491 1790h37z" />
    <glyph glyph-name="bracketright" unicode="]" horiz-adv-x="608" 
d="M451 -336h-439v23h277v1859h-277v25h439v-1907z" />
    <glyph glyph-name="asciicircum" unicode="^" horiz-adv-x="892" 
d="M813 870h-43l-324 498l-323 -498h-43l358 547h17z" />
    <glyph glyph-name="underscore" unicode="_" horiz-adv-x="811" 
d="M129 -29h551v-125l-551 27v98z" />
    <glyph glyph-name="grave" unicode="`" horiz-adv-x="595" 
d="M494 1108l-17 -10l-375 305l7 16h196z" />
    <glyph glyph-name="a" unicode="a" horiz-adv-x="1044" 
d="M879 33h133v-17q-68 -32 -152 -32q-78 0 -112 35t-35 120h-13q-10 -12 -23.5 -25t-50 -40.5t-75 -48t-97 -36.5t-118.5 -16q-132 0 -205.5 59t-73.5 163q0 141 148.5 216t490.5 119v193q0 102 -42.5 148.5t-149.5 46.5q-164 0 -361 -99l-10 21q232 155 459 155
q139 0 213 -77t74 -222v-663zM436 63q139 0 260 97v350q-246 -44 -349 -109.5t-103 -175.5q0 -77 49.5 -119.5t142.5 -42.5z" />
    <glyph glyph-name="b" unicode="b" horiz-adv-x="1161" 
d="M694 995q178 0 280.5 -126t102.5 -337q0 -253 -141.5 -406t-374.5 -153q-195 0 -315 111l-72 -107h-29v1432l-155 43v14l323 88l15 -10v-573l-9 -142h5q184 166 370 166zM571 -2q316 0 316 463q0 214 -79 331t-222 117q-67 0 -130 -25t-88.5 -45.5t-39.5 -35.5v-613
q38 -103 96 -147.5t147 -44.5z" />
    <glyph glyph-name="c" unicode="c" horiz-adv-x="1044" 
d="M997 199l11 -15q-236 -211 -482 -211q-209 0 -325.5 121.5t-116.5 339.5q0 257 145 409t387 152q190 0 345 -63l-123 -270l-17 2l-49 266q-75 41 -182 41q-155 0 -238.5 -118.5t-83.5 -338.5q0 -197 101 -302.5t288 -105.5q173 0 340 93z" />
    <glyph glyph-name="d" unicode="d" horiz-adv-x="1218" 
d="M1016 127l176 -41v-18l-287 -84l-18 10l-39 145h-8q-187 -166 -373 -166q-179 0 -281 126.5t-102 338.5q0 253 141 405t375 152q136 0 234 -55v469l-156 43v14l323 88l15 -10v-1417zM274 510q0 -215 78 -332t223 -117q65 0 127 24t88 43.5t44 37.5v672q-91 133 -244 133
q-316 0 -316 -461z" />
    <glyph glyph-name="e" unicode="e" horiz-adv-x="1073" 
d="M1016 201l14 -17q-239 -211 -504 -211q-207 0 -324.5 127t-117.5 351q0 245 138 394.5t360 149.5q187 0 291 -99t104 -267l-23 -21l-686 -45v-45q0 -204 106 -315t298 -111q184 0 344 109zM559 971q-271 0 -289 -389l521 45q-15 344 -232 344z" />
    <glyph glyph-name="f" unicode="f" horiz-adv-x="784" 
d="M723 1546q155 0 307 -51l-72 -133h-14q-150 156 -295 156q-124 0 -191 -86t-67 -244v-217h352v-27h-352v-919h252v-25h-596v14l162 86v844h-158v17l158 8v35q0 255 135.5 398.5t378.5 143.5z" />
    <glyph glyph-name="g" unicode="g" horiz-adv-x="1067" 
d="M1032 1030v-199l-194 9q47 -77 47 -189q0 -179 -115 -287t-305 -108q-95 0 -168 25l-27 -129q90 -43 201 -54l305 -28q129 -12 189.5 -56t60.5 -127q0 -100 -90.5 -190t-240.5 -144.5t-316 -54.5q-168 0 -258 53t-90 150q0 67 53.5 125.5t206.5 155.5q-110 40 -168 124
l4 17l156 164q-99 37 -151 118t-52 199q0 177 115.5 284t304.5 107q225 0 321 -131l195 166h16zM489 279q218 0 218 335q0 170 -61 263.5t-171 93.5q-215 0 -215 -330q0 -172 59.5 -267t169.5 -95zM485 -59q-112 13 -176 34q-89 -84 -120 -138.5t-31 -117.5
q0 -99 64.5 -146.5t197.5 -47.5q187 0 314.5 80t127.5 192q0 56 -32.5 82t-114.5 35z" />
    <glyph glyph-name="h" unicode="h" horiz-adv-x="1222" 
d="M1016 25h170v-25h-502v25h150v749q0 84 -37.5 125t-128.5 41q-159 0 -285 -135v-780h149v-25h-495v14l164 86v1309l-156 43v14l322 88l16 -10v-573l-10 -142h6q11 12 23.5 25t49.5 40.5t75.5 47.5t98.5 36.5t122 16.5q268 0 268 -286v-684z" />
    <glyph glyph-name="i" unicode="i" horiz-adv-x="591" 
d="M295 1139q-52 0 -86.5 33.5t-34.5 84.5q0 50 36.5 85.5t86.5 35.5q51 0 85 -33.5t34 -84.5q0 -50 -36 -85.5t-85 -35.5zM55 0v14l162 86v748l-162 43v16l330 86l14 -8v-960h156v-25h-500z" />
    <glyph glyph-name="j" unicode="j" horiz-adv-x="530" 
d="M279 1139q-52 0 -86.5 33.5t-34.5 84.5q0 50 36.5 85.5t86.5 35.5q51 0 84.5 -33.5t33.5 -84.5q0 -50 -35.5 -85.5t-84.5 -35.5zM31 -514l-119 92v14l244 99q45 107 45 266v891l-162 43v16l330 86l14 -8v-858q0 -228 -83.5 -380.5t-268.5 -260.5z" />
    <glyph glyph-name="k" unicode="k" horiz-adv-x="1212" 
d="M383 1544v-1519h154v-25h-500v14l164 86v1309l-156 43v14l322 88zM1049 25h143v-25h-350l-387 471v16l405 387l-153 80v17h407v-25h-143l-445 -422h111z" />
    <glyph glyph-name="l" unicode="l" horiz-adv-x="595" 
d="M41 0v14l162 86v1309l-154 43v14l322 88l14 -10v-1519h170v-25h-514z" />
    <glyph glyph-name="m" unicode="m" horiz-adv-x="1822" 
d="M1616 25h170v-25h-502v25h150v749q0 84 -37.5 125t-128.5 41q-90 0 -159.5 -39.5t-113.5 -89.5q11 -57 11 -102v-684h147v-25h-477v25h147v749q0 84 -37 125t-127 41q-54 0 -102 -16.5t-81 -43t-50 -43.5t-29 -34v-778h150v-25h-494v14l162 86v748l-162 43v14l301 88
l17 -10l18 -154h6q7 10 19 24.5t43 41.5t67.5 47.5t93.5 36.5t119 16q199 0 252 -159q22 25 51 48.5t74 50.5t106 43.5t128 16.5q268 0 268 -286v-684z" />
    <glyph glyph-name="n" unicode="n" horiz-adv-x="1239" 
d="M1032 25h170v-25h-502v25h150v749q0 84 -37.5 125t-128.5 41q-55 0 -106.5 -17t-89 -43.5t-57.5 -44.5t-34 -34v-776h152v-25h-496v14l162 86v748l-162 43v14l301 88l17 -10l18 -154h6q11 12 23.5 25t49.5 40.5t75.5 47.5t98.5 36.5t122 16.5q268 0 268 -286v-684z" />
    <glyph glyph-name="o" unicode="o" horiz-adv-x="1138" 
d="M553 -27q-223 0 -346 126.5t-123 353.5q0 248 137.5 395t366.5 147q216 0 342.5 -125t126.5 -346q0 -252 -136.5 -401.5t-367.5 -149.5zM571 0q149 0 222 117t73 356q0 241 -77.5 369.5t-219.5 128.5q-150 0 -222.5 -115t-72.5 -352q0 -244 77 -374t220 -130z" />
    <glyph glyph-name="p" unicode="p" horiz-adv-x="1214" 
d="M614 -27q-130 0 -233 56v-494h274v-22h-618v14l162 84v1233l-172 47v14l305 88l20 -12l19 -152h6q184 166 371 166q178 0 280 -126t102 -337q0 -253 -141.5 -406t-374.5 -153zM641 909q-53 0 -101.5 -13.5t-81.5 -34t-50.5 -34.5t-26.5 -24v-674q91 -133 246 -133
q151 0 232 121t81 344q0 213 -79 330.5t-220 117.5z" />
    <glyph glyph-name="q" unicode="q" horiz-adv-x="1161" 
d="M1016 -389l162 -84v-14h-619v22h275v465l8 139h-4q-187 -166 -371 -166q-179 0 -281 126.5t-102 338.5q0 253 141 405t375 152q199 0 315 -110l70 106h31v-1380zM575 61q52 0 100.5 14t81.5 34.5t50.5 34.5t26.5 24v610q-37 102 -94.5 147.5t-149.5 45.5
q-316 0 -316 -461q0 -215 78 -332t223 -117z" />
    <glyph glyph-name="r" unicode="r" horiz-adv-x="858" 
d="M750 995q27 0 49 -2.5t31 -4.5l8 -3l-37 -174h-27q-78 72 -172 72q-41 0 -79 -17t-64.5 -42t-41.5 -42.5t-22 -29.5v-727h275v-25h-619v14l162 86v744l-137 43v16l276 88l15 -10l22 -199h6q5 11 18 31t44 53.5t69 60.5t98 47.5t126 20.5z" />
    <glyph glyph-name="s" unicode="s" horiz-adv-x="937" 
d="M442 -27q-196 0 -376 52l81 227l15 -2l41 -187q12 -7 34.5 -18t91.5 -29t138 -18q119 0 182.5 49t63.5 141q0 75 -46 120.5t-157 80.5l-145 45q-269 85 -269 275q0 135 105.5 210.5t294.5 75.5q165 0 333 -51l-71 -205l-15 2l-55 174q-10 6 -28.5 15.5t-75.5 25
t-113 15.5q-112 0 -171.5 -48t-59.5 -137q0 -70 48 -113.5t167 -80.5l153 -49q260 -82 260 -277q0 -138 -112 -215.5t-314 -77.5z" />
    <glyph glyph-name="t" unicode="t" horiz-adv-x="794" 
d="M754 119l10 -19q-91 -67 -164.5 -97t-150.5 -30q-132 0 -202.5 73t-70.5 208v690h-156v17l324 276h14v-266h359v-27h-359v-702q0 -88 44.5 -127t142.5 -39q105 0 209 43z" />
    <glyph glyph-name="u" unicode="u" horiz-adv-x="1214" 
d="M1012 127l162 -41v-18l-279 -84l-16 6l-37 149h-11q-16 -18 -35.5 -35.5t-68 -52.5t-117.5 -56.5t-145 -21.5q-268 0 -268 289v582l-162 43v14l327 88l17 -10v-782q0 -86 37 -127t127 -41q55 0 106.5 17t89 44.5t57 45t33.5 34.5v674l-161 43v14l329 88l15 -10v-852z" />
    <glyph glyph-name="v" unicode="v" horiz-adv-x="1161" 
d="M788 971h351v-27h-140l-401 -944h-33l-401 944h-141v27h548v-27h-204l295 -733l278 657l-152 86v17z" />
    <glyph glyph-name="w" unicode="w" horiz-adv-x="1703" 
d="M1307 971h374v-27h-141l-373 -944h-32l-279 731l-285 -731h-32l-375 944h-141v27h563v-27h-217l264 -725l291 752h30l271 -762l260 655l-178 90v17z" />
    <glyph glyph-name="x" unicode="x" horiz-adv-x="1251" 
d="M1083 25h134v-25h-578v25h213l-281 421l-299 -346l158 -86v-14h-395v25h137l385 442l-360 477h-138v27h574v-27h-207l252 -381l270 307l-155 84v17h393v-27h-139l-355 -401z" />
    <glyph glyph-name="y" unicode="y" horiz-adv-x="1179" 
d="M786 971h373v-27h-141l-363 -874q-57 -137 -120 -248t-111 -171.5t-88.5 -101.5t-61.5 -54l-22 -13l-96 119v14q192 105 298 209t177 256l6 12h-115l-358 852h-141v27h550v-27h-208l309 -770l282 690l-170 90v17z" />
    <glyph glyph-name="z" unicode="z" horiz-adv-x="1011" 
d="M739 25l183 305l14 -2l-25 -328h-850l-6 16q378 529 505 701t185 229l-456 -2l-170 -282l-15 2l9 307h825l4 -17q-377 -525 -504 -697t-188 -234z" />
    <glyph glyph-name="braceleft" unicode="{" horiz-adv-x="690" 
d="M623 -336q-433 0 -433 649v56q0 124 -34.5 173t-145.5 70v15q111 21 145.5 69t34.5 168v56q0 651 433 651h55v-25h-45q-154 0 -222.5 -87.5t-56.5 -270.5l21 -293q6 -101 -43 -154.5t-203 -115.5v-11q154 -62 203 -116t43 -158l-21 -293q-12 -183 56.5 -271.5
t222.5 -88.5h45v-23h-55z" />
    <glyph glyph-name="bar" unicode="|" horiz-adv-x="378" 
d="M172 -299v2064h37v-2064h-37z" />
    <glyph glyph-name="braceright" unicode="}" horiz-adv-x="690" 
d="M68 -336h-54v23h43q154 0 222.5 88.5t56.5 271.5l-19 293q-7 104 41.5 158t202.5 116v11q-154 62 -202.5 115.5t-41.5 154.5l19 293q12 183 -56.5 270.5t-222.5 87.5h-43v25h54q432 0 432 -651v-56q0 -120 34.5 -168t145.5 -69v-15q-111 -21 -145.5 -70t-34.5 -173v-56
q0 -649 -432 -649z" />
    <glyph glyph-name="asciitilde" unicode="~" horiz-adv-x="1073" 
d="M188 608l-32 15q54 115 89.5 157.5t78.5 42.5q41 0 129.5 -48.5t176 -97t124.5 -48.5q27 0 55 38.5t78 143.5l31 -12q-54 -118 -89.5 -161.5t-78.5 -43.5q-41 0 -129 48t-175 96t-124 48q-31 0 -59 -37t-75 -141z" />
    <glyph glyph-name="uni00A0" unicode="&#xa0;" horiz-adv-x="1228" 
 />
    <glyph glyph-name="exclamdown" unicode="&#xa1;" horiz-adv-x="526" 
d="M262 995q54 0 92.5 -38t38.5 -91q0 -57 -35 -93t-92 -36q-56 0 -94.5 37.5t-38.5 91.5q0 56 36 92.5t93 36.5zM254 528h18l123 -1011l-10 -13h-244l-8 13z" />
    <glyph glyph-name="cent" unicode="&#xa2;" horiz-adv-x="1044" 
d="M1008 408q-208 -188 -430 -209v-224h-23v222h-29q-209 0 -325.5 121t-116.5 339q0 240 127 390t342 170v225h22v-225q14 2 41 2q187 0 345 -64l-123 -270l-17 2l-49 266q-75 41 -182 41h-15l3 -858q38 -6 79 -6q175 0 340 92zM268 739q0 -168 73.5 -270.5t213.5 -128.5
l-2 852q-138 -13 -211.5 -131t-73.5 -322z" />
    <glyph glyph-name="sterling" unicode="&#xa3;" horiz-adv-x="995" 
d="M416 524q0 -180 -137 -354l630 -4l-26 -184l-17 -7l-602 175q-38 -48 -82.5 -92t-69.5 -64l-26 -19l-12 11q8 9 22 24.5t50 66.5t63 103t49.5 128.5t22.5 148.5t-27 155h-168v19l158 6q-16 42 -58 124t-65 149t-23 137q0 167 138.5 280t343.5 113q183 0 340 -49l-95 -279
l-14 2l-57 264q-76 39 -187 39q-147 0 -219 -73.5t-72 -223.5q0 -61 16 -126t36.5 -113.5t43.5 -114.5t34 -123l358 14v-45h-354q6 -44 6 -88z" />
    <glyph glyph-name="currency" unicode="&#xa4;" horiz-adv-x="1239" 
d="M1130 715q0 -207 -135 -355l129 -127l-28 -24l-123 129q-145 -135 -348 -135q-208 0 -353 135l-125 -131l-26 26l129 125q-135 148 -135 357q0 210 135 348l-129 125l26 26l123 -129q144 134 355 134q207 0 352 -132l119 125l28 -24l-127 -123q133 -139 133 -350z
M625 238q201 0 335 137t134 340q0 204 -132 336.5t-337 132.5t-340 -133t-135 -336q0 -207 133.5 -342t341.5 -135z" />
    <glyph glyph-name="yen" unicode="&#xa5;" horiz-adv-x="1529" 
d="M1055 1417h438v-24h-170l-451 -775h322v-24h-332v-248h332v-24h-332v-297h199v-25h-578v14l199 95v213h-328v24h328v248h-328v24h318l-459 775h-176v24h631v-24h-248l436 -760l387 674l-188 96v14z" />
    <glyph glyph-name="brokenbar" unicode="&#xa6;" horiz-adv-x="378" 
d="M172 1032v733h37v-733h-37zM172 -299v733h37v-733h-37z" />
    <glyph glyph-name="section" unicode="&#xa7;" horiz-adv-x="1204" 
d="M469 -270q-42 0 -89.5 4t-73.5 8l-27 4l6 25q96 -19 188 -19q108 0 168.5 45t60.5 125q0 85 -46 165.5t-179 231.5l-186 216q-114 129 -165.5 238.5t-51.5 227.5q0 221 170.5 355.5t451.5 134.5q43 0 87.5 -4t67.5 -8l23 -4l-6 -25q-88 18 -176 18q-115 0 -176 -38
t-61 -109q0 -74 46 -151.5t181 -229.5l213 -244q123 -137 178 -253.5t55 -243.5q0 -212 -180.5 -340.5t-478.5 -128.5zM633 -233q8 1 22 3t54.5 12.5t77 26t81.5 45.5t77.5 68t54.5 96.5t22 128.5q0 112 -47 203t-182 246l-218 248q-108 123 -156 214t-48 175
q0 41 13.5 77.5t32.5 60.5t37.5 41.5t31.5 25.5l14 8q-7 -1 -18.5 -3.5t-44.5 -14t-63.5 -27.5t-67 -46t-63.5 -67t-45 -93.5t-18 -123.5q0 -116 44.5 -206.5t172.5 -235.5l189 -213q109 -124 158 -219.5t49 -188.5q0 -53 -16.5 -97t-40 -69.5t-47 -43.5t-39.5 -24z" />
    <glyph glyph-name="dieresis" unicode="&#xa8;" horiz-adv-x="854" 
d="M215 1143q-49 0 -81 32t-32 78q0 47 34.5 80t80.5 33q48 0 79.5 -31t31.5 -80q0 -45 -34 -78.5t-79 -33.5zM639 1143q-50 0 -81.5 31.5t-31.5 78.5t34 80t81 33q48 0 79.5 -31t31.5 -80q0 -44 -34.5 -78t-78.5 -34z" />
    <glyph glyph-name="copyright" unicode="&#xa9;" horiz-adv-x="1800" 
d="M907 1491q167 0 311 -57t245.5 -156.5t159.5 -239t58 -299.5q0 -213 -101.5 -388t-280 -275.5t-396.5 -100.5q-167 0 -312 58.5t-247 160t-160.5 243t-58.5 302.5q0 212 102 384.5t281 270t399 97.5zM903 -2q159 0 299 57.5t239.5 156t157.5 236t58 291.5q0 155 -56 290
t-154 231.5t-238 152t-302 55.5q-214 0 -387.5 -95t-271.5 -262t-98 -372q0 -157 56.5 -294.5t155.5 -235.5t239 -154.5t302 -56.5zM993 418q150 0 293 80l8 -15q-204 -176 -415 -176q-180 0 -280.5 101.5t-100.5 281.5q0 216 125 342.5t333 126.5q158 0 299 -51l-108 -227
l-14 2l-41 223q-67 33 -158 33q-132 0 -204.5 -98.5t-72.5 -280.5q0 -164 87.5 -253t248.5 -89z" />
    <glyph glyph-name="ordfeminine" unicode="&#xaa;" horiz-adv-x="747" 
d="M641 928h86v-13q-52 -22 -119 -22q-61 0 -84 22.5t-26 77.5h-6q-4 -4 -12.5 -11.5t-35.5 -25.5t-56 -32t-73 -25.5t-88 -11.5q-91 0 -142.5 38t-51.5 107q0 93 103 142.5t349 80.5v105q0 66 -29.5 98.5t-107.5 32.5q-118 0 -252 -61l-10 14q172 108 342 108
q104 0 158.5 -51t54.5 -151v-422zM197 1059q0 -51 34 -79t95 -28q79 0 159 56v231q-156 -26 -222 -67.5t-66 -112.5z" />
    <glyph glyph-name="guillemotleft" unicode="&#xab;" horiz-adv-x="854" 
d="M403 127l-362 371l362 372l15 -10l-178 -362l178 -363zM770 127l-362 371l362 372l14 -10l-178 -362l178 -363z" />
    <glyph glyph-name="logicalnot" unicode="&#xac;" horiz-adv-x="1150" 
d="M131 819h864v-403h-37v366h-827v37z" />
    <glyph glyph-name="registered" unicode="&#xae;" horiz-adv-x="1800" 
d="M903 -25q-167 0 -312 58.5t-247 160t-160.5 243t-58.5 302.5q0 212 102 384.5t281 270t399 97.5q167 0 311 -57t245.5 -156.5t159.5 -239t58 -299.5q0 -213 -101.5 -388t-280 -275.5t-396.5 -100.5zM903 -2q159 0 299 57.5t239.5 156t157.5 236t58 291.5q0 155 -56 290
t-154 231.5t-238 152t-302 55.5q-214 0 -387.5 -95t-271.5 -262t-98 -372q0 -157 56.5 -294.5t155.5 -235.5t239 -154.5t302 -56.5zM498 309v10l118 56v768h-114v16h428q307 0 307 -205q0 -108 -93 -166t-304 -81l57 -74h152l239 -307h90l-14 -17h-242l-301 396v12
q139 17 202.5 70t63.5 151q0 106 -46 155.5t-138 49.5h-135v-817h117v-17h-387z" />
    <glyph glyph-name="degree" unicode="&#xb0;" horiz-adv-x="794" 
d="M397 805q-137 0 -227 89.5t-90 227.5q0 135 91.5 227.5t227.5 92.5q140 0 228 -89t88 -229q0 -137 -91 -228t-227 -91zM397 838q123 0 204 81.5t81 204.5q0 127 -78 206t-205 79q-124 0 -204 -81.5t-80 -205.5t79.5 -204t202.5 -80z" />
    <glyph glyph-name="plusminus" unicode="&#xb1;" horiz-adv-x="1150" 
d="M594 913h401v-36h-401v-371h-37v371h-401v36h401v371h37v-371zM156 174v37h839v-37h-839z" />
    <glyph glyph-name="acute" unicode="&#xb4;" horiz-adv-x="595" 
d="M102 1108l187 311h196l9 -16l-377 -305z" />
    <glyph glyph-name="paragraph" unicode="&#xb6;" horiz-adv-x="1191" 
d="M651 -141v647q-252 0 -403.5 132t-151.5 349t151.5 348t403.5 131h25v-1599zM614 -449l-165 123v15l288 112q39 107 39 262v1403h379v-14l-201 -94v-1151q0 -228 -81 -384t-259 -272z" />
    <glyph glyph-name="periodcentered" unicode="&#xb7;" horiz-adv-x="571" 
d="M285 389q-57 0 -93 35.5t-36 91.5q0 55 38.5 92t94.5 37q55 0 91 -35.5t36 -91.5q0 -54 -38.5 -91.5t-92.5 -37.5z" />
    <glyph glyph-name="ordmasculine" unicode="&#xba;" horiz-adv-x="808" 
d="M391 887q-162 0 -251 82.5t-89 230.5q0 163 99.5 257.5t267.5 94.5q157 0 247.5 -80.5t90.5 -224.5q0 -166 -98 -263t-267 -97zM408 905q91 0 135.5 72.5t44.5 226.5q0 162 -48 247t-139 85q-92 0 -137 -72.5t-45 -222.5q0 -163 48.5 -249.5t140.5 -86.5z" />
    <glyph glyph-name="guillemotright" unicode="&#xbb;" horiz-adv-x="854" 
d="M84 127l-14 8l180 363l-180 362l14 10l365 -372zM451 127l-15 8l180 363l-180 362l15 10l364 -372z" />
    <glyph glyph-name="onequarter" unicode="&#xbc;" horiz-adv-x="1642" 
d="M506 528v-18h-447v12l142 51v734h-142v12l291 123l12 -6v-908h144zM1288 1417h35l-993 -1417h-35zM1597 250h-143v-232h119v-18h-397v12l116 51v187h-405l-6 10l317 647h215l4 -12l-516 -629l391 2v207h162v-207h143v-18z" />
    <glyph glyph-name="onehalf" unicode="&#xbd;" horiz-adv-x="1781" 
d="M506 528v-18h-447v12l142 51v734h-142v12l291 123l12 -6v-908h144zM1288 1417h35l-993 -1417h-35zM1683 270l13 -2l-13 -268h-655l-6 12l281 332q94 111 130.5 183t36.5 141q0 77 -52 121.5t-142 44.5q-132 0 -227 -62l-5 8q127 142 310 142q129 0 203.5 -60.5
t74.5 -163.5q0 -91 -64 -181t-218 -214l-213 -188l403 -99z" />
    <glyph glyph-name="threequarters" unicode="&#xbe;" horiz-adv-x="1800" 
d="M717 811q0 -143 -114.5 -230t-303.5 -87q-103 0 -205 26l-12 119l10 6l248 -121q100 19 153.5 86.5t53.5 175.5q0 95 -60.5 162t-169.5 96v13l265 248l-324 96l-143 -250l-13 2l13 264h602l2 -12l-377 -350q180 -9 277.5 -72t97.5 -172zM1446 1417h35l-994 -1417h-34z
M1755 250h-143v-232h119v-18h-398v12l117 51v187h-406l-6 10l318 647h215l4 -12l-516 -629l391 2v207h162v-207h143v-18z" />
    <glyph glyph-name="questiondown" unicode="&#xbf;" horiz-adv-x="882" 
d="M473 737q-57 0 -93 36t-36 93q0 52 39 90.5t92 38.5q57 0 93 -36.5t36 -92.5q0 -54 -38.5 -91.5t-92.5 -37.5zM709 -141l131 -197q-179 -182 -418 -182q-161 0 -258.5 81.5t-97.5 213.5q0 100 53 189t182 206l227 211l-194 98l2 17h280l5 -15l-234 -348
q-80 -119 -109.5 -190t-29.5 -144q0 -109 63 -168t178 -59q94 0 189 29l16 256z" />
    <glyph glyph-name="Agrave" unicode="&#xc0;" horiz-adv-x="1687" 
d="M870 1602l-10 -13l-414 242l9 16h194zM1458 25h191v-25h-680v25h288l-237 602h-531l-194 -502l217 -111v-14h-473v25h190l510 1312l-112 115v14h254zM498 651h512l-258 654z" />
    <glyph glyph-name="Aacute" unicode="&#xc1;" horiz-adv-x="1687" 
d="M1110 1831l-412 -242l-12 13l221 245h195zM1458 25h191v-25h-680v25h288l-237 602h-531l-194 -502l217 -111v-14h-473v25h190l510 1312l-112 115v14h254zM498 651h512l-258 654z" />
    <glyph glyph-name="Acircumflex" unicode="&#xc2;" horiz-adv-x="1687" 
d="M791 1698l-295 -111l-7 12l293 244h19l293 -244l-9 -12zM1458 25h191v-25h-680v25h288l-237 602h-531l-194 -502l217 -111v-14h-473v25h190l510 1312l-112 115v14h254zM498 651h512l-258 654z" />
    <glyph glyph-name="Atilde" unicode="&#xc3;" horiz-adv-x="1687" 
d="M561 1714q-27 0 -48.5 -18.5t-57.5 -73.5l-19 10q58 121 93 162t79 41q42 0 209.5 -51t202.5 -51q26 0 46.5 18t57.5 74l21 -10q-58 -121 -93 -162t-79 -41q-42 0 -209.5 51t-202.5 51zM1458 25h191v-25h-680v25h288l-237 602h-531l-194 -502l217 -111v-14h-473v25h190
l510 1312l-112 115v14h254zM498 651h512l-258 654z" />
    <glyph glyph-name="Adieresis" unicode="&#xc4;" horiz-adv-x="1687" 
d="M565 1604q-50 0 -82 32t-32 80q0 49 34 83t82 34q49 0 82 -32.5t33 -82.5q0 -46 -35 -80t-82 -34zM1016 1604q-50 0 -82.5 32t-32.5 80q0 49 34.5 83t84.5 34q48 0 80.5 -33t32.5 -82q0 -46 -35 -80t-82 -34zM1458 25h191v-25h-680v25h288l-237 602h-531l-194 -502
l217 -111v-14h-473v25h190l510 1312l-112 115v14h254zM498 651h512l-258 654z" />
    <glyph glyph-name="Aring" unicode="&#xc5;" horiz-adv-x="1687" 
d="M795 1591q-89 0 -147 54.5t-58 134.5q0 82 60 138t149 56q90 0 147.5 -54t57.5 -136t-60 -137.5t-149 -55.5zM889 1929q-47 21 -90 21q-50 0 -94 -23v-291q45 -20 90 -20q52 0 94 22v291zM1458 25h191v-25h-680v25h288l-237 602h-531l-194 -502l217 -111v-14h-473v25h190
l510 1312l-112 115v14h254zM498 651h512l-258 654z" />
    <glyph glyph-name="AE" unicode="&#xc6;" horiz-adv-x="2291" 
d="M2195 420l17 -2l-53 -418h-1215v14l209 99v516h-514l-324 -514l197 -101v-14h-473v25h190l828 1308l-131 119v14h1183l21 -393l-16 -2l-195 371h-578v-668h314l127 230h14v-484h-24v228l-431 2v-725l615 2zM653 651h500v793z" />
    <glyph glyph-name="Ccedilla" unicode="&#xc7;" horiz-adv-x="1427" 
d="M1284 109q-257 -133 -512 -136l-22 -69q135 -40 198.5 -80.5t63.5 -87.5q1 -52 -64.5 -114t-206.5 -142l-10 12q115 147 115 225q0 35 -30 75.5t-97 96.5l26 84q-301 5 -476 198t-175 521q0 238 89 419.5t252.5 280.5t377.5 99q237 0 455 -84l10 -367l-18 -2l-191 365
q-136 65 -276 65q-242 0 -371 -187.5t-129 -539.5q0 -342 132.5 -542.5t358.5 -200.5q164 0 293 88l238 408l18 -2z" />
    <glyph glyph-name="Egrave" unicode="&#xc8;" horiz-adv-x="1402" 
d="M801 1589l-414 242l8 16h195l221 -245zM45 0v14l209 99v1329h-201v24h1166l22 -393l-18 -2l-193 369l-588 2v-668h322l127 230h16v-484h-24v228l-441 2v-725l623 2l240 393l18 -2l-55 -418h-1223z" />
    <glyph glyph-name="Eacute" unicode="&#xc9;" horiz-adv-x="1402" 
d="M639 1589l-12 13l221 245h194l9 -16zM45 0v14l209 99v1329h-201v24h1166l22 -393l-18 -2l-193 369l-588 2v-668h322l127 230h16v-484h-24v228l-441 2v-725l623 2l240 393l18 -2l-55 -418h-1223z" />
    <glyph glyph-name="Ecircumflex" unicode="&#xca;" horiz-adv-x="1402" 
d="M434 1587l-6 12l293 244h18l293 -244l-8 -12l-295 111zM45 0v14l209 99v1329h-201v24h1166l22 -393l-18 -2l-193 369l-588 2v-668h322l127 230h16v-484h-24v228l-441 2v-725l623 2l240 393l18 -2l-55 -418h-1223z" />
    <glyph glyph-name="Edieresis" unicode="&#xcb;" horiz-adv-x="1402" 
d="M504 1604q-50 0 -82.5 32t-32.5 80q0 49 34.5 83t82.5 34q50 0 82.5 -32.5t32.5 -82.5q0 -46 -35 -80t-82 -34zM954 1604q-50 0 -82 32t-32 80q0 49 34 83t84 34q48 0 80.5 -33t32.5 -82q0 -46 -35 -80t-82 -34zM45 0v14l209 99v1329h-201v24h1166l22 -393l-18 -2
l-193 369l-588 2v-668h322l127 230h16v-484h-24v228l-441 2v-725l623 2l240 393l18 -2l-55 -418h-1223z" />
    <glyph glyph-name="Igrave" unicode="&#xcc;" horiz-adv-x="702" 
d="M420 1589l-414 242l8 16h195l221 -245zM45 0v14l209 99v1329h-201v24h596v-14l-200 -94v-1333h208v-25h-612z" />
    <glyph glyph-name="Iacute" unicode="&#xcd;" horiz-adv-x="702" 
d="M260 1589l-12 13l221 245h195l8 -16zM45 0v14l209 99v1329h-201v24h596v-14l-200 -94v-1333h208v-25h-612z" />
    <glyph glyph-name="Icircumflex" unicode="&#xce;" horiz-adv-x="702" 
d="M55 1587l-6 12l293 244h18l293 -244l-8 -12l-295 111zM45 0v14l209 99v1329h-201v24h596v-14l-200 -94v-1333h208v-25h-612z" />
    <glyph glyph-name="Idieresis" unicode="&#xcf;" horiz-adv-x="702" 
d="M125 1604q-50 0 -82.5 32t-32.5 80q0 49 34.5 83t82.5 34q49 0 82 -32.5t33 -82.5q0 -46 -35 -80t-82 -34zM575 1604q-50 0 -82 32t-32 80q0 49 34.5 83t84.5 34q47 0 79.5 -33t32.5 -82q0 -46 -35 -80t-82 -34zM45 0v14l209 99v1329h-201v24h596v-14l-200 -94v-1333h208
v-25h-612z" />
    <glyph glyph-name="Eth" unicode="&#xd0;" horiz-adv-x="1566" 
d="M762 1466q340 0 526.5 -182.5t186.5 -503.5q0 -366 -197.5 -573t-568.5 -207h-660v14l209 99v637h-192v24h192v668h-201v24h705zM721 25q285 0 419 172.5t134 533.5q0 345 -137 528t-394 183h-297v-668h400v-24h-400v-682q123 -43 275 -43z" />
    <glyph glyph-name="Ntilde" unicode="&#xd1;" horiz-adv-x="1585" 
d="M463 1622l-19 10q58 121 93 162t79 41q42 0 209.5 -51t202.5 -51q26 0 47 18.5t58 73.5l20 -10q-58 -121 -93 -162t-79 -41q-42 0 -209.5 51t-202.5 51q-27 0 -48.5 -18.5t-57.5 -73.5zM41 0v14l209 99v1222l-150 117v14h279l946 -1257l-4 1229v4h-209v24h436v-14
l-200 -94v-1358h-95l-983 1298l4 -1269v-4h209v-25h-442z" />
    <glyph glyph-name="Ograve" unicode="&#xd2;" horiz-adv-x="1556" 
d="M848 1589l-414 242l8 16h195l221 -245zM760 -27q-307 0 -485.5 194t-178.5 527q0 237 87.5 418t247 280t368.5 99q304 0 482.5 -192t178.5 -517q0 -369 -190.5 -589t-509.5 -220zM774 0q235 0 360.5 188.5t125.5 542.5q0 337 -129.5 536t-346.5 199q-235 0 -361 -185.5
t-126 -535.5q0 -342 130 -543.5t347 -201.5z" />
    <glyph glyph-name="Oacute" unicode="&#xd3;" horiz-adv-x="1556" 
d="M688 1589l-12 13l221 245h195l8 -16zM760 -27q-307 0 -485.5 194t-178.5 527q0 237 87.5 418t247 280t368.5 99q304 0 482.5 -192t178.5 -517q0 -369 -190.5 -589t-509.5 -220zM774 0q235 0 360.5 188.5t125.5 542.5q0 337 -129.5 536t-346.5 199q-235 0 -361 -185.5
t-126 -535.5q0 -342 130 -543.5t347 -201.5z" />
    <glyph glyph-name="Ocircumflex" unicode="&#xd4;" horiz-adv-x="1556" 
d="M483 1587l-6 12l293 244h18l293 -244l-8 -12l-295 111zM760 -27q-307 0 -485.5 194t-178.5 527q0 237 87.5 418t247 280t368.5 99q304 0 482.5 -192t178.5 -517q0 -369 -190.5 -589t-509.5 -220zM774 0q235 0 360.5 188.5t125.5 542.5q0 337 -129.5 536t-346.5 199
q-235 0 -361 -185.5t-126 -535.5q0 -342 130 -543.5t347 -201.5z" />
    <glyph glyph-name="Otilde" unicode="&#xd5;" horiz-adv-x="1556" 
d="M444 1622l-18 10q58 121 93 162t79 41q42 0 209.5 -51t202.5 -51q26 0 46.5 18t57.5 74l21 -10q-58 -121 -93 -162t-79 -41q-42 0 -209.5 51t-202.5 51q-27 0 -49 -18.5t-58 -73.5zM760 -27q-307 0 -485.5 194t-178.5 527q0 237 87.5 418t247 280t368.5 99
q304 0 482.5 -192t178.5 -517q0 -369 -190.5 -589t-509.5 -220zM774 0q235 0 360.5 188.5t125.5 542.5q0 337 -129.5 536t-346.5 199q-235 0 -361 -185.5t-126 -535.5q0 -342 130 -543.5t347 -201.5z" />
    <glyph glyph-name="Odieresis" unicode="&#xd6;" horiz-adv-x="1556" 
d="M553 1604q-50 0 -82.5 32t-32.5 80q0 49 34.5 83t82.5 34q49 0 82 -32.5t33 -82.5q0 -46 -35 -80t-82 -34zM1004 1604q-50 0 -82.5 32t-32.5 80q0 49 34.5 83t84.5 34q47 0 79.5 -33t32.5 -82q0 -46 -34.5 -80t-81.5 -34zM760 -27q-307 0 -485.5 194t-178.5 527
q0 237 87.5 418t247 280t368.5 99q304 0 482.5 -192t178.5 -517q0 -369 -190.5 -589t-509.5 -220zM774 0q235 0 360.5 188.5t125.5 542.5q0 337 -129.5 536t-346.5 199q-235 0 -361 -185.5t-126 -535.5q0 -342 130 -543.5t347 -201.5z" />
    <glyph glyph-name="multiply" unicode="&#xd7;" horiz-adv-x="845" 
d="M739 999l-288 -290l288 -289l-26 -27l-289 289l-289 -289l-29 27l291 289l-291 290l29 25l289 -289l289 289z" />
    <glyph glyph-name="Oslash" unicode="&#xd8;" horiz-adv-x="1556" 
d="M1243 1337q105 -93 161 -234.5t56 -320.5q0 -369 -190.5 -589t-509.5 -220q-259 0 -430 142l-123 -164l-21 14l125 166q-104 95 -159.5 238.5t-55.5 324.5q0 237 87.5 418t247 280t368.5 99q255 0 426 -139l125 168l18 -15zM297 745q0 -302 102 -495l746 995
q-132 221 -361 221q-235 0 -361 -185.5t-126 -535.5zM774 0q235 0 360.5 188.5t125.5 542.5q0 297 -103 492l-745 -998q64 -109 156 -167t206 -58z" />
    <glyph glyph-name="Ugrave" unicode="&#xd9;" horiz-adv-x="1624" 
d="M920 1589l-414 242l8 16h195l221 -245zM799 -29q-559 0 -559 660v811h-201v24h598v-24h-209v-821q0 -564 467 -564t467 564v821h-209v24h434v-14l-201 -94v-727q0 -660 -587 -660z" />
    <glyph glyph-name="Uacute" unicode="&#xda;" horiz-adv-x="1624" 
d="M760 1589l-12 13l221 245h194l8 -16zM799 -29q-559 0 -559 660v811h-201v24h598v-24h-209v-821q0 -564 467 -564t467 564v821h-209v24h434v-14l-201 -94v-727q0 -660 -587 -660z" />
    <glyph glyph-name="Ucircumflex" unicode="&#xdb;" horiz-adv-x="1624" 
d="M555 1587l-6 12l293 244h18l293 -244l-8 -12l-295 111zM799 -29q-559 0 -559 660v811h-201v24h598v-24h-209v-821q0 -564 467 -564t467 564v821h-209v24h434v-14l-201 -94v-727q0 -660 -587 -660z" />
    <glyph glyph-name="Udieresis" unicode="&#xdc;" horiz-adv-x="1624" 
d="M625 1604q-50 0 -82.5 32t-32.5 80q0 49 34.5 83t82.5 34q49 0 81.5 -32.5t32.5 -82.5q0 -46 -34.5 -80t-81.5 -34zM1075 1604q-50 0 -82 32t-32 80q0 49 34 83t84 34q48 0 80.5 -33t32.5 -82q0 -46 -35 -80t-82 -34zM799 -29q-559 0 -559 660v811h-201v24h598v-24h-209
v-821q0 -564 467 -564t467 564v821h-209v24h434v-14l-201 -94v-727q0 -660 -587 -660z" />
    <glyph glyph-name="Yacute" unicode="&#xdd;" horiz-adv-x="1605" 
d="M1137 1831l-412 -242l-12 13l221 245h194zM1108 1466h461v-24h-180l-480 -811l-2 -606h209v-25h-606v14l209 99l2 501l-500 828h-184v24h661v-24h-264l463 -787l412 699l-201 98v14z" />
    <glyph glyph-name="Thorn" unicode="&#xde;" horiz-adv-x="1320" 
d="M45 0v14l209 99v1329h-201v24h598v-24h-209v-256h306q505 0 505 -361q0 -207 -169.5 -322.5t-546.5 -162.5l-2 16q278 46 403 152t125 295q0 358 -350 358h-271v-1136h209v-25h-606z" />
    <glyph glyph-name="germandbls" unicode="&#xdf;" horiz-adv-x="1378" 
d="M1049 584q138 -72 199 -146.5t61 -171.5q0 -138 -108 -215.5t-298 -77.5q-188 0 -368 58l57 141l16 -4q58 -81 139.5 -125.5t178.5 -44.5q102 0 161.5 51t59.5 144q0 72 -43.5 124t-149.5 109l-82 43q-142 73 -205 146.5t-63 164.5q0 108 98 226t338 297
q-101 112 -190 163.5t-201 51.5q-124 0 -191 -86t-67 -244v-1188h-344v14l162 86v770l-158 84v17h158v33q0 255 135.5 398.5t378.5 143.5q220 0 453 -133v-14q-244 -216 -331 -326.5t-87 -210.5q0 -68 46.5 -120.5t158.5 -112.5z" />
    <glyph glyph-name="agrave" unicode="&#xe0;" horiz-adv-x="1044" 
d="M590 1108l-17 -10l-374 305l6 16h196zM879 33h133v-17q-68 -32 -152 -32q-78 0 -112 35t-35 120h-13q-10 -12 -23.5 -25t-50 -40.5t-75 -48t-97 -36.5t-118.5 -16q-132 0 -205.5 59t-73.5 163q0 141 148.5 216t490.5 119v193q0 102 -42.5 148.5t-149.5 46.5
q-164 0 -361 -99l-10 21q232 155 459 155q139 0 213 -77t74 -222v-663zM436 63q139 0 260 97v350q-246 -44 -349 -109.5t-103 -175.5q0 -77 49.5 -119.5t142.5 -42.5z" />
    <glyph glyph-name="aacute" unicode="&#xe1;" horiz-adv-x="1044" 
d="M854 1403l-377 -305l-14 10l186 311h197zM879 33h133v-17q-68 -32 -152 -32q-78 0 -112 35t-35 120h-13q-10 -12 -23.5 -25t-50 -40.5t-75 -48t-97 -36.5t-118.5 -16q-132 0 -205.5 59t-73.5 163q0 141 148.5 216t490.5 119v193q0 102 -42.5 148.5t-149.5 46.5
q-164 0 -361 -99l-10 21q232 155 459 155q139 0 213 -77t74 -222v-663zM436 63q139 0 260 97v350q-246 -44 -349 -109.5t-103 -175.5q0 -77 49.5 -119.5t142.5 -42.5z" />
    <glyph glyph-name="acircumflex" unicode="&#xe2;" horiz-adv-x="1044" 
d="M530 1276l-272 -164l-8 10l272 303h17l268 -303l-10 -10zM879 33h133v-17q-68 -32 -152 -32q-78 0 -112 35t-35 120h-13q-10 -12 -23.5 -25t-50 -40.5t-75 -48t-97 -36.5t-118.5 -16q-132 0 -205.5 59t-73.5 163q0 141 148.5 216t490.5 119v193q0 102 -42.5 148.5
t-149.5 46.5q-164 0 -361 -99l-10 21q232 155 459 155q139 0 213 -77t74 -222v-663zM436 63q139 0 260 97v350q-246 -44 -349 -109.5t-103 -175.5q0 -77 49.5 -119.5t142.5 -42.5z" />
    <glyph glyph-name="atilde" unicode="&#xe3;" horiz-adv-x="1044" 
d="M326 1253q-27 0 -49 -18.5t-58 -71.5l-18 8q58 122 92.5 162.5t79.5 40.5q42 0 180.5 -51t173.5 -51q26 0 46.5 18t57.5 74l21 -8q-58 -123 -93 -164t-79 -41q-42 0 -180.5 51t-173.5 51zM879 33h133v-17q-68 -32 -152 -32q-78 0 -112 35t-35 120h-13q-10 -12 -23.5 -25
t-50 -40.5t-75 -48t-97 -36.5t-118.5 -16q-132 0 -205.5 59t-73.5 163q0 141 148.5 216t490.5 119v193q0 102 -42.5 148.5t-149.5 46.5q-164 0 -361 -99l-10 21q232 155 459 155q139 0 213 -77t74 -222v-663zM436 63q139 0 260 97v350q-246 -44 -349 -109.5t-103 -175.5
q0 -77 49.5 -119.5t142.5 -42.5z" />
    <glyph glyph-name="adieresis" unicode="&#xe4;" horiz-adv-x="1044" 
d="M315 1143q-49 0 -80.5 32t-31.5 78q0 47 34 80t80 33q48 0 79.5 -31t31.5 -80q0 -45 -34 -78.5t-79 -33.5zM739 1143q-50 0 -81 31.5t-31 78.5t33.5 80t80.5 33q48 0 79.5 -31t31.5 -80q0 -44 -34.5 -78t-78.5 -34zM879 33h133v-17q-68 -32 -152 -32q-78 0 -112 35
t-35 120h-13q-10 -12 -23.5 -25t-50 -40.5t-75 -48t-97 -36.5t-118.5 -16q-132 0 -205.5 59t-73.5 163q0 141 148.5 216t490.5 119v193q0 102 -42.5 148.5t-149.5 46.5q-164 0 -361 -99l-10 21q232 155 459 155q139 0 213 -77t74 -222v-663zM436 63q139 0 260 97v350
q-246 -44 -349 -109.5t-103 -175.5q0 -77 49.5 -119.5t142.5 -42.5z" />
    <glyph glyph-name="aring" unicode="&#xe5;" horiz-adv-x="1044" 
d="M530 1096q-89 0 -146.5 54t-57.5 134q0 82 60 138.5t149 56.5q90 0 147 -54t57 -137q0 -82 -60 -137t-149 -55zM625 1434q-45 20 -90 20q-53 0 -95 -22v-291q47 -21 90 -21q51 0 95 23v291zM879 33h133v-17q-68 -32 -152 -32q-78 0 -112 35t-35 120h-13
q-10 -12 -23.5 -25t-50 -40.5t-75 -48t-97 -36.5t-118.5 -16q-132 0 -205.5 59t-73.5 163q0 141 148.5 216t490.5 119v193q0 102 -42.5 148.5t-149.5 46.5q-164 0 -361 -99l-10 21q232 155 459 155q139 0 213 -77t74 -222v-663zM436 63q139 0 260 97v350
q-246 -44 -349 -109.5t-103 -175.5q0 -77 49.5 -119.5t142.5 -42.5z" />
    <glyph glyph-name="ae" unicode="&#xe6;" horiz-adv-x="1687" 
d="M1632 201l13 -17q-236 -211 -504 -211q-132 0 -229 53t-152 152q-28 -32 -63.5 -62.5t-88.5 -65.5t-123.5 -56t-144.5 -21q-134 0 -208.5 58t-74.5 164q0 141 148.5 218t492.5 128v182q0 101 -43 148t-151 47q-164 0 -361 -99l-10 21q232 155 459 155q189 0 237 -161
q142 161 367 161q188 0 291.5 -99t103.5 -267l-22 -21l-686 -61v-29q0 -204 105.5 -315t297.5 -111q181 0 346 109zM1174 971q-276 0 -291 -406l522 62q-15 344 -231 344zM436 63q100 0 181 42t133 92q-52 110 -52 254v67q-248 -51 -351 -117t-103 -174q0 -79 49.5 -121.5
t142.5 -42.5z" />
    <glyph glyph-name="ccedilla" unicode="&#xe7;" horiz-adv-x="1044" 
d="M512 -92q123 -38 180.5 -78.5t59.5 -87.5q0 -102 -244 -258l-10 10q98 133 98 225q0 86 -111 175l25 79q-201 5 -313.5 126t-112.5 335q0 257 145 409t387 152q190 0 345 -63l-123 -270l-17 2l-49 266q-75 41 -182 41q-155 0 -238.5 -118.5t-83.5 -338.5
q0 -197 101 -302.5t288 -105.5q173 0 340 93l11 -15q-233 -208 -473 -211z" />
    <glyph glyph-name="egrave" unicode="&#xe8;" horiz-adv-x="1073" 
d="M618 1108l-16 -10l-375 305l6 16h197zM1016 201l14 -17q-239 -211 -504 -211q-207 0 -324.5 127t-117.5 351q0 245 138 394.5t360 149.5q187 0 291 -99t104 -267l-23 -21l-686 -45v-45q0 -204 106 -315t298 -111q184 0 344 109zM559 971q-271 0 -289 -389l521 45
q-15 344 -232 344z" />
    <glyph glyph-name="eacute" unicode="&#xe9;" horiz-adv-x="1073" 
d="M883 1403l-377 -305l-14 10l186 311h196zM1016 201l14 -17q-239 -211 -504 -211q-207 0 -324.5 127t-117.5 351q0 245 138 394.5t360 149.5q187 0 291 -99t104 -267l-23 -21l-686 -45v-45q0 -204 106 -315t298 -111q184 0 344 109zM559 971q-271 0 -289 -389l521 45
q-15 344 -232 344z" />
    <glyph glyph-name="ecircumflex" unicode="&#xea;" horiz-adv-x="1073" 
d="M557 1276l-272 -164l-9 10l273 303h16l269 -303l-11 -10zM1016 201l14 -17q-239 -211 -504 -211q-207 0 -324.5 127t-117.5 351q0 245 138 394.5t360 149.5q187 0 291 -99t104 -267l-23 -21l-686 -45v-45q0 -204 106 -315t298 -111q184 0 344 109zM559 971
q-271 0 -289 -389l521 45q-15 344 -232 344z" />
    <glyph glyph-name="edieresis" unicode="&#xeb;" horiz-adv-x="1073" 
d="M342 1143q-49 0 -81 32t-32 78q0 47 34.5 80t80.5 33q48 0 79.5 -31t31.5 -80q0 -45 -33.5 -78.5t-79.5 -33.5zM766 1143q-50 0 -81.5 31.5t-31.5 78.5t34 80t81 33q48 0 79.5 -31t31.5 -80q0 -44 -34.5 -78t-78.5 -34zM1016 201l14 -17q-239 -211 -504 -211
q-207 0 -324.5 127t-117.5 351q0 245 138 394.5t360 149.5q187 0 291 -99t104 -267l-23 -21l-686 -45v-45q0 -204 106 -315t298 -111q184 0 344 109zM559 971q-271 0 -289 -389l521 45q-15 344 -232 344z" />
    <glyph glyph-name="igrave" unicode="&#xec;" horiz-adv-x="591" 
d="M358 1108l-16 -10l-375 305l6 16h197zM55 0v14l162 86v748l-162 43v16l330 86l14 -8v-960h156v-25h-500z" />
    <glyph glyph-name="iacute" unicode="&#xed;" horiz-adv-x="591" 
d="M231 1108l187 311h196l9 -16l-377 -305zM55 0v14l162 86v748l-162 43v16l330 86l14 -8v-960h156v-25h-500z" />
    <glyph glyph-name="icircumflex" unicode="&#xee;" horiz-adv-x="591" 
d="M291 1425h16l268 -303l-10 -10l-266 164l-272 -164l-9 10zM55 0v14l162 86v748l-162 43v16l330 86l14 -8v-960h156v-25h-500z" />
    <glyph glyph-name="idieresis" unicode="&#xef;" horiz-adv-x="591" 
d="M84 1143q-49 0 -81 32t-32 78q0 47 34.5 80t80.5 33q48 0 79.5 -31t31.5 -80q0 -45 -33.5 -78.5t-79.5 -33.5zM508 1143q-50 0 -81.5 31.5t-31.5 78.5t34 80t81 33q48 0 79.5 -31t31.5 -80q0 -44 -34.5 -78t-78.5 -34zM55 0v14l162 86v748l-162 43v16l330 86l14 -8v-960
h156v-25h-500z" />
    <glyph glyph-name="eth" unicode="&#xf0;" horiz-adv-x="1044" 
d="M584 1221q199 -165 304 -347t105 -364q0 -242 -136 -388.5t-361 -146.5q-220 0 -342.5 102.5t-122.5 289.5q0 209 154 343.5t429 166.5l2 -17q-207 -46 -309 -161t-102 -304q0 -190 79 -292.5t222 -102.5q149 0 222 117t73 356q0 373 -299 705l-244 -134l-12 21l237 131
q-137 146 -323 281l10 14q213 -111 391 -252l246 133l12 -22z" />
    <glyph glyph-name="ntilde" unicode="&#xf1;" horiz-adv-x="1239" 
d="M424 1235q-27 0 -49 -18.5t-58 -71.5l-18 8q58 122 92.5 162.5t79.5 40.5q42 0 180.5 -51.5t173.5 -51.5q26 0 47 18.5t58 74.5l20 -9q-58 -122 -92.5 -163t-79.5 -41q-42 0 -180.5 51t-173.5 51zM1032 25h170v-25h-502v25h150v749q0 84 -37.5 125t-128.5 41
q-55 0 -106.5 -17t-89 -43.5t-57.5 -44.5t-34 -34v-776h152v-25h-496v14l162 86v748l-162 43v14l301 88l17 -10l18 -154h6q11 12 23.5 25t49.5 40.5t75.5 47.5t98.5 36.5t122 16.5q268 0 268 -286v-684z" />
    <glyph glyph-name="ograve" unicode="&#xf2;" horiz-adv-x="1138" 
d="M635 1108l-17 -10l-374 305l6 16h196zM553 -27q-223 0 -346 126.5t-123 353.5q0 248 137.5 395t366.5 147q216 0 342.5 -125t126.5 -346q0 -252 -136.5 -401.5t-367.5 -149.5zM571 0q149 0 222 117t73 356q0 241 -77.5 369.5t-219.5 128.5q-150 0 -222.5 -115t-72.5 -352
q0 -244 77 -374t220 -130z" />
    <glyph glyph-name="oacute" unicode="&#xf3;" horiz-adv-x="1138" 
d="M508 1108l186 311h197l8 -16l-377 -305zM553 -27q-223 0 -346 126.5t-123 353.5q0 248 137.5 395t366.5 147q216 0 342.5 -125t126.5 -346q0 -252 -136.5 -401.5t-367.5 -149.5zM571 0q149 0 222 117t73 356q0 241 -77.5 369.5t-219.5 128.5q-150 0 -222.5 -115
t-72.5 -352q0 -244 77 -374t220 -130z" />
    <glyph glyph-name="ocircumflex" unicode="&#xf4;" horiz-adv-x="1138" 
d="M567 1425h17l268 -303l-10 -10l-267 164l-272 -164l-8 10zM553 -27q-223 0 -346 126.5t-123 353.5q0 248 137.5 395t366.5 147q216 0 342.5 -125t126.5 -346q0 -252 -136.5 -401.5t-367.5 -149.5zM571 0q149 0 222 117t73 356q0 241 -77.5 369.5t-219.5 128.5
q-150 0 -222.5 -115t-72.5 -352q0 -244 77 -374t220 -130z" />
    <glyph glyph-name="otilde" unicode="&#xf5;" horiz-adv-x="1138" 
d="M264 1163l-18 8q58 122 92.5 162.5t79.5 40.5q42 0 180.5 -51t173.5 -51q26 0 47 18.5t58 73.5l20 -8q-58 -123 -93 -164t-79 -41q-42 0 -180.5 51t-173.5 51q-27 0 -49 -18.5t-58 -71.5zM553 -27q-223 0 -346 126.5t-123 353.5q0 248 137.5 395t366.5 147
q216 0 342.5 -125t126.5 -346q0 -252 -136.5 -401.5t-367.5 -149.5zM571 0q149 0 222 117t73 356q0 241 -77.5 369.5t-219.5 128.5q-150 0 -222.5 -115t-72.5 -352q0 -244 77 -374t220 -130z" />
    <glyph glyph-name="odieresis" unicode="&#xf6;" horiz-adv-x="1138" 
d="M360 1143q-49 0 -80.5 32t-31.5 78q0 47 34 80t80 33q48 0 79.5 -31t31.5 -80q0 -45 -33.5 -78.5t-79.5 -33.5zM784 1143q-50 0 -81 31.5t-31 78.5t33.5 80t80.5 33q48 0 79.5 -31t31.5 -80q0 -44 -34.5 -78t-78.5 -34zM553 -27q-223 0 -346 126.5t-123 353.5
q0 248 137.5 395t366.5 147q216 0 342.5 -125t126.5 -346q0 -252 -136.5 -401.5t-367.5 -149.5zM571 0q149 0 222 117t73 356q0 241 -77.5 369.5t-219.5 128.5q-150 0 -222.5 -115t-72.5 -352q0 -244 77 -374t220 -130z" />
    <glyph glyph-name="divide" unicode="&#xf7;" horiz-adv-x="1157" 
d="M580 942q-55 0 -90 35t-35 88q0 54 37.5 89.5t91.5 35.5t88.5 -34.5t34.5 -88.5q0 -51 -37.5 -88t-89.5 -37zM131 690v37h895v-37h-895zM580 236q-55 0 -90 35t-35 89q0 52 37.5 88.5t91.5 36.5t88.5 -35.5t34.5 -89.5q0 -51 -37.5 -87.5t-89.5 -36.5z" />
    <glyph glyph-name="oslash" unicode="&#xf8;" horiz-adv-x="1138" 
d="M913 885q144 -125 144 -361q0 -252 -136.5 -401.5t-367.5 -149.5q-191 0 -309 95l-97 -117l-18 14l96 117q-141 126 -141 371q0 248 137.5 395t366.5 147q187 0 307 -94l98 119l19 -16zM274 504q0 -184 45 -305l492 600q-75 172 -242 172q-150 0 -222.5 -115t-72.5 -352z
M571 0q149 0 222 117t73 356q0 186 -45 299l-491 -600q75 -172 241 -172z" />
    <glyph glyph-name="ugrave" unicode="&#xf9;" horiz-adv-x="1214" 
d="M666 1108l-17 -10l-375 305l7 16h196zM1012 127l162 -41v-18l-279 -84l-16 6l-37 149h-11q-16 -18 -35.5 -35.5t-68 -52.5t-117.5 -56.5t-145 -21.5q-268 0 -268 289v582l-162 43v14l327 88l17 -10v-782q0 -86 37 -127t127 -41q55 0 106.5 17t89 44.5t57 45t33.5 34.5
v674l-161 43v14l329 88l15 -10v-852z" />
    <glyph glyph-name="uacute" unicode="&#xfa;" horiz-adv-x="1214" 
d="M930 1403l-377 -305l-14 10l186 311h197zM1012 127l162 -41v-18l-279 -84l-16 6l-37 149h-11q-16 -18 -35.5 -35.5t-68 -52.5t-117.5 -56.5t-145 -21.5q-268 0 -268 289v582l-162 43v14l327 88l17 -10v-782q0 -86 37 -127t127 -41q55 0 106.5 17t89 44.5t57 45t33.5 34.5
v674l-161 43v14l329 88l15 -10v-852z" />
    <glyph glyph-name="ucircumflex" unicode="&#xfb;" horiz-adv-x="1214" 
d="M606 1276l-272 -164l-8 10l272 303h16l269 -303l-11 -10zM1012 127l162 -41v-18l-279 -84l-16 6l-37 149h-11q-16 -18 -35.5 -35.5t-68 -52.5t-117.5 -56.5t-145 -21.5q-268 0 -268 289v582l-162 43v14l327 88l17 -10v-782q0 -86 37 -127t127 -41q55 0 106.5 17t89 44.5
t57 45t33.5 34.5v674l-161 43v14l329 88l15 -10v-852z" />
    <glyph glyph-name="udieresis" unicode="&#xfc;" horiz-adv-x="1214" 
d="M389 1143q-49 0 -81 32t-32 78q0 47 34.5 80t80.5 33q48 0 79.5 -31t31.5 -80q0 -45 -34 -78.5t-79 -33.5zM813 1143q-50 0 -81.5 31.5t-31.5 78.5t34 80t81 33q48 0 79.5 -31t31.5 -80q0 -44 -34.5 -78t-78.5 -34zM1012 127l162 -41v-18l-279 -84l-16 6l-37 149h-11
q-16 -18 -35.5 -35.5t-68 -52.5t-117.5 -56.5t-145 -21.5q-268 0 -268 289v582l-162 43v14l327 88l17 -10v-782q0 -86 37 -127t127 -41q55 0 106.5 17t89 44.5t57 45t33.5 34.5v674l-161 43v14l329 88l15 -10v-852z" />
    <glyph glyph-name="yacute" unicode="&#xfd;" horiz-adv-x="1179" 
d="M946 1403l-377 -305l-14 10l186 311h197zM786 971h373v-27h-141l-363 -874q-57 -137 -120 -248t-111 -171.5t-88.5 -101.5t-61.5 -54l-22 -13l-96 119v14q192 105 298 209t177 256l6 12h-115l-358 852h-141v27h550v-27h-208l309 -770l282 690l-170 90v17z" />
    <glyph glyph-name="thorn" unicode="&#xfe;" horiz-adv-x="1163" 
d="M563 -27q-130 0 -233 56v-494h274v-22h-618v14l161 84v1798l-155 43v14l323 88l15 -10v-573l-8 -142h4q184 166 370 166q178 0 280.5 -126t102.5 -337q0 -253 -141.5 -406t-374.5 -153zM590 909q-53 0 -101.5 -13.5t-81.5 -34t-50.5 -34.5t-26.5 -24v-674
q91 -133 245 -133q151 0 232.5 121t81.5 344q0 213 -79 330.5t-220 117.5z" />
    <glyph glyph-name="ydieresis" unicode="&#xff;" horiz-adv-x="1179" 
d="M406 1143q-49 0 -81 32t-32 78q0 47 34.5 80t80.5 33q48 0 79 -31t31 -80q0 -45 -33.5 -78.5t-78.5 -33.5zM829 1143q-50 0 -81 31.5t-31 78.5t33.5 80t80.5 33q48 0 79.5 -31t31.5 -80q0 -44 -34.5 -78t-78.5 -34zM786 971h373v-27h-141l-363 -874q-57 -137 -120 -248
t-111 -171.5t-88.5 -101.5t-61.5 -54l-22 -13l-96 119v14q192 105 298 209t177 256l6 12h-115l-358 852h-141v27h550v-27h-208l309 -770l282 690l-170 90v17z" />
    <glyph glyph-name="Amacron" unicode="&#x100;" horiz-adv-x="1687" 
d="M1085 1733v-41h-587v28zM1458 25h191v-25h-680v25h288l-237 602h-531l-194 -502l217 -111v-14h-473v25h190l510 1312l-112 115v14h254zM498 651h512l-258 654z" />
    <glyph glyph-name="amacron" unicode="&#x101;" horiz-adv-x="1044" 
d="M793 1257v-40h-533v28zM879 33h133v-17q-68 -32 -152 -32q-78 0 -112 35t-35 120h-13q-10 -12 -23.5 -25t-50 -40.5t-75 -48t-97 -36.5t-118.5 -16q-132 0 -205.5 59t-73.5 163q0 141 148.5 216t490.5 119v193q0 102 -42.5 148.5t-149.5 46.5q-164 0 -361 -99l-10 21
q232 155 459 155q139 0 213 -77t74 -222v-663zM436 63q139 0 260 97v350q-246 -44 -349 -109.5t-103 -175.5q0 -77 49.5 -119.5t142.5 -42.5z" />
    <glyph glyph-name="Abreve" unicode="&#x102;" horiz-adv-x="1687" 
d="M791 1606q-45 0 -85.5 12.5t-68.5 32.5t-51.5 43.5t-38 47.5t-25 44t-14.5 32l-4 13l12 6q4 -5 11.5 -13t34.5 -28.5t56.5 -36t76.5 -28.5t96 -13q50 0 96.5 12.5t78 30t55.5 34.5t35 29l11 13l12 -6q-1 -5 -4 -13t-14 -31.5t-25 -44.5t-38 -47t-52 -44.5t-68.5 -31.5
t-86.5 -13zM1458 25h191v-25h-680v25h288l-237 602h-531l-194 -502l217 -111v-14h-473v25h190l510 1312l-112 115v14h254zM498 651h512l-258 654z" />
    <glyph glyph-name="abreve" unicode="&#x103;" horiz-adv-x="1044" 
d="M526 1130q-59 0 -108 23.5t-76 56.5t-46 66t-26 56l-6 24l12 6q3 -5 10 -13t30.5 -28.5t50 -36t70 -28.5t89.5 -13q47 0 90.5 12.5t71.5 29.5t49.5 34.5t30.5 30.5l10 12l13 -6q-2 -9 -7 -24.5t-25.5 -54.5t-47 -68.5t-76 -54t-109.5 -24.5zM879 33h133v-17
q-68 -32 -152 -32q-78 0 -112 35t-35 120h-13q-10 -12 -23.5 -25t-50 -40.5t-75 -48t-97 -36.5t-118.5 -16q-132 0 -205.5 59t-73.5 163q0 141 148.5 216t490.5 119v193q0 102 -42.5 148.5t-149.5 46.5q-164 0 -361 -99l-10 21q232 155 459 155q139 0 213 -77t74 -222v-663z
M436 63q139 0 260 97v350q-246 -44 -349 -109.5t-103 -175.5q0 -77 49.5 -119.5t142.5 -42.5z" />
    <glyph glyph-name="Aogonek" unicode="&#x104;" horiz-adv-x="1687" 
d="M1649 0h-191q-99 -106 -139.5 -173.5t-40.5 -125.5q0 -123 205 -160v-16q-62 -27 -148 -27q-97 0 -151 42t-54 120q0 76 71 155t237 185h-469v25h288l-237 602h-531l-194 -502l217 -111v-14h-473v25h190l510 1312l-112 115v14h254l577 -1441h191v-25zM498 651h512
l-258 654z" />
    <glyph glyph-name="aogonek" unicode="&#x105;" horiz-adv-x="1044" 
d="M829 -283q0 -122 205 -159v-17q-59 -26 -147 -26q-97 0 -151 41.5t-54 119.5q0 73 63.5 148.5t212.5 173.5q-43 -14 -98 -14q-78 0 -112 35t-35 120h-13q-10 -12 -23.5 -25t-50 -40.5t-75 -48t-97 -36.5t-118.5 -16q-132 0 -205.5 59t-73.5 163q0 141 148.5 216
t490.5 119v193q0 102 -42.5 148.5t-149.5 46.5q-164 0 -361 -99l-10 21q232 155 459 155q139 0 213 -77t74 -222v-663h133v-17q-1 0 -2 -1t-2 -1q-98 -105 -138.5 -172t-40.5 -125zM436 63q139 0 260 97v350q-246 -44 -349 -109.5t-103 -175.5q0 -77 49.5 -119.5
t142.5 -42.5z" />
    <glyph glyph-name="Cacute" unicode="&#x106;" horiz-adv-x="1427" 
d="M1112 1831l-412 -242l-12 13l221 245h195zM1315 494l18 -2l-49 -383q-263 -136 -524 -136q-307 0 -486.5 193.5t-179.5 525.5q0 238 89 419.5t252.5 280.5t377.5 99q237 0 455 -84l10 -367l-18 -2l-191 365q-136 65 -276 65q-242 0 -371 -187.5t-129 -539.5
q0 -342 132.5 -542.5t358.5 -200.5q164 0 293 88z" />
    <glyph glyph-name="cacute" unicode="&#x107;" horiz-adv-x="1044" 
d="M926 1403l-377 -305l-14 10l186 311h197zM997 199l11 -15q-236 -211 -482 -211q-209 0 -325.5 121.5t-116.5 339.5q0 257 145 409t387 152q190 0 345 -63l-123 -270l-17 2l-49 266q-75 41 -182 41q-155 0 -238.5 -118.5t-83.5 -338.5q0 -197 101 -302.5t288 -105.5
q173 0 340 93z" />
    <glyph glyph-name="Ccircumflex" unicode="&#x108;" horiz-adv-x="1427" 
d="M793 1698l-295 -111l-6 12l292 244h19l293 -244l-9 -12zM1315 494l18 -2l-49 -383q-263 -136 -524 -136q-307 0 -486.5 193.5t-179.5 525.5q0 238 89 419.5t252.5 280.5t377.5 99q237 0 455 -84l10 -367l-18 -2l-191 365q-136 65 -276 65q-242 0 -371 -187.5t-129 -539.5
q0 -342 132.5 -542.5t358.5 -200.5q164 0 293 88z" />
    <glyph glyph-name="ccircumflex" unicode="&#x109;" horiz-adv-x="1044" 
d="M602 1276l-272 -164l-8 10l272 303h16l269 -303l-11 -10zM997 199l11 -15q-236 -211 -482 -211q-209 0 -325.5 121.5t-116.5 339.5q0 257 145 409t387 152q190 0 345 -63l-123 -270l-17 2l-49 266q-75 41 -182 41q-155 0 -238.5 -118.5t-83.5 -338.5q0 -197 101 -302.5
t288 -105.5q173 0 340 93z" />
    <glyph glyph-name="Cdotaccent" unicode="&#x10a;" horiz-adv-x="1427" 
d="M793 1593q-56 0 -92.5 36t-36.5 89t38 89t93 36q56 0 92.5 -34.5t36.5 -88.5q0 -51 -39 -89t-92 -38zM1315 494l18 -2l-49 -383q-263 -136 -524 -136q-307 0 -486.5 193.5t-179.5 525.5q0 238 89 419.5t252.5 280.5t377.5 99q237 0 455 -84l10 -367l-18 -2l-191 365
q-136 65 -276 65q-242 0 -371 -187.5t-129 -539.5q0 -342 132.5 -542.5t358.5 -200.5q164 0 293 88z" />
    <glyph glyph-name="cdotaccent" unicode="&#x10b;" horiz-adv-x="1044" 
d="M596 1139q-52 0 -86.5 33.5t-34.5 84.5q0 50 36.5 85.5t86.5 35.5q51 0 85 -33.5t34 -84.5q0 -50 -35.5 -85.5t-85.5 -35.5zM997 199l11 -15q-236 -211 -482 -211q-209 0 -325.5 121.5t-116.5 339.5q0 257 145 409t387 152q190 0 345 -63l-123 -270l-17 2l-49 266
q-75 41 -182 41q-155 0 -238.5 -118.5t-83.5 -338.5q0 -197 101 -302.5t288 -105.5q173 0 340 93z" />
    <glyph glyph-name="Ccaron" unicode="&#x10c;" horiz-adv-x="1427" 
d="M803 1587h-19l-292 244l6 12l295 -108l294 108l9 -12zM1315 494l18 -2l-49 -383q-263 -136 -524 -136q-307 0 -486.5 193.5t-179.5 525.5q0 238 89 419.5t252.5 280.5t377.5 99q237 0 455 -84l10 -367l-18 -2l-191 365q-136 65 -276 65q-242 0 -371 -187.5t-129 -539.5
q0 -342 132.5 -542.5t358.5 -200.5q164 0 293 88z" />
    <glyph glyph-name="ccaron" unicode="&#x10d;" horiz-adv-x="1044" 
d="M606 1112h-16l-273 303l9 10l272 -165l268 165l8 -10zM997 199l11 -15q-236 -211 -482 -211q-209 0 -325.5 121.5t-116.5 339.5q0 257 145 409t387 152q190 0 345 -63l-123 -270l-17 2l-49 266q-75 41 -182 41q-155 0 -238.5 -118.5t-83.5 -338.5q0 -197 101 -302.5
t288 -105.5q173 0 340 93z" />
    <glyph glyph-name="Dcaron" unicode="&#x10e;" horiz-adv-x="1562" 
d="M721 1587l-293 244l6 12l295 -108l295 108l8 -12l-293 -244h-18zM758 1466q340 0 526 -182.5t186 -503.5q0 -366 -197 -573t-568 -207h-660v14l209 99v1329h-201v24h705zM717 25q285 0 419 172.5t134 533.5q0 345 -137 528t-394 183h-297v-1374q123 -43 275 -43z" />
    <glyph glyph-name="dcaron" unicode="&#x10f;" horiz-adv-x="1576" 
d="M1016 1544v-1417l176 -41v-18l-287 -84l-18 10l-39 145h-8q-187 -166 -373 -166q-179 0 -281 126.5t-102 338.5q0 253 141 405t375 152q136 0 234 -55v469l-156 43v14l323 88zM1397 1534q94 -73 94 -170q0 -66 -54.5 -138.5t-195.5 -195.5h-12l-8 10q52 81 73 133.5
t21 98.5q0 71 -60 119v14zM274 510q0 -215 78 -332t223 -117q65 0 127 24t88 43.5t44 37.5v672q-91 133 -244 133q-316 0 -316 -461z" />
    <glyph glyph-name="Dcroat" unicode="&#x110;" horiz-adv-x="1566" 
d="M762 1466q340 0 526.5 -182.5t186.5 -503.5q0 -366 -197.5 -573t-568.5 -207h-660v14l209 99v637h-192v24h192v668h-201v24h705zM721 25q285 0 419 172.5t134 533.5q0 345 -137 528t-394 183h-297v-668h400v-24h-400v-682q123 -43 275 -43z" />
    <glyph glyph-name="dcroat" unicode="&#x111;" horiz-adv-x="1218" 
d="M1016 127l176 -41v-18l-287 -84l-18 10l-39 145h-8q-187 -166 -373 -166q-179 0 -281 126.5t-102 338.5q0 253 141 405t375 152q136 0 234 -55v242h-357v24h357v203l-156 43v14l323 88l15 -10v-338h172v-24h-172v-1055zM274 510q0 -215 78 -332t223 -117q65 0 127 24
t88 43.5t44 37.5v672q-91 133 -244 133q-316 0 -316 -461z" />
    <glyph glyph-name="Emacron" unicode="&#x112;" horiz-adv-x="1402" 
d="M436 1692v28l588 13v-41h-588zM45 0v14l209 99v1329h-201v24h1166l22 -393l-18 -2l-193 369l-588 2v-668h322l127 230h16v-484h-24v228l-441 2v-725l623 2l240 393l18 -2l-55 -418h-1223z" />
    <glyph glyph-name="emacron" unicode="&#x113;" horiz-adv-x="1073" 
d="M819 1257v-40h-532v28zM1016 201l14 -17q-239 -211 -504 -211q-207 0 -324.5 127t-117.5 351q0 245 138 394.5t360 149.5q187 0 291 -99t104 -267l-23 -21l-686 -45v-45q0 -204 106 -315t298 -111q184 0 344 109zM559 971q-271 0 -289 -389l521 45q-15 344 -232 344z" />
    <glyph glyph-name="Ebreve" unicode="&#x114;" horiz-adv-x="1402" 
d="M729 1606q-45 0 -85.5 12.5t-68.5 32.5t-51.5 43.5t-38 47.5t-25 44t-14.5 32l-4 13l13 6q4 -5 11.5 -13t34 -28.5t56 -36t76.5 -28.5t96 -13q50 0 97 12.5t78 30t55 34.5t35 29l12 13l12 -6q-3 -9 -8.5 -24t-29 -54t-53 -68.5t-83 -54t-115.5 -24.5zM45 0v14l209 99
v1329h-201v24h1166l22 -393l-18 -2l-193 369l-588 2v-668h322l127 230h16v-484h-24v228l-441 2v-725l623 2l240 393l18 -2l-55 -418h-1223z" />
    <glyph glyph-name="ebreve" unicode="&#x115;" horiz-adv-x="1073" 
d="M553 1130q-59 0 -108 23.5t-76 56.5t-46 66t-25 56l-7 24l12 6q3 -5 10 -13t30.5 -28.5t50 -36t70 -28.5t89.5 -13q47 0 90.5 12.5t71.5 29.5t49.5 34.5t31.5 30.5l9 12l12 -6q-2 -9 -6.5 -24.5t-25 -54.5t-47.5 -68.5t-76 -54t-109 -24.5zM1016 201l14 -17
q-239 -211 -504 -211q-207 0 -324.5 127t-117.5 351q0 245 138 394.5t360 149.5q187 0 291 -99t104 -267l-23 -21l-686 -45v-45q0 -204 106 -315t298 -111q184 0 344 109zM559 971q-271 0 -289 -389l521 45q-15 344 -232 344z" />
    <glyph glyph-name="Edotaccent" unicode="&#x116;" horiz-adv-x="1402" 
d="M731 1593q-56 0 -92.5 36t-36.5 89t38 89t93 36q56 0 92.5 -34.5t36.5 -88.5q0 -51 -39 -89t-92 -38zM45 0v14l209 99v1329h-201v24h1166l22 -393l-18 -2l-193 369l-588 2v-668h322l127 230h16v-484h-24v228l-441 2v-725l623 2l240 393l18 -2l-55 -418h-1223z" />
    <glyph glyph-name="edotaccent" unicode="&#x117;" horiz-adv-x="1073" 
d="M553 1139q-52 0 -86.5 33.5t-34.5 84.5q0 50 36.5 85.5t86.5 35.5q51 0 85 -33.5t34 -84.5q0 -50 -36 -85.5t-85 -35.5zM1016 201l14 -17q-239 -211 -504 -211q-207 0 -324.5 127t-117.5 351q0 245 138 394.5t360 149.5q187 0 291 -99t104 -267l-23 -21l-686 -45v-45
q0 -204 106 -315t298 -111q184 0 344 109zM559 971q-271 0 -289 -389l521 45q-15 344 -232 344z" />
    <glyph glyph-name="Eogonek" unicode="&#x118;" horiz-adv-x="1402" 
d="M1087 -299q0 -123 205 -160v-16q-62 -27 -147 -27q-97 0 -151 42t-54 120q0 76 70.5 155t236.5 185h-1202v14l209 99v1329h-201v24h1166l22 -393l-18 -2l-193 369l-588 2v-668h322l127 230h16v-484h-24v228l-441 2v-725l623 2l240 393l18 -2l-55 -418q-99 -107 -140 -174
t-41 -125z" />
    <glyph glyph-name="eogonek" unicode="&#x119;" horiz-adv-x="1079" 
d="M670 -246q0 -129 204 -166v-14q-69 -29 -147 -29q-98 0 -151.5 43t-53.5 121q0 69 62.5 145t197.5 171q-122 -52 -254 -52q-207 0 -324.5 127t-117.5 351q0 245 138 394.5t360 149.5q188 0 291.5 -99t103.5 -267l-23 -21l-686 -45v-45q0 -204 106 -315t298 -111
q181 0 346 109l12 -17q-83 -74 -188 -133q-94 -102 -134 -170.5t-40 -126.5zM561 971q-271 0 -289 -389l521 45q-15 344 -232 344z" />
    <glyph glyph-name="Ecaron" unicode="&#x11a;" horiz-adv-x="1402" 
d="M721 1587l-293 244l6 12l295 -108l295 108l8 -12l-293 -244h-18zM45 0v14l209 99v1329h-201v24h1166l22 -393l-18 -2l-193 369l-588 2v-668h322l127 230h16v-484h-24v228l-441 2v-725l623 2l240 393l18 -2l-55 -418h-1223z" />
    <glyph glyph-name="ecaron" unicode="&#x11b;" horiz-adv-x="1073" 
d="M561 1112h-16l-273 303l9 10l272 -165l268 165l8 -10zM1016 201l14 -17q-239 -211 -504 -211q-207 0 -324.5 127t-117.5 351q0 245 138 394.5t360 149.5q187 0 291 -99t104 -267l-23 -21l-686 -45v-45q0 -204 106 -315t298 -111q184 0 344 109zM559 971q-271 0 -289 -389
l521 45q-15 344 -232 344z" />
    <glyph glyph-name="Gcircumflex" unicode="&#x11c;" horiz-adv-x="1587" 
d="M811 1698l-295 -111l-6 12l293 244h18l293 -244l-8 -12zM881 702h661v-22h-188v-551q-298 -156 -574 -156q-330 0 -507 182.5t-177 522.5q0 241 93.5 426t265 286t395.5 101q252 0 463 -84l10 -371l-18 -2l-187 365q-141 69 -287 69q-259 0 -398.5 -191.5t-139.5 -549.5
q0 -350 133 -539.5t379 -189.5q214 0 366 129v553h-290v22z" />
    <glyph glyph-name="gcircumflex" unicode="&#x11d;" horiz-adv-x="1067" 
d="M487 1276l-272 -164l-8 10l272 303h17l268 -303l-10 -10zM1032 1030v-199l-194 9q47 -77 47 -189q0 -179 -115 -287t-305 -108q-95 0 -168 25l-27 -129q90 -43 201 -54l305 -28q129 -12 189.5 -56t60.5 -127q0 -100 -90.5 -190t-240.5 -144.5t-316 -54.5q-168 0 -258 53
t-90 150q0 67 53.5 125.5t206.5 155.5q-110 40 -168 124l4 17l156 164q-99 37 -151 118t-52 199q0 177 115.5 284t304.5 107q225 0 321 -131l195 166h16zM489 279q218 0 218 335q0 170 -61 263.5t-171 93.5q-215 0 -215 -330q0 -172 59.5 -267t169.5 -95zM485 -59
q-112 13 -176 34q-89 -84 -120 -138.5t-31 -117.5q0 -99 64.5 -146.5t197.5 -47.5q187 0 314.5 80t127.5 192q0 56 -32.5 82t-114.5 35z" />
    <glyph glyph-name="Gbreve" unicode="&#x11e;" horiz-adv-x="1587" 
d="M811 1606q-45 0 -85.5 12.5t-68.5 32.5t-51.5 43.5t-38 47.5t-25 44t-14.5 32l-4 13l13 6q4 -5 11.5 -13t34 -28.5t56 -36t76.5 -28.5t96 -13q50 0 96.5 12.5t78 30t55.5 34.5t35 29l11 13l13 -6q-3 -9 -8.5 -24t-29 -54t-53 -68.5t-83 -54t-115.5 -24.5zM881 702h661
v-22h-188v-551q-298 -156 -574 -156q-330 0 -507 182.5t-177 522.5q0 241 93.5 426t265 286t395.5 101q252 0 463 -84l10 -371l-18 -2l-187 365q-141 69 -287 69q-259 0 -398.5 -191.5t-139.5 -549.5q0 -350 133 -539.5t379 -189.5q214 0 366 129v553h-290v22z" />
    <glyph glyph-name="gbreve" unicode="&#x11f;" horiz-adv-x="1067" 
d="M483 1130q-59 0 -108 23.5t-76 56.5t-46 66t-25 56l-7 24l12 6q3 -5 10 -13t30.5 -28.5t50 -36t70 -28.5t89.5 -13q47 0 90.5 12.5t71.5 29.5t49.5 34.5t31.5 30.5l9 12l13 -6q-2 -9 -7 -24.5t-25.5 -54.5t-47 -68.5t-76 -54t-109.5 -24.5zM1032 1030v-199l-194 9
q47 -77 47 -189q0 -179 -115 -287t-305 -108q-95 0 -168 25l-27 -129q90 -43 201 -54l305 -28q129 -12 189.5 -56t60.5 -127q0 -100 -90.5 -190t-240.5 -144.5t-316 -54.5q-168 0 -258 53t-90 150q0 67 53.5 125.5t206.5 155.5q-110 40 -168 124l4 17l156 164
q-99 37 -151 118t-52 199q0 177 115.5 284t304.5 107q225 0 321 -131l195 166h16zM489 279q218 0 218 335q0 170 -61 263.5t-171 93.5q-215 0 -215 -330q0 -172 59.5 -267t169.5 -95zM485 -59q-112 13 -176 34q-89 -84 -120 -138.5t-31 -117.5q0 -99 64.5 -146.5
t197.5 -47.5q187 0 314.5 80t127.5 192q0 56 -32.5 82t-114.5 35z" />
    <glyph glyph-name="Gdotaccent" unicode="&#x120;" horiz-adv-x="1587" 
d="M811 1593q-56 0 -92.5 36t-36.5 89t38 89t93 36q56 0 92.5 -34.5t36.5 -88.5q0 -51 -39 -89t-92 -38zM881 702h661v-22h-188v-551q-298 -156 -574 -156q-330 0 -507 182.5t-177 522.5q0 241 93.5 426t265 286t395.5 101q252 0 463 -84l10 -371l-18 -2l-187 365
q-141 69 -287 69q-259 0 -398.5 -191.5t-139.5 -549.5q0 -350 133 -539.5t379 -189.5q214 0 366 129v553h-290v22z" />
    <glyph glyph-name="gdotaccent" unicode="&#x121;" horiz-adv-x="1067" 
d="M483 1143q-53 0 -87 33.5t-34 85.5q0 51 36 85.5t87 34.5t85 -34t34 -86q0 -48 -36 -83.5t-85 -35.5zM1032 1030v-199l-194 9q47 -77 47 -189q0 -179 -115 -287t-305 -108q-95 0 -168 25l-27 -129q90 -43 201 -54l305 -28q129 -12 189.5 -56t60.5 -127q0 -100 -90.5 -190
t-240.5 -144.5t-316 -54.5q-168 0 -258 53t-90 150q0 67 53.5 125.5t206.5 155.5q-110 40 -168 124l4 17l156 164q-99 37 -151 118t-52 199q0 177 115.5 284t304.5 107q225 0 321 -131l195 166h16zM489 279q218 0 218 335q0 170 -61 263.5t-171 93.5q-215 0 -215 -330
q0 -172 59.5 -267t169.5 -95zM485 -59q-112 13 -176 34q-89 -84 -120 -138.5t-31 -117.5q0 -99 64.5 -146.5t197.5 -47.5q187 0 314.5 80t127.5 192q0 56 -32.5 82t-114.5 35z" />
    <glyph glyph-name="uni0122" unicode="&#x122;" horiz-adv-x="1587" 
d="M881 702h661v-22h-188v-551q-298 -156 -574 -156q-330 0 -507 182.5t-177 522.5q0 241 93.5 426t265 286t395.5 101q252 0 463 -84l10 -371l-18 -2l-187 365q-141 69 -287 69q-259 0 -398.5 -191.5t-139.5 -549.5q0 -350 133 -539.5t379 -189.5q214 0 366 129v553h-290
v22zM864 -100q76 -61 76 -146q0 -72 -53.5 -139t-186.5 -162h-12l-8 10q46 66 65 114t19 99q0 76 -51 115v14z" />
    <glyph glyph-name="uni0123" unicode="&#x123;" horiz-adv-x="1067" 
d="M436 1077q-78 63 -78 146q0 73 53.5 139t188.5 162h12l9 -8q-47 -69 -66.5 -116.5t-19.5 -96.5q0 -74 53 -115v-17zM1032 1030v-199l-194 9q47 -77 47 -189q0 -179 -115 -287t-305 -108q-95 0 -168 25l-27 -129q90 -43 201 -54l305 -28q129 -12 189.5 -56t60.5 -127
q0 -100 -90.5 -190t-240.5 -144.5t-316 -54.5q-168 0 -258 53t-90 150q0 67 53.5 125.5t206.5 155.5q-110 40 -168 124l4 17l156 164q-99 37 -151 118t-52 199q0 177 115.5 284t304.5 107q225 0 321 -131l195 166h16zM489 279q218 0 218 335q0 170 -61 263.5t-171 93.5
q-215 0 -215 -330q0 -172 59.5 -267t169.5 -95zM485 -59q-112 13 -176 34q-89 -84 -120 -138.5t-31 -117.5q0 -99 64.5 -146.5t197.5 -47.5q187 0 314.5 80t127.5 192q0 56 -32.5 82t-114.5 35z" />
    <glyph glyph-name="Hcircumflex" unicode="&#x124;" horiz-adv-x="1656" 
d="M827 1698l-295 -111l-6 12l293 244h19l292 -244l-8 -12zM1403 25h209v-25h-606v25h208v725h-772v-725h209v-25h-606v14l209 99v1329h-201v24h598v-24h-209v-668h772v668h-208v24h598v-14l-201 -94v-1333z" />
    <glyph glyph-name="hcircumflex" unicode="&#x125;" horiz-adv-x="1222" 
d="M561 1636l-295 111l-295 -111l-6 13l293 243h18l293 -243zM1016 25h170v-25h-502v25h150v749q0 84 -37.5 125t-128.5 41q-159 0 -285 -135v-780h149v-25h-495v14l164 86v1309l-156 43v14l322 88l16 -10v-573l-10 -142h6q11 12 23.5 25t49.5 40.5t75.5 47.5t98.5 36.5
t122 16.5q268 0 268 -286v-684z" />
    <glyph glyph-name="Hbar" unicode="&#x126;" horiz-adv-x="1677" 
d="M1413 25h209v-25h-606v25h209v725h-770v-725h209v-25h-607v14l209 99v995h-190v25h190v309h-203v24h601v-24h-209v-309h770v309h-209v24h598v-14l-201 -94v-225h191v-25h-191v-1083zM455 774h770v334h-770v-334z" />
    <glyph glyph-name="hbar" unicode="&#x127;" horiz-adv-x="1222" 
d="M1014 25h170v-25h-502v25h149v749q0 84 -36.5 125t-126.5 41q-55 0 -106.5 -17t-89 -43.5t-57.5 -44.5t-34 -34v-776h149v-25h-493v14l162 86v1082h-176v24h176v203l-156 43v14l324 88l14 -10v-338h356v-24h-356v-211l-10 -142h8q16 18 35.5 35.5t68 52.5t117.5 56.5
t145 21.5q269 0 269 -286v-684z" />
    <glyph glyph-name="Itilde" unicode="&#x128;" horiz-adv-x="702" 
d="M16 1622l-18 10q58 121 93 162t79 41q42 0 209.5 -51t202.5 -51q26 0 46.5 18t57.5 74l21 -10q-58 -121 -93 -162t-79 -41q-42 0 -209.5 51t-202.5 51q-27 0 -49 -18.5t-58 -73.5zM45 0v14l209 99v1329h-201v24h596v-14l-200 -94v-1333h208v-25h-612z" />
    <glyph glyph-name="itilde" unicode="&#x129;" horiz-adv-x="591" 
d="M-12 1163l-19 8q58 122 92.5 162.5t79.5 40.5q42 0 181 -51t174 -51q26 0 46.5 18t57.5 74l21 -8q-58 -123 -93 -164t-79 -41q-42 0 -181 51t-174 51q-26 0 -47.5 -18t-58.5 -72zM55 0v14l162 86v748l-162 43v16l330 86l14 -8v-960h156v-25h-500z" />
    <glyph glyph-name="Imacron" unicode="&#x12a;" horiz-adv-x="702" 
d="M57 1692v28l588 13v-41h-588zM45 0v14l209 99v1329h-201v24h596v-14l-200 -94v-1333h208v-25h-612z" />
    <glyph glyph-name="imacron" unicode="&#x12b;" horiz-adv-x="591" 
d="M8 1217v28l533 12v-40h-533zM55 0v14l162 86v748l-162 43v16l330 86l14 -8v-960h156v-25h-500z" />
    <glyph glyph-name="Ibreve" unicode="&#x12c;" horiz-adv-x="702" 
d="M350 1606q-45 0 -85.5 12.5t-68.5 32.5t-51.5 43.5t-38 47.5t-25 44t-14.5 32l-4 13l13 6q4 -5 11.5 -13t34 -28.5t56 -36t76.5 -28.5t96 -13q50 0 97 12.5t78 30t55 34.5t36 29l11 13l12 -6q-3 -9 -8.5 -24t-29 -54t-53 -68.5t-83 -54t-115.5 -24.5zM45 0v14l209 99
v1329h-201v24h596v-14l-200 -94v-1333h208v-25h-612z" />
    <glyph glyph-name="ibreve" unicode="&#x12d;" horiz-adv-x="591" 
d="M295 1130q-59 0 -108 23.5t-76 56.5t-46 66t-25 56l-7 24l12 6q3 -5 10 -13t30.5 -28.5t50 -36t70 -28.5t89.5 -13q47 0 90.5 12.5t71.5 29.5t49.5 34.5t31.5 30.5l9 12l12 -6q-2 -9 -6.5 -24.5t-25 -54.5t-47.5 -68.5t-76 -54t-109 -24.5zM55 0v14l162 86v748l-162 43
v16l330 86l14 -8v-960h156v-25h-500z" />
    <glyph glyph-name="Iogonek" unicode="&#x12e;" horiz-adv-x="702" 
d="M657 0h-208q-99 -107 -140 -174t-41 -125q0 -123 205 -160v-16q-61 -27 -147 -27q-97 0 -151 42t-54 120q0 76 70.5 155t236.5 185h-383v14l209 99v1329h-201v24h596v-14l-200 -94v-1333h208v-25z" />
    <glyph glyph-name="iogonek" unicode="&#x12f;" horiz-adv-x="591" 
d="M295 1139q-52 0 -86.5 33.5t-34.5 84.5q0 50 36.5 85.5t86.5 35.5q51 0 85 -33.5t34 -84.5q0 -50 -36 -85.5t-85 -35.5zM555 0h-156q-99 -106 -139.5 -173.5t-40.5 -125.5q0 -123 205 -160v-16q-62 -27 -148 -27q-97 0 -150.5 42t-53.5 120q0 76 70.5 155t236.5 185h-324
v14l162 86v748l-162 43v16l330 86l14 -8v-960h156v-25z" />
    <glyph glyph-name="Idotaccent" unicode="&#x130;" horiz-adv-x="702" 
d="M350 1593q-56 0 -92.5 36t-36.5 89t38 89t93 36q56 0 92.5 -34.5t36.5 -88.5q0 -51 -39 -89t-92 -38zM45 0v14l209 99v1329h-201v24h596v-14l-200 -94v-1333h208v-25h-612z" />
    <glyph glyph-name="dotlessi" unicode="&#x131;" horiz-adv-x="591" 
d="M55 0v14l162 86v748l-162 43v16l330 86l14 -8v-960h156v-25h-500z" />
    <glyph glyph-name="IJ" unicode="&#x132;" horiz-adv-x="1406" 
d="M45 0v14l209 99v1329h-201v24h596v-14l-200 -94v-1333h208v-25h-612zM817 -449l-166 123v15l289 112q39 107 39 262v1379h-240v24h631v-14l-203 -94v-1151q0 -231 -82.5 -385.5t-267.5 -270.5z" />
    <glyph glyph-name="ij" unicode="&#x133;" horiz-adv-x="1122" 
d="M295 1139q-52 0 -86.5 33.5t-34.5 84.5q0 50 36.5 85.5t86.5 35.5q51 0 85 -33.5t34 -84.5q0 -50 -36 -85.5t-85 -35.5zM870 1139q-54 0 -87 33.5t-33 84.5t35.5 86t86.5 35t85 -33.5t34 -84.5q0 -50 -35.5 -85.5t-85.5 -35.5zM55 0v14l162 86v748l-162 43v16l330 86
l14 -8v-960h156v-25h-500zM623 -514l-119 92v14l244 99q45 107 45 266v891l-162 43v16l330 86l14 -8v-858q0 -228 -83.5 -380.5t-268.5 -260.5z" />
    <glyph glyph-name="Jcircumflex" unicode="&#x134;" horiz-adv-x="704" 
d="M76 1587l-6 12l292 244h19l293 -244l-8 -12l-295 111zM115 -449l-166 123v15l289 112q38 104 38 262v1379h-239v24h631v-14l-203 -94v-1151q0 -231 -82.5 -385.5t-267.5 -270.5z" />
    <glyph glyph-name="jcircumflex" unicode="&#x135;" horiz-adv-x="530" 
d="M274 1425h17l268 -303l-10 -10l-266 164l-273 -164l-8 10zM31 -514l-119 92v14l244 99q45 107 45 266v891l-162 43v16l330 86l14 -8v-858q0 -228 -83.5 -380.5t-268.5 -260.5z" />
    <glyph glyph-name="uni0136" unicode="&#x136;" horiz-adv-x="1605" 
d="M442 1442v-1417h209v-25h-606v14l209 99v1329h-201v24h598v-24h-209zM1384 25h183v-25h-400l-647 698v17l662 643l-178 94v14h483v-24h-184l-713 -692h123zM936 -100q76 -61 76 -146q0 -72 -53.5 -139t-186.5 -162h-12l-8 10q46 66 65 114t19 99q0 75 -52 115v14z" />
    <glyph glyph-name="uni0137" unicode="&#x137;" horiz-adv-x="1212" 
d="M537 25v-25h-500v14l164 86v1309l-156 43v14l322 88l16 -10v-1519h154zM1049 25h143v-25h-350l-387 471v16l405 387l-153 80v17h407v-25h-143l-445 -422h111zM686 -100q76 -61 76 -146q0 -72 -53.5 -139t-186.5 -162h-12l-8 10q46 66 65 114t19 99q0 76 -51 115v14z" />
    <glyph glyph-name="kgreenlandic" unicode="&#x138;" horiz-adv-x="1228" 
d="M397 985v-960h156v-25h-500v14l162 86v748l-162 43v16l330 86zM1065 25h141v-25h-348l-387 471v16l406 387l-154 80v17h407v-25h-143l-444 -422h110z" />
    <glyph glyph-name="Lacute" unicode="&#x139;" horiz-adv-x="1349" 
d="M260 1589l-12 13l221 245h195l8 -16zM45 0v14l209 99v1329h-201v24h697v-24h-301v-1417l567 2l244 440l18 -4l-59 -463h-1174z" />
    <glyph glyph-name="lacute" unicode="&#x13a;" horiz-adv-x="595" 
d="M182 1638l-12 13l221 245h195l8 -16zM41 0v14l162 86v1309l-154 43v14l322 88l14 -10v-1519h170v-25h-514z" />
    <glyph glyph-name="uni013B" unicode="&#x13b;" horiz-adv-x="1349" 
d="M45 0v14l209 99v1329h-201v24h697v-24h-301v-1417l567 2l244 440l18 -4l-59 -463h-1174zM608 -547l-8 10q46 66 65 114t19 99q0 76 -51 115v14l151 95q76 -61 76 -146q0 -72 -53 -139t-186 -162h-13z" />
    <glyph glyph-name="uni013C" unicode="&#x13c;" horiz-adv-x="595" 
d="M41 0v14l162 86v1309l-154 43v14l322 88l14 -10v-1519h170v-25h-514zM154 -547l-9 10q46 66 65 114t19 99q0 76 -51 115v14l152 95q76 -61 76 -146q0 -72 -53.5 -139t-186.5 -162h-12z" />
    <glyph glyph-name="Lcaron" unicode="&#x13d;" horiz-adv-x="1349" 
d="M899 1030l-8 10q52 81 73 133.5t21 98.5q0 72 -59 119v14l141 129q94 -73 94 -170q0 -66 -54.5 -138.5t-195.5 -195.5h-12zM45 0v14l209 99v1329h-201v24h697v-24h-301v-1417l567 2l244 440l18 -4l-59 -463h-1174z" />
    <glyph glyph-name="lcaron" unicode="&#x13e;" horiz-adv-x="940" 
d="M37 0v14l164 86v1309l-156 43v14l322 88l16 -10v-1519h170v-25h-516zM592 1028l-8 10q52 81 73 133.5t21 98.5q0 71 -60 119v14l142 131q94 -73 94 -172q0 -66 -54.5 -138.5t-195.5 -195.5h-12z" />
    <glyph glyph-name="Ldot" unicode="&#x13f;" horiz-adv-x="1347" 
d="M45 0v14l209 99v1329h-201v24h697v-24h-301v-1417l567 2l244 440l18 -4l-59 -463h-1174zM831 606q-56 0 -91 36t-35 91q0 53 38 90t91 37q57 0 92 -35.5t35 -91.5q0 -51 -39 -89t-91 -38z" />
    <glyph glyph-name="ldot" unicode="&#x140;" horiz-adv-x="1069" 
d="M41 0v14l162 86v1309l-154 43v14l322 88l14 -10v-1519h170v-25h-514zM782 637q-57 0 -93 36.5t-36 92.5q0 54 38.5 91.5t94.5 37.5t91.5 -36t35.5 -93q0 -53 -38.5 -91t-92.5 -38z" />
    <glyph glyph-name="Lslash" unicode="&#x141;" horiz-adv-x="1363" 
d="M1274 467l20 -4l-61 -463h-1174v14l209 99v430l-198 -158l-11 4v25l209 159v869h-200v24h696v-24h-301v-756l289 225l8 -4v-24l-297 -228v-630l567 2z" />
    <glyph glyph-name="lslash" unicode="&#x142;" horiz-adv-x="628" 
d="M586 930l-180 -135v-770h169v-25h-514v14l162 86v590l-170 -135l-10 4v21l180 139v690l-155 43v14l323 88l15 -10v-723l169 135l11 -4v-22z" />
    <glyph glyph-name="Nacute" unicode="&#x143;" horiz-adv-x="1585" 
d="M707 1589l-13 13l221 245h195l8 -16zM41 0v14l209 99v1222l-150 117v14h279l946 -1257l-4 1229v4h-209v24h436v-14l-200 -94v-1358h-95l-983 1298l4 -1269v-4h209v-25h-442z" />
    <glyph glyph-name="nacute" unicode="&#x144;" horiz-adv-x="1239" 
d="M952 1384l-377 -305l-14 11l187 311h196zM1032 25h170v-25h-502v25h150v749q0 84 -37.5 125t-128.5 41q-55 0 -106.5 -17t-89 -43.5t-57.5 -44.5t-34 -34v-776h152v-25h-496v14l162 86v748l-162 43v14l301 88l17 -10l18 -154h6q11 12 23.5 25t49.5 40.5t75.5 47.5
t98.5 36.5t122 16.5q268 0 268 -286v-684z" />
    <glyph glyph-name="uni0145" unicode="&#x145;" horiz-adv-x="1585" 
d="M41 0v14l209 99v1222l-150 117v14h279l946 -1257l-4 1229v4h-209v24h436v-14l-200 -94v-1358h-95l-983 1298l4 -1269v-4h209v-25h-442zM672 -547l-8 10q46 66 65 114t19 99q0 75 -52 115v14l152 95q76 -61 76 -146q0 -72 -53.5 -139t-186.5 -162h-12z" />
    <glyph glyph-name="uni0146" unicode="&#x146;" horiz-adv-x="1239" 
d="M1032 25h170v-25h-502v25h150v749q0 84 -37.5 125t-128.5 41q-55 0 -106.5 -17t-89 -43.5t-57.5 -44.5t-34 -34v-776h152v-25h-496v14l162 86v748l-162 43v14l301 88l17 -10l18 -154h6q11 12 23.5 25t49.5 40.5t75.5 47.5t98.5 36.5t122 16.5q268 0 268 -286v-684z
M664 -100q75 -60 75 -146q0 -72 -53 -139t-186 -162h-13l-8 10q46 66 65 114t19 99q0 76 -51 115v14z" />
    <glyph glyph-name="Ncaron" unicode="&#x147;" horiz-adv-x="1585" 
d="M788 1587l-292 244l6 12l295 -108l295 108l8 -12l-293 -244h-19zM41 0v14l209 99v1222l-150 117v14h279l946 -1257l-4 1229v4h-209v24h436v-14l-200 -94v-1358h-95l-983 1298l4 -1269v-4h209v-25h-442z" />
    <glyph glyph-name="ncaron" unicode="&#x148;" horiz-adv-x="1239" 
d="M633 1094h-17l-272 303l8 10l273 -166l268 166l8 -10zM1032 25h170v-25h-502v25h150v749q0 84 -37.5 125t-128.5 41q-55 0 -106.5 -17t-89 -43.5t-57.5 -44.5t-34 -34v-776h152v-25h-496v14l162 86v748l-162 43v14l301 88l17 -10l18 -154h6q11 12 23.5 25t49.5 40.5
t75.5 47.5t98.5 36.5t122 16.5q268 0 268 -286v-684z" />
    <glyph glyph-name="napostrophe" unicode="&#x149;" horiz-adv-x="1607" 
d="M274 1511q99 -74 99 -174q0 -67 -53 -138.5t-220 -231.5h-14l-6 10q65 124 85.5 175.5t20.5 92.5q0 72 -61 121v14zM1399 25h170v-25h-502v25h150v749q0 84 -36.5 125t-127.5 41q-55 0 -106.5 -17t-89 -43.5t-57.5 -44.5t-34 -34v-776h149v-25h-493v14l162 86v748
l-162 43v14l301 88l16 -10l19 -154h6q11 13 23 25t49 40.5t75.5 48t98.5 36t123 16.5q266 0 266 -286v-684z" />
    <glyph glyph-name="Eng" unicode="&#x14a;" horiz-adv-x="1585" 
d="M1020 -514l-119 92v14l332 132q70 117 82 276h-62l-983 1298l4 -1269v-4h209v-25h-442v14l209 99v1222l-150 117v14h279l946 -1257l-4 1229v4h-209v24h436v-14l-200 -94v-1231q0 -231 -77 -378t-251 -263z" />
    <glyph glyph-name="eng" unicode="&#x14b;" horiz-adv-x="1169" 
d="M764 995q268 0 268 -286v-582q0 -228 -83.5 -380.5t-268.5 -260.5l-119 92v14l248 101q41 102 41 264v817q0 84 -37.5 125t-128.5 41q-55 0 -106.5 -17t-89 -43.5t-57.5 -44.5t-34 -34v-776h152v-25h-496v14l162 86v748l-162 43v14l301 88l17 -10l18 -154h6
q11 12 23.5 25t49.5 40.5t75.5 47.5t98.5 36.5t122 16.5z" />
    <glyph glyph-name="Omacron" unicode="&#x14c;" horiz-adv-x="1556" 
d="M485 1692v28l588 13v-41h-588zM760 -27q-307 0 -485.5 194t-178.5 527q0 237 87.5 418t247 280t368.5 99q304 0 482.5 -192t178.5 -517q0 -369 -190.5 -589t-509.5 -220zM774 0q235 0 360.5 188.5t125.5 542.5q0 337 -129.5 536t-346.5 199q-235 0 -361 -185.5
t-126 -535.5q0 -342 130 -543.5t347 -201.5z" />
    <glyph glyph-name="omacron" unicode="&#x14d;" horiz-adv-x="1138" 
d="M305 1217v28l533 12v-40h-533zM553 -27q-223 0 -346 126.5t-123 353.5q0 248 137.5 395t366.5 147q216 0 342.5 -125t126.5 -346q0 -252 -136.5 -401.5t-367.5 -149.5zM571 0q149 0 222 117t73 356q0 241 -77.5 369.5t-219.5 128.5q-150 0 -222.5 -115t-72.5 -352
q0 -244 77 -374t220 -130z" />
    <glyph glyph-name="Obreve" unicode="&#x14e;" horiz-adv-x="1556" 
d="M778 1606q-62 0 -114 23t-82.5 56t-52 66.5t-29.5 56.5l-8 23l12 6q4 -5 11.5 -13t34 -28.5t56 -36t76.5 -28.5t96 -13q50 0 97 12.5t78 30t55 34.5t36 29l11 13l12 -6q-3 -9 -8.5 -24t-29 -54t-53 -68.5t-83 -54t-115.5 -24.5zM760 -27q-307 0 -485.5 194t-178.5 527
q0 237 87.5 418t247 280t368.5 99q304 0 482.5 -192t178.5 -517q0 -369 -190.5 -589t-509.5 -220zM774 0q235 0 360.5 188.5t125.5 542.5q0 337 -129.5 536t-346.5 199q-235 0 -361 -185.5t-126 -535.5q0 -342 130 -543.5t347 -201.5z" />
    <glyph glyph-name="obreve" unicode="&#x14f;" horiz-adv-x="1138" 
d="M571 1130q-59 0 -108 23.5t-76 56.5t-46 66t-25 56l-7 24l13 6q3 -5 10 -13t30 -28.5t49.5 -36t70 -28.5t89.5 -13q47 0 90.5 12.5t71.5 29.5t49.5 34.5t31.5 30.5l9 12l13 -6q-2 -9 -7 -24.5t-25.5 -54.5t-47 -68.5t-76 -54t-109.5 -24.5zM553 -27q-223 0 -346 126.5
t-123 353.5q0 248 137.5 395t366.5 147q216 0 342.5 -125t126.5 -346q0 -252 -136.5 -401.5t-367.5 -149.5zM571 0q149 0 222 117t73 356q0 241 -77.5 369.5t-219.5 128.5q-150 0 -222.5 -115t-72.5 -352q0 -244 77 -374t220 -130z" />
    <glyph glyph-name="Ohungarumlaut" unicode="&#x150;" horiz-adv-x="1556" 
d="M537 1589l-15 13l191 245h174l6 -16zM889 1589l-15 13l191 245h172l8 -16zM760 -27q-307 0 -485.5 194t-178.5 527q0 237 87.5 418t247 280t368.5 99q304 0 482.5 -192t178.5 -517q0 -369 -190.5 -589t-509.5 -220zM774 0q235 0 360.5 188.5t125.5 542.5
q0 337 -129.5 536t-346.5 199q-235 0 -361 -185.5t-126 -535.5q0 -342 130 -543.5t347 -201.5z" />
    <glyph glyph-name="ohungarumlaut" unicode="&#x151;" horiz-adv-x="1138" 
d="M371 1108l133 311h174l6 -16l-299 -305zM664 1108l133 311h174l6 -16l-297 -305zM553 -27q-223 0 -346 126.5t-123 353.5q0 248 137.5 395t366.5 147q216 0 342.5 -125t126.5 -346q0 -252 -136.5 -401.5t-367.5 -149.5zM571 0q149 0 222 117t73 356q0 241 -77.5 369.5
t-219.5 128.5q-150 0 -222.5 -115t-72.5 -352q0 -244 77 -374t220 -130z" />
    <glyph glyph-name="OE" unicode="&#x152;" horiz-adv-x="2285" 
d="M2206 418l-56 -418h-1187q-95 -27 -203 -27q-307 0 -485.5 194t-178.5 527q0 237 87.5 418t247 280t368.5 99q103 0 198 -25h1104l23 -393l-19 -2l-192 369l-846 4q186 -73 289.5 -245.5t103.5 -416.5v-8h223l129 230h15v-484h-25v228l-342 2q-7 -267 -119.5 -457
t-306.5 -268l914 2l239 393zM297 745q0 -342 130 -543.5t347 -201.5q235 0 360.5 188.5t125.5 542.5q0 337 -129.5 536t-346.5 199q-235 0 -361 -185.5t-126 -535.5z" />
    <glyph glyph-name="oe" unicode="&#x153;" horiz-adv-x="1861" 
d="M1804 201l13 -17q-236 -211 -502 -211q-265 0 -369 209q-119 -209 -393 -209q-223 0 -346 126.5t-123 353.5q0 248 137.5 395t366.5 147q282 0 387 -215q61 103 161.5 159t233.5 56q187 0 291 -99t104 -267l-22 -21l-686 -43v-47q0 -204 105 -315t298 -111q184 0 344 109
zM571 0q149 0 222 117t73 356q0 241 -77.5 369.5t-219.5 128.5q-150 0 -222.5 -115t-72.5 -352q0 -244 77 -374t220 -130zM1348 971q-271 0 -289 -389l520 45q-15 344 -231 344z" />
    <glyph glyph-name="Racute" unicode="&#x154;" horiz-adv-x="1423" 
d="M592 1589l-12 13l221 245h194l9 -16zM1470 -72q-191 31 -317 103.5t-244 220.5l-372 430v16q266 32 384.5 124.5t118.5 267.5q0 179 -82.5 265.5t-252.5 86.5h-263v-1417h209v-25h-606v14l209 99v1329h-201v24h686q492 0 492 -354q0 -187 -157.5 -288.5t-508.5 -139.5
l94 -109h191l346 -391q120 -139 281 -239z" />
    <glyph glyph-name="racute" unicode="&#x155;" horiz-adv-x="858" 
d="M780 1403l-377 -305l-14 10l186 311h197zM750 995q27 0 49 -2.5t31 -4.5l8 -3l-37 -174h-27q-78 72 -172 72q-41 0 -79 -17t-64.5 -42t-41.5 -42.5t-22 -29.5v-727h275v-25h-619v14l162 86v744l-137 43v16l276 88l15 -10l22 -199h6q5 11 18 31t44 53.5t69 60.5t98 47.5
t126 20.5z" />
    <glyph glyph-name="uni0156" unicode="&#x156;" horiz-adv-x="1423" 
d="M1470 -72q-191 31 -317 103.5t-244 220.5l-372 430v16q266 32 384.5 124.5t118.5 267.5q0 179 -82.5 265.5t-252.5 86.5h-263v-1417h209v-25h-606v14l209 99v1329h-201v24h686q492 0 492 -354q0 -187 -157.5 -288.5t-508.5 -139.5l94 -109h191l346 -391
q120 -139 281 -239zM674 -547l-8 10q46 66 65 114t19 99q0 75 -52 115v14l152 95q76 -61 76 -146q0 -72 -53.5 -139t-186.5 -162h-12z" />
    <glyph glyph-name="uni0157" unicode="&#x157;" horiz-adv-x="858" 
d="M750 995q27 0 49 -2.5t31 -4.5l8 -3l-37 -174h-27q-78 72 -172 72q-41 0 -79 -17t-64.5 -42t-41.5 -42.5t-22 -29.5v-727h275v-25h-619v14l162 86v744l-137 43v16l276 88l15 -10l22 -199h6q5 11 18 31t44 53.5t69 60.5t98 47.5t126 20.5zM358 -100q76 -61 76 -146
q0 -72 -53 -139t-186 -162h-13l-8 10q46 66 65 114t19 99q0 76 -51 115v14z" />
    <glyph glyph-name="Rcaron" unicode="&#x158;" horiz-adv-x="1423" 
d="M674 1587l-293 244l6 12l295 -108l295 108l8 -12l-293 -244h-18zM1470 -72q-191 31 -317 103.5t-244 220.5l-372 430v16q266 32 384.5 124.5t118.5 267.5q0 179 -82.5 265.5t-252.5 86.5h-263v-1417h209v-25h-606v14l209 99v1329h-201v24h686q492 0 492 -354
q0 -187 -157.5 -288.5t-508.5 -139.5l94 -109h191l346 -391q120 -139 281 -239z" />
    <glyph glyph-name="rcaron" unicode="&#x159;" horiz-adv-x="858" 
d="M461 1112h-17l-272 303l8 10l273 -165l268 165l8 -10zM750 995q27 0 49 -2.5t31 -4.5l8 -3l-37 -174h-27q-78 72 -172 72q-41 0 -79 -17t-64.5 -42t-41.5 -42.5t-22 -29.5v-727h275v-25h-619v14l162 86v744l-137 43v16l276 88l15 -10l22 -199h6q5 11 18 31t44 53.5
t69 60.5t98 47.5t126 20.5z" />
    <glyph glyph-name="Sacute" unicode="&#x15a;" horiz-adv-x="1306" 
d="M580 1589l-13 13l221 245h195l8 -16zM637 -25q-291 0 -563 80l123 344l14 -2l51 -299q6 -4 18 -10.5t52 -23.5t83 -30t110.5 -23.5t136.5 -10.5q198 0 306.5 76.5t108.5 216.5q0 119 -70 190.5t-243 130.5l-283 93q-184 60 -273 155t-89 232q0 190 145.5 293.5
t411.5 103.5q252 0 495 -66l-104 -315l-16 2l-62 274q-5 3 -15 8.5t-44 19.5t-71 24.5t-94.5 19t-117.5 8.5q-185 0 -286 -75t-101 -213q0 -109 71.5 -177t246.5 -127l282 -92q187 -61 279 -160.5t92 -240.5q0 -193 -155.5 -299.5t-438.5 -106.5z" />
    <glyph glyph-name="sacute" unicode="&#x15b;" horiz-adv-x="937" 
d="M418 1108l186 311h197l8 -16l-377 -305zM442 -27q-196 0 -376 52l81 227l15 -2l41 -187q12 -7 34.5 -18t91.5 -29t138 -18q119 0 182.5 49t63.5 141q0 75 -46 120.5t-157 80.5l-145 45q-269 85 -269 275q0 135 105.5 210.5t294.5 75.5q165 0 333 -51l-71 -205l-15 2
l-55 174q-10 6 -28.5 15.5t-75.5 25t-113 15.5q-112 0 -171.5 -48t-59.5 -137q0 -70 48 -113.5t167 -80.5l153 -49q260 -82 260 -277q0 -138 -112 -215.5t-314 -77.5z" />
    <glyph glyph-name="Scircumflex" unicode="&#x15c;" horiz-adv-x="1306" 
d="M377 1587l-6 12l293 244h18l293 -244l-8 -12l-295 111zM637 -25q-291 0 -563 80l123 344l14 -2l51 -299q6 -4 18 -10.5t52 -23.5t83 -30t110.5 -23.5t136.5 -10.5q198 0 306.5 76.5t108.5 216.5q0 119 -70 190.5t-243 130.5l-283 93q-184 60 -273 155t-89 232
q0 190 145.5 293.5t411.5 103.5q252 0 495 -66l-104 -315l-16 2l-62 274q-5 3 -15 8.5t-44 19.5t-71 24.5t-94.5 19t-117.5 8.5q-185 0 -286 -75t-101 -213q0 -109 71.5 -177t246.5 -127l282 -92q187 -61 279 -160.5t92 -240.5q0 -193 -155.5 -299.5t-438.5 -106.5z" />
    <glyph glyph-name="scircumflex" unicode="&#x15d;" horiz-adv-x="937" 
d="M475 1425h17l268 -303l-10 -10l-267 164l-272 -164l-8 10zM442 -27q-196 0 -376 52l81 227l15 -2l41 -187q12 -7 34.5 -18t91.5 -29t138 -18q119 0 182.5 49t63.5 141q0 75 -46 120.5t-157 80.5l-145 45q-269 85 -269 275q0 135 105.5 210.5t294.5 75.5q165 0 333 -51
l-71 -205l-15 2l-55 174q-10 6 -28.5 15.5t-75.5 25t-113 15.5q-112 0 -171.5 -48t-59.5 -137q0 -70 48 -113.5t167 -80.5l153 -49q260 -82 260 -277q0 -138 -112 -215.5t-314 -77.5z" />
    <glyph glyph-name="Scedilla" unicode="&#x15e;" horiz-adv-x="1306" 
d="M637 -25h-12l-25 -71q135 -40 198.5 -80.5t63.5 -87.5q2 -53 -63.5 -115t-206.5 -141l-10 12q114 145 114 225q0 35 -30 75.5t-97 96.5l29 86q-270 6 -524 80l123 344l14 -2l51 -299q6 -4 18 -10.5t52 -23.5t83 -30t110.5 -23.5t136.5 -10.5q198 0 306.5 76.5
t108.5 216.5q0 119 -70 190.5t-243 130.5l-283 93q-184 60 -273 155t-89 232q0 190 145.5 293.5t411.5 103.5q252 0 495 -66l-104 -315l-16 2l-62 274q-5 3 -15 8.5t-44 19.5t-71 24.5t-94.5 19t-117.5 8.5q-185 0 -286 -75t-101 -213q0 -109 71.5 -177t246.5 -127l282 -92
q187 -61 279 -160.5t92 -240.5q0 -193 -155.5 -299.5t-438.5 -106.5z" />
    <glyph glyph-name="scedilla" unicode="&#x15f;" horiz-adv-x="937" 
d="M868 266q0 -137 -109 -214.5t-306 -78.5l-23 -65q123 -38 180.5 -78.5t59.5 -87.5q0 -102 -244 -258l-10 10q98 133 98 225q0 86 -111 175l25 79q-189 3 -362 52l81 227l15 -2l41 -187q12 -7 34.5 -18t91.5 -29t138 -18q119 0 182.5 49t63.5 141q0 75 -46 120.5
t-157 80.5l-145 45q-269 85 -269 275q0 135 105.5 210.5t294.5 75.5q165 0 333 -51l-71 -205l-15 2l-55 174q-10 6 -28.5 15.5t-75.5 25t-113 15.5q-112 0 -171.5 -48t-59.5 -137q0 -70 48 -113.5t167 -80.5l153 -49q260 -82 260 -277z" />
    <glyph glyph-name="Scaron" unicode="&#x160;" horiz-adv-x="1306" 
d="M664 1587l-293 244l6 12l295 -108l295 108l8 -12l-293 -244h-18zM637 -25q-291 0 -563 80l123 344l14 -2l51 -299q6 -4 18 -10.5t52 -23.5t83 -30t110.5 -23.5t136.5 -10.5q198 0 306.5 76.5t108.5 216.5q0 119 -70 190.5t-243 130.5l-283 93q-184 60 -273 155t-89 232
q0 190 145.5 293.5t411.5 103.5q252 0 495 -66l-104 -315l-16 2l-62 274q-5 3 -15 8.5t-44 19.5t-71 24.5t-94.5 19t-117.5 8.5q-185 0 -286 -75t-101 -213q0 -109 71.5 -177t246.5 -127l282 -92q187 -61 279 -160.5t92 -240.5q0 -193 -155.5 -299.5t-438.5 -106.5z" />
    <glyph glyph-name="scaron" unicode="&#x161;" horiz-adv-x="937" 
d="M471 1112l-272 303l8 10l272 -165l269 165l8 -10l-269 -303h-16zM442 -27q-196 0 -376 52l81 227l15 -2l41 -187q12 -7 34.5 -18t91.5 -29t138 -18q119 0 182.5 49t63.5 141q0 75 -46 120.5t-157 80.5l-145 45q-269 85 -269 275q0 135 105.5 210.5t294.5 75.5
q165 0 333 -51l-71 -205l-15 2l-55 174q-10 6 -28.5 15.5t-75.5 25t-113 15.5q-112 0 -171.5 -48t-59.5 -137q0 -70 48 -113.5t167 -80.5l153 -49q260 -82 260 -277q0 -138 -112 -215.5t-314 -77.5z" />
    <glyph glyph-name="uni0162" unicode="&#x162;" horiz-adv-x="1421" 
d="M1333 1466l15 -432l-19 -2l-196 410h-328v-1417h219v-25h-381l-25 -80q134 -40 198 -80.5t65 -87.5q1 -52 -65 -114t-208 -142l-10 12q115 147 115 226q0 67 -125 172l30 94h-221v14l219 99v1329h-327l-197 -410l-18 2l14 432h1245z" />
    <glyph glyph-name="uni0163" unicode="&#x163;" horiz-adv-x="710" 
d="M344 -96q235 -73 238 -166q2 -53 -57 -115t-189 -143l-8 10q98 129 98 225q0 87 -111 174l29 88q-104 17 -158.5 88t-54.5 189v690h-156v17l324 276h14v-266h359v-27h-359v-702q0 -88 44.5 -127t142.5 -39q108 0 209 43l10 -19q-168 -127 -313 -127q-27 0 -39 2z" />
    <glyph glyph-name="Tcaron" unicode="&#x164;" horiz-adv-x="1421" 
d="M705 1587l-293 244l6 12l295 -108l295 108l8 -12l-293 -244h-18zM397 0v14l219 99v1329h-327l-197 -410l-18 2l14 432h1245l15 -432l-19 -2l-196 410h-328v-1417h219v-25h-627z" />
    <glyph glyph-name="tcaron" unicode="&#x165;" horiz-adv-x="794" 
d="M549 1315q0 77 -55 129v14l135 125q94 -73 94 -170q0 -65 -47 -135.5t-158 -169.5h-12l-8 8q51 117 51 199zM754 119l10 -19q-91 -67 -164.5 -97t-150.5 -30q-132 0 -202.5 73t-70.5 208v690h-156v17l324 276h14v-266h359v-27h-359v-702q0 -88 44.5 -127t142.5 -39
q105 0 209 43z" />
    <glyph glyph-name="Tbar" unicode="&#x166;" horiz-adv-x="1421" 
d="M1333 1466l15 -432l-19 -2l-196 410h-328v-672h264v-22h-264v-723h219v-25h-627v14l219 99v635h-264v22h264v672h-327l-197 -410l-18 2l14 432h1245z" />
    <glyph glyph-name="tbar" unicode="&#x167;" horiz-adv-x="794" 
d="M754 119l10 -19q-91 -67 -164.5 -97t-150.5 -30q-132 0 -202.5 73t-70.5 208v260h-156v25h156v405h-156v17l324 276h14v-266h359v-27h-359v-405h359v-25h-359v-272q0 -88 44.5 -127t142.5 -39q105 0 209 43z" />
    <glyph glyph-name="Utilde" unicode="&#x168;" horiz-adv-x="1624" 
d="M514 1622l-18 10q58 121 93 162t79 41q42 0 209 -51t202 -51q26 0 47 18.5t58 73.5l20 -10q-58 -121 -93 -162t-79 -41q-42 0 -209 51t-202 51q-27 0 -49 -18.5t-58 -73.5zM799 -29q-559 0 -559 660v811h-201v24h598v-24h-209v-821q0 -564 467 -564t467 564v821h-209v24
h434v-14l-201 -94v-727q0 -660 -587 -660z" />
    <glyph glyph-name="utilde" unicode="&#x169;" horiz-adv-x="1214" 
d="M401 1253q-26 0 -47.5 -18t-58.5 -72l-19 8q58 122 93 162.5t80 40.5q42 0 180.5 -51t173.5 -51q26 0 46.5 18t57.5 74l21 -8q-58 -123 -93 -164t-79 -41q-42 0 -181 51t-174 51zM1012 127l162 -41v-18l-279 -84l-16 6l-37 149h-11q-16 -18 -35.5 -35.5t-68 -52.5
t-117.5 -56.5t-145 -21.5q-268 0 -268 289v582l-162 43v14l327 88l17 -10v-782q0 -86 37 -127t127 -41q55 0 106.5 17t89 44.5t57 45t33.5 34.5v674l-161 43v14l329 88l15 -10v-852z" />
    <glyph glyph-name="Umacron" unicode="&#x16a;" horiz-adv-x="1624" 
d="M557 1692v28l588 13v-41h-588zM799 -29q-559 0 -559 660v811h-201v24h598v-24h-209v-821q0 -564 467 -564t467 564v821h-209v24h434v-14l-201 -94v-727q0 -660 -587 -660z" />
    <glyph glyph-name="umacron" unicode="&#x16b;" horiz-adv-x="1214" 
d="M868 1257v-40h-532v28zM1012 127l162 -41v-18l-279 -84l-16 6l-37 149h-11q-16 -18 -35.5 -35.5t-68 -52.5t-117.5 -56.5t-145 -21.5q-268 0 -268 289v582l-162 43v14l327 88l17 -10v-782q0 -86 37 -127t127 -41q55 0 106.5 17t89 44.5t57 45t33.5 34.5v674l-161 43v14
l329 88l15 -10v-852z" />
    <glyph glyph-name="Ubreve" unicode="&#x16c;" horiz-adv-x="1624" 
d="M850 1606q-45 0 -85.5 12.5t-68.5 32.5t-51.5 43.5t-38 47.5t-25 44t-14.5 32l-4 13l12 6q4 -5 11.5 -13t34.5 -28.5t56.5 -36t76.5 -28.5t96 -13q50 0 96.5 12.5t78 30t55.5 34.5t35 29l11 13l13 -6q-3 -9 -8.5 -24t-29 -54t-53 -68.5t-83 -54t-115.5 -24.5zM799 -29
q-559 0 -559 660v811h-201v24h598v-24h-209v-821q0 -564 467 -564t467 564v821h-209v24h434v-14l-201 -94v-727q0 -660 -587 -660z" />
    <glyph glyph-name="ubreve" unicode="&#x16d;" horiz-adv-x="1214" 
d="M600 1130q-59 0 -108 23.5t-76 56.5t-46 66t-26 56l-6 24l12 6q3 -5 10 -13t30.5 -28.5t50 -36t70 -28.5t89.5 -13q47 0 90.5 12.5t71.5 29.5t49.5 34.5t30.5 30.5l10 12l12 -6q-2 -9 -6.5 -24.5t-25 -54.5t-47.5 -68.5t-76 -54t-109 -24.5zM1012 127l162 -41v-18
l-279 -84l-16 6l-37 149h-11q-16 -18 -35.5 -35.5t-68 -52.5t-117.5 -56.5t-145 -21.5q-268 0 -268 289v582l-162 43v14l327 88l17 -10v-782q0 -86 37 -127t127 -41q55 0 106.5 17t89 44.5t57 45t33.5 34.5v674l-161 43v14l329 88l15 -10v-852z" />
    <glyph glyph-name="Uring" unicode="&#x16e;" horiz-adv-x="1624" 
d="M854 1591q-89 0 -147 54.5t-58 134.5q0 82 60 138t149 56q90 0 147.5 -54t57.5 -136t-60 -137.5t-149 -55.5zM948 1929q-47 21 -90 21q-50 0 -94 -23v-291q45 -20 90 -20q52 0 94 22v291zM1153 1466h434v-14l-201 -94v-727q0 -660 -587 -660q-559 0 -559 660v811h-201v24
h598v-24h-209v-821q0 -564 467 -564t467 564v821h-209v24z" />
    <glyph glyph-name="uring" unicode="&#x16f;" horiz-adv-x="1214" 
d="M606 1096q-89 0 -147 54t-58 134q0 82 60 138.5t149 56.5q90 0 147.5 -54.5t57.5 -136.5t-60 -137t-149 -55zM700 1434q-45 20 -90 20q-52 0 -94 -22v-291q47 -21 90 -21q50 0 94 23v291zM1012 127l162 -41v-18l-279 -84l-16 6l-37 149h-11q-16 -18 -35.5 -35.5
t-68 -52.5t-117.5 -56.5t-145 -21.5q-268 0 -268 289v582l-162 43v14l327 88l17 -10v-782q0 -86 37 -127t127 -41q55 0 106.5 17t89 44.5t57 45t33.5 34.5v674l-161 43v14l329 88l15 -10v-852z" />
    <glyph glyph-name="Uhungarumlaut" unicode="&#x170;" horiz-adv-x="1624" 
d="M608 1589l-14 13l190 245h174l7 -16zM961 1589l-15 13l191 245h172l8 -16zM799 -29q-559 0 -559 660v811h-201v24h598v-24h-209v-821q0 -564 467 -564t467 564v821h-209v24h434v-14l-201 -94v-727q0 -660 -587 -660z" />
    <glyph glyph-name="uhungarumlaut" unicode="&#x171;" horiz-adv-x="1214" 
d="M715 1403l-299 -305l-15 10l134 311h174zM711 1098l-17 10l133 311h174l7 -16zM1012 127l162 -41v-18l-279 -84l-16 6l-37 149h-11q-16 -18 -35.5 -35.5t-68 -52.5t-117.5 -56.5t-145 -21.5q-268 0 -268 289v582l-162 43v14l327 88l17 -10v-782q0 -86 37 -127t127 -41
q55 0 106.5 17t89 44.5t57 45t33.5 34.5v674l-161 43v14l329 88l15 -10v-852z" />
    <glyph glyph-name="Uogonek" unicode="&#x172;" horiz-adv-x="1624" 
d="M1153 1466h434v-14l-201 -94v-727q0 -535 -389 -637q-95 -102 -134.5 -169t-39.5 -124q0 -123 205 -160v-16q-62 -27 -147 -27q-97 0 -151 42t-54 120q0 73 66 149.5t219 176.5q-73 -15 -162 -15q-559 0 -559 660v811h-201v24h598v-24h-209v-821q0 -564 467 -564t467 564
v821h-209v24z" />
    <glyph glyph-name="uogonek" unicode="&#x173;" horiz-adv-x="1214" 
d="M993 -231q0 -123 205 -160v-17q-59 -26 -147 -26q-97 0 -151 42t-54 120q0 74 66.5 149.5t222.5 177.5l-240 -71l-16 6l-37 149h-11q-16 -18 -35.5 -35.5t-68 -52.5t-117.5 -56.5t-145 -21.5q-268 0 -268 289v582l-162 43v14l327 88l17 -10v-782q0 -86 37 -127t127 -41
q55 0 106.5 17t89 44.5t57 45t33.5 34.5v674l-161 43v14l329 88l15 -10v-852l162 -41v-18q-99 -107 -140 -174t-41 -125z" />
    <glyph glyph-name="Wcircumflex" unicode="&#x174;" horiz-adv-x="2490" 
d="M1341 1698l-294 -111l-7 12l293 244h19l293 -244l-9 -12zM1970 1466h484v-24h-179l-524 -1442h-43l-455 1221l-444 -1221h-43l-545 1442h-184v24h686v-24h-293l438 -1213l449 1237h43l448 -1241l402 1108l-240 119v14z" />
    <glyph glyph-name="wcircumflex" unicode="&#x175;" horiz-adv-x="1703" 
d="M936 1276l-272 -164l-9 10l273 303h16l268 -303l-10 -10zM1307 971h374v-27h-141l-373 -944h-32l-279 731l-285 -731h-32l-375 944h-141v27h563v-27h-217l264 -725l291 752h30l271 -762l260 655l-178 90v17z" />
    <glyph glyph-name="Ycircumflex" unicode="&#x176;" horiz-adv-x="1605" 
d="M817 1698l-295 -111l-6 12l293 244h18l293 -244l-8 -12zM1108 1466h461v-24h-180l-480 -811l-2 -606h209v-25h-606v14l209 99l2 501l-500 828h-184v24h661v-24h-264l463 -787l412 699l-201 98v14z" />
    <glyph glyph-name="ycircumflex" unicode="&#x177;" horiz-adv-x="1179" 
d="M623 1276l-273 -164l-8 10l272 303h17l268 -303l-10 -10zM786 971h373v-27h-141l-363 -874q-57 -137 -120 -248t-111 -171.5t-88.5 -101.5t-61.5 -54l-22 -13l-96 119v14q192 105 298 209t177 256l6 12h-115l-358 852h-141v27h550v-27h-208l309 -770l282 690l-170 90v17z
" />
    <glyph glyph-name="Ydieresis" unicode="&#x178;" horiz-adv-x="1605" 
d="M592 1604q-50 0 -82.5 32t-32.5 80q0 49 34.5 83t82.5 34q50 0 82.5 -32.5t32.5 -82.5q0 -46 -35 -80t-82 -34zM1042 1604q-50 0 -82 32t-32 80q0 49 34.5 83t84.5 34q47 0 79.5 -33t32.5 -82q0 -46 -35 -80t-82 -34zM1108 1466h461v-24h-180l-480 -811l-2 -606h209v-25
h-606v14l209 99l2 501l-500 828h-184v24h661v-24h-264l463 -787l412 699l-201 98v14z" />
    <glyph glyph-name="Zacute" unicode="&#x179;" horiz-adv-x="1404" 
d="M1047 1831l-412 -242l-12 13l221 245h194zM1067 27l231 426l17 -4l-35 -449h-1208l-6 16q612 846 800 1102.5t252 325.5l-788 -4l-189 -398l-16 2l8 422h1186l4 -14q-879 -1236 -1051 -1427z" />
    <glyph glyph-name="zacute" unicode="&#x17a;" horiz-adv-x="1011" 
d="M858 1403l-377 -305l-14 10l186 311h197zM739 25l183 305l14 -2l-25 -328h-850l-6 16q378 529 505 701t185 229l-456 -2l-170 -282l-15 2l9 307h825l4 -17q-377 -525 -504 -697t-188 -234z" />
    <glyph glyph-name="Zdotaccent" unicode="&#x17b;" horiz-adv-x="1404" 
d="M727 1593q-56 0 -92.5 36t-36.5 89t38 89t93 36q56 0 92.5 -34.5t36.5 -88.5q0 -51 -39 -89t-92 -38zM1067 27l231 426l17 -4l-35 -449h-1208l-6 16q612 846 800 1102.5t252 325.5l-788 -4l-189 -398l-16 2l8 422h1186l4 -14q-879 -1236 -1051 -1427z" />
    <glyph glyph-name="zdotaccent" unicode="&#x17c;" horiz-adv-x="1011" 
d="M530 1139q-52 0 -86 33.5t-34 84.5t36 86t86 35q51 0 85 -33.5t34 -84.5q0 -50 -35.5 -85.5t-85.5 -35.5zM739 25l183 305l14 -2l-25 -328h-850l-6 16q378 529 505 701t185 229l-456 -2l-170 -282l-15 2l9 307h825l4 -17q-377 -525 -504 -697t-188 -234z" />
    <glyph glyph-name="Zcaron" unicode="&#x17d;" horiz-adv-x="1404" 
d="M737 1587h-18l-293 244l6 12l295 -108l295 108l8 -12zM1067 27l231 426l17 -4l-35 -449h-1208l-6 16q612 846 800 1102.5t252 325.5l-788 -4l-189 -398l-16 2l8 422h1186l4 -14q-879 -1236 -1051 -1427z" />
    <glyph glyph-name="zcaron" unicode="&#x17e;" horiz-adv-x="1011" 
d="M539 1112h-17l-272 303l8 10l272 -165l269 165l8 -10zM739 25l183 305l14 -2l-25 -328h-850l-6 16q378 529 505 701t185 229l-456 -2l-170 -282l-15 2l9 307h825l4 -17q-377 -525 -504 -697t-188 -234z" />
    <glyph glyph-name="longs" unicode="&#x17f;" horiz-adv-x="659" 
d="M723 1546q155 0 307 -51l-72 -133h-14q-150 156 -295 156q-124 0 -191 -86t-67 -244v-1163h252v-25h-596v14l162 86v844h-158v17l158 8v35q0 255 135.5 398.5t378.5 143.5z" />
    <glyph glyph-name="florin" unicode="&#x192;" horiz-adv-x="1071" 
d="M977 1440q102 0 264 -39l-61 -127h-15q-76 76 -128.5 106.5t-106.5 30.5q-102 0 -175.5 -109t-95.5 -290l-16 -148h318l-7 -26h-315l-74 -664q-29 -250 -157 -418t-289 -168q-80 0 -207 35l45 117h14q76 -59 123.5 -83t91.5 -24q73 0 124.5 78.5t66.5 216.5l94 910h-152
l3 18l151 8l4 41q16 150 92 274t184.5 192.5t223.5 68.5z" />
    <glyph glyph-name="uni01C4" unicode="&#x1c4;" horiz-adv-x="2963" 
d="M2296 1587h-19l-292 244l6 12l295 -108l294 108l9 -12zM758 1466q340 0 526 -182.5t186 -503.5q0 -366 -197 -573t-568 -207h-660v14l209 99v1329h-201v24h705zM2626 27l231 426l16 -4l-34 -449h-1209l-6 16q598 827 793 1092.5t260 335.5l-789 -4l-188 -398l-17 2l9 422
h1185l5 -14q-879 -1236 -1051 -1427zM717 25q285 0 419 172.5t134 533.5q0 345 -137 528t-394 183h-297v-1374q123 -43 275 -43z" />
    <glyph glyph-name="uni01C5" unicode="&#x1c5;" horiz-adv-x="2560" 
d="M758 1466q340 0 526 -182.5t186 -503.5q0 -366 -197 -573t-568 -207h-660v14l209 99v1329h-201v24h705zM717 25q285 0 419 172.5t134 533.5q0 345 -137 528t-394 183h-297v-1374q123 -43 275 -43zM2087 1112h-16l-273 303l8 10l273 -165l266 165l10 -10zM2288 25l182 305
l14 -2l-24 -328h-850l-6 16q378 529 505 701t185 229l-457 -2l-170 -282l-14 2l8 307h825l4 -17q-377 -525 -504 -697t-188 -234z" />
    <glyph glyph-name="uni01C6" unicode="&#x1c6;" horiz-adv-x="2230" 
d="M1016 1544v-1417l176 -41v-18l-287 -84l-18 10l-39 145h-8q-187 -166 -373 -166q-179 0 -281 126.5t-102 338.5q0 253 141 405t375 152q136 0 234 -55v469l-156 43v14l323 88zM1757 1112h-16l-273 303l9 10l272 -165l266 165l10 -10zM274 510q0 -215 78 -332t223 -117
q65 0 127 24t88 43.5t44 37.5v672q-91 133 -244 133q-316 0 -316 -461zM1958 25l182 305l14 -2l-24 -328h-850l-6 16q378 529 505 701t185 229l-457 -2l-170 -282l-14 2l8 307h826l4 -17q-369 -514 -500.5 -691t-192.5 -240z" />
    <glyph glyph-name="uni01C7" unicode="&#x1c7;" horiz-adv-x="1990" 
d="M45 0v14l209 99v1329h-201v24h697v-24h-301v-1417l567 2l244 440l18 -4l-59 -463h-1174zM1403 -449l-166 123v15l289 112q39 107 39 262v1379h-240v24h631v-14l-203 -94v-1151q0 -231 -82.5 -385.5t-267.5 -270.5z" />
    <glyph glyph-name="uni01C8" unicode="&#x1c8;" horiz-adv-x="1880" 
d="M45 0v14l209 99v1329h-201v24h697v-24h-301v-1417l567 2l244 440l18 -4l-59 -463h-1174zM1628 1139q-54 0 -87.5 33.5t-33.5 84.5t36 86t87 35t85 -33.5t34 -84.5q0 -50 -35.5 -85.5t-85.5 -35.5zM1380 -514l-118 92v14l243 99q45 107 45 266v891l-161 43v16l329 86
l15 -8v-858q0 -228 -83.5 -380t-269.5 -261z" />
    <glyph glyph-name="uni01C9" unicode="&#x1c9;" horiz-adv-x="1126" 
d="M41 0v14l162 86v1309l-154 43v14l322 88l14 -10v-1519h170v-25h-514zM874 1139q-52 0 -86 33.5t-34 84.5q0 50 36.5 85.5t86.5 35.5q51 0 84.5 -33.5t33.5 -84.5q0 -50 -35.5 -85.5t-85.5 -35.5zM627 -514l-119 92v14l244 99q45 107 45 266v891l-162 43v16l330 86l14 -8
v-858q0 -228 -83.5 -380.5t-268.5 -260.5z" />
    <glyph glyph-name="uni01CA" unicode="&#x1ca;" horiz-adv-x="2291" 
d="M41 0v14l209 99v1222l-150 117v14h279l946 -1257l-4 1229v4h-209v24h436v-14l-200 -94v-1358h-95l-983 1298l4 -1269v-4h209v-25h-442zM1702 -449l-166 123v15l289 112q39 107 39 262v1379h-240v24h631v-14l-203 -94v-1151q0 -231 -82.5 -385.5t-267.5 -270.5z" />
    <glyph glyph-name="uni01CB" unicode="&#x1cb;" horiz-adv-x="2115" 
d="M41 0v14l209 99v1222l-150 117v14h279l946 -1257l-4 1229v4h-209v24h436v-14l-200 -94v-1358h-95l-983 1298l4 -1269v-4h209v-25h-442zM1864 1139q-54 0 -87.5 33.5t-33.5 84.5t36 86t87 35t85 -33.5t34 -84.5q0 -50 -35.5 -85.5t-85.5 -35.5zM1616 -514l-119 92v14
l244 99q45 107 45 266v891l-162 43v16l330 86l14 -8v-858q0 -228 -83.5 -380.5t-268.5 -260.5z" />
    <glyph glyph-name="uni01CC" unicode="&#x1cc;" horiz-adv-x="1769" 
d="M1518 1139q-52 0 -86.5 33.5t-34.5 84.5q0 50 36.5 85.5t86.5 35.5q51 0 84.5 -33.5t33.5 -84.5q0 -50 -35.5 -85.5t-84.5 -35.5zM700 25h150v749q0 84 -37.5 125t-128.5 41q-55 0 -106.5 -17t-89 -43.5t-57.5 -44.5t-34 -34v-776h152v-25h-496v14l162 86v748l-162 43v14
l301 88l17 -10l18 -154h6q11 12 23.5 25t49.5 40.5t75.5 47.5t98.5 36.5t122 16.5q268 0 268 -286v-684h170v-25h-502v25zM1278 907l330 86l14 -8v-858q0 -228 -83.5 -380.5t-268.5 -260.5l-119 92v14l244 99q45 107 45 266v891l-162 43v16z" />
    <glyph glyph-name="uni01CD" unicode="&#x1cd;" horiz-adv-x="1687" 
d="M801 1587h-19l-293 244l7 12l295 -108l294 108l9 -12zM1458 25h191v-25h-680v25h288l-237 602h-531l-194 -502l217 -111v-14h-473v25h190l510 1312l-112 115v14h254zM498 651h512l-258 654z" />
    <glyph glyph-name="uni01CE" unicode="&#x1ce;" horiz-adv-x="1044" 
d="M535 1112h-17l-272 303l8 10l272 -165l269 165l8 -10zM879 33h133v-17q-68 -32 -152 -32q-78 0 -112 35t-35 120h-13q-10 -12 -23.5 -25t-50 -40.5t-75 -48t-97 -36.5t-118.5 -16q-132 0 -205.5 59t-73.5 163q0 141 148.5 216t490.5 119v193q0 102 -42.5 148.5
t-149.5 46.5q-164 0 -361 -99l-10 21q232 155 459 155q139 0 213 -77t74 -222v-663zM436 63q139 0 260 97v350q-246 -44 -349 -109.5t-103 -175.5q0 -77 49.5 -119.5t142.5 -42.5z" />
    <glyph glyph-name="uni01CF" unicode="&#x1cf;" horiz-adv-x="702" 
d="M342 1587l-293 244l6 12l295 -108l295 108l8 -12l-293 -244h-18zM45 0v14l209 99v1329h-201v24h596v-14l-200 -94v-1333h208v-25h-612z" />
    <glyph glyph-name="uni01D0" unicode="&#x1d0;" horiz-adv-x="591" 
d="M287 1112l-273 303l9 10l272 -165l268 165l8 -10l-268 -303h-16zM55 0v14l162 86v748l-162 43v16l330 86l14 -8v-960h156v-25h-500z" />
    <glyph glyph-name="uni01D1" unicode="&#x1d1;" horiz-adv-x="1556" 
d="M770 1587l-293 244l6 12l295 -108l295 108l8 -12l-293 -244h-18zM760 -27q-307 0 -485.5 194t-178.5 527q0 237 87.5 418t247 280t368.5 99q304 0 482.5 -192t178.5 -517q0 -369 -190.5 -589t-509.5 -220zM774 0q235 0 360.5 188.5t125.5 542.5q0 337 -129.5 536
t-346.5 199q-235 0 -361 -185.5t-126 -535.5q0 -342 130 -543.5t347 -201.5z" />
    <glyph glyph-name="uni01D2" unicode="&#x1d2;" horiz-adv-x="1138" 
d="M563 1112l-272 303l8 10l272 -165l269 165l8 -10l-268 -303h-17zM553 -27q-223 0 -346 126.5t-123 353.5q0 248 137.5 395t366.5 147q216 0 342.5 -125t126.5 -346q0 -252 -136.5 -401.5t-367.5 -149.5zM571 0q149 0 222 117t73 356q0 241 -77.5 369.5t-219.5 128.5
q-150 0 -222.5 -115t-72.5 -352q0 -244 77 -374t220 -130z" />
    <glyph glyph-name="uni01D3" unicode="&#x1d3;" horiz-adv-x="1624" 
d="M842 1587l-293 244l6 12l295 -108l295 108l8 -12l-293 -244h-18zM799 -29q-559 0 -559 660v811h-201v24h598v-24h-209v-821q0 -564 467 -564t467 564v821h-209v24h434v-14l-201 -94v-727q0 -660 -587 -660z" />
    <glyph glyph-name="uni01D4" unicode="&#x1d4;" horiz-adv-x="1214" 
d="M610 1112h-16l-272 303l8 10l272 -165l268 165l9 -10zM1012 127l162 -41v-18l-279 -84l-16 6l-37 149h-11q-16 -18 -35.5 -35.5t-68 -52.5t-117.5 -56.5t-145 -21.5q-268 0 -268 289v582l-162 43v14l327 88l17 -10v-782q0 -86 37 -127t127 -41q55 0 106.5 17t89 44.5
t57 45t33.5 34.5v674l-161 43v14l329 88l15 -10v-852z" />
    <glyph glyph-name="uni01EA" unicode="&#x1ea;" horiz-adv-x="1556" 
d="M1460 782q0 -315 -141.5 -524.5t-388.5 -265.5q-94 -103 -133 -168.5t-39 -122.5q0 -123 205 -160v-16q-62 -27 -148 -27q-97 0 -151 42t-54 120q0 73 65.5 149.5t217.5 174.5q-75 -11 -133 -11q-307 0 -485.5 194t-178.5 527q0 237 87.5 418t247 280t368.5 99
q304 0 482.5 -192t178.5 -517zM297 745q0 -342 130 -543.5t347 -201.5q235 0 360.5 188.5t125.5 542.5q0 337 -129.5 536t-346.5 199q-235 0 -361 -185.5t-126 -535.5z" />
    <glyph glyph-name="uni01EB" unicode="&#x1eb;" horiz-adv-x="1138" 
d="M1057 524q0 -205 -92.5 -344.5t-255.5 -185.5q-93 -102 -131.5 -167t-38.5 -122q0 -123 204 -160v-16q-61 -27 -147 -27q-97 0 -151 42t-54 120q0 73 64 148t213 172q-68 -11 -115 -11q-223 0 -346 126.5t-123 353.5q0 248 137.5 395t366.5 147q216 0 342.5 -125
t126.5 -346zM274 504q0 -244 77 -374t220 -130q149 0 222 117t73 356q0 241 -77.5 369.5t-219.5 128.5q-150 0 -222.5 -115t-72.5 -352z" />
    <glyph glyph-name="uni01F1" unicode="&#x1f1;" horiz-adv-x="2963" 
d="M758 1466q340 0 526 -182.5t186 -503.5q0 -366 -197 -573t-568 -207h-660v14l209 99v1329h-201v24h705zM2626 27l231 426l16 -4l-34 -449h-1209l-6 16q598 827 793 1092.5t260 335.5l-789 -4l-188 -398l-17 2l9 422h1185l5 -14q-879 -1236 -1051 -1427zM717 25
q285 0 419 172.5t134 533.5q0 345 -137 528t-394 183h-297v-1374q123 -43 275 -43z" />
    <glyph glyph-name="uni01F2" unicode="&#x1f2;" horiz-adv-x="2560" 
d="M758 1466q340 0 526 -182.5t186 -503.5q0 -366 -197 -573t-568 -207h-660v14l209 99v1329h-201v24h705zM717 25q285 0 419 172.5t134 533.5q0 345 -137 528t-394 183h-297v-1374q123 -43 275 -43zM2288 25l182 305l14 -2l-24 -328h-850l-6 16q378 529 505 701t185 229
l-457 -2l-170 -282l-14 2l8 307h825l4 -17q-377 -525 -504 -697t-188 -234z" />
    <glyph glyph-name="uni01F3" unicode="&#x1f3;" horiz-adv-x="2230" 
d="M1016 1544v-1417l176 -41v-18l-287 -84l-18 10l-39 145h-8q-187 -166 -373 -166q-179 0 -281 126.5t-102 338.5q0 253 141 405t375 152q136 0 234 -55v469l-156 43v14l323 88zM274 510q0 -215 78 -332t223 -117q65 0 127 24t88 43.5t44 37.5v672q-91 133 -244 133
q-316 0 -316 -461zM1958 25l182 305l14 -2l-24 -328h-850l-6 16q378 529 505 701t185 229l-457 -2l-170 -282l-14 2l8 307h826l4 -17q-369 -514 -500.5 -691t-192.5 -240z" />
    <glyph glyph-name="uni01F4" unicode="&#x1f4;" horiz-adv-x="1587" 
d="M1133 1831l-412 -242l-12 13l221 245h194zM881 702h661v-22h-188v-551q-298 -156 -574 -156q-330 0 -507 182.5t-177 522.5q0 241 93.5 426t265 286t395.5 101q252 0 463 -84l10 -371l-18 -2l-187 365q-141 69 -287 69q-259 0 -398.5 -191.5t-139.5 -549.5
q0 -350 133 -539.5t379 -189.5q214 0 366 129v553h-290v22z" />
    <glyph glyph-name="uni01F5" unicode="&#x1f5;" horiz-adv-x="1067" 
d="M811 1403l-377 -305l-14 10l186 311h197zM1032 1030v-199l-194 9q47 -77 47 -189q0 -179 -115 -287t-305 -108q-95 0 -168 25l-27 -129q90 -43 201 -54l305 -28q129 -12 189.5 -56t60.5 -127q0 -100 -90.5 -190t-240.5 -144.5t-316 -54.5q-168 0 -258 53t-90 150
q0 67 53.5 125.5t206.5 155.5q-110 40 -168 124l4 17l156 164q-99 37 -151 118t-52 199q0 177 115.5 284t304.5 107q225 0 321 -131l195 166h16zM489 279q218 0 218 335q0 170 -61 263.5t-171 93.5q-215 0 -215 -330q0 -172 59.5 -267t169.5 -95zM485 -59q-112 13 -176 34
q-89 -84 -120 -138.5t-31 -117.5q0 -99 64.5 -146.5t197.5 -47.5q187 0 314.5 80t127.5 192q0 56 -32.5 82t-114.5 35z" />
    <glyph glyph-name="Aringacute" unicode="&#x1fa;" horiz-adv-x="1687" 
d="M795 1591q-89 0 -147 54.5t-58 134.5q0 62 37 112t98 70l203 225h194l11 -16l-336 -197h2q90 0 147.5 -54t57.5 -136t-60 -137.5t-149 -55.5zM799 1950q-36 0 -60 -8l-20 -13l-4 4q-2 -2 -10 -6v-291q45 -20 90 -20q52 0 94 22v291q-47 21 -90 21zM1458 25h191v-25h-680
v25h288l-237 602h-531l-194 -502l217 -111v-14h-473v25h190l510 1312l-112 115v14h254zM498 651h512l-258 654z" />
    <glyph glyph-name="aringacute" unicode="&#x1fb;" horiz-adv-x="1044" 
d="M530 1096q-89 0 -146.5 54t-57.5 134q0 64 38.5 113.5t100.5 70.5l182 304h197l8 -17l-344 -278q10 2 27 2q90 0 147 -54t57 -137q0 -82 -60 -137t-149 -55zM625 1434q-45 20 -90 20q-53 0 -95 -22v-291q47 -21 90 -21q51 0 95 23v291zM879 33h133v-17q-68 -32 -152 -32
q-78 0 -112 35t-35 120h-13q-10 -12 -23.5 -25t-50 -40.5t-75 -48t-97 -36.5t-118.5 -16q-132 0 -205.5 59t-73.5 163q0 141 148.5 216t490.5 119v193q0 102 -42.5 148.5t-149.5 46.5q-164 0 -361 -99l-10 21q232 155 459 155q139 0 213 -77t74 -222v-663zM436 63
q139 0 260 97v350q-246 -44 -349 -109.5t-103 -175.5q0 -77 49.5 -119.5t142.5 -42.5z" />
    <glyph glyph-name="AEacute" unicode="&#x1fc;" horiz-adv-x="2291" 
d="M1565 1831l-412 -242l-12 13l221 245h194zM2195 420l17 -2l-53 -418h-1215v14l209 99v516h-514l-324 -514l197 -101v-14h-473v25h190l828 1308l-131 119v14h1183l21 -393l-16 -2l-195 371h-578v-668h314l127 230h14v-484h-24v228l-431 2v-725l615 2zM653 651h500v793z
" />
    <glyph glyph-name="aeacute" unicode="&#x1fd;" horiz-adv-x="1687" 
d="M1180 1403l-377 -305l-15 10l187 311h196zM1632 201l13 -17q-236 -211 -504 -211q-132 0 -229 53t-152 152q-28 -32 -63.5 -62.5t-88.5 -65.5t-123.5 -56t-144.5 -21q-134 0 -208.5 58t-74.5 164q0 141 148.5 218t492.5 128v182q0 101 -43 148t-151 47q-164 0 -361 -99
l-10 21q232 155 459 155q189 0 237 -161q142 161 367 161q188 0 291.5 -99t103.5 -267l-22 -21l-686 -61v-29q0 -204 105.5 -315t297.5 -111q181 0 346 109zM1174 971q-276 0 -291 -406l522 62q-15 344 -231 344zM436 63q100 0 181 42t133 92q-52 110 -52 254v67
q-248 -51 -351 -117t-103 -174q0 -79 49.5 -121.5t142.5 -42.5z" />
    <glyph glyph-name="Oslashacute" unicode="&#x1fe;" horiz-adv-x="1556" 
d="M1100 1831l-412 -242l-12 13l221 245h195zM1243 1337q105 -93 161 -234.5t56 -320.5q0 -369 -190.5 -589t-509.5 -220q-259 0 -430 142l-123 -164l-21 14l125 166q-104 95 -159.5 238.5t-55.5 324.5q0 237 87.5 418t247 280t368.5 99q255 0 426 -139l125 168l18 -15z
M297 745q0 -302 102 -495l746 995q-132 221 -361 221q-235 0 -361 -185.5t-126 -535.5zM774 0q235 0 360.5 188.5t125.5 542.5q0 297 -103 492l-745 -998q64 -109 156 -167t206 -58z" />
    <glyph glyph-name="oslashacute" unicode="&#x1ff;" horiz-adv-x="1138" 
d="M883 1403l-377 -305l-14 10l186 311h196zM913 885q144 -125 144 -361q0 -252 -136.5 -401.5t-367.5 -149.5q-191 0 -309 95l-97 -117l-18 14l96 117q-141 126 -141 371q0 248 137.5 395t366.5 147q187 0 307 -94l98 119l19 -16zM274 504q0 -184 45 -305l492 600
q-75 172 -242 172q-150 0 -222.5 -115t-72.5 -352zM571 0q149 0 222 117t73 356q0 186 -45 299l-491 -600q75 -172 241 -172z" />
    <glyph glyph-name="uni0200" unicode="&#x200;" horiz-adv-x="1687" 
d="M696 1602l-14 -13l-356 242l8 16h172zM1044 1602l-14 -13l-356 242l8 16h172zM1458 25h191v-25h-680v25h288l-237 602h-531l-194 -502l217 -111v-14h-473v25h190l510 1312l-112 115v14h254zM498 651h512l-258 654z" />
    <glyph glyph-name="uni0201" unicode="&#x201;" horiz-adv-x="1044" 
d="M432 1108l-14 -10l-299 305l6 16h174zM725 1108l-14 -10l-299 305l8 16h174zM879 33h133v-17q-68 -32 -152 -32q-78 0 -112 35t-35 120h-13q-10 -12 -23.5 -25t-50 -40.5t-75 -48t-97 -36.5t-118.5 -16q-132 0 -205.5 59t-73.5 163q0 141 148.5 216t490.5 119v193
q0 102 -42.5 148.5t-149.5 46.5q-164 0 -361 -99l-10 21q232 155 459 155q139 0 213 -77t74 -222v-663zM436 63q139 0 260 97v350q-246 -44 -349 -109.5t-103 -175.5q0 -77 49.5 -119.5t142.5 -42.5z" />
    <glyph glyph-name="uni0204" unicode="&#x204;" horiz-adv-x="1402" 
d="M623 1589l-357 242l8 16h172l191 -245zM971 1589l-357 242l9 16h172l190 -245zM45 0v14l209 99v1329h-201v24h1166l22 -393l-18 -2l-193 369l-588 2v-668h322l127 230h16v-484h-24v228l-441 2v-725l623 2l240 393l18 -2l-55 -418h-1223z" />
    <glyph glyph-name="uni0205" unicode="&#x205;" horiz-adv-x="1073" 
d="M461 1108l-15 -10l-299 305l7 16h174zM754 1108l-15 -10l-299 305l9 16h174zM1016 201l14 -17q-239 -211 -504 -211q-207 0 -324.5 127t-117.5 351q0 245 138 394.5t360 149.5q187 0 291 -99t104 -267l-23 -21l-686 -45v-45q0 -204 106 -315t298 -111q184 0 344 109z
M559 971q-271 0 -289 -389l521 45q-15 344 -232 344z" />
    <glyph glyph-name="uni0208" unicode="&#x208;" horiz-adv-x="702" 
d="M242 1589l-357 242l9 16h172l190 -245zM590 1589l-357 242l9 16h172l190 -245zM45 0v14l209 99v1329h-201v24h596v-14l-200 -94v-1333h208v-25h-612z" />
    <glyph glyph-name="uni0209" unicode="&#x209;" horiz-adv-x="591" 
d="M201 1108l-15 -10l-299 305l7 16h174zM494 1108l-15 -10l-299 305l8 16h174zM55 0v14l162 86v748l-162 43v16l330 86l14 -8v-960h156v-25h-500z" />
    <glyph glyph-name="uni020C" unicode="&#x20c;" horiz-adv-x="1556" 
d="M670 1589l-357 242l9 16h172l190 -245zM1018 1589l-356 242l8 16h172l190 -245zM760 -27q-307 0 -485.5 194t-178.5 527q0 237 87.5 418t247 280t368.5 99q304 0 482.5 -192t178.5 -517q0 -369 -190.5 -589t-509.5 -220zM774 0q235 0 360.5 188.5t125.5 542.5
q0 337 -129.5 536t-346.5 199q-235 0 -361 -185.5t-126 -535.5q0 -342 130 -543.5t347 -201.5z" />
    <glyph glyph-name="uni020D" unicode="&#x20d;" horiz-adv-x="1138" 
d="M477 1108l-14 -10l-299 305l6 16h174zM770 1108l-14 -10l-299 305l8 16h174zM553 -27q-223 0 -346 126.5t-123 353.5q0 248 137.5 395t366.5 147q216 0 342.5 -125t126.5 -346q0 -252 -136.5 -401.5t-367.5 -149.5zM571 0q149 0 222 117t73 356q0 241 -77.5 369.5
t-219.5 128.5q-150 0 -222.5 -115t-72.5 -352q0 -244 77 -374t220 -130z" />
    <glyph glyph-name="uni0210" unicode="&#x210;" horiz-adv-x="1423" 
d="M573 1589l-356 242l8 16h172l191 -245zM922 1589l-357 242l8 16h172l191 -245zM1470 -72q-191 31 -317 103.5t-244 220.5l-372 430v16q266 32 384.5 124.5t118.5 267.5q0 179 -82.5 265.5t-252.5 86.5h-263v-1417h209v-25h-606v14l209 99v1329h-201v24h686
q492 0 492 -354q0 -187 -157.5 -288.5t-508.5 -139.5l94 -109h191l346 -391q120 -139 281 -239z" />
    <glyph glyph-name="uni0211" unicode="&#x211;" horiz-adv-x="858" 
d="M358 1108l-14 -10l-299 305l6 16h174zM651 1108l-14 -10l-299 305l8 16h174zM750 995q27 0 49 -2.5t31 -4.5l8 -3l-37 -174h-27q-78 72 -172 72q-41 0 -79 -17t-64.5 -42t-41.5 -42.5t-22 -29.5v-727h275v-25h-619v14l162 86v744l-137 43v16l276 88l15 -10l22 -199h6
q5 11 18 31t44 53.5t69 60.5t98 47.5t126 20.5z" />
    <glyph glyph-name="uni0214" unicode="&#x214;" horiz-adv-x="1624" 
d="M741 1589l-356 242l8 16h172l191 -245zM1090 1589l-357 242l8 16h172l191 -245zM799 -29q-559 0 -559 660v811h-201v24h598v-24h-209v-821q0 -564 467 -564t467 564v821h-209v24h434v-14l-201 -94v-727q0 -660 -587 -660z" />
    <glyph glyph-name="uni0215" unicode="&#x215;" horiz-adv-x="1214" 
d="M508 1108l-14 -10l-299 305l6 16h174zM801 1108l-15 -10l-299 305l9 16h174zM1012 127l162 -41v-18l-279 -84l-16 6l-37 149h-11q-16 -18 -35.5 -35.5t-68 -52.5t-117.5 -56.5t-145 -21.5q-268 0 -268 289v582l-162 43v14l327 88l17 -10v-782q0 -86 37 -127t127 -41
q55 0 106.5 17t89 44.5t57 45t33.5 34.5v674l-161 43v14l329 88l15 -10v-852z" />
    <glyph glyph-name="uni0218" unicode="&#x218;" horiz-adv-x="1306" 
d="M637 -25q-291 0 -563 80l123 344l14 -2l51 -299q6 -4 18 -10.5t52 -23.5t83 -30t110.5 -23.5t136.5 -10.5q198 0 306.5 76.5t108.5 216.5q0 119 -70 190.5t-243 130.5l-283 93q-184 60 -273 155t-89 232q0 190 145.5 293.5t411.5 103.5q252 0 495 -66l-104 -315l-16 2
l-62 274q-5 3 -15 8.5t-44 19.5t-71 24.5t-94.5 19t-117.5 8.5q-185 0 -286 -75t-101 -213q0 -109 71.5 -177t246.5 -127l282 -92q187 -61 279 -160.5t92 -240.5q0 -193 -155.5 -299.5t-438.5 -106.5zM500 -547l-8 10q46 66 64.5 114t18.5 99q0 76 -51 115v14l152 95
q76 -61 76 -146q0 -72 -53.5 -139t-186.5 -162h-12z" />
    <glyph glyph-name="uni0219" unicode="&#x219;" horiz-adv-x="937" 
d="M442 -27q-196 0 -376 52l81 227l15 -2l41 -187q12 -7 34.5 -18t91.5 -29t138 -18q119 0 182.5 49t63.5 141q0 75 -46 120.5t-157 80.5l-145 45q-269 85 -269 275q0 135 105.5 210.5t294.5 75.5q165 0 333 -51l-71 -205l-15 2l-55 174q-10 6 -28.5 15.5t-75.5 25
t-113 15.5q-112 0 -171.5 -48t-59.5 -137q0 -70 48 -113.5t167 -80.5l153 -49q260 -82 260 -277q0 -138 -112 -215.5t-314 -77.5zM332 -547l-8 10q46 66 65 114t19 99q0 75 -52 115v14l152 95q76 -61 76 -146q0 -72 -53.5 -139t-186.5 -162h-12z" />
    <glyph glyph-name="uni021A" unicode="&#x21a;" horiz-adv-x="1421" 
d="M397 0v14l219 99v1329h-327l-197 -410l-18 2l14 432h1245l15 -432l-19 -2l-196 410h-328v-1417h219v-25h-627zM588 -547l-8 10q46 66 65 114t19 99q0 75 -52 115v14l152 95q76 -61 76 -146q0 -72 -53.5 -139t-186.5 -162h-12z" />
    <glyph glyph-name="uni021B" unicode="&#x21b;" horiz-adv-x="794" 
d="M764 100q-91 -67 -164.5 -97t-150.5 -30q-132 0 -202.5 73t-70.5 208v690h-156v17l324 276h14v-266h359v-27h-359v-702q0 -88 44.5 -127t142.5 -39q105 0 209 43zM489 -104q76 -61 76 -146q0 -72 -53 -139t-186 -162h-13l-8 10q46 66 65 114t19 99q0 76 -51 115v14z" />
    <glyph glyph-name="uni0237" unicode="&#x237;" horiz-adv-x="530" 
d="M31 -514l-119 92v14l244 99q45 107 45 266v891l-162 43v16l330 86l14 -8v-858q0 -228 -83.5 -380.5t-268.5 -260.5z" />
    <glyph glyph-name="uni0259" unicode="&#x259;" horiz-adv-x="1073" 
d="M547 997q209 0 325.5 -125.5t116.5 -351.5q0 -245 -137.5 -395t-359.5 -150q-187 0 -291.5 99.5t-104.5 267.5l23 20l686 46v45q0 205 -105.5 315.5t-298.5 110.5q-186 0 -344 -107l-12 14q236 211 502 211zM514 0q271 0 289 389l-520 -45q15 -344 231 -344z" />
    <glyph glyph-name="caron" unicode="&#x2c7;" horiz-adv-x="761" 
d="M375 1112l-273 303l9 10l272 -165l268 165l8 -10l-268 -303h-16z" />
    <glyph glyph-name="gravecomb" unicode="&#x300;" 
d="M-102 1108l-17 -10l-375 305l7 16h196z" />
    <glyph glyph-name="acutecomb" unicode="&#x301;" 
d="M-489 1108l186 311h197l8 -16l-377 -305z" />
    <glyph glyph-name="uni0302" unicode="&#x302;" 
d="M-383 1425h16l269 -303l-11 -10l-266 164l-272 -164l-8 10z" />
    <glyph glyph-name="tildecomb" unicode="&#x303;" 
d="M-735 1163l-19 8q58 122 92.5 162.5t79.5 40.5q42 0 181 -51t174 -51q26 0 46.5 18t57.5 74l21 -8q-58 -123 -93 -164t-79 -41q-42 0 -181 51t-174 51q-26 0 -47.5 -18t-58.5 -72z" />
    <glyph glyph-name="uni0304" unicode="&#x304;" 
d="M-635 1217v28l533 12v-40h-533z" />
    <glyph glyph-name="uni0306" unicode="&#x306;" 
d="M-367 1130q-59 0 -108 23.5t-76 56.5t-46 66t-25 56l-7 24l13 6q3 -5 10 -13t30 -28.5t49.5 -36t70 -28.5t89.5 -13q47 0 90.5 12.5t71.5 29.5t49.5 34.5t31.5 30.5l9 12l13 -6q-2 -9 -7 -24.5t-25.5 -54.5t-47 -68.5t-76 -54t-109.5 -24.5z" />
    <glyph glyph-name="uni0307" unicode="&#x307;" 
d="M-223 1139q-52 0 -86.5 33.5t-34.5 84.5q0 50 36.5 85.5t86.5 35.5q51 0 85 -33.5t34 -84.5q0 -50 -36 -85.5t-85 -35.5z" />
    <glyph glyph-name="uni0308" unicode="&#x308;" 
d="M-639 1143q-49 0 -81 32t-32 78q0 47 34.5 80t80.5 33q48 0 79.5 -31t31.5 -80q0 -45 -34 -78.5t-79 -33.5zM-215 1143q-50 0 -81.5 31.5t-31.5 78.5t34 80t81 33q48 0 79.5 -31t31.5 -80q0 -44 -34.5 -78t-78.5 -34z" />
    <glyph glyph-name="uni030A" unicode="&#x30a;" 
d="M-305 1479q90 0 147.5 -54.5t57.5 -136.5t-60 -137t-149 -55t-147 54t-58 134q0 82 60 138.5t149 56.5zM-399 1141q47 -21 90 -21q50 0 94 23v291q-45 20 -90 20q-52 0 -94 -22v-291z" />
    <glyph glyph-name="uni030B" unicode="&#x30b;" 
d="M-709 1108l134 311h174l6 -16l-299 -305zM-416 1108l133 311h174l7 -16l-297 -305z" />
    <glyph glyph-name="uni030C" unicode="&#x30c;" 
d="M-387 1112l-272 303l8 10l272 -165l268 165l9 -10l-269 -303h-16z" />
    <glyph glyph-name="uni030F" unicode="&#x30f;" 
d="M-395 1108l-15 -10l-299 305l7 16h174zM-102 1108l-15 -10l-299 305l8 16h175z" />
    <glyph glyph-name="uni0312" unicode="&#x312;" 
d="M-111 1524l9 -8q-47 -69 -66.5 -116.5t-19.5 -96.5q0 -74 53 -115v-17l-152 -94q-78 63 -78 146q0 73 53.5 139t188.5 162h12z" />
    <glyph glyph-name="dotbelowcomb" unicode="&#x323;" 
d="M-223 -403q-52 0 -86.5 33.5t-34.5 84.5q0 50 36.5 85.5t86.5 35.5q51 0 85 -34.5t34 -86.5q0 -47 -36 -82.5t-85 -35.5z" />
    <glyph glyph-name="uni0326" unicode="&#x326;" 
d="M-354 -547l-8 10q46 66 64.5 114t18.5 99q0 76 -51 115v14l152 95q76 -61 76 -146q0 -72 -53.5 -139t-186.5 -162h-12z" />
    <glyph glyph-name="uni0327" unicode="&#x327;" 
d="M-350 -516l-10 10q98 133 98 225q0 86 -111 175l31 96h25l-29 -82q123 -38 180.5 -78.5t59.5 -87.5q0 -102 -244 -258z" />
    <glyph glyph-name="uni0328" unicode="&#x328;" 
d="M-250 -492q-97 0 -151 42t-54 120q0 76 71 155t237 185h20q-99 -106 -139.5 -173.5t-40.5 -125.5q0 -123 205 -160v-16q-61 -27 -148 -27z" />
    <glyph glyph-name="uni1E0C" unicode="&#x1e0c;" horiz-adv-x="1562" 
d="M758 1466q340 0 526 -182.5t186 -503.5q0 -366 -197 -573t-568 -207h-660v14l209 99v1329h-201v24h705zM717 25q285 0 419 172.5t134 533.5q0 345 -137 528t-394 183h-297v-1374q123 -43 275 -43zM729 -403q-52 0 -86.5 33.5t-34.5 84.5q0 50 36.5 85.5t86.5 35.5
q51 0 85 -34.5t34 -86.5q0 -47 -36 -82.5t-85 -35.5z" />
    <glyph glyph-name="uni1E0D" unicode="&#x1e0d;" horiz-adv-x="1218" 
d="M1016 127l176 -41v-18l-287 -84l-18 10l-39 145h-8q-187 -166 -373 -166q-179 0 -281 126.5t-102 338.5q0 253 141 405t375 152q136 0 234 -55v469l-156 43v14l323 88l15 -10v-1417zM274 510q0 -215 78 -332t223 -117q65 0 127 24t88 43.5t44 37.5v672q-91 133 -244 133
q-316 0 -316 -461zM635 -164q51 0 85 -34.5t34 -86.5q0 -47 -36 -82.5t-85 -35.5q-52 0 -86.5 33.5t-34.5 84.5q0 50 36.5 85.5t86.5 35.5z" />
    <glyph glyph-name="uni1E24" unicode="&#x1e24;" horiz-adv-x="1656" 
d="M1403 25h209v-25h-606v25h208v725h-772v-725h209v-25h-606v14l209 99v1329h-201v24h598v-24h-209v-668h772v668h-208v24h598v-14l-201 -94v-1333zM829 -164q51 0 85 -34.5t34 -86.5q0 -47 -36 -82.5t-85 -35.5q-52 0 -86 33.5t-34 84.5t36 86t86 35z" />
    <glyph glyph-name="uni1E25" unicode="&#x1e25;" horiz-adv-x="1222" 
d="M1016 25h170v-25h-502v25h150v749q0 84 -37.5 125t-128.5 41q-159 0 -285 -135v-780h149v-25h-495v14l164 86v1309l-156 43v14l322 88l16 -10v-573l-10 -142h6q11 12 23.5 25t49.5 40.5t75.5 47.5t98.5 36.5t122 16.5q268 0 268 -286v-684zM614 -164q51 0 85 -34.5
t34 -86.5q0 -47 -36 -82.5t-85 -35.5q-52 0 -86 33.5t-34 84.5t36 86t86 35z" />
    <glyph glyph-name="uni1E44" unicode="&#x1e44;" horiz-adv-x="1585" 
d="M799 1593q-56 0 -92.5 36t-36.5 89t38 89t93 36q56 0 92.5 -34.5t36.5 -88.5q0 -51 -39 -89t-92 -38zM41 0v14l209 99v1222l-150 117v14h279l946 -1257l-4 1229v4h-209v24h436v-14l-200 -94v-1358h-95l-983 1298l4 -1269v-4h209v-25h-442z" />
    <glyph glyph-name="uni1E45" unicode="&#x1e45;" horiz-adv-x="1239" 
d="M623 1120q-52 0 -86.5 34t-34.5 85q0 50 36.5 85.5t86.5 35.5q51 0 84.5 -34t33.5 -85q0 -50 -35.5 -85.5t-84.5 -35.5zM1032 25h170v-25h-502v25h150v749q0 84 -37.5 125t-128.5 41q-55 0 -106.5 -17t-89 -43.5t-57.5 -44.5t-34 -34v-776h152v-25h-496v14l162 86v748
l-162 43v14l301 88l17 -10l18 -154h6q11 12 23.5 25t49.5 40.5t75.5 47.5t98.5 36.5t122 16.5q268 0 268 -286v-684z" />
    <glyph glyph-name="uni1E5A" unicode="&#x1e5a;" horiz-adv-x="1423" 
d="M1470 -72q-191 31 -317 103.5t-244 220.5l-372 430v16q266 32 384.5 124.5t118.5 267.5q0 179 -82.5 265.5t-252.5 86.5h-263v-1417h209v-25h-606v14l209 99v1329h-201v24h686q492 0 492 -354q0 -187 -157.5 -288.5t-508.5 -139.5l94 -109h191l346 -391
q120 -139 281 -239zM799 -403q-52 0 -86.5 33.5t-34.5 84.5q0 50 36.5 85.5t86.5 35.5q51 0 85 -34.5t34 -86.5q0 -47 -36 -82.5t-85 -35.5z" />
    <glyph glyph-name="uni1E5B" unicode="&#x1e5b;" horiz-adv-x="858" 
d="M750 995q27 0 49 -2.5t31 -4.5l8 -3l-37 -174h-27q-78 72 -172 72q-41 0 -79 -17t-64.5 -42t-41.5 -42.5t-22 -29.5v-727h275v-25h-619v14l162 86v744l-137 43v16l276 88l15 -10l22 -199h6q5 11 18 31t44 53.5t69 60.5t98 47.5t126 20.5zM309 -164q51 0 85 -34.5
t34 -86.5q0 -47 -36 -82.5t-85 -35.5q-52 0 -86.5 33.5t-34.5 84.5q0 50 36.5 85.5t86.5 35.5z" />
    <glyph glyph-name="uni1E62" unicode="&#x1e62;" horiz-adv-x="1306" 
d="M637 -25q-291 0 -563 80l123 344l14 -2l51 -299q6 -4 18 -10.5t52 -23.5t83 -30t110.5 -23.5t136.5 -10.5q198 0 306.5 76.5t108.5 216.5q0 119 -70 190.5t-243 130.5l-283 93q-184 60 -273 155t-89 232q0 190 145.5 293.5t411.5 103.5q252 0 495 -66l-104 -315l-16 2
l-62 274q-5 3 -15 8.5t-44 19.5t-71 24.5t-94.5 19t-117.5 8.5q-185 0 -286 -75t-101 -213q0 -109 71.5 -177t246.5 -127l282 -92q187 -61 279 -160.5t92 -240.5q0 -193 -155.5 -299.5t-438.5 -106.5zM625 -403q-52 0 -86.5 33.5t-34.5 84.5q0 50 36.5 85.5t86.5 35.5
q51 0 84.5 -34.5t33.5 -86.5q0 -48 -35.5 -83t-84.5 -35z" />
    <glyph glyph-name="uni1E63" unicode="&#x1e63;" horiz-adv-x="937" 
d="M442 -27q-196 0 -376 52l81 227l15 -2l41 -187q12 -7 34.5 -18t91.5 -29t138 -18q119 0 182.5 49t63.5 141q0 75 -46 120.5t-157 80.5l-145 45q-269 85 -269 275q0 135 105.5 210.5t294.5 75.5q165 0 333 -51l-71 -205l-15 2l-55 174q-10 6 -28.5 15.5t-75.5 25
t-113 15.5q-112 0 -171.5 -48t-59.5 -137q0 -70 48 -113.5t167 -80.5l153 -49q260 -82 260 -277q0 -138 -112 -215.5t-314 -77.5zM459 -408q-53 0 -87 34t-34 85t36 86t87 35t85 -34t34 -85q0 -49 -36.5 -85t-84.5 -36z" />
    <glyph glyph-name="uni1E6C" unicode="&#x1e6c;" horiz-adv-x="1421" 
d="M397 0v14l219 99v1329h-327l-197 -410l-18 2l14 432h1245l15 -432l-19 -2l-196 410h-328v-1417h219v-25h-627zM713 -403q-52 0 -86.5 33.5t-34.5 84.5q0 50 36.5 85.5t86.5 35.5q51 0 85 -34.5t34 -86.5q0 -47 -36 -82.5t-85 -35.5z" />
    <glyph glyph-name="uni1E6D" unicode="&#x1e6d;" horiz-adv-x="794" 
d="M764 100q-91 -67 -164.5 -97t-150.5 -30q-132 0 -202.5 73t-70.5 208v690h-156v17l324 276h14v-266h359v-27h-359v-702q0 -88 44.5 -127t142.5 -39q105 0 209 43zM442 -168q51 0 85 -34.5t34 -86.5q0 -48 -36 -83.5t-85 -35.5q-52 0 -86.5 34t-34.5 85q0 50 36.5 85.5
t86.5 35.5z" />
    <glyph glyph-name="Wgrave" unicode="&#x1e80;" horiz-adv-x="2490" 
d="M1423 1602l-10 -13l-414 242l9 16h194zM1970 1466h484v-24h-179l-524 -1442h-43l-455 1221l-444 -1221h-43l-545 1442h-184v24h686v-24h-293l438 -1213l449 1237h43l448 -1241l402 1108l-240 119v14z" />
    <glyph glyph-name="wgrave" unicode="&#x1e81;" horiz-adv-x="1703" 
d="M995 1108l-16 -10l-375 305l6 16h197zM1307 971h374v-27h-141l-373 -944h-32l-279 731l-285 -731h-32l-375 944h-141v27h563v-27h-217l264 -725l291 752h30l271 -762l260 655l-178 90v17z" />
    <glyph glyph-name="Wacute" unicode="&#x1e82;" horiz-adv-x="2490" 
d="M1663 1831l-412 -242l-12 13l221 245h195zM1970 1466h484v-24h-179l-524 -1442h-43l-455 1221l-444 -1221h-43l-545 1442h-184v24h686v-24h-293l438 -1213l449 1237h43l448 -1241l402 1108l-240 119v14z" />
    <glyph glyph-name="wacute" unicode="&#x1e83;" horiz-adv-x="1703" 
d="M1260 1403l-377 -305l-15 10l187 311h196zM1307 971h374v-27h-141l-373 -944h-32l-279 731l-285 -731h-32l-375 944h-141v27h563v-27h-217l264 -725l291 752h30l271 -762l260 655l-178 90v17z" />
    <glyph glyph-name="Wdieresis" unicode="&#x1e84;" horiz-adv-x="2490" 
d="M1116 1604q-50 0 -82.5 32t-32.5 80q0 49 34.5 83t82.5 34q50 0 82.5 -32.5t32.5 -82.5q0 -46 -35 -80t-82 -34zM1567 1604q-50 0 -82.5 32t-32.5 80q0 49 34.5 83t84.5 34q47 0 79.5 -33t32.5 -82q0 -46 -34.5 -80t-81.5 -34zM1970 1466h484v-24h-179l-524 -1442h-43
l-455 1221l-444 -1221h-43l-545 1442h-184v24h686v-24h-293l438 -1213l449 1237h43l448 -1241l402 1108l-240 119v14z" />
    <glyph glyph-name="wdieresis" unicode="&#x1e85;" horiz-adv-x="1703" 
d="M721 1143q-49 0 -81 32t-32 78q0 47 34.5 80t80.5 33q48 0 79.5 -31t31.5 -80q0 -45 -34 -78.5t-79 -33.5zM1145 1143q-50 0 -81.5 31.5t-31.5 78.5t34 80t81 33q48 0 79 -31t31 -80q0 -44 -34 -78t-78 -34zM1307 971h374v-27h-141l-373 -944h-32l-279 731l-285 -731h-32
l-375 944h-141v27h563v-27h-217l264 -725l291 752h30l271 -762l260 655l-178 90v17z" />
    <glyph glyph-name="uni1E92" unicode="&#x1e92;" horiz-adv-x="1404" 
d="M1067 27l231 426l17 -4l-35 -449h-1208l-6 16q612 846 800 1102.5t252 325.5l-788 -4l-189 -398l-16 2l8 422h1186l4 -14q-879 -1236 -1051 -1427zM674 -164q51 0 85 -34.5t34 -86.5q0 -47 -36 -82.5t-85 -35.5q-52 0 -86.5 33.5t-34.5 84.5q0 50 36.5 85.5t86.5 35.5z
" />
    <glyph glyph-name="uni1E93" unicode="&#x1e93;" horiz-adv-x="1011" 
d="M739 25l183 305l14 -2l-25 -328h-850l-6 16q378 529 505 701t185 229l-456 -2l-170 -282l-15 2l9 307h825l4 -17q-377 -525 -504 -697t-188 -234zM485 -164q51 0 85 -34.5t34 -86.5q0 -47 -36 -82.5t-85 -35.5q-52 0 -86.5 33.5t-34.5 84.5q0 50 36.5 85.5t86.5 35.5z
" />
    <glyph glyph-name="uni1EA0" unicode="&#x1ea0;" horiz-adv-x="1687" 
d="M1458 25h191v-25h-680v25h288l-237 602h-531l-194 -502l217 -111v-14h-473v25h190l510 1312l-112 115v14h254zM498 651h512l-258 654zM846 -164q51 0 85 -34.5t34 -86.5q0 -47 -36 -82.5t-85 -35.5q-52 0 -86.5 33.5t-34.5 84.5q0 50 36.5 85.5t86.5 35.5z" />
    <glyph glyph-name="uni1EA1" unicode="&#x1ea1;" horiz-adv-x="1044" 
d="M879 33h133v-17q-68 -32 -152 -32q-78 0 -112 35t-35 120h-13q-10 -12 -23.5 -25t-50 -40.5t-75 -48t-97 -36.5t-118.5 -16q-132 0 -205.5 59t-73.5 163q0 141 148.5 216t490.5 119v193q0 102 -42.5 148.5t-149.5 46.5q-164 0 -361 -99l-10 21q232 155 459 155
q139 0 213 -77t74 -222v-663zM436 63q139 0 260 97v350q-246 -44 -349 -109.5t-103 -175.5q0 -77 49.5 -119.5t142.5 -42.5zM483 -164q51 0 85 -34.5t34 -86.5q0 -47 -36 -82.5t-85 -35.5q-52 0 -86.5 33.5t-34.5 84.5q0 50 36.5 85.5t86.5 35.5z" />
    <glyph glyph-name="uni1EAD" unicode="&#x1ead;" horiz-adv-x="1044" 
d="M530 1276l-272 -164l-8 10l272 303h17l268 -303l-10 -10zM879 33h133v-17q-68 -32 -152 -32q-78 0 -112 35t-35 120h-13q-10 -12 -23.5 -25t-50 -40.5t-75 -48t-97 -36.5t-118.5 -16q-132 0 -205.5 59t-73.5 163q0 141 148.5 216t490.5 119v193q0 102 -42.5 148.5
t-149.5 46.5q-164 0 -361 -99l-10 21q232 155 459 155q139 0 213 -77t74 -222v-663zM436 63q139 0 260 97v350q-246 -44 -349 -109.5t-103 -175.5q0 -77 49.5 -119.5t142.5 -42.5zM483 -164q51 0 85 -34.5t34 -86.5q0 -47 -36 -82.5t-85 -35.5q-52 0 -86.5 33.5t-34.5 84.5
q0 50 36.5 85.5t86.5 35.5z" />
    <glyph glyph-name="uni1EB0" unicode="&#x1eb0;" horiz-adv-x="1687" 
d="M891 1827l-10 -10l-414 239l8 17h195zM516 1837q4 -5 11.5 -13t34.5 -28.5t56.5 -36t76.5 -28.5t96 -13q50 0 96.5 12.5t78 30t55.5 34.5t35 29l11 13l12 -6q-1 -5 -4 -13t-14 -31.5t-25 -44.5t-38 -47t-52 -44.5t-68.5 -31.5t-86.5 -13q-45 0 -85.5 12.5t-68.5 32.5
t-51.5 43.5t-38 47.5t-25 44t-14.5 32l-4 13zM1458 25h191v-25h-680v25h288l-237 602h-531l-194 -502l217 -111v-14h-473v25h190l510 1312l-112 115v14h254zM498 651h512l-258 654z" />
    <glyph glyph-name="uni1EB6" unicode="&#x1eb6;" horiz-adv-x="1687" 
d="M791 1606q-45 0 -85.5 12.5t-68.5 32.5t-51.5 43.5t-38 47.5t-25 44t-14.5 32l-4 13l12 6q4 -5 11.5 -13t34.5 -28.5t56.5 -36t76.5 -28.5t96 -13q50 0 96.5 12.5t78 30t55.5 34.5t35 29l11 13l12 -6q-1 -5 -4 -13t-14 -31.5t-25 -44.5t-38 -47t-52 -44.5t-68.5 -31.5
t-86.5 -13zM1458 25h191v-25h-680v25h288l-237 602h-531l-194 -502l217 -111v-14h-473v25h190l510 1312l-112 115v14h254zM498 651h512l-258 654zM846 -164q51 0 85 -34.5t34 -86.5q0 -47 -36 -82.5t-85 -35.5q-52 0 -86.5 33.5t-34.5 84.5q0 50 36.5 85.5t86.5 35.5z" />
    <glyph glyph-name="uni1EB7" unicode="&#x1eb7;" horiz-adv-x="1044" 
d="M526 1130q-59 0 -108 23.5t-76 56.5t-46 66t-26 56l-6 24l12 6q3 -5 10 -13t30.5 -28.5t50 -36t70 -28.5t89.5 -13q47 0 90.5 12.5t71.5 29.5t49.5 34.5t30.5 30.5l10 12l13 -6q-2 -9 -7 -24.5t-25.5 -54.5t-47 -68.5t-76 -54t-109.5 -24.5zM879 33h133v-17
q-68 -32 -152 -32q-78 0 -112 35t-35 120h-13q-10 -12 -23.5 -25t-50 -40.5t-75 -48t-97 -36.5t-118.5 -16q-132 0 -205.5 59t-73.5 163q0 141 148.5 216t490.5 119v193q0 102 -42.5 148.5t-149.5 46.5q-164 0 -361 -99l-10 21q232 155 459 155q139 0 213 -77t74 -222v-663z
M436 63q139 0 260 97v350q-246 -44 -349 -109.5t-103 -175.5q0 -77 49.5 -119.5t142.5 -42.5zM483 -164q51 0 85 -34.5t34 -86.5q0 -47 -36 -82.5t-85 -35.5q-52 0 -86.5 33.5t-34.5 84.5q0 50 36.5 85.5t86.5 35.5z" />
    <glyph glyph-name="uni1EB8" unicode="&#x1eb8;" horiz-adv-x="1402" 
d="M45 0v14l209 99v1329h-201v24h1166l22 -393l-18 -2l-193 369l-588 2v-668h322l127 230h16v-484h-24v228l-441 2v-725l623 2l240 393l18 -2l-55 -418h-1223zM780 -403q-52 0 -86.5 33.5t-34.5 84.5q0 50 36.5 85.5t86.5 35.5q51 0 85 -34.5t34 -86.5q0 -47 -36 -82.5
t-85 -35.5z" />
    <glyph glyph-name="uni1EB9" unicode="&#x1eb9;" horiz-adv-x="1073" 
d="M1030 184q-239 -211 -504 -211q-207 0 -324.5 127t-117.5 351q0 245 138 394.5t360 149.5q187 0 291 -99t104 -267l-23 -21l-686 -45v-45q0 -204 106 -315t298 -111q184 0 344 109zM559 971q-271 0 -289 -389l521 45q-15 344 -232 344zM547 -164q51 0 85 -34.5t34 -86.5
q0 -47 -36 -82.5t-85 -35.5q-52 0 -86.5 33.5t-34.5 84.5q0 50 36.5 85.5t86.5 35.5z" />
    <glyph glyph-name="uni1EBC" unicode="&#x1ebc;" horiz-adv-x="1402" 
d="M395 1622l-18 10q58 121 93 162t79 41q42 0 209.5 -51t202.5 -51q26 0 46.5 18t57.5 74l20 -10q-58 -121 -93 -162t-79 -41q-42 0 -209 51t-202 51q-27 0 -49 -18.5t-58 -73.5zM45 0v14l209 99v1329h-201v24h1166l22 -393l-18 -2l-193 369l-588 2v-668h322l127 230h16
v-484h-24v228l-441 2v-725l623 2l240 393l18 -2l-55 -418h-1223z" />
    <glyph glyph-name="uni1EBD" unicode="&#x1ebd;" horiz-adv-x="1073" 
d="M354 1253q-26 0 -47.5 -18t-58.5 -72l-19 8q58 122 92.5 162.5t79.5 40.5q42 0 181 -51t174 -51q26 0 46.5 18t57.5 74l21 -8q-58 -123 -93 -164t-79 -41q-42 0 -181 51t-174 51zM1016 201l14 -17q-239 -211 -504 -211q-207 0 -324.5 127t-117.5 351q0 245 138 394.5
t360 149.5q187 0 291 -99t104 -267l-23 -21l-686 -45v-45q0 -204 106 -315t298 -111q184 0 344 109zM559 971q-271 0 -289 -389l521 45q-15 344 -232 344z" />
    <glyph glyph-name="uni1EC6" unicode="&#x1ec6;" horiz-adv-x="1402" 
d="M434 1587l-6 12l293 244h18l293 -244l-8 -12l-295 111zM45 0v14l209 99v1329h-201v24h1166l22 -393l-18 -2l-193 369l-588 2v-668h322l127 230h16v-484h-24v228l-441 2v-725l623 2l240 393l18 -2l-55 -418h-1223zM780 -403q-52 0 -86.5 33.5t-34.5 84.5q0 50 36.5 85.5
t86.5 35.5q51 0 85 -34.5t34 -86.5q0 -47 -36 -82.5t-85 -35.5z" />
    <glyph glyph-name="uni1EC7" unicode="&#x1ec7;" horiz-adv-x="1073" 
d="M557 1276l-272 -164l-9 10l273 303h16l269 -303l-11 -10zM1030 184q-239 -211 -504 -211q-207 0 -324.5 127t-117.5 351q0 245 138 394.5t360 149.5q187 0 291 -99t104 -267l-23 -21l-686 -45v-45q0 -204 106 -315t298 -111q184 0 344 109zM559 971q-271 0 -289 -389
l521 45q-15 344 -232 344zM547 -168q51 0 85 -34t34 -85q0 -49 -36 -85t-85 -36q-52 0 -86.5 34t-34.5 85q0 50 36.5 85.5t86.5 35.5z" />
    <glyph glyph-name="uni1ECA" unicode="&#x1eca;" horiz-adv-x="702" 
d="M45 0v14l209 99v1329h-201v24h596v-14l-200 -94v-1333h208v-25h-612zM350 -403q-52 0 -86.5 33.5t-34.5 84.5q0 50 36.5 85.5t86.5 35.5q51 0 85 -34.5t34 -86.5q0 -47 -36 -82.5t-85 -35.5z" />
    <glyph glyph-name="uni1ECB" unicode="&#x1ecb;" horiz-adv-x="591" 
d="M295 1139q-52 0 -86.5 33.5t-34.5 84.5q0 50 36.5 85.5t86.5 35.5q51 0 85 -33.5t34 -84.5q0 -50 -36 -85.5t-85 -35.5zM55 0v14l162 86v748l-162 43v16l330 86l14 -8v-960h156v-25h-500zM309 -403q-52 0 -86.5 33.5t-34.5 84.5q0 50 36.5 85.5t86.5 35.5q51 0 85 -34.5
t34 -86.5q0 -47 -36 -82.5t-85 -35.5z" />
    <glyph glyph-name="uni1ECC" unicode="&#x1ecc;" horiz-adv-x="1556" 
d="M760 -27q-307 0 -485.5 194t-178.5 527q0 237 87.5 418t247 280t368.5 99q304 0 482.5 -192t178.5 -517q0 -369 -190.5 -589t-509.5 -220zM774 0q235 0 360.5 188.5t125.5 542.5q0 337 -129.5 536t-346.5 199q-235 0 -361 -185.5t-126 -535.5q0 -342 130 -543.5
t347 -201.5zM778 -403q-52 0 -86.5 33.5t-34.5 84.5q0 50 36.5 85.5t86.5 35.5q51 0 85 -34.5t34 -86.5q0 -47 -36 -82.5t-85 -35.5z" />
    <glyph glyph-name="uni1ECD" unicode="&#x1ecd;" horiz-adv-x="1138" 
d="M553 -27q-223 0 -346 126.5t-123 353.5q0 248 137.5 395t366.5 147q216 0 342.5 -125t126.5 -346q0 -252 -136.5 -401.5t-367.5 -149.5zM571 0q149 0 222 117t73 356q0 241 -77.5 369.5t-219.5 128.5q-150 0 -222.5 -115t-72.5 -352q0 -244 77 -374t220 -130zM555 -408
q-53 0 -87 34t-34 85t36 86t87 35t85 -34t34 -85q0 -49 -36 -85t-85 -36z" />
    <glyph glyph-name="uni1ED8" unicode="&#x1ed8;" horiz-adv-x="1556" 
d="M483 1587l-6 12l293 244h18l293 -244l-8 -12l-295 111zM760 -27q-307 0 -485.5 194t-178.5 527q0 237 87.5 418t247 280t368.5 99q304 0 482.5 -192t178.5 -517q0 -369 -190.5 -589t-509.5 -220zM774 0q235 0 360.5 188.5t125.5 542.5q0 337 -129.5 536t-346.5 199
q-235 0 -361 -185.5t-126 -535.5q0 -342 130 -543.5t347 -201.5zM778 -403q-52 0 -86.5 33.5t-34.5 84.5q0 50 36.5 85.5t86.5 35.5q51 0 85 -34.5t34 -86.5q0 -47 -36 -82.5t-85 -35.5z" />
    <glyph glyph-name="uni1ED9" unicode="&#x1ed9;" horiz-adv-x="1138" 
d="M567 1425h17l268 -303l-10 -10l-267 164l-272 -164l-8 10zM553 -27q-223 0 -346 126.5t-123 353.5q0 248 137.5 395t366.5 147q216 0 342.5 -125t126.5 -346q0 -252 -136.5 -401.5t-367.5 -149.5zM571 0q149 0 222 117t73 356q0 241 -77.5 369.5t-219.5 128.5
q-150 0 -222.5 -115t-72.5 -352q0 -244 77 -374t220 -130zM555 -408q-53 0 -87 34t-34 85t36 86t87 35t85 -34t34 -85q0 -49 -36 -85t-85 -36z" />
    <glyph glyph-name="uni1EE4" unicode="&#x1ee4;" horiz-adv-x="1624" 
d="M799 -29q-559 0 -559 660v811h-201v24h598v-24h-209v-821q0 -564 467 -564t467 564v821h-209v24h434v-14l-201 -94v-727q0 -660 -587 -660zM825 -403q-52 0 -86 33.5t-34 84.5t36 86t86 35q51 0 85 -34.5t34 -86.5q0 -47 -36 -82.5t-85 -35.5z" />
    <glyph glyph-name="uni1EE5" unicode="&#x1ee5;" horiz-adv-x="1214" 
d="M1012 127l162 -41v-18l-279 -84l-16 6l-37 149h-11q-16 -18 -35.5 -35.5t-68 -52.5t-117.5 -56.5t-145 -21.5q-268 0 -268 289v582l-162 43v14l327 88l17 -10v-782q0 -86 37 -127t127 -41q55 0 106.5 17t89 44.5t57 45t33.5 34.5v674l-161 43v14l329 88l15 -10v-852z
M627 -164q51 0 84.5 -34.5t33.5 -86.5q0 -48 -35.5 -83t-84.5 -35q-52 0 -86.5 33.5t-34.5 84.5q0 50 36.5 85.5t86.5 35.5z" />
    <glyph glyph-name="Ygrave" unicode="&#x1ef2;" horiz-adv-x="1605" 
d="M897 1602l-10 -13l-414 242l8 16h195zM1108 1466h461v-24h-180l-480 -811l-2 -606h209v-25h-606v14l209 99l2 501l-500 828h-184v24h661v-24h-264l463 -787l412 699l-201 98v14z" />
    <glyph glyph-name="ygrave" unicode="&#x1ef3;" horiz-adv-x="1179" 
d="M682 1108l-16 -10l-375 305l6 16h197zM786 971h373v-27h-141l-363 -874q-57 -137 -120 -248t-111 -171.5t-88.5 -101.5t-61.5 -54l-22 -13l-96 119v14q192 105 298 209t177 256l6 12h-115l-358 852h-141v27h550v-27h-208l309 -770l282 690l-170 90v17z" />
    <glyph glyph-name="uni1EF4" unicode="&#x1ef4;" horiz-adv-x="1605" 
d="M1108 1466h461v-24h-180l-480 -811l-2 -606h209v-25h-606v14l209 99l2 501l-500 828h-184v24h661v-24h-264l463 -787l412 699l-201 98v14zM811 -164q51 0 85 -34.5t34 -86.5q0 -47 -36 -82.5t-85 -35.5q-52 0 -86.5 33.5t-34.5 84.5q0 50 36.5 85.5t86.5 35.5z" />
    <glyph glyph-name="uni1EF5" unicode="&#x1ef5;" horiz-adv-x="1179" 
d="M786 971h373v-27h-141l-363 -874q-57 -137 -120 -248t-111 -171.5t-88.5 -101.5t-61.5 -54l-22 -13l-96 119v14q192 105 298 209t177 256l6 12h-115l-358 852h-141v27h550v-27h-208l309 -770l282 690l-170 90v17zM915 -164q51 0 85 -34.5t34 -86.5q0 -47 -36 -82.5
t-85 -35.5q-52 0 -86 33.5t-34 84.5t36 86t86 35z" />
    <glyph glyph-name="uni1EF8" unicode="&#x1ef8;" horiz-adv-x="1605" 
d="M588 1714q-27 0 -49 -18.5t-58 -73.5l-18 10q58 121 93 162t79 41q42 0 209.5 -51t202.5 -51q26 0 46.5 18t57.5 74l20 -10q-58 -121 -93 -162t-79 -41q-42 0 -209 51t-202 51zM1108 1466h461v-24h-180l-480 -811l-2 -606h209v-25h-606v14l209 99l2 501l-500 828h-184v24
h661v-24h-264l463 -787l412 699l-201 98v14z" />
    <glyph glyph-name="uni1EF9" unicode="&#x1ef9;" horiz-adv-x="1179" 
d="M418 1253q-27 0 -49 -18.5t-58 -71.5l-18 8q58 122 92.5 162.5t79.5 40.5q42 0 180.5 -51t173.5 -51q26 0 47 18.5t58 73.5l20 -8q-58 -123 -93 -164t-79 -41q-42 0 -180.5 51t-173.5 51zM786 971h373v-27h-141l-363 -874q-57 -137 -120 -248t-111 -171.5t-88.5 -101.5
t-61.5 -54l-22 -13l-96 119v14q192 105 298 209t177 256l6 12h-115l-358 852h-141v27h550v-27h-208l309 -770l282 690l-170 90v17z" />
    <glyph glyph-name="uni2002" unicode="&#x2002;" horiz-adv-x="1228" 
 />
    <glyph glyph-name="uni2003" unicode="&#x2003;" horiz-adv-x="1228" 
 />
    <glyph glyph-name="uni2004" unicode="&#x2004;" horiz-adv-x="1228" 
 />
    <glyph glyph-name="uni2005" unicode="&#x2005;" horiz-adv-x="1228" 
 />
    <glyph glyph-name="uni2006" unicode="&#x2006;" horiz-adv-x="1228" 
 />
    <glyph glyph-name="uni2007" unicode="&#x2007;" horiz-adv-x="1228" 
 />
    <glyph glyph-name="uni2008" unicode="&#x2008;" horiz-adv-x="1228" 
 />
    <glyph glyph-name="uni2009" unicode="&#x2009;" horiz-adv-x="1228" 
 />
    <glyph glyph-name="uni200A" unicode="&#x200a;" horiz-adv-x="1228" 
 />
    <glyph glyph-name="endash" unicode="&#x2013;" horiz-adv-x="966" 
d="M131 457v98l703 27v-125h-703z" />
    <glyph glyph-name="emdash" unicode="&#x2014;" horiz-adv-x="1386" 
d="M131 457v98l1124 27v-125h-1124z" />
    <glyph glyph-name="quoteleft" unicode="&#x2018;" horiz-adv-x="458" 
d="M373 1511l6 -10q-64 -121 -84.5 -174.5t-20.5 -93.5q0 -70 60 -121v-14l-148 -131q-100 72 -100 174q0 67 53 138.5t219 231.5h15z" />
    <glyph glyph-name="quoteright" unicode="&#x2019;" horiz-adv-x="458" 
d="M86 967l-6 10q65 124 85.5 175.5t20.5 92.5q0 72 -61 121v14l149 131q99 -74 99 -174q0 -67 -53 -138.5t-220 -231.5h-14z" />
    <glyph glyph-name="quotesinglbase" unicode="&#x201a;" horiz-adv-x="448" 
d="M61 -297l-6 10q64 122 84.5 174.5t20.5 94.5q0 72 -60 120v15l150 131q98 -73 98 -174q0 -67 -53.5 -139.5t-218.5 -231.5h-15z" />
    <glyph glyph-name="quotedblleft" unicode="&#x201c;" horiz-adv-x="788" 
d="M373 1511l6 -10q-64 -121 -84.5 -174.5t-20.5 -93.5q0 -70 60 -121v-14l-148 -131q-100 72 -100 174q0 67 53 138.5t219 231.5h15zM702 1511l7 -10q-65 -124 -86 -176.5t-21 -91.5q0 -71 62 -121v-14l-150 -131q-98 73 -98 174q0 67 53 138.5t219 231.5h14z" />
    <glyph glyph-name="quotedblright" unicode="&#x201d;" horiz-adv-x="788" 
d="M86 967l-6 10q65 124 85.5 175.5t20.5 92.5q0 72 -61 121v14l149 131q99 -74 99 -174q0 -67 -53 -138.5t-220 -231.5h-14zM416 967l-8 10q65 121 85.5 173.5t20.5 94.5q0 72 -61 121v14l149 131q100 -72 100 -174q0 -67 -53.5 -138.5t-220.5 -231.5h-12z" />
    <glyph glyph-name="quotedblbase" unicode="&#x201e;" horiz-adv-x="778" 
d="M61 -297l-6 10q64 122 84.5 174.5t20.5 94.5q0 72 -60 120v15l150 131q98 -73 98 -174q0 -67 -53.5 -139.5t-218.5 -231.5h-15zM391 -297l-8 10q65 121 85.5 174t20.5 95q0 71 -61 120v15l150 131q100 -72 100 -174q0 -67 -54 -139t-221 -232h-12z" />
    <glyph glyph-name="dagger" unicode="&#x2020;" horiz-adv-x="1071" 
d="M528 1075l-84 377l9 14h165l9 -14l-84 -377h-15zM109 940l-13 10v166l13 8l378 -84v-14zM963 940l-379 86v14l379 84l14 -8v-166zM528 -270l-79 901l79 358h15l82 -358l-82 -901h-15z" />
    <glyph glyph-name="daggerdbl" unicode="&#x2021;" horiz-adv-x="1071" 
d="M528 1075l-84 377l9 14h165l9 -14l-84 -377h-15zM109 940l-13 10v166l13 8l378 -84v-14zM963 940l-379 86v14l379 84l14 -8v-166zM528 207l-79 391l79 391h15l82 -391l-82 -391h-15zM109 72l-13 10v166l13 8l378 -84v-14zM963 72l-379 86v14l379 84l14 -8v-166zM453 -270
l-9 14l84 379h15l84 -379l-9 -14h-165z" />
    <glyph glyph-name="bullet" unicode="&#x2022;" horiz-adv-x="684" 
d="M346 268q-92 0 -150.5 58.5t-58.5 148.5q0 87 62.5 147t150.5 60q91 0 148 -58t57 -149q0 -83 -62 -145t-147 -62z" />
    <glyph glyph-name="ellipsis" unicode="&#x2026;" horiz-adv-x="1296" 
d="M231 -25q-58 0 -94.5 36.5t-36.5 92.5q0 54 39.5 91.5t93.5 37.5q57 0 92 -36t35 -93q0 -52 -38 -90.5t-91 -38.5zM647 -25q-57 0 -93 36.5t-36 92.5q0 54 38.5 91.5t94.5 37.5t91.5 -36t35.5 -93q0 -53 -38.5 -91t-92.5 -38zM1065 -25q-57 0 -93 36.5t-36 92.5
q0 54 38.5 91.5t92.5 37.5q57 0 93 -36t36 -93q0 -53 -38.5 -91t-92.5 -38z" />
    <glyph glyph-name="perthousand" unicode="&#x2030;" horiz-adv-x="3145" 
d="M473 494q-182 0 -285.5 119.5t-103.5 326.5q0 220 113 356t297 136q181 0 284 -118.5t103 -322.5q0 -226 -111.5 -361.5t-296.5 -135.5zM563 0l993 1417h35l-993 -1417h-35zM481 512q230 0 230 438q0 220 -59.5 341.5t-168.5 121.5q-229 0 -229 -432q0 -222 59.5 -345.5
t167.5 -123.5zM1659 -16q-182 0 -285.5 119.5t-103.5 326.5q0 220 112.5 356t296.5 136q181 0 284 -118.5t103 -322.5q0 -226 -111 -361.5t-296 -135.5zM2652 -16q-182 0 -285.5 119.5t-103.5 326.5q0 220 113 356t299 136q179 0 283 -119t104 -322q0 -226 -112 -361.5
t-298 -135.5zM1667 2q229 0 229 438q0 220 -59 341.5t-168 121.5q-229 0 -229 -432q0 -222 59.5 -345.5t167.5 -123.5zM2662 2q230 0 230 438q0 220 -60 341.5t-170 121.5q-113 0 -171 -109.5t-58 -322.5q0 -222 60 -345.5t169 -123.5z" />
    <glyph glyph-name="uni2031" unicode="&#x2031;" horiz-adv-x="4147" 
d="M473 494q-182 0 -285.5 119.5t-103.5 326.5q0 220 113 356t297 136q181 0 284 -118.5t103 -322.5q0 -226 -111.5 -361.5t-296.5 -135.5zM563 0l993 1417h35l-993 -1417h-35zM481 512q230 0 230 438q0 220 -59.5 341.5t-168.5 121.5q-229 0 -229 -432q0 -222 59.5 -345.5
t167.5 -123.5zM1659 -16q-182 0 -285.5 119.5t-103.5 326.5q0 220 112.5 356t296.5 136q181 0 284 -118.5t103 -322.5q0 -226 -111 -361.5t-296 -135.5zM2652 -16q-182 0 -285.5 119.5t-103.5 326.5q0 220 113 356t299 136q179 0 283 -119t104 -322q0 -226 -112 -361.5
t-298 -135.5zM3654 -16q-181 0 -284 120t-103 326q0 220 112.5 356t296.5 136q179 0 283 -119t104 -322q0 -226 -111.5 -361.5t-297.5 -135.5zM1667 2q229 0 229 438q0 220 -59 341.5t-168 121.5q-229 0 -229 -432q0 -222 59.5 -345.5t167.5 -123.5zM2662 2q230 0 230 438
q0 220 -60 341.5t-170 121.5q-113 0 -171 -109.5t-58 -322.5q0 -222 60 -345.5t169 -123.5zM3664 2q229 0 229 438q0 221 -59.5 342t-169.5 121q-227 0 -227 -432q0 -222 59.5 -345.5t167.5 -123.5z" />
    <glyph glyph-name="guilsinglleft" unicode="&#x2039;" horiz-adv-x="487" 
d="M403 127l-362 371l362 372l15 -10l-178 -362l178 -363z" />
    <glyph glyph-name="guilsinglright" unicode="&#x203a;" horiz-adv-x="487" 
d="M84 127l-14 8l180 363l-180 362l14 10l365 -372z" />
    <glyph glyph-name="fraction" unicode="&#x2044;" horiz-adv-x="305" 
d="M-360 0l993 1417h35l-994 -1417h-34z" />
    <glyph glyph-name="franc" unicode="&#x20a3;" horiz-adv-x="1241" 
d="M45 0v14l199 95v233h-162v25h162v1026h-191v24h1098l18 -393l-18 -2l-184 371h-541v-688h301l119 221h14v-486h-22v238l-412 2v-313h223v-25h-223v-317h283v-25h-664z" />
    <glyph glyph-name="Euro" unicode="&#x20ac;" horiz-adv-x="1488" 
d="M1378 416l19 -2l-37 -310q-237 -131 -469 -131q-242 0 -397 146.5t-189 404.5h-221v23h217q-6 58 -6 121q0 107 18 202h-229v25h233q54 253 219.5 399t403.5 146q214 0 406 -82l6 -299l-19 -4l-164 299q-130 65 -247 65q-184 0 -295 -134t-140 -390h562l-7 -25h-557
q-6 -74 -6 -153q0 -64 8 -170h484l-8 -23h-471q32 -248 142.5 -387t278.5 -139q150 0 265 88z" />
    <glyph glyph-name="uni2116" unicode="&#x2116;" horiz-adv-x="2490" 
d="M2028 887q-161 0 -249.5 82.5t-88.5 230.5q0 163 99 257.5t267 94.5q155 0 246.5 -81t91.5 -224q0 -166 -98 -263t-268 -97zM2046 905q91 0 135.5 72.5t44.5 226.5q0 162 -48 247t-138 85q-92 0 -137 -72.5t-45 -222.5q0 -163 48 -249.5t140 -86.5zM41 0v14l209 99v1222
l-150 117v14h279l946 -1257l-4 1229v4h-209v24h436v-14l-200 -94v-1358h-95l-983 1298l4 -1269v-4h209v-25h-442zM1712 629v26h655v-26h-655z" />
    <glyph glyph-name="uni2117" unicode="&#x2117;" horiz-adv-x="1800" 
d="M903 -25q-167 0 -312 58.5t-247 160t-160.5 243t-58.5 302.5q0 212 102 384.5t281 270t399 97.5q167 0 311 -57t245.5 -156.5t159.5 -239t58 -299.5q0 -213 -101.5 -388t-280 -275.5t-396.5 -100.5zM903 -2q159 0 299 57.5t239.5 156t157.5 236t58 291.5q0 155 -56 290
t-154 231.5t-238 152t-302 55.5q-214 0 -387.5 -95t-271.5 -262t-98 -372q0 -157 56.5 -294.5t155.5 -235.5t239 -154.5t302 -56.5zM553 309v10l117 56v768h-113v16h420q328 0 328 -213q0 -120 -101.5 -185t-329.5 -93l-2 12q147 26 213 86.5t66 165.5q0 211 -197 211h-133
v-817h119v-17h-387z" />
    <glyph glyph-name="uni2120" unicode="&#x2120;" horiz-adv-x="2361" 
d="M471 887q-190 0 -391 49l88 235l12 -2l43 -202q12 -7 33.5 -17.5t90.5 -27.5t140 -17q123 0 189.5 47t66.5 135q0 72 -44.5 116t-153.5 79l-183 57q-253 78 -253 254q0 128 105.5 196.5t301.5 68.5q181 0 352 -43l-77 -216l-13 3l-49 184q-10 6 -28.5 15t-78.5 24.5
t-124 15.5q-116 0 -179 -46t-63 -132q0 -64 44.5 -104.5t154.5 -77.5l186 -58q266 -85 266 -264q0 -130 -115.5 -201t-320.5 -71zM965 903v12l141 64l45 758l-84 94v10h211l352 -606l359 606h194v-16h-94l57 -905h135v-17h-446v17h143l-47 778l-379 -633h-12l-373 637
l-43 -782h172v-17h-331z" />
    <glyph glyph-name="trademark" unicode="&#x2122;" horiz-adv-x="2420" 
d="M305 903v12l141 62v848l-198 -2l-154 -275l-14 2l10 291h879l10 -291l-12 -2l-154 275l-199 2v-905h142v-17h-451zM1024 903v12l139 64l45 758l-84 94v10h211l353 -606l360 606h193v-16h-95l60 -905h135v-17h-447v17h144l-47 778l-379 -633h-13l-372 637l-45 -782h174
v-17h-332z" />
    <glyph glyph-name="oneeighth" unicode="&#x215b;" horiz-adv-x="1787" 
d="M506 528v-18h-447v12l142 51v734h-142v12l291 123l12 -6v-908h144zM1288 1417h35l-993 -1417h-35zM1470 526q136 -64 193 -127t57 -145q0 -114 -103 -184t-269 -70q-153 0 -245.5 58t-92.5 153q0 143 207 219l10 -6q-99 -81 -99 -191q0 -104 59 -159.5t169 -55.5
q98 0 152.5 49.5t54.5 137.5q0 67 -46.5 110.5t-179.5 100.5q-147 64 -206.5 128.5t-59.5 155.5q0 107 84 172.5t221 65.5q126 0 201.5 -50.5t75.5 -135.5q0 -137 -183 -226zM1206 760q0 -69 46.5 -112t179.5 -103q3 -1 9 -4t9 -4q94 81 94 200q0 89 -45 136t-129 47
q-78 0 -121 -42t-43 -118z" />
    <glyph glyph-name="threeeighths" unicode="&#x215c;" horiz-adv-x="1945" 
d="M717 811q0 -143 -114.5 -230t-303.5 -87q-103 0 -205 26l-12 119l10 6l248 -121q100 19 153.5 86.5t53.5 175.5q0 95 -60.5 162t-169.5 96v13l265 248l-324 96l-143 -250l-13 2l13 264h602l2 -12l-377 -350q180 -9 277.5 -72t97.5 -172zM1446 1417h35l-994 -1417h-34z
M1628 526q136 -64 193 -127t57 -145q0 -114 -103.5 -184t-269.5 -70q-153 0 -245.5 58t-92.5 153q0 143 207 219l10 -6q-98 -80 -98 -191q0 -104 58.5 -159.5t168.5 -55.5q98 0 152.5 49.5t54.5 137.5q0 67 -46.5 110.5t-178.5 100.5q-147 64 -206.5 128.5t-59.5 155.5
q0 107 84 172.5t221 65.5q126 0 201 -50.5t75 -135.5q0 -137 -182 -226zM1364 760q0 -69 46 -112t179 -103q3 -1 9.5 -4t9.5 -4q94 81 94 200q0 89 -45 136t-129 47q-78 0 -121 -42t-43 -118z" />
    <glyph glyph-name="fiveeighths" unicode="&#x215d;" horiz-adv-x="1916" 
d="M684 805q0 -138 -112 -224.5t-296 -86.5q-96 0 -198 26l-12 119l8 4l248 -117q95 20 144.5 85.5t49.5 170.5q0 123 -90 193t-289 94l-6 10l49 338h447v-153l-13 -7l-417 146l-45 -320q532 -6 532 -278zM1417 1417h35l-993 -1417h-35zM1599 526q136 -64 193 -127t57 -145
q0 -114 -103 -184t-269 -70q-153 0 -245.5 58t-92.5 153q0 143 207 219l10 -6q-99 -81 -99 -191q0 -104 59 -159.5t169 -55.5q98 0 152.5 49.5t54.5 137.5q0 67 -46.5 110.5t-179.5 100.5q-147 64 -206.5 128.5t-59.5 155.5q0 107 84 172.5t221 65.5q126 0 201.5 -50.5
t75.5 -135.5q0 -137 -183 -226zM1335 760q0 -69 46.5 -112t179.5 -103q3 -1 9 -4t9 -4q94 81 94 200q0 89 -45 136t-129 47q-78 0 -121 -42t-43 -118z" />
    <glyph glyph-name="seveneighths" unicode="&#x215e;" horiz-adv-x="1708" 
d="M113 522l559 760l-449 117l-143 -248l-12 2l12 264h657l8 -12l-419 -895h-213v12zM1208 1417h35l-993 -1417h-35zM1391 526q135 -64 192 -126.5t57 -145.5q0 -114 -103 -184t-269 -70q-153 0 -245.5 58t-92.5 153q0 143 207 219l10 -6q-98 -80 -98 -191
q0 -104 58.5 -159.5t168.5 -55.5q98 0 152.5 49.5t54.5 137.5q0 67 -46.5 110.5t-179.5 100.5q-147 64 -206.5 128.5t-59.5 155.5q0 107 84 172.5t221 65.5q126 0 201.5 -50.5t75.5 -135.5q0 -137 -182 -226zM1126 760q0 -69 46.5 -112t179.5 -103q3 -1 9 -4t9 -4
q94 81 94 200q0 89 -45 136t-129 47q-78 0 -121 -42t-43 -118z" />
    <glyph glyph-name="arrowleft" unicode="&#x2190;" horiz-adv-x="1368" 
d="M1165 817h17v-213h-17l-872 98h-12l305 -477l-13 -10l-495 496l495 493l13 -10l-305 -475h12z" />
    <glyph glyph-name="arrowup" unicode="&#x2191;" horiz-adv-x="1249" 
d="M1108 754l-477 305v-15l98 -872v-14h-211v14l98 872v17l-475 -307l-10 12l492 494l495 -494z" />
    <glyph glyph-name="arrowright" unicode="&#x2192;" horiz-adv-x="1368" 
d="M795 1204l495 -493l-495 -496l-13 10l305 477h-12l-872 -98h-15v213h15l872 -98h12l-305 475z" />
    <glyph glyph-name="arrowdown" unicode="&#x2193;" horiz-adv-x="1249" 
d="M1108 666l10 -13l-495 -495l-492 495l10 13l475 -310v17l-98 872v15h211v-15l-98 -872v-15z" />
    <glyph glyph-name="arrowboth" unicode="&#x2194;" horiz-adv-x="1859" 
d="M1235 1204l494 -493l-494 -496l-12 10l299 467h-1184l299 -467l-12 -10l-494 496l494 493l12 -10l-299 -465h1184l-299 465z" />
    <glyph glyph-name="arrowupdn" unicode="&#x2195;" horiz-adv-x="1097" 
d="M567 143l465 299l10 -12l-493 -496l-494 496l11 12l464 -299v1184l-464 -301l-11 12l494 496l493 -496l-10 -12l-465 301v-1184z" />
    <glyph glyph-name="partialdiff" unicode="&#x2202;" horiz-adv-x="1181" 
d="M573 -25q-219 0 -340.5 102.5t-121.5 289.5q0 211 151 343t428 164l4 -16q-409 -88 -409 -463q0 -190 78 -292.5t221 -102.5q149 0 222 117t73 356q0 281 -152 514.5t-467 437.5l8 15q382 -169 592.5 -412.5t210.5 -517.5q0 -242 -136 -388.5t-362 -146.5z" />
    <glyph glyph-name="emptyset" unicode="&#x2205;" horiz-adv-x="1239" 
d="M995 1063q133 -139 133 -350q0 -142 -65.5 -259t-181.5 -185t-258 -68q-211 0 -353 133l-127 -127l-22 22l127 127q-135 148 -135 357q0 142 66.5 257.5t183 181t260.5 65.5q208 0 350 -132l125 125l22 -22zM147 713q0 -201 125 -332l676 680q-131 121 -325 121
q-206 0 -341 -133.5t-135 -335.5zM623 236q202 0 335.5 137t133.5 340q0 194 -121 325l-676 -680q128 -122 328 -122z" />
    <glyph glyph-name="minus" unicode="&#x2212;" horiz-adv-x="1062" 
d="M131 690v37h803v-37h-803z" />
    <glyph glyph-name="infinity" unicode="&#x221e;" horiz-adv-x="1714" 
d="M1262 1079q149 0 241 -99.5t92 -262.5q0 -169 -96.5 -273t-257.5 -104q-87 0 -155.5 21t-117.5 60.5t-82 84t-63 104.5q-34 -61 -65.5 -104.5t-75 -84t-99.5 -61t-124 -20.5q-149 0 -241.5 99.5t-92.5 260.5q0 171 97.5 275t258.5 104q87 0 155.5 -21t117.5 -61t82 -84.5
t63 -105.5q26 49 50.5 85.5t58 73.5t69.5 60.5t83.5 38t101.5 14.5zM1249 365q146 0 234 96.5t88 255.5q0 154 -84.5 247t-224.5 93q-65 0 -119 -21t-96 -62.5t-72.5 -85.5t-63.5 -106q17 -36 41.5 -98t40 -99t42.5 -84t54 -73t68.5 -44.5t91.5 -18.5zM459 365
q65 0 118.5 20.5t96 61.5t73 83.5t64.5 104.5q-18 38 -42.5 98.5t-40 99t-42 85t-53.5 73.5t-68.5 45.5t-91.5 18.5q-146 0 -234.5 -97.5t-88.5 -257.5q0 -152 84.5 -243.5t224.5 -91.5z" />
    <glyph glyph-name="approxequal" unicode="&#x2248;" horiz-adv-x="1073" 
d="M188 793l-32 12q54 116 89.5 158.5t78.5 42.5q41 0 129.5 -48t176 -96.5t124.5 -48.5q27 0 55 38.5t78 143.5l31 -12q-53 -119 -89 -162t-79 -43q-41 0 -129 48t-175 96.5t-124 48.5q-31 0 -58.5 -37.5t-75.5 -140.5zM188 424l-32 14q54 116 89.5 158.5t78.5 42.5
q33 0 96 -30t122 -66.5t120.5 -66.5t91.5 -30q28 0 55.5 38t77.5 143l31 -13q-54 -118 -89.5 -161t-78.5 -43q-41 0 -129 48.5t-175 97t-124 48.5q-31 0 -59 -37.5t-75 -142.5z" />
    <glyph glyph-name="notequal" unicode="&#x2260;" horiz-adv-x="1114" 
d="M958 883h-280l-195 -348h475v-37h-495l-174 -310h-37l172 310h-268v37h288l197 348h-485v37h506l172 309h38l-174 -309h260v-37z" />
    <glyph glyph-name="lessequal" unicode="&#x2264;" horiz-adv-x="1146" 
d="M971 348l-813 477v17l813 475l20 -31l-780 -452l780 -457zM985 100h-827v35h827v-35z" />
    <glyph glyph-name="greaterequal" unicode="&#x2265;" horiz-adv-x="1146" 
d="M176 348l-20 29l780 457l-780 452l20 31l815 -475v-17zM162 100v35h829v-35h-829z" />
    <glyph glyph-name="Q.titl" horiz-adv-x="1552" 
d="M758 -27q-307 0 -485.5 194t-178.5 527q0 237 87.5 418t247 280t368.5 99q305 0 483 -192t178 -517q0 -369 -190.5 -589t-509.5 -220zM772 0q235 0 360 188t125 543q0 338 -129 536.5t-346 198.5q-235 0 -361 -185.5t-126 -535.5q0 -342 130 -543.5t347 -201.5z
M1303 -322l-658 152v14h674v-155z" />
    <glyph glyph-name="R.titl" horiz-adv-x="1515" 
d="M45 0v14l209 99v1329h-201v24h686q492 0 492 -354q0 -187 -157.5 -288.5t-508.5 -139.5l94 -111h195l463 -548h160v-25h-373l-567 682v16q266 32 384.5 124.5t118.5 267.5q0 179 -82.5 265.5t-252.5 86.5h-263v-1417h209v-25h-606z" />
    <glyph glyph-name="i.loclTRK" horiz-adv-x="591" 
d="M295 1139q-52 0 -86.5 33.5t-34.5 84.5q0 50 36.5 85.5t86.5 35.5q51 0 85 -33.5t34 -84.5q0 -50 -36 -85.5t-85 -35.5zM55 0v14l162 86v748l-162 43v16l330 86l14 -8v-960h156v-25h-500z" />
    <glyph glyph-name="y.titl" horiz-adv-x="1179" 
d="M786 971h373v-27h-141l-543 -1306l238 -111v-14h-414l-6 14l334 547h-99l-364 870h-141v27h550v-27h-208l307 -770l284 688l-170 92v17z" />
    <glyph glyph-name="yacute.titl" horiz-adv-x="1179" 
d="M946 1403l-377 -305l-14 10l186 311h197zM786 971h373v-27h-141l-543 -1306l238 -111v-14h-414l-6 14l334 547h-99l-364 870h-141v27h550v-27h-208l307 -770l284 688l-170 92v17z" />
    <glyph glyph-name="ycircumflex.titl" horiz-adv-x="1179" 
d="M623 1276l-273 -164l-8 10l272 303h17l268 -303l-10 -10zM786 971h373v-27h-141l-543 -1306l238 -111v-14h-414l-6 14l334 547h-99l-364 870h-141v27h550v-27h-208l307 -770l284 688l-170 92v17z" />
    <glyph glyph-name="ydieresis.titl" horiz-adv-x="1179" 
d="M406 1143q-49 0 -81 32t-32 78q0 47 34.5 80t80.5 33q48 0 79 -31t31 -80q0 -45 -33.5 -78.5t-78.5 -33.5zM829 1143q-50 0 -81 31.5t-31 78.5t33.5 80t80.5 33q48 0 79.5 -31t31.5 -80q0 -44 -34.5 -78t-78.5 -34zM786 971h373v-27h-141l-543 -1306l238 -111v-14h-414
l-6 14l334 547h-99l-364 870h-141v27h550v-27h-208l307 -770l284 688l-170 92v17z" />
    <glyph glyph-name="uni1EF5.titl" horiz-adv-x="1179" 
d="M786 971h373v-27h-141l-543 -1306l238 -111v-14h-414l-6 14l334 547h-99l-364 870h-141v27h550v-27h-208l307 -770l284 688l-170 92v17zM934 -25q51 0 85 -34t34 -86q0 -48 -36 -83.5t-85 -35.5q-52 0 -86.5 34t-34.5 85q0 50 36.5 85t86.5 35z" />
    <glyph glyph-name="ygrave.titl" horiz-adv-x="1179" 
d="M682 1108l-16 -10l-375 305l6 16h197zM786 971h373v-27h-141l-543 -1306l238 -111v-14h-414l-6 14l334 547h-99l-364 870h-141v27h550v-27h-208l307 -770l284 688l-170 92v17z" />
    <glyph glyph-name="uni1EF9.titl" horiz-adv-x="1179" 
d="M418 1253q-27 0 -49 -18.5t-58 -71.5l-18 8q58 122 92.5 162.5t79.5 40.5q42 0 180.5 -51t173.5 -51q26 0 47 18.5t58 73.5l20 -8q-58 -123 -93 -164t-79 -41q-42 0 -180.5 51t-173.5 51zM786 971h373v-27h-141l-543 -1306l238 -111v-14h-414l-6 14l334 547h-99l-364 870
h-141v27h550v-27h-208l307 -770l284 688l-170 92v17z" />
    <glyph glyph-name="H_H" horiz-adv-x="2615" 
d="M1006 1442v24h606v-24h-209v-1417h209v-25h-606v25h208v725h-772v-725h209v-25h-606v14l209 99v1329h-201v24h598v-24h-209v-668h772v668h-208zM2361 25h209v-25h-606v25h209v725h-451v24h451v668h-209v24h598v-14l-201 -94v-1333z" />
    <glyph glyph-name="T_h" horiz-adv-x="2371" 
d="M2165 25h170v-25h-504v25h151v749q0 84 -37 125t-128 41q-159 0 -285 -135v-780h149v-25h-495v14l164 86v1338l-545 4v-1417h219v-25h-627v14l219 99v1329h-329l-195 -410l-18 2l14 432h1268l160 50l16 -9v-536l-10 -142h6q11 13 23.5 25t49 40.5t75 48t98.5 36t122 16.5
q269 0 269 -286v-684z" />
    <glyph glyph-name="c_b" horiz-adv-x="2234" 
d="M1767 995q178 0 280.5 -126t102.5 -337q0 -253 -141.5 -406t-374.5 -153q-195 0 -315 111l-72 -107h-28v1508q-210 -65 -294.5 -140t-84.5 -192q0 -109 121 -221l-123 -270l-17 2l-55 270q-78 37 -176 37q-155 0 -238.5 -118.5t-83.5 -338.5q0 -197 101 -302.5
t288 -105.5q173 0 340 93l11 -15q-236 -211 -482 -211q-209 0 -325.5 121.5t-116.5 339.5q0 257 145 409t387 152q65 0 140 -10q-13 83 -13 129q0 151 147.5 252.5t495.5 187.5l15 -10v-573l-8 -142h4q184 166 370 166zM1647 -2q313 0 313 463q0 214 -78.5 331t-220.5 117
q-53 0 -101.5 -13.5t-81.5 -34t-50.5 -34.5t-26.5 -24v-613q38 -103 96.5 -147.5t149.5 -44.5z" />
    <glyph glyph-name="c_h" horiz-adv-x="2242" 
d="M2034 25h170v-25h-504v25h151v749q0 84 -36.5 125t-126.5 41q-55 0 -106.5 -17t-89 -43.5t-57.5 -44.5t-34 -34v-776h151v-25h-495v14l162 86v1385q-210 -65 -294.5 -140t-84.5 -192q0 -109 121 -221l-123 -270l-17 2l-55 270q-78 37 -176 37q-155 0 -238.5 -118.5
t-83.5 -338.5q0 -197 101 -302.5t288 -105.5q173 0 340 93l11 -15q-236 -211 -482 -211q-209 0 -325.5 121.5t-116.5 339.5q0 257 145 409t387 152q65 0 140 -10q-13 83 -13 129q0 151 147.5 252.5t495.5 187.5l15 -10v-573l-10 -142h8q16 18 35.5 35.5t68 52.5t117.5 56.5
t145 21.5q269 0 269 -286v-684z" />
    <glyph glyph-name="c_k" horiz-adv-x="2232" 
d="M1401 1544v-1519h155v-25h-499v14l162 86v1385q-210 -65 -294.5 -140t-84.5 -192q0 -109 121 -221l-123 -270l-17 2l-55 270q-78 37 -176 37q-155 0 -238.5 -118.5t-83.5 -338.5q0 -197 101 -302.5t288 -105.5q173 0 340 93l11 -15q-236 -211 -482 -211
q-209 0 -325.5 121.5t-116.5 339.5q0 257 145 409t387 152q65 0 140 -10q-13 83 -13 129q0 151 147.5 252.5t495.5 187.5zM2068 25h142v-25h-350l-387 471v16l405 387l-160 80v17h414v-25h-141l-445 -422h111z" />
    <glyph glyph-name="c_l" horiz-adv-x="1611" 
d="M1401 25h170v-25h-514v14l162 86v1385q-210 -65 -294.5 -140t-84.5 -192q0 -109 121 -221l-123 -270l-17 2l-55 270q-78 37 -176 37q-155 0 -238.5 -118.5t-83.5 -338.5q0 -197 101 -302.5t288 -105.5q173 0 340 93l11 -15q-236 -211 -482 -211q-209 0 -325.5 121.5
t-116.5 339.5q0 257 145 409t387 152q65 0 140 -10q-13 83 -13 129q0 151 147.5 252.5t495.5 187.5l15 -10v-1519z" />
    <glyph glyph-name="f_b" horiz-adv-x="1880" 
d="M1415 995q178 0 280.5 -126t102.5 -337q0 -253 -141.5 -406t-374.5 -153q-195 0 -315 111l-72 -107h-29v1483q-110 58 -217 58q-124 0 -191 -86t-67 -244v-217h279v-27h-279v-919h178v-25h-522v14l162 86v844h-158v17l158 8v35q0 255 135.5 398.5t378.5 143.5
q91 0 195 -22l116 30l15 -10v-573l-9 -142h4q184 166 371 166zM1292 -2q316 0 316 463q0 214 -79 331t-222 117q-67 0 -130 -25t-88.5 -45.5t-39.5 -35.5v-613q38 -103 96 -147.5t147 -44.5z" />
    <glyph glyph-name="f_f_y" horiz-adv-x="2394" 
d="M2001 971h371v-27h-142l-362 -874q-57 -137 -120 -248t-111.5 -171.5t-89 -101.5t-61.5 -54l-22 -13l-96 119v14q194 105 300 209t177 256l6 12h-116l-359 852h-336v-919h252v-25h-596v14l162 86v844h-467v-919h170v-25h-514v14l162 86v844h-158v17l158 8v35
q0 255 135.5 398.5t378.5 143.5q173 0 356 -73q119 73 293 73q155 0 307 -51l-71 -133h-15q-150 156 -295 156q-124 0 -191 -86t-67 -244v-217h748v-27h-209l307 -770l285 690l-170 90v17zM391 971h467v33q0 239 121 382q-163 132 -330 132q-124 0 -191 -86t-67 -244v-217z
" />
    <glyph glyph-name="f_h" horiz-adv-x="1890" 
d="M1681 25h170v-25h-503v25h151v749q0 84 -37 125t-127 41q-56 0 -107.5 -17t-88.5 -43.5t-56.5 -44t-33.5 -34.5v-776h170v-25h-514v14l161 86v1360q-110 58 -217 58q-124 0 -191 -86t-67 -244v-217h279v-27h-279v-919h178v-25h-522v14l162 86v844h-158v17l158 8v35
q0 255 135.5 398.5t378.5 143.5q91 0 195 -22l116 30l15 -10v-573l-11 -142h9q16 18 35.5 35.5t68 52.5t117.5 56.5t145 21.5q135 0 201.5 -70.5t66.5 -215.5v-684z" />
    <glyph glyph-name="f_j" horiz-adv-x="1198" 
d="M1053 979l16 -10v-842q0 -228 -83.5 -380.5t-268.5 -260.5l-119 92v14l248 101q41 102 41 264v987h-496v-919h195v-25h-539v14l162 86v844h-158v17l158 8v35q0 255 135.5 398.5t378.5 143.5q155 0 307 -51l-72 -133h-14q-150 156 -295 156q-124 0 -191 -86t-67 -244v-217
z" />
    <glyph glyph-name="f_k" horiz-adv-x="1880" 
d="M1049 1544v-1519h153v-25h-497v14l161 86v1360q-110 58 -217 58q-124 0 -191 -86t-67 -244v-217h279v-27h-279v-919h178v-25h-522v14l162 86v844h-158v17l158 8v35q0 255 135.5 398.5t378.5 143.5q91 0 195 -22l116 30zM1716 25h142v-25h-351l-387 471v16l406 387
l-160 80v17h414v-25h-142l-446 -422h113z" />
    <glyph glyph-name="f_y" horiz-adv-x="1744" 
d="M1352 971h370v-27h-141l-362 -874q-57 -137 -120 -248t-111.5 -171.5t-89 -101.5t-62.5 -54l-21 -13l-96 119v14q194 105 300 209t177 256l6 12h-117l-358 852h-336v-919h252v-25h-596v14l162 86v844h-158v17l158 8v35q0 255 135.5 398.5t378.5 143.5q155 0 307 -51
l-72 -133h-14q-150 156 -295 156q-124 0 -191 -86t-67 -244v-217h748v-27h-209l307 -770l285 690l-170 90v17z" />
    <glyph glyph-name="s_b" horiz-adv-x="2099" 
d="M1630 995q179 0 281 -125.5t102 -337.5q0 -254 -140.5 -406.5t-373.5 -152.5q-195 0 -315 111l-72 -107h-29v1500q-199 -70 -277.5 -142t-78.5 -182q0 -95 102 -209l-71 -205l-15 2l-55 174q-10 6 -28.5 15.5t-75.5 25t-113 15.5q-112 0 -171.5 -48t-59.5 -137
q0 -70 48 -113.5t167 -80.5l153 -49q260 -82 260 -277q0 -138 -112 -215.5t-314 -77.5q-196 0 -376 52l81 227l15 -2l41 -187q12 -7 34.5 -18t91.5 -29t138 -18q119 0 182.5 49t63.5 141q0 75 -46 120.5t-157 80.5l-145 45q-269 85 -269 275q0 135 105.5 210.5t294.5 75.5
q94 0 174 -14q-23 98 -23 154q0 139 138 233t464 186l17 -10v-573l-11 -142h7q181 166 368 166zM1509 -2q316 0 316 463q0 214 -79 331t-222 117q-53 0 -101.5 -13.5t-81 -34t-49.5 -34.5t-26 -24v-613q38 -103 95.5 -147.5t147.5 -44.5z" />
    <glyph glyph-name="s_h" horiz-adv-x="2160" 
d="M1954 25h170v-25h-504v25h152v749q0 84 -37.5 125t-128.5 41q-55 0 -106.5 -17t-89 -43.5t-57.5 -44.5t-34 -34v-776h151v-25h-495v14l162 86v1385q-233 -72 -321.5 -144t-88.5 -188q0 -95 102 -209l-71 -205l-15 2l-55 174q-10 6 -28.5 15.5t-75.5 25t-113 15.5
q-112 0 -171.5 -48t-59.5 -137q0 -70 48 -113.5t167 -80.5l153 -49q260 -82 260 -277q0 -138 -112 -215.5t-314 -77.5q-196 0 -376 52l81 227l15 -2l41 -187q12 -7 34.5 -18t91.5 -29t138 -18q119 0 182.5 49t63.5 141q0 75 -46 120.5t-157 80.5l-145 45q-269 85 -269 275
q0 135 105.5 210.5t294.5 75.5q94 0 174 -14q-23 98 -23 154q0 141 147.5 234.5t510.5 184.5l14 -10v-573l-8 -142h6q11 12 23.5 25t49.5 40.5t75.5 47.5t98.5 36.5t122 16.5q268 0 268 -286v-684z" />
    <glyph glyph-name="s_k" horiz-adv-x="2150" 
d="M1319 1544v-1519h156v-25h-500v14l162 86v1385q-233 -72 -321.5 -144t-88.5 -188q0 -95 102 -209l-71 -205l-15 2l-55 174q-10 6 -28.5 15.5t-75.5 25t-113 15.5q-112 0 -171.5 -48t-59.5 -137q0 -70 48 -113.5t167 -80.5l153 -49q260 -82 260 -277q0 -138 -112 -215.5
t-314 -77.5q-196 0 -376 52l81 227l15 -2l41 -187q12 -7 34.5 -18t91.5 -29t138 -18q119 0 182.5 49t63.5 141q0 75 -46 120.5t-157 80.5l-145 45q-269 85 -269 275q0 135 105.5 210.5t294.5 75.5q94 0 174 -14q-23 98 -23 154q0 141 147.5 234.5t510.5 184.5zM1987 25h141
v-25h-348l-387 471v16l405 387l-162 80v17h416v-25h-143l-445 -422h111z" />
    <glyph glyph-name="s_l" horiz-adv-x="1533" 
d="M1323 25h170v-25h-514v14l162 86v1385q-234 -72 -324 -144t-90 -188q0 -95 102 -209l-71 -205l-15 2l-55 174q-10 6 -28.5 15.5t-75.5 25t-113 15.5q-112 0 -171.5 -48t-59.5 -137q0 -70 48 -113.5t167 -80.5l153 -49q260 -82 260 -277q0 -138 -112 -215.5t-314 -77.5
q-196 0 -376 52l81 227l15 -2l41 -187q12 -7 34.5 -18t91.5 -29t138 -18q119 0 182.5 49t63.5 141q0 75 -46 120.5t-157 80.5l-145 45q-269 85 -269 275q0 135 105.5 210.5t294.5 75.5q94 0 174 -14q-23 98 -23 154q0 140 149 234t513 185l14 -10v-1519z" />
    <glyph glyph-name="t_v" horiz-adv-x="1734" 
d="M1360 971h350v-27h-139l-402 -944h-30l-402 944h-379v-702q0 -88 44.5 -127t142.5 -39q105 0 209 43l10 -19q-91 -67 -164.5 -97t-150.5 -30q-132 0 -202.5 73t-70.5 208v690h-156v17l324 276h14v-266h785v-27h-203l293 -735l280 661l-153 84v17z" />
    <glyph glyph-name="t_w" horiz-adv-x="2291" 
d="M1894 971h375v-27h-139l-375 -944h-33l-278 731l-285 -731h-33l-374 944h-394v-702q0 -88 44.5 -127t142.5 -39q105 0 209 43l10 -19q-91 -67 -164.5 -97t-150.5 -30q-132 0 -202.5 73t-70.5 208v690h-156v17l324 276h14v-266h816v-27h-218l265 -725l290 752h31l270 -762
l261 655l-179 90v17z" />
    <glyph glyph-name="t_y" horiz-adv-x="1755" 
d="M1362 971h373v-27h-142l-362 -874q-57 -137 -120 -248t-111.5 -171.5t-89 -101.5t-62.5 -54l-21 -13l-96 119v14q192 105 298 209t177 256l6 12h-114l-359 852h-381v-702q0 -88 44.5 -127t142.5 -39q105 0 209 43l10 -19q-91 -67 -164.5 -97t-150.5 -30q-132 0 -202.5 73
t-70.5 208v690h-156v17l324 276h14v-266h791v-27h-209l309 -770l283 690l-170 90v17z" />
    <glyph glyph-name="f_f_y.titl" horiz-adv-x="2394" 
d="M2001 971h371v-27h-142l-542 -1306l239 -111v-14h-416l-4 14l334 547h-98l-367 870h-336v-919h252v-25h-596v14l162 86v844h-467v-919h170v-25h-514v14l162 86v844h-158v17l158 8v35q0 255 135.5 398.5t378.5 143.5q173 0 356 -73q119 73 293 73q155 0 307 -51l-71 -133
h-15q-150 156 -295 156q-124 0 -191 -86t-67 -244v-217h748v-27h-209l307 -770l283 688l-168 92v17zM391 971h467v33q0 239 121 382q-163 132 -330 132q-124 0 -191 -86t-67 -244v-217z" />
    <glyph glyph-name="f_y.titl" horiz-adv-x="1744" 
d="M1352 971h370v-27h-141l-543 -1306l238 -111v-14h-414l-4 14l334 547h-100l-365 870h-336v-919h252v-25h-596v14l162 86v844h-158v17l158 8v35q0 255 135.5 398.5t378.5 143.5q155 0 307 -51l-72 -133h-14q-150 156 -295 156q-124 0 -191 -86t-67 -244v-217h748v-27h-209
l307 -768l283 686l-168 92v17z" />
    <glyph glyph-name="t_y.titl" horiz-adv-x="1755" 
d="M1362 971h373v-27h-144l-540 -1306l237 -111v-14h-414l-6 14l334 547h-98l-365 870h-381v-702q0 -88 44.5 -127t142.5 -39q105 0 209 43l10 -19q-91 -67 -164.5 -97t-150.5 -30q-132 0 -202.5 73t-70.5 208v690h-156v17l324 276h14v-266h791v-27h-209l307 -770l285 686
l-170 94v17z" />
    <glyph glyph-name="a.sups" horiz-adv-x="747" 
d="M641 928h86v-13q-52 -22 -119 -22q-61 0 -84 22.5t-26 77.5h-6q-4 -4 -12.5 -11.5t-35.5 -25.5t-56 -32t-73 -25.5t-88 -11.5q-91 0 -142.5 38t-51.5 107q0 93 103 142.5t349 80.5v105q0 66 -29.5 98.5t-107.5 32.5q-118 0 -252 -61l-10 14q172 108 342 108
q104 0 158.5 -51t54.5 -151v-422zM197 1059q0 -51 34 -79t95 -28q79 0 159 56v231q-156 -26 -222 -67.5t-66 -112.5z" />
    <glyph glyph-name="b.sups" horiz-adv-x="823" 
d="M489 1552q135 0 209 -81t74 -220q0 -167 -98 -265.5t-264 -98.5q-143 0 -234 76l-57 -74h-23v921l-110 23v10l250 62l12 -7v-360l-6 -90h4q122 104 243 104zM410 905q200 0 200 291q0 289 -192 289q-104 0 -170 -55v-410q44 -115 162 -115z" />
    <glyph glyph-name="c.sups" horiz-adv-x="739" 
d="M711 1055l8 -13q-171 -155 -354 -155q-146 0 -230 80t-84 221q0 166 105.5 265t279.5 99q137 0 250 -39l-96 -186h-12l-39 184q-58 25 -123 25q-98 0 -150.5 -72t-52.5 -204q0 -127 69 -196t197 -69q124 0 232 60z" />
    <glyph glyph-name="n.sups" horiz-adv-x="878" 
d="M743 920h119v-17h-385v17h113v479q0 55 -26 80.5t-87 25.5q-43 0 -86 -17.5t-62.5 -32t-33.5 -28.5v-507h113v-17h-379v12l114 46v495l-110 23v12l231 61l12 -6l11 -98h6q10 10 27 23t51 33.5t83.5 34t102.5 13.5q186 0 186 -186v-446z" />
    <glyph glyph-name="o.sups" horiz-adv-x="808" 
d="M391 887q-162 0 -251 82.5t-89 230.5q0 163 99.5 257.5t267.5 94.5q157 0 247.5 -80.5t90.5 -224.5q0 -166 -98 -263t-267 -97zM408 905q91 0 135.5 72.5t44.5 226.5q0 162 -48 247t-139 85q-92 0 -137 -72.5t-45 -222.5q0 -163 48.5 -249.5t140.5 -86.5z" />
    <glyph glyph-name="zero.zero" horiz-adv-x="1236" 
d="M637 1030q236 0 376 -129.5t140 -357.5q0 -261 -149.5 -416.5t-403.5 -155.5q-245 0 -380.5 132t-135.5 366q0 256 151.5 408.5t401.5 152.5zM618 1006q-173 0 -257.5 -121t-84.5 -367q0 -184 50 -305l575 606q-88 187 -283 187zM618 0q172 0 257.5 122t85.5 372
q0 182 -50 303l-577 -607q87 -190 284 -190z" />
    <glyph glyph-name="zero.lf" horiz-adv-x="1363" 
d="M670 -27q-253 0 -399 187.5t-146 509.5q0 229 71.5 404t202.5 270.5t303 95.5q250 0 396.5 -186t146.5 -500q0 -355 -157 -568t-418 -213zM684 -2q180 0 274.5 180t94.5 524q0 329 -98.5 522t-266.5 193q-181 0 -276 -177.5t-95 -516.5q0 -335 99.5 -530t267.5 -195z" />
    <glyph glyph-name="zero.zero.lf" horiz-adv-x="1363" 
d="M702 1440q250 0 396.5 -186t146.5 -500q0 -355 -157 -568t-418 -213q-253 0 -399 187.5t-146 509.5q0 229 71.5 404t202.5 270.5t303 95.5zM688 1417q-181 0 -276 -177.5t-95 -516.5q0 -197 35 -346l660 690q-43 168 -126.5 259t-197.5 91zM684 -2q180 0 274.5 180
t94.5 524q0 191 -35 340l-660 -692q43 -168 127.5 -260t198.5 -92z" />
    <glyph glyph-name="one.lf" horiz-adv-x="714" 
d="M66 0v14l196 86v1176h-219v14l387 166l14 -8v-1423h205v-25h-583z" />
    <glyph glyph-name="two.lf" horiz-adv-x="1081" 
d="M969 401l16 -4l-18 -397h-918l-4 14l412 527q142 183 199 298.5t57 223.5q0 122 -81 195t-216 73q-197 0 -338 -108l-6 12q169 205 430 205q180 0 286.5 -93.5t106.5 -250.5q0 -134 -86.5 -273.5t-292.5 -339.5l-323 -329l585 -131z" />
    <glyph glyph-name="three.lf" horiz-adv-x="1042" 
d="M420 858q258 -13 395 -113.5t137 -275.5q0 -223 -156.5 -358.5t-414.5 -135.5q-153 0 -293 41l-18 174l12 7l346 -183q159 26 245.5 135t86.5 287q0 154 -96 260.5t-273 147.5l2 16l395 404l-481 131l-190 -371l-15 2l19 391h829l6 -14z" />
    <glyph glyph-name="four.lf" horiz-adv-x="1118" 
d="M1057 410h-213v-385h186v-25h-549v14l181 86v310h-594l-5 16l480 991h245l5 -14l-703 -971l572 2v340h182v-340h213v-24z" />
    <glyph glyph-name="five.lf" horiz-adv-x="1030" 
d="M190 889q744 -9 744 -432q0 -217 -152.5 -349.5t-402.5 -132.5q-150 0 -287 41l-20 172l14 9l344 -183q150 26 230.5 131.5t80.5 276.5q0 198 -134.5 305.5t-430.5 144.5l-12 13l76 532h614v-196l-14 -9l-578 187z" />
    <glyph glyph-name="six.lf" horiz-adv-x="1169" 
d="M596 -25q-229 0 -356 132.5t-127 373.5q0 603 837 959l11 -17q-334 -191 -495 -411t-161 -486q0 -256 79 -391t228 -135q289 0 289 389q0 174 -71 264t-205 90q-118 0 -224 -53l-6 15q133 86 293 86q186 0 286.5 -93t100.5 -270q0 -201 -132 -327t-347 -126z" />
    <glyph glyph-name="seven.lf" horiz-adv-x="1019" 
d="M1006 1417l8 -14l-633 -1403h-246v16l787 1231l-654 148l-190 -371l-15 2l19 391h924z" />
    <glyph glyph-name="eight.lf" horiz-adv-x="1161" 
d="M717 774q195 -98 275.5 -192t80.5 -222q0 -173 -140 -279t-370 -106q-215 0 -345 90.5t-130 239.5q0 226 293 361l12 -11q-84 -69 -122 -144.5t-38 -172.5q0 -163 88.5 -250.5t251.5 -87.5q152 0 235 81t83 230q0 106 -71 177.5t-265 160.5q-210 96 -295.5 194t-85.5 240
q0 161 116.5 259t307.5 98q177 0 283 -81t106 -216q0 -222 -270 -369zM336 1143q0 -111 67 -182.5t254 -157.5l39 -19q80 75 117 157t37 183q0 140 -68 215.5t-194 75.5q-120 0 -186 -71t-66 -201z" />
    <glyph glyph-name="nine.lf" horiz-adv-x="1118" 
d="M193 -25l-11 17q333 191 494.5 411.5t161.5 485.5q0 256 -79.5 391t-228.5 135q-288 0 -288 -389q0 -173 71 -263.5t205 -90.5q117 0 223 53l7 -14q-133 -86 -293 -86q-186 0 -286.5 92.5t-100.5 269.5q0 201 132 327t347 126q229 0 356 -132.5t127 -373.5
q0 -603 -837 -959z" />
    <glyph glyph-name="zero.subs" horiz-adv-x="964" 
d="M473 -209q-182 0 -285.5 120t-103.5 327q0 220 113 355.5t297 135.5q181 0 284 -118.5t103 -321.5q0 -226 -111.5 -362t-296.5 -136zM481 -190q230 0 230 438q0 220 -59.5 341.5t-168.5 121.5q-229 0 -229 -432q0 -222 59.5 -345.5t167.5 -123.5z" />
    <glyph glyph-name="one.subs" horiz-adv-x="542" 
d="M59 -193v13l142 51v733h-142v12l291 123l12 -6v-907h144v-19h-447z" />
    <glyph glyph-name="two.subs" horiz-adv-x="804" 
d="M707 78l12 -2l-12 -269h-656l-6 13l281 332q94 111 131 183t37 140q0 77 -52 121.5t-143 44.5q-133 0 -227 -61l-4 8q126 141 309 141q129 0 203.5 -60t74.5 -163q0 -91 -64 -181t-218 -214l-213 -189l403 -98z" />
    <glyph glyph-name="three.subs" horiz-adv-x="786" 
d="M342 346q180 -9 277.5 -72t97.5 -172q0 -143 -114.5 -230t-303.5 -87q-99 0 -205 27l-12 118l10 7l248 -121q100 19 153.5 86.5t53.5 175.5q0 95 -60.5 162t-169.5 96v12l265 248l-324 96l-143 -250l-13 2l13 265h602l2 -13z" />
    <glyph glyph-name="four.subs" horiz-adv-x="800" 
d="M756 57h-144v-231h119v-19h-397v13l117 51v186h-406l-6 11l317 647h215l4 -13l-516 -628l392 2v207h161v-207h144v-19z" />
    <glyph glyph-name="five.subs" horiz-adv-x="757" 
d="M152 397q532 -6 532 -278q0 -139 -111.5 -225.5t-296.5 -86.5q-92 0 -198 27l-12 119l8 4l248 -117q95 20 144.5 85.5t49.5 170.5q0 123 -90 193t-289 94l-6 10l49 338h447v-153l-13 -7l-417 146z" />
    <glyph glyph-name="six.subs" horiz-adv-x="821" 
d="M418 -193q-166 0 -258 86.5t-92 243.5q0 386 596 608l6 -12q-222 -115 -327 -250t-105 -311q0 -170 49 -258t143 -88q180 0 180 250q0 109 -45 166t-131 57q-68 0 -133 -27l-4 13q88 49 197 49q129 0 199.5 -60t70.5 -170q0 -131 -95 -214t-251 -83z" />
    <glyph glyph-name="seven.subs" horiz-adv-x="776" 
d="M737 715l8 -13l-419 -895h-213v13l559 760l-449 116l-143 -247l-12 2l12 264h657z" />
    <glyph glyph-name="eight.subs" horiz-adv-x="845" 
d="M528 334q135 -64 192.5 -127.5t57.5 -145.5q0 -115 -102.5 -184.5t-269.5 -69.5q-153 0 -245.5 58t-92.5 153q0 144 206 220l11 -7q-99 -81 -99 -190q0 -104 59 -159.5t169 -55.5q98 0 152.5 49t54.5 137q0 67 -46.5 110.5t-179.5 100.5q-147 64 -206.5 128.5
t-59.5 156.5q0 107 84 172t221 65q126 0 201.5 -50.5t75.5 -135.5q0 -136 -183 -225zM264 567q0 -69 46 -112t179 -103q3 -1 9.5 -4t9.5 -4q94 81 94 201q0 89 -45 135.5t-129 46.5q-78 0 -121 -42t-43 -118z" />
    <glyph glyph-name="nine.subs" horiz-adv-x="823" 
d="M160 -209l-8 12q224 114 329 250.5t105 311.5q0 171 -49.5 258.5t-143.5 87.5q-180 0 -180 -248q0 -110 45 -167.5t131 -57.5q70 0 133 28l2 -12q-83 -51 -196 -51q-128 0 -198.5 59.5t-70.5 171.5q0 131 95.5 213t251.5 82q166 0 258 -86.5t92 -241.5q0 -389 -596 -610z
" />
    <glyph glyph-name="zero.dnom" horiz-adv-x="964" 
d="M473 -16q-182 0 -285.5 119.5t-103.5 326.5q0 220 113 356t297 136q181 0 284 -118.5t103 -322.5q0 -226 -111.5 -361.5t-296.5 -135.5zM481 2q230 0 230 438q0 220 -59.5 341.5t-168.5 121.5q-229 0 -229 -432q0 -222 59.5 -345.5t167.5 -123.5z" />
    <glyph glyph-name="one.dnom" horiz-adv-x="542" 
d="M59 0v12l142 51v734h-142v12l291 123l12 -6v-908h144v-18h-447z" />
    <glyph glyph-name="two.dnom" horiz-adv-x="804" 
d="M707 270l12 -2l-12 -268h-656l-6 12l281 332q94 111 131 183.5t37 140.5q0 77 -52 121.5t-143 44.5q-132 0 -227 -62l-4 8q127 142 309 142q129 0 203.5 -60.5t74.5 -163.5q0 -91 -64 -181t-218 -214l-213 -188l403 -99z" />
    <glyph glyph-name="three.dnom" horiz-adv-x="786" 
d="M342 545q180 -9 277.5 -72t97.5 -172q0 -143 -114.5 -230t-303.5 -87q-103 0 -205 26l-12 119l10 6l248 -121q100 19 153.5 86.5t53.5 175.5q0 95 -60.5 162.5t-169.5 96.5v12l265 248l-324 96l-143 -250l-13 2l13 264h602l2 -12z" />
    <glyph glyph-name="four.dnom" horiz-adv-x="800" 
d="M756 250h-144v-232h119v-18h-397v12l117 51v187h-406l-6 10l317 647h215l4 -12l-516 -629l392 2v207h161v-207h144v-18z" />
    <glyph glyph-name="five.dnom" horiz-adv-x="757" 
d="M152 590q264 -3 398 -73.5t134 -205.5q0 -138 -112 -224.5t-296 -86.5q-92 0 -198 27l-12 118l8 5l248 -117q95 20 144.5 85.5t49.5 170.5q0 123 -90 192.5t-289 93.5l-6 11l49 338h447v-154l-13 -6l-417 145z" />
    <glyph glyph-name="six.dnom" horiz-adv-x="821" 
d="M418 0q-166 0 -258 86.5t-92 243.5q0 386 596 608l6 -12q-222 -115 -327 -250t-105 -311q0 -170 49 -258.5t143 -88.5q180 0 180 250q0 109 -45 166.5t-131 57.5q-68 0 -133 -27l-4 12q88 49 197 49q129 0 199.5 -59.5t70.5 -169.5q0 -131 -95 -214t-251 -83z" />
    <glyph glyph-name="seven.dnom" horiz-adv-x="776" 
d="M737 907l8 -12l-419 -895h-213v12l559 760l-449 117l-143 -248l-12 2l12 264h657z" />
    <glyph glyph-name="eight.dnom" horiz-adv-x="845" 
d="M528 526q136 -64 193 -127t57 -145q0 -114 -103 -184t-269 -70q-153 0 -245.5 58t-92.5 153q0 143 206 219l11 -6q-99 -81 -99 -191q0 -104 59 -159.5t169 -55.5q98 0 152.5 49.5t54.5 137.5q0 67 -46.5 110.5t-179.5 100.5q-147 64 -206.5 128.5t-59.5 155.5
q0 107 84 172.5t221 65.5q126 0 201.5 -50.5t75.5 -135.5q0 -137 -183 -226zM264 760q0 -69 46 -112t179 -103q3 -1 9.5 -4t9.5 -4q94 81 94 200q0 89 -45 136t-129 47q-78 0 -121 -42t-43 -118z" />
    <glyph glyph-name="nine.dnom" horiz-adv-x="823" 
d="M160 -16l-8 12q224 116 329 251t105 310q0 171 -49.5 258.5t-143.5 87.5q-180 0 -180 -248q0 -110 45 -167.5t131 -57.5q68 0 133 29l2 -13q-83 -51 -196 -51q-128 0 -198.5 60t-70.5 172q0 131 95.5 213t251.5 82q166 0 258 -86.5t92 -241.5q0 -389 -596 -610z" />
    <glyph glyph-name="zero.numr" horiz-adv-x="964" 
d="M473 494q-182 0 -285.5 119.5t-103.5 326.5q0 220 113 356t297 136q181 0 284 -118.5t103 -322.5q0 -226 -111.5 -361.5t-296.5 -135.5zM481 512q230 0 230 438q0 220 -59.5 341.5t-168.5 121.5q-229 0 -229 -432q0 -222 59.5 -345.5t167.5 -123.5z" />
    <glyph glyph-name="one.numr" horiz-adv-x="542" 
d="M59 510v12l142 51v734h-142v12l291 123l12 -6v-908h144v-18h-447z" />
    <glyph glyph-name="two.numr" horiz-adv-x="804" 
d="M707 780l12 -2l-12 -268h-656l-6 12l281 332q94 111 131 183.5t37 140.5q0 77 -52 121t-143 44q-133 0 -227 -61l-4 8q127 142 309 142q129 0 203.5 -60.5t74.5 -163.5q0 -91 -64 -181t-218 -214l-213 -188l403 -99z" />
    <glyph glyph-name="three.numr" horiz-adv-x="786" 
d="M342 1055q180 -9 277.5 -72t97.5 -172q0 -143 -114.5 -230t-303.5 -87q-103 0 -205 26l-12 119l10 6l248 -121q100 19 153.5 86.5t53.5 175.5q0 95 -60.5 162t-169.5 96v13l265 248l-324 96l-143 -250l-13 2l13 264h602l2 -12z" />
    <glyph glyph-name="four.numr" horiz-adv-x="800" 
d="M756 760h-144v-232h119v-18h-397v12l117 51v187h-406l-6 10l317 647h215l4 -12l-516 -629l392 2v207h161v-207h144v-18z" />
    <glyph glyph-name="five.numr" horiz-adv-x="757" 
d="M152 1083q532 -6 532 -278q0 -138 -112 -224.5t-296 -86.5q-96 0 -198 26l-12 119l8 4l248 -117q95 20 144.5 85.5t49.5 170.5q0 123 -90 193t-289 94l-6 10l49 338h447v-153l-13 -7l-417 146z" />
    <glyph glyph-name="six.numr" horiz-adv-x="821" 
d="M418 510q-166 0 -258 86.5t-92 243.5q0 386 596 608l6 -12q-222 -115 -327 -250.5t-105 -311.5q0 -170 49 -258t143 -88q180 0 180 250q0 109 -45 166t-131 57q-71 0 -133 -26l-4 12q88 49 197 49q129 0 199.5 -59.5t70.5 -169.5q0 -131 -95 -214t-251 -83z" />
    <glyph glyph-name="seven.numr" horiz-adv-x="776" 
d="M737 1417l8 -12l-419 -895h-213v12l559 760l-449 117l-143 -248l-12 2l12 264h657z" />
    <glyph glyph-name="eight.numr" horiz-adv-x="845" 
d="M528 1020q136 -64 193 -127t57 -145q0 -114 -103 -184t-269 -70q-153 0 -245.5 58t-92.5 153q0 143 206 219l11 -6q-99 -81 -99 -191q0 -104 59 -159.5t169 -55.5q98 0 152.5 49t54.5 137q0 67 -46.5 110.5t-179.5 100.5q-147 64 -206.5 128.5t-59.5 156.5
q0 107 84 172.5t221 65.5q126 0 201.5 -51t75.5 -136q0 -136 -183 -225zM264 1253q0 -69 46 -112t179 -103q3 -1 9.5 -4t9.5 -4q94 81 94 201q0 89 -45 135.5t-129 46.5q-78 0 -121 -42t-43 -118z" />
    <glyph glyph-name="nine.numr" horiz-adv-x="823" 
d="M160 494l-8 12q224 116 329 251t105 310q0 171 -49.5 258.5t-143.5 87.5q-180 0 -180 -248q0 -110 45 -167.5t131 -57.5q68 0 133 29l2 -13q-83 -51 -196 -51q-128 0 -198.5 60t-70.5 172q0 131 95.5 213t251.5 82q166 0 258 -86.5t92 -241.5q0 -389 -596 -610z" />
    <glyph glyph-name="zero.sups" horiz-adv-x="964" 
d="M473 737q-182 0 -285.5 120t-103.5 327q0 220 113 355.5t297 135.5q181 0 284 -118.5t103 -321.5q0 -226 -111.5 -362t-296.5 -136zM481 756q230 0 230 438q0 220 -59.5 341.5t-168.5 121.5q-229 0 -229 -432q0 -222 59.5 -345.5t167.5 -123.5z" />
    <glyph glyph-name="one.sups" horiz-adv-x="542" 
d="M59 754v12l142 51v733h-142v13l291 123l12 -7v-907h144v-18h-447z" />
    <glyph glyph-name="two.sups" horiz-adv-x="804" 
d="M707 1024l12 -2l-12 -268h-656l-6 12l281 332q94 111 131 183t37 140q0 77 -52 121.5t-143 44.5q-133 0 -227 -61l-4 8q126 141 309 141q129 0 203.5 -60t74.5 -163q0 -91 -64 -181t-218 -214l-213 -189l403 -98z" />
    <glyph glyph-name="three.sups" horiz-adv-x="786" 
d="M342 1298q180 -9 277.5 -72t97.5 -171q0 -143 -114.5 -230.5t-303.5 -87.5q-99 0 -205 27l-12 119l10 6l248 -121q100 19 153.5 86.5t53.5 175.5q0 95 -60.5 162t-169.5 96v12l265 248l-324 97l-143 -250l-13 2l13 264h602l2 -12z" />
    <glyph glyph-name="four.sups" horiz-adv-x="800" 
d="M756 1004h-144v-232h119v-18h-397v12l117 51v187h-406l-6 10l317 647h215l4 -12l-516 -629l392 2v207h161v-207h144v-18z" />
    <glyph glyph-name="five.sups" horiz-adv-x="757" 
d="M152 1327q532 -6 532 -278q0 -138 -112 -225t-296 -87q-92 0 -198 27l-12 119l8 4l248 -117q95 20 144.5 85.5t49.5 170.5q0 123 -90 193t-289 94l-6 10l49 338h447v-154l-13 -6l-417 146z" />
    <glyph glyph-name="six.sups" horiz-adv-x="821" 
d="M418 737q-166 0 -258 86.5t-92 243.5q0 386 596 608l6 -12q-222 -115 -327 -250t-105 -311q0 -170 49 -258t143 -88q180 0 180 250q0 109 -45 166t-131 57q-68 0 -133 -27l-4 12q89 50 197 50q129 0 199.5 -60t70.5 -170q0 -131 -95 -214t-251 -83z" />
    <glyph glyph-name="seven.sups" horiz-adv-x="776" 
d="M737 1661l8 -12l-419 -895h-213v12l559 760l-449 116l-143 -247l-12 2l12 264h657z" />
    <glyph glyph-name="eight.sups" horiz-adv-x="845" 
d="M528 1264q135 -64 192.5 -127.5t57.5 -145.5q0 -114 -103 -184t-269 -70q-153 0 -245.5 58t-92.5 153q0 143 206 219l11 -6q-99 -81 -99 -190q0 -104 59 -159.5t169 -55.5q98 0 152.5 49t54.5 137q0 67 -46.5 110.5t-179.5 100.5q-147 64 -206.5 128.5t-59.5 156.5
q0 107 84 172t221 65q126 0 201.5 -50.5t75.5 -135.5q0 -136 -183 -225zM264 1497q0 -69 46 -112t179 -103q3 -1 9.5 -4t9.5 -4q94 81 94 201q0 89 -45 135.5t-129 46.5q-78 0 -121 -42t-43 -118z" />
    <glyph glyph-name="nine.sups" horiz-adv-x="823" 
d="M160 737l-8 13q224 116 329 251t105 310q0 171 -49.5 258.5t-143.5 87.5q-180 0 -180 -248q0 -110 45 -167.5t131 -57.5q70 0 133 28l2 -12q-83 -51 -196 -51q-128 0 -198.5 59.5t-70.5 171.5q0 131 95.5 213t251.5 82q166 0 258 -86t92 -241q0 -390 -596 -611z" />
    <glyph glyph-name="colon.case" horiz-adv-x="538" 
d="M268 989q-57 0 -93 36.5t-36 92.5q0 54 38.5 91.5t92.5 37.5q57 0 93 -36t36 -93q0 -53 -38.5 -91t-92.5 -38zM268 219q-57 0 -93 36.5t-36 92.5q0 54 38.5 91.5t92.5 37.5q57 0 93 -36t36 -93q0 -53 -38.5 -91t-92.5 -38z" />
    <glyph glyph-name="exclamdown.case" horiz-adv-x="526" 
d="M262 1491q54 0 92.5 -38t38.5 -91q0 -56 -35.5 -92.5t-91.5 -36.5t-94.5 38t-38.5 93q0 54 36.5 90.5t92.5 36.5zM254 1026h18l123 -1012l-10 -14h-244l-8 14z" />
    <glyph glyph-name="questiondown.case" horiz-adv-x="882" 
d="M473 1233q-56 0 -91.5 36.5t-35.5 92.5q0 52 38 90.5t91 38.5q58 0 94.5 -36t36.5 -91t-39 -93t-94 -38zM709 356l131 -198q-180 -183 -418 -183q-160 0 -258 82t-98 213q0 101 53 190t182 206l227 211l-194 98l4 16h278l5 -14l-234 -348q-80 -119 -109.5 -189.5
t-29.5 -142.5q0 -109 64 -169t180 -60q98 0 186 30l16 256z" />
    <glyph glyph-name="periodcentered.case" horiz-adv-x="571" 
d="M285 604q-57 0 -93 36.5t-36 92.5q0 54 38.5 91.5t94.5 37.5t91.5 -36t35.5 -93q0 -53 -38.5 -91t-92.5 -38z" />
    <glyph glyph-name="bullet.case" horiz-adv-x="686" 
d="M346 535q-92 0 -149.5 58t-57.5 148q0 87 61.5 147t149.5 60q91 0 149 -58t58 -147q0 -85 -62.5 -146.5t-148.5 -61.5z" />
    <glyph glyph-name="parenleft.case" horiz-adv-x="532" 
d="M479 -240q-9 7 -23.5 19.5t-56.5 58.5t-80.5 98.5t-85.5 138.5t-81 178.5t-57 219t-23 260.5t22.5 259.5t58.5 220t79.5 177.5t86.5 139.5t79 97.5t58 60l23 19l13 -10q-97 -117 -146 -235t-69.5 -284t-20.5 -444t20.5 -444t69.5 -283.5t146 -234.5z" />
    <glyph glyph-name="parenright.case" horiz-adv-x="532" 
d="M53 -240l-10 11q140 170 186.5 363t46.5 599q0 278 -20 444t-69 284t-144 235l10 10q9 -7 23.5 -19.5t57 -58.5t81 -98.5t85.5 -138.5t81 -178.5t57 -219t23 -260.5t-22.5 -259.5t-58.5 -220t-79.5 -177.5t-87 -139.5t-79.5 -97.5t-58 -60z" />
    <glyph glyph-name="braceleft.case" horiz-adv-x="690" 
d="M623 -221q-433 0 -433 651v55q0 123 -34.5 172t-145.5 70v16q111 21 145.5 69.5t34.5 168.5v55q0 652 433 652h55v-25h-45q-154 0 -222.5 -88.5t-56.5 -271.5l21 -291q6 -101 -43 -155.5t-203 -117.5v-8q154 -63 203 -117.5t43 -156.5l-21 -293q-12 -183 56.5 -272
t222.5 -89h45v-24h-55z" />
    <glyph glyph-name="braceright.case" horiz-adv-x="690" 
d="M68 -221h-54v24h43q154 0 222.5 89t56.5 272l-19 293q-7 102 41.5 156.5t202.5 117.5v8q-154 63 -202.5 117.5t-41.5 155.5l19 291q12 183 -56.5 271.5t-222.5 88.5h-43v25h54q432 0 432 -652v-55q0 -120 34.5 -168.5t145.5 -69.5v-16q-111 -21 -145.5 -70t-34.5 -172
v-55q0 -651 -432 -651z" />
    <glyph glyph-name="bracketleft.case" horiz-adv-x="608" 
d="M158 -221v1909h438v-25h-277v-1860h277v-24h-438z" />
    <glyph glyph-name="bracketright.case" horiz-adv-x="608" 
d="M451 -221h-439v24h277v1860h-277v25h439v-1909z" />
    <glyph glyph-name="hyphen.case" horiz-adv-x="763" 
d="M131 700v99l502 26v-125h-502z" />
    <glyph glyph-name="endash.case" horiz-adv-x="966" 
d="M131 700v99l703 26v-125h-703z" />
    <glyph glyph-name="emdash.case" horiz-adv-x="1386" 
d="M131 700v99l1124 26v-125h-1124z" />
    <glyph glyph-name="guillemotleft.case" horiz-adv-x="864" 
d="M406 362l-363 371l363 371l14 -8l-178 -363l178 -362zM772 362l-362 371l362 371l14 -8l-178 -363l178 -362z" />
    <glyph glyph-name="guillemotright.case" horiz-adv-x="864" 
d="M92 362l-14 9l178 362l-178 363l14 8l363 -371zM459 362l-15 9l179 362l-179 363l15 8l362 -371z" />
    <glyph glyph-name="guilsinglleft.case" horiz-adv-x="497" 
d="M406 362l-363 371l363 371l14 -8l-178 -363l178 -362z" />
    <glyph glyph-name="guilsinglright.case" horiz-adv-x="497" 
d="M92 362l-14 9l178 362l-178 363l14 8l363 -371z" />
    <glyph glyph-name="at.case" horiz-adv-x="1736" 
d="M1311 1167l16 -8l-123 -815q51 9 104 37.5t106 81t94.5 121t67.5 165.5t26 207q0 233 -144.5 361.5t-406.5 128.5q-171 0 -322 -65t-258.5 -177.5t-170 -270.5t-62.5 -337q0 -283 146.5 -423t442.5 -140q229 0 404 88l6 -15q-242 -133 -514 -133q-299 0 -463 151.5
t-164 426.5q0 266 123 482t339 339t482 123q286 0 443 -138.5t157 -391.5q0 -118 -30 -224.5t-79 -182.5t-111 -132t-126.5 -83.5t-124.5 -27.5q-35 0 -56 32t-36 108h-6q-128 -140 -295 -140q-138 0 -213.5 80t-75.5 226q0 149 65 274t179.5 198.5t253.5 73.5
q101 0 229 -61zM1065 467l90 602q-90 78 -176 78q-90 0 -165 -68t-117 -180t-42 -240q0 -270 222 -270q105 0 188 78z" />
    <glyph glyph-name="uni030C.alt" 
d="M-315 1030l-9 10q52 81 73.5 133.5t21.5 98.5q0 71 -60 119v14l142 129q94 -73 94 -170q0 -66 -54.5 -138.5t-195.5 -195.5h-12z" />
    <glyph glyph-name="uni0308.case" 
d="M-653 1108q-50 0 -82.5 32.5t-32.5 80.5q0 49 34.5 82.5t82.5 33.5q49 0 81.5 -32.5t32.5 -81.5q0 -46 -34.5 -80.5t-81.5 -34.5zM-203 1108q-50 0 -82 32.5t-32 80.5q0 49 34 82.5t84 33.5q48 0 80.5 -32.5t32.5 -81.5q0 -46 -35 -80.5t-82 -34.5z" />
    <glyph glyph-name="uni0307.case" 
d="M-223 1098q-56 0 -92.5 36t-36.5 89t38 89t93 36q56 0 92.5 -34.5t36.5 -88.5q0 -51 -39 -89t-92 -38z" />
    <glyph glyph-name="gravecomb.case" 
d="M-113 1094l-413 241l8 17h194l222 -246z" />
    <glyph glyph-name="acutecomb.case" 
d="M-512 1094l-12 12l221 246h194l9 -17z" />
    <glyph glyph-name="uni030B.case" 
d="M-811 1094l-14 12l190 246h174l6 -17zM-459 1094l-14 12l190 246h172l9 -17z" />
    <glyph glyph-name="uni0302.case" 
d="M-653 1092l-6 12l292 244h19l293 -244l-8 -12l-295 110z" />
    <glyph glyph-name="uni030C.case" 
d="M-414 1092l-293 243l7 13l294 -109l295 109l9 -13l-293 -243h-19z" />
    <glyph glyph-name="uni0306.case" 
d="M-391 1110q-45 0 -85.5 12.5t-68.5 32.5t-51.5 43.5t-38 47.5t-25 44t-14.5 32l-4 13l12 6q4 -5 11.5 -13t34.5 -28t56.5 -35.5t76.5 -28.5t96 -13q50 0 96.5 12t78 29.5t55.5 35t35 29.5l11 12l13 -6q-3 -9 -8.5 -24t-29 -54t-53 -68.5t-83 -54t-115.5 -24.5z" />
    <glyph glyph-name="tildecomb.case" 
d="M-793 1126l-18 11q58 121 93 161.5t79 40.5q42 0 209.5 -51t202.5 -51q26 0 46.5 18t57.5 74l21 -10q-58 -121 -93 -162t-79 -41q-42 0 -209.5 51.5t-202.5 51.5q-26 0 -48.5 -19t-58.5 -74z" />
    <glyph glyph-name="uni0304.case" 
d="M-690 1196v29l588 12v-41h-588z" />
    <glyph glyph-name="uni030F.case" 
d="M-465 1094l-356 241l8 17h172l190 -246zM-117 1094l-356 241l8 17h172l191 -246z" />
    <glyph glyph-name="uni0327.case" 
d="M-362 -520l-11 12q115 147 115 225q0 35 -30 75.5t-97 96.5l33 101h26l-28 -86q135 -40 198.5 -80.5t63.5 -87.5q2 -53 -63.5 -115t-206.5 -141z" />
    </font>
</defs>
</svg>
